<svg width="40" height="56" viewBox="0 0 40 56" fill="none" xmlns="http://www.w3.org/2000/svg">
<g clip-path="url(#clip0_8814_26690)">
<path d="M22.0025 10.3618C21.8878 10.6362 21.8504 10.769 21.7809 10.8811C21.5747 11.2173 21.277 11.4196 20.8751 11.3269C20.4718 11.2328 20.2077 10.9596 20.1884 10.5319C20.1651 10.0191 20.1664 9.50371 20.1896 8.9922C20.2077 8.60823 20.4254 8.34282 20.8093 8.25262C21.241 8.15084 21.6546 8.30932 21.7912 8.69714C21.9007 9.00766 22.1094 9.08754 22.3762 9.17C24.6657 9.87737 26.5056 11.1799 27.7954 13.2338C28.3829 14.1705 28.6522 15.2012 28.7333 16.2719C29.0593 20.5728 28.1729 24.6984 26.8393 28.7506C26.7002 29.1719 26.713 29.4863 27.1614 29.6796C27.5145 29.8316 27.4513 30.1047 27.3379 30.365C26.6344 31.9833 25.9812 33.6248 25.2017 35.2057C24.1761 37.2878 22.8489 39.1755 21.1908 40.8195C19.8907 42.1079 18.3768 42.9738 16.5601 43.301C16.4016 43.3294 16.1607 43.5833 16.1632 43.7288C16.1941 45.8805 16.5588 47.9356 18.0147 49.6454C18.9283 50.7174 20.0775 51.3513 21.4794 51.4866C22.7511 51.609 24.015 51.5549 25.23 51.1065C27.1292 50.4056 28.1085 48.8852 28.7089 47.0736C29.5567 44.5199 29.6958 41.8709 29.6739 39.2064C29.661 37.6486 29.6469 36.0883 30.1687 34.5937C30.38 33.9907 30.6853 33.4199 30.9959 32.7268C31.1183 32.9651 31.1763 33.0656 31.2226 33.1713C31.5319 33.8605 31.9764 34.4455 32.5923 34.8849C32.8138 35.0434 32.8886 35.1606 32.7482 35.4286C32.3461 36.1991 32.3166 37.0508 32.2843 37.896C32.2031 40.0528 32.1954 42.2136 32.0395 44.3653C31.8927 46.3843 31.3077 48.3054 30.2679 50.0615C28.83 52.4928 26.7234 53.856 23.8823 54.0918C22.6544 54.1936 21.4356 54.2065 20.236 53.9385C17.909 53.4193 16.1825 52.0676 15.0127 50.0036C14.0733 48.3453 13.6521 46.5324 13.4935 44.6539C13.3905 43.4376 13.4175 43.4183 12.2361 43.1013C10.0057 42.5048 8.4132 41.0463 7.0307 39.2992C4.92923 36.641 3.50035 33.6209 2.3227 30.4694C2.11655 29.9179 2.24024 29.6912 2.77881 29.4927C3.33027 29.2891 3.88172 29.0856 4.43576 28.8897C5.02587 28.681 5.2011 28.779 5.44203 29.3433C6.05663 30.785 6.6403 32.2423 7.32189 33.6531C8.07176 35.207 9.06902 36.6127 10.1526 37.9565C11.3908 39.4911 13.049 40.049 14.9417 40.0851C16.8719 40.1211 18.3574 39.2373 19.5621 37.8058C21.1211 35.953 22.2886 33.8619 23.2574 31.656C23.5911 30.8971 23.8862 30.1215 24.1916 29.3497C24.3513 28.9451 24.5524 28.663 25.0716 28.8137C25.1721 28.8434 25.4246 28.6526 25.4697 28.5174C26.1861 26.3708 26.7813 24.1908 27.088 21.945C27.3212 20.2403 27.4591 18.5332 27.3689 16.804C27.258 14.6897 26.3678 13.0276 24.6425 11.8448C23.8269 11.2843 22.9172 10.8681 22.0025 10.3618Z" fill="#434343"/>
<path d="M15.0043 1.88C15.4411 2.52037 15.9332 3.1298 16.303 3.80624C17.6069 6.19116 17.938 8.75001 17.6185 11.4313C17.241 14.6009 16.0569 17.4819 14.3857 20.1425C12.5974 22.9926 9.94573 24.7371 6.66925 25.5063C6.07012 25.6467 5.45037 25.697 4.84995 25.8323C4.52139 25.907 4.40157 25.7615 4.33329 25.4985C4.12455 24.6972 4.14388 23.8777 4.51367 23.1549C5.10249 22.0043 5.73898 20.8692 6.45665 19.7959C7.6549 18.0011 8.93305 16.2604 10.1764 14.4952C10.2073 14.4502 10.2241 14.3947 10.1803 14.2839C9.51543 14.9062 8.83255 15.5131 8.18704 16.1547C6.59709 17.737 5.15918 19.4428 4.06142 21.4116C3.22522 22.9127 2.99716 24.4987 3.43524 26.1724C3.56536 26.6685 3.66973 27.171 3.80115 27.667C3.88104 27.9711 3.81017 28.1644 3.48033 28.225C3.39271 28.2417 3.30381 28.2713 3.22393 28.3139C2.88893 28.4903 2.69309 28.4027 2.6145 28.0265C2.33618 26.702 1.98186 25.3878 1.78602 24.0516C1.46649 21.8548 1.70227 19.6863 2.42638 17.5836C3.17496 15.4074 4.55361 13.6435 6.12036 12.0021C7.82241 10.2201 9.81305 8.80413 11.8269 7.41003C12.4814 6.95649 13.114 6.45529 13.69 5.90383C14.6925 4.94265 15.0751 3.74181 14.8651 2.3593C14.8445 2.22789 14.8457 2.0926 14.8368 1.95989C14.8922 1.93412 14.9489 1.90706 15.0043 1.88Z" fill="#434343"/>
<path d="M35.0082 34.7806C33.1915 34.7625 31.854 33.3955 31.8773 31.5801C31.8978 29.9179 33.3499 28.5573 35.0868 28.5728C36.8134 28.5883 38.2538 30.0159 38.246 31.7024C38.2371 33.4238 36.7901 34.7986 35.0082 34.7806Z" fill="#434343"/>
</g>
<defs>
<clipPath id="clip0_8814_26690">
<rect width="40" height="56" fill="white"/>
</clipPath>
</defs>
</svg>
