<svg width="189" height="70" viewBox="0 0 189 70" fill="none" xmlns="http://www.w3.org/2000/svg">
<path d="M0 24.7696H4.20371H8.50518L20.2365 54.764L41.0595 0H45.2632H49.5647L23.4626 67.8261H20.2365H17.0104L0 24.7696Z" fill="#00ABBC"/>
<path d="M13.6865 42.9597L30.0126 0H34.2163H38.5177L16.9126 56.1186L13.6865 42.9597Z" fill="#00ABBC"/>
<path d="M107.341 66.7618V41.2181H103.528V34.4452H107.341V23.6085H115.162V34.4452H119.952V41.2181H115.162V66.7618H107.341ZM92.4814 23.6085H100.302V30.7685H92.4814V23.6085ZM92.4814 66.7618V34.4452H96.3918H100.302V66.7618H96.3918H92.4814ZM74.2979 66.7618V34.4452H77.915H81.5322V36.8641L81.9232 36.3803C83.3896 34.3485 85.6381 33.3809 88.6687 33.3809H89.1575V40.8311C86.909 41.0246 85.2471 41.5084 84.074 42.5727C82.8031 43.637 82.1187 45.4754 82.1187 47.9911V66.7618H78.2083H74.2979ZM61.8823 47.8943C61.4912 46.1527 60.7092 44.7014 59.536 43.3468C57.7763 41.4117 55.6256 40.3473 52.9861 40.3473C50.3465 40.3473 48.1958 41.3149 46.4361 43.3468C45.263 44.6046 44.4809 46.1527 44.0898 47.8943H61.8823ZM52.8883 67.8261C48.1958 67.8261 44.1876 66.1812 40.8637 62.7948C37.5399 59.4083 35.8779 55.3445 35.8779 50.6035C35.8779 45.7657 37.5399 41.7019 40.8637 38.3155C44.1876 34.929 48.1958 33.2841 52.9861 33.2841C57.6786 33.2841 61.7845 34.929 65.1084 38.3155C68.4322 41.7019 70.0942 45.7657 70.0942 50.6035C70.0942 51.7646 69.9964 52.9256 69.8009 53.99H44.2853C44.7742 55.3445 45.4585 56.6991 46.5338 57.7635C48.2935 59.6986 50.542 60.6661 53.1816 60.6661C54.8435 60.6661 56.3099 60.2791 57.6786 59.5051C59.0472 58.731 60.0248 57.7635 60.7091 56.5056H69.0188C67.9434 59.8921 65.9882 62.698 63.0554 64.7299C60.1226 66.8585 56.701 67.8261 52.8883 67.8261Z" fill="#00ABBC"/>
<path d="M186.636 23.1084V67.2617H181.529V62.71L181.223 63.0391L181.208 63.0537C177.882 66.3451 173.647 68.0361 168.637 68.0361C163.812 68.0361 159.775 66.3388 156.456 63.0537C153.128 59.7597 151.518 55.6609 151.518 50.7969C151.518 45.9285 153.13 41.9315 156.45 38.5459L156.456 38.54C159.775 35.255 163.812 33.5576 168.637 33.5576C173.495 33.5577 177.526 35.1475 180.881 38.2324L181.203 38.5352L181.223 38.5547L181.529 38.8828V23.1084H186.636ZM148.411 23.1084V27.9785H128.957V42.46H147.824V47.3301H128.957V62.3916H148.411V67.2617H123.558V23.1084H148.411ZM169.125 38.1377C165.637 38.1378 162.64 39.3459 160.196 41.8574L160.189 41.8633C157.748 44.2794 156.525 47.3422 156.525 50.8936C156.525 54.4362 157.742 57.4057 160.189 59.9238L160.654 60.3633C163.003 62.4913 165.764 63.5527 169.125 63.5527C172.613 63.5527 175.61 62.3453 178.054 59.834L178.061 59.8271C180.502 57.411 181.726 54.3483 181.726 50.7969C181.726 47.2541 180.508 44.2848 178.061 41.7666C175.614 39.345 172.71 38.1377 169.125 38.1377Z" fill="#E0E0E0" stroke="#E0E0E0"/>
</svg>
