<svg width="238" height="65" viewBox="0 0 238 65" fill="none" xmlns="http://www.w3.org/2000/svg">
<path d="M10.732 0.217421C6.24311 0.917995 2.29914 4.13545 0.664462 8.46863C0.093624 9.94762 0.093624 10.1293 0.0157824 31.6135C-0.036112 46.0921 0.0417296 53.6946 0.22336 54.5509C1.20935 59.2214 5.25712 63.1653 10.0055 64.1773C12.6002 64.7222 51.6766 64.7222 54.2714 64.1773C59.0197 63.1653 63.0675 59.2214 64.0535 54.5509C64.2351 53.6946 64.3129 46.0921 64.261 31.6135C64.1832 10.1293 64.1832 9.94762 63.6124 8.46863C61.9517 4.03166 58.0337 0.892048 53.2854 0.191474C51.3912 -0.0679984 12.5742 -0.0679984 10.732 0.217421ZM36.8608 31.873C40.8307 42.3557 44.152 51.1518 44.2298 51.3853C44.3595 51.8264 44.0482 51.8523 40.0004 51.8523H35.6413L30.867 39.1901C28.2204 32.2363 25.8851 26.0868 25.6516 25.5419L25.2365 24.504L24.1726 27.2285C23.6018 28.7074 21.2925 34.8569 19.0091 40.8767L14.8835 51.8523H10.4984C7.12531 51.8523 6.16527 51.7745 6.24311 51.515C6.295 51.3594 9.61625 42.5373 13.6121 31.9508L20.8514 12.6721L25.2365 12.7499L29.6475 12.8018L36.8608 31.873ZM50.7426 32.1325C54.7644 42.7708 58.0856 51.541 58.0856 51.6448C58.0856 51.7745 56.1396 51.8523 53.7524 51.8523H49.3933L42.1281 32.6255C38.1322 22.039 34.8369 13.2429 34.785 13.0353C34.7072 12.724 35.3818 12.6721 39.0663 12.724L43.4254 12.8018L50.7426 32.1325Z" fill="#00CCBE"/>
<path d="M91.9811 18.8653C91.7995 19.3583 83.6002 42.4254 82.7439 44.8385L82.2769 46.2137L85.5462 46.1358L88.8155 46.058L89.6459 43.593L90.4762 41.128H95.3542H100.232L101.063 43.593L101.893 46.058L105.162 46.1358L108.458 46.2137L107.368 43.1519C106.771 41.4653 104.566 35.238 102.464 29.322L98.6495 18.5539L95.4061 18.4761C92.5001 18.4242 92.1627 18.4501 91.9811 18.8653ZM96.9111 30.9048C97.6895 33.2401 98.3382 35.238 98.3382 35.3418C98.3382 35.4456 96.9889 35.5494 95.3542 35.5494C93.7196 35.5494 92.3703 35.4715 92.3703 35.3677C92.3703 34.9526 95.2764 26.4419 95.3802 26.5457C95.458 26.5976 96.1327 28.5696 96.9111 30.9048Z" fill="#00CCBE"/>
<path d="M109.236 32.306V46.1877H112.35H115.463V32.306V18.4242H112.35H109.236V32.306Z" fill="#00CCBE"/>
<path d="M126.88 32.306V46.1877H129.994H133.108V39.3895C133.108 35.6532 133.186 32.6952 133.315 32.799C133.419 32.9027 134.846 35.9386 136.481 39.5193L139.491 46.058H141.489H143.513L146.548 39.3895L149.584 32.7471L149.662 39.4674L149.714 46.1877H152.957H156.201L156.149 32.3579L156.071 18.5539H153.243H150.414L146.003 28.2323C143.59 33.5514 141.515 37.8068 141.385 37.703C141.281 37.5992 139.231 33.2141 136.844 27.9468L132.511 18.4242H129.683H126.88V32.306Z" fill="#00CCBE"/>
<path d="M159.055 32.306V46.1877H169.044H179.034V43.074V39.9604H172.158H165.282V37.6251V35.2899H171.38H177.477V32.1762V29.0626H171.38H165.282V26.857V24.6515H171.899H178.515V21.5379V18.4242H168.785H159.055V32.306Z" fill="#00CCBE"/>
<path d="M181.11 32.28V46.1877H186.507C190.321 46.1877 192.345 46.058 193.513 45.7985C198.676 44.579 202.983 40.0642 203.917 34.9266C204.929 29.3999 202.542 23.8212 197.898 20.7595C195.044 18.8913 193.746 18.6318 187.026 18.4761L181.11 18.3723V32.28ZM192.864 25.0667C194.551 25.6375 196.471 27.4279 197.197 29.1145C198.105 31.2421 198.027 33.759 196.99 35.8867C195.562 38.7668 193.461 39.9344 189.75 39.9604H187.337V32.306V24.6515H189.491C190.788 24.6515 192.137 24.8072 192.864 25.0667Z" fill="#00CCBE"/>
<path d="M205.76 32.306V46.1877H208.873H211.987V32.306V18.4242H208.873H205.76V32.306Z" fill="#00CCBE"/>
<path d="M214.841 32.306V46.1877H217.955H221.069L221.121 40.0123L221.198 33.8628L225.687 40.0123L230.176 46.1877H233.679C235.599 46.1877 237.156 46.1358 237.156 46.058C237.156 46.0061 234.873 42.8405 232.096 39.0522C229.19 35.1342 227.088 32.0465 227.192 31.8649C227.296 31.7092 229.45 28.6474 232.018 25.0667L236.637 18.5539L233.238 18.4761C231.37 18.4502 229.709 18.528 229.527 18.6577C229.372 18.7875 227.478 21.4081 225.35 24.4959C223.196 27.5576 221.38 30.0745 221.276 30.1004C221.146 30.1004 221.069 27.4798 221.069 24.2623V18.4242H217.955H214.841V32.306Z" fill="#00CCBE"/>
</svg>
