<svg width="243" height="56" viewBox="0 0 243 56" fill="none" xmlns="http://www.w3.org/2000/svg">
<path d="M38.7388 11.854C38.527 12.0821 38.3151 12.3102 37.9404 12.6029C37.6836 12.6846 37.5909 12.707 37.4346 12.6847C37.1905 12.7789 37.0114 12.923 36.7618 13.1593C36.4201 14.3798 35.9248 15.5061 35.9142 16.637C35.8441 24.1455 35.8558 31.6551 35.8992 39.1641C35.9065 40.4317 35.5924 41.0931 34.2015 41.0334C32.7553 40.9714 31.2935 40.9263 29.857 41.0651C27.411 41.3015 27.0976 41.097 27.0968 38.6984C27.0942 31.1352 27.1035 23.5719 27.0882 16.0087C27.085 14.4101 26.8594 12.8809 25.1243 12.1347C25.1132 12.1414 25.0873 12.1396 25.0907 12.02C24.5767 11.4257 24.1109 10.6253 23.5328 10.5337C21.2658 10.1746 18.9664 9.99715 16.6733 9.83039C13.3186 9.58644 9.75954 12.3741 9.83108 16.5245C10.037 28.4675 9.88329 40.4165 9.9296 52.3629C9.93525 53.8204 9.5356 54.4377 8.00667 54.3298C6.44682 54.2197 4.87308 54.3091 3.30543 54.3061C1.12944 54.3018 1.12198 54.2997 1.12151 52.1694C1.11884 40.3309 1.09465 28.4923 1.14623 16.6541C1.15437 14.7837 1.37687 12.889 1.73158 11.0502C2.73371 5.85497 6.7596 1.94113 11.9474 1.4076C15.4781 1.04449 19.0591 1.03882 22.6144 1.09084C25.092 1.12708 27.341 2.01455 29.1505 3.85149C29.5282 4.23493 30.1654 4.36276 30.6806 4.60939C30.6783 4.61039 30.6836 4.60784 30.7153 4.70667C31.5754 5.53922 31.9568 4.99513 32.2818 4.27095C32.2886 4.27112 32.2756 4.27751 32.387 4.25989C32.9646 3.88888 33.3934 3.46436 33.9043 3.1963C35.1271 2.55472 36.3523 1.58077 37.6411 1.46604C41.3362 1.13709 45.0758 0.941937 48.7733 1.14362C50.9604 1.26291 53.0984 2.24314 55.265 2.81144C55.6254 2.906 56.0192 2.87348 56.4757 2.93554C56.6936 3.06967 56.8334 3.16794 56.9898 3.38009C57.3598 3.96185 57.6921 4.44745 58.0697 4.89469C60.1768 7.38993 61.561 10.1322 61.5397 13.522C61.4852 22.1798 61.5214 30.8382 61.5214 39.4963C61.5214 44.3515 61.5214 49.2066 61.5214 54.2902C59.3566 54.2902 57.2084 54.2939 55.0603 54.2892C52.8213 54.2843 52.7599 54.2303 52.7591 52.0278C52.7548 40.231 52.7572 28.4343 52.7515 16.6376C52.7512 15.9901 52.8413 15.2903 52.6283 14.7108C52.4404 14.1997 51.887 13.8231 51.4413 13.3086C51.3033 13.0607 51.219 12.8913 51.1329 12.6001C50.508 11.8134 49.9564 10.674 49.2493 10.5676C46.5098 10.1555 43.7211 9.95516 40.95 9.94655C40.2311 9.94431 39.5092 10.925 38.7689 11.5195C38.7143 11.6733 38.7108 11.7631 38.7388 11.854Z" fill="#7ED8BD"/>
<path d="M134.38 35.1832C134.424 35.3438 134.469 35.5045 134.5 35.8289C134.495 36.064 134.534 36.0974 134.605 36.0929C134.745 36.5039 134.884 36.9149 134.978 37.5747C135.061 38.2432 135.188 38.663 135.316 39.0828C135.385 42.3716 135.469 45.6602 135.518 48.9493C135.546 50.8399 135.516 52.7313 135.329 54.777C132.396 54.9426 129.645 54.8803 126.901 54.9944C125.448 55.0549 125.062 54.5515 125.094 53.147C125.181 49.2681 125.23 45.3814 125.068 41.5073C125.006 40.0136 125.42 38.2599 123.956 37.0611C123.29 35.1461 122.03 34.0135 120.243 34.0037C113.372 33.966 106.501 33.9896 99.6293 33.9972C99.477 33.9974 99.3248 34.0784 99.043 34.1587C99.0073 34.5973 98.9374 35.0608 98.9367 35.5242C98.9281 41.6382 98.8942 47.7525 98.9579 53.8658C98.9705 55.0717 98.5659 55.3304 97.4646 55.3018C94.9234 55.236 92.3743 55.1947 89.838 55.3266C88.3632 55.4033 88.0389 54.9107 88.043 53.5063C88.0906 37.0581 88.0744 20.6096 88.0751 4.16127C88.0752 2.86822 88.0751 1.57518 88.0751 0.181417C88.596 0.134618 89.0097 0.0651579 89.4235 0.0649894C99.866 0.0605999 110.309 0.0394544 120.751 0.0739866C127.16 0.0951914 133.047 4.18259 134.8 10.299C136.111 14.8715 136.012 19.5909 134.268 24.1444C133.353 26.5331 131.481 28.0605 129.546 29.3305C131.018 30.9758 132.466 32.5956 133.921 34.4209C134.078 34.812 134.229 34.9976 134.38 35.1832ZM89.1182 20.3658C89.1185 25.0738 89.119 29.7818 89.1193 34.4899C89.1196 40.3884 89.1151 46.2869 89.1227 52.1855C89.1253 54.174 89.2389 54.2776 91.2584 54.2878C92.9359 54.2962 94.6186 54.2091 96.2894 54.3158C97.5699 54.3975 97.8988 53.7893 97.8817 52.7008C97.842 50.1736 97.8097 47.6462 97.7803 45.1188C97.7428 41.905 97.6582 38.6905 97.6956 35.4775C97.7202 33.3625 98.3108 32.876 100.513 32.8719C106.357 32.861 112.21 33.0574 118.044 32.8085C123.091 32.593 125.579 35.9642 125.772 40.7403C125.934 44.7383 125.828 48.7482 125.792 52.7524C125.783 53.8408 126.137 54.3362 127.287 54.3033C129.288 54.2461 131.292 54.2709 133.294 54.2923C134.175 54.3017 134.601 53.9375 134.566 53.0387C134.357 47.7097 134.223 42.3766 133.922 37.0529C133.768 34.3392 131.88 32.5669 129.851 31.0997C127.964 29.7345 127.869 29.2241 129.868 27.9233C131.502 26.8601 132.667 25.4816 133.412 23.6378C134.691 20.4731 134.7 17.1926 134.495 13.9037C134.264 10.2129 132.892 6.9677 130.045 4.49924C127.029 1.88404 123.363 1.08077 119.504 1.06409C110.088 1.02338 100.672 1.04797 91.2561 1.05335C89.2368 1.05451 89.1267 1.16261 89.1237 3.15718C89.1149 8.78513 89.1191 14.4131 89.1182 20.3658Z" fill="#7ED8BD"/>
<path d="M239.134 4.60461C241.806 6.85854 242.883 9.94274 242.913 13.2263C243.037 26.8564 242.969 40.4882 243 54.1194C243.002 55.0479 242.673 55.3749 241.778 55.3672C238.965 55.3429 236.151 55.3228 233.34 55.3794C232.231 55.4017 231.969 54.9321 231.977 53.921C232.013 49.0529 231.943 44.1836 232.026 39.3167C232.051 37.8125 231.574 37.3835 230.082 37.4014C223.376 37.4818 216.668 37.4832 209.961 37.4223C208.636 37.4103 208.293 37.862 208.305 39.0957C208.352 43.9636 208.278 48.8329 208.352 53.7C208.372 54.9891 208.007 55.4157 206.714 55.3776C204.011 55.298 201.305 55.3392 198.601 55.3687C197.777 55.3777 197.279 55.2385 197.282 54.2342C197.321 40.604 197.333 26.9738 197.353 13.3436C197.353 13.2907 197.375 13.2378 197.492 13.2371C197.615 14.8572 197.647 16.4251 197.647 17.9931C197.653 29.7295 197.67 41.466 197.628 53.2022C197.623 54.5044 197.933 55.0438 199.327 54.9831C201.648 54.882 203.978 54.9242 206.303 54.9624C207.354 54.9797 207.906 54.6892 207.892 53.5062C207.831 48.376 207.826 43.2451 207.827 37.987C207.894 37.6055 207.935 37.3513 208.126 37.0798C215.739 37.052 223.202 37.0764 230.664 37.002C232.183 36.9869 232.629 37.5099 232.608 38.9778C232.538 43.7901 232.6 48.6043 232.569 53.4174C232.562 54.48 232.848 55.0094 234.029 54.977C236.353 54.9135 238.68 54.9266 241.005 54.9745C242.077 54.9966 242.405 54.5473 242.403 53.5234C242.377 39.8946 242.432 26.2653 242.326 12.6372C242.304 9.85069 241.316 7.23533 239.151 5.25128C239.158 5.24882 239.165 5.23599 239.153 5.13081C239.139 4.88528 239.136 4.74495 239.134 4.60461Z" fill="#7ED8BD"/>
<path d="M69.8529 6.89098C69.8528 4.57889 69.8528 2.42912 69.8528 0.168457C73.3925 0.168457 76.7728 0.168457 80.2539 0.168457C80.2539 18.4886 80.2539 36.7899 80.2539 55.1924C76.8473 55.1924 73.4719 55.1924 69.853 55.1924C69.853 39.112 69.853 23.0826 69.8529 6.89098ZM70.6164 16.4695C70.6164 19.9846 70.5841 23.5002 70.6246 27.0148C70.6717 31.1005 70.8497 35.1854 70.8477 39.2706C70.8454 43.787 70.7082 48.3034 70.619 52.8195C70.5989 53.8405 71.0669 54.3002 72.087 54.2893C73.9255 54.2698 75.7644 54.2961 77.603 54.2854C79.5888 54.2739 79.6923 54.1735 79.6934 52.1442C79.6988 42.5722 79.7349 33 79.6823 23.4282C79.6443 16.5148 79.4653 9.60217 79.3977 2.6887C79.3865 1.54654 79.0852 0.987922 77.8393 1.03341C75.949 1.10246 74.0541 1.07572 72.1618 1.04559C71.0623 1.02809 70.5366 1.5091 70.6219 2.60422C70.6845 3.40901 70.8716 4.21177 70.86 5.01337C70.8062 8.72426 70.7024 12.4344 70.6164 16.4695Z" fill="#7ED8BD"/>
<path d="M30.6829 4.60833C30.1653 4.36271 29.5282 4.23488 29.1505 3.85144C27.341 2.0145 25.0919 1.12703 22.6143 1.09078C19.059 1.03877 15.4781 1.04444 11.9473 1.40755C6.75954 1.94107 2.73366 5.85492 1.73152 11.0502C1.37682 12.889 1.15432 14.7837 1.14617 16.654C1.0946 28.4923 1.11879 40.3309 1.12145 52.1694C1.12193 54.2997 1.12939 54.3017 3.30537 54.306C4.87302 54.3091 6.44676 54.2197 8.00662 54.3298C9.53554 54.4377 9.93519 53.8203 9.92955 52.3629C9.88323 40.4165 10.0369 28.4675 9.83102 16.5244C9.75948 12.3741 13.3186 9.58639 16.6732 9.83034C18.9663 9.99709 21.2657 10.1745 23.5327 10.5337C24.1108 10.6252 24.5766 11.4256 24.9954 12.0023C24.7674 12.0983 24.6381 12.0923 24.5088 12.0863C24.2529 11.923 23.9971 11.7597 23.6284 11.4439C23.202 11.2063 22.8883 11.1212 22.5746 11.0362C19.8505 11.0556 17.1263 11.075 14.1656 11.0931C13.7637 11.2243 13.5984 11.3568 13.433 11.4893C13.1891 11.6585 12.9452 11.8276 12.4903 12.0654C10.8021 13.2774 10.5189 14.8914 10.519 16.6138C10.5196 29.4656 10.5217 42.3173 10.5233 55.169C7.31241 55.2183 4.10135 55.2939 0.890983 55.2704C0.61425 55.2683 0.342324 54.6101 0.182129 54.0063C0.35037 53.1698 0.4514 52.5837 0.451994 51.9975C0.462983 41.2643 0.50026 30.531 0.445881 19.7982C0.421802 15.0441 0.214203 10.2921 2.76782 5.98594C3.44128 5.25577 4.11474 4.5256 4.96043 3.73069C5.20919 3.56198 5.28572 3.45801 5.36227 3.35404C5.36227 3.35404 5.3605 3.33159 5.45915 3.32646C5.71547 3.16597 5.87314 3.0106 6.03081 2.85525C6.07599 2.81257 6.12115 2.7699 6.35997 2.6992C7.0287 2.34773 7.50378 2.02429 7.97885 1.70084C8.16722 1.5833 8.3556 1.46575 8.76714 1.33465C9.39868 1.12716 9.80706 0.933234 10.2155 0.739309C10.4093 0.686921 10.6032 0.634524 11.0192 0.616341C11.7609 0.483405 12.2806 0.316264 12.8002 0.149123C16.2838 0.126224 19.7673 0.103325 23.4828 0.192464C24.6941 0.568601 25.6734 0.832689 26.6528 1.09678C26.7275 1.10857 26.8023 1.12036 27.0143 1.28258C27.6769 1.73709 28.2021 2.04117 28.7274 2.34525C28.8949 2.46465 29.0624 2.58406 29.3047 2.88034C29.6595 3.27 29.9398 3.48279 30.22 3.69558C30.22 3.69558 30.2885 3.70497 30.3073 3.83121C30.4451 4.17441 30.564 4.39137 30.6829 4.60833Z" fill="#7ED8BD"/>
<path d="M183.136 2.2772C183.254 2.32581 183.372 2.37443 183.558 2.58674C183.729 2.93709 183.833 3.12375 183.932 3.31486C183.929 3.31931 183.921 3.32793 183.8 3.31883C180.488 1.94559 177.27 0.949135 173.692 1.00446C164.82 1.14165 155.944 1.04857 147.069 1.04894C144.386 1.04905 144.31 1.11706 144.309 3.74886C144.306 15.5295 144.307 27.3102 144.307 39.0909C144.307 43.5822 144.331 48.0736 144.295 52.5646C144.285 53.8094 144.756 54.3443 146.017 54.3008C147.584 54.2468 149.155 54.2977 150.724 54.2872C152.785 54.2735 153.074 53.9927 153.077 51.9373C153.086 46.6885 153.068 41.4396 153.095 36.1909C153.098 35.5117 153.302 34.8335 153.457 34.2194C153.564 34.3692 153.642 34.438 153.734 34.4904C153.76 41.2128 153.786 47.9352 153.701 54.8327C153.513 55.0598 153.454 55.1272 153.412 55.2102C153.354 55.2301 153.296 55.2499 153.038 55.1701C149.896 55.1182 146.953 55.1661 144.01 55.2139C143.859 55.2402 143.709 55.2665 143.457 55.0956C143.358 37.5416 143.359 20.1848 143.361 2.82804C143.361 0.403965 143.361 0.386188 145.711 0.402805C156.785 0.481154 167.859 0.570075 178.933 0.655231C179.027 0.596383 179.128 0.582729 179.381 0.737573C180.73 1.33299 181.933 1.80509 183.136 2.2772Z" fill="#7ED8BD"/>
<path d="M51.4951 13.3871C51.8871 13.8231 52.4404 14.1998 52.6283 14.7108C52.8414 15.2903 52.7512 15.9901 52.7515 16.6376C52.7573 28.4343 52.7549 40.2311 52.7592 52.0278C52.76 54.2303 52.8214 54.2844 55.0603 54.2892C57.2085 54.2939 59.3566 54.2903 61.5214 54.2903C61.5214 49.2066 61.5214 44.3515 61.5215 39.4964C61.5215 30.8382 61.4853 22.1799 61.5397 13.5221C61.5611 10.1322 60.1769 7.38996 58.0698 4.89472C57.6921 4.44748 57.3599 3.96188 57.0955 3.4008C57.3264 3.31402 57.4684 3.32044 57.6105 3.32686C57.7715 3.4415 57.9326 3.55616 58.1774 3.84311C58.6023 4.31634 58.9433 4.61728 59.2844 4.91821C59.2844 4.91821 59.2563 4.93769 59.2712 5.0385C60.1711 6.7133 61.056 8.28729 61.941 9.86128C61.9893 9.99631 62.0376 10.1313 62.0235 10.4627C62.1463 11.2444 62.3314 11.8298 62.5166 12.4151C62.5522 13.6018 62.618 14.7884 62.6188 15.975C62.6266 28.4542 62.6311 40.9335 62.6032 53.4127C62.6018 54.031 62.294 54.6487 61.8726 55.1824C58.8806 55.1466 56.1448 55.1951 53.4091 55.2437C53.161 55.2591 52.9129 55.2746 52.4919 55.1388C52.2509 54.352 52.1239 53.7165 52.1234 53.0809C52.1142 41.3299 52.1264 29.5788 52.1074 17.8278C52.1062 17.1032 51.8836 16.379 51.764 15.6546C51.7325 15.4434 51.701 15.2322 51.7114 14.7955C51.6673 14.1757 51.5812 13.7814 51.4951 13.3871Z" fill="#7ED8BD"/>
<path d="M207.801 38.1145C207.826 43.2451 207.831 48.376 207.892 53.5062C207.906 54.6892 207.354 54.9798 206.303 54.9625C203.978 54.9242 201.648 54.8821 199.327 54.9831C197.933 55.0438 197.623 54.5044 197.628 53.2022C197.671 41.466 197.653 29.7295 197.647 17.9931C197.647 16.4251 197.615 14.8572 197.553 13.1373C197.498 12.858 197.486 12.7307 197.589 12.4243C197.872 11.6263 197.948 10.9612 198.228 10.397C199 8.83763 199.858 7.32036 200.717 5.82117C200.752 5.85587 200.822 5.92537 200.796 6.03632C198.919 8.84862 198.325 11.8594 198.532 15.0819C198.591 15.9973 198.542 16.9197 198.542 17.8388C198.542 29.3556 198.567 40.8724 198.514 52.3888C198.507 53.8914 198.977 54.4135 200.464 54.3144C202.079 54.2066 203.71 54.2223 205.327 54.3074C206.789 54.3842 207.354 53.8542 207.329 52.3516C207.258 48.1895 207.285 44.0252 207.326 39.8623C207.332 39.2782 207.636 38.697 207.801 38.1145Z" fill="#7ED8BD"/>
<path d="M178.827 0.592576C167.859 0.570023 156.785 0.481102 145.711 0.402753C143.361 0.386136 143.361 0.403913 143.361 2.82798C143.359 20.1848 143.358 37.5416 143.352 55.0454C143.215 54.7808 142.964 54.3692 142.963 53.9573C142.942 36.5053 142.956 19.0533 142.917 1.60132C142.914 0.41836 143.171 0.0100291 144.425 0.0155582C154.961 0.06205 165.497 0.0296584 176.034 0.0622979C176.93 0.0650824 177.826 0.367012 178.827 0.592576Z" fill="#7ED8BD"/>
<path d="M24.5474 12.1992C24.6382 12.0923 24.7675 12.0983 24.9921 12.1219C25.0874 12.1396 25.1132 12.1414 25.1505 12.2462C25.6165 13.9914 26.3871 15.626 26.4154 17.2734C26.5473 24.9486 26.4937 32.6275 26.4532 40.3048C26.447 41.4802 26.7718 41.9635 28.0101 41.9139C30.0614 41.8317 32.1183 41.8889 34.1728 41.8882C36.4978 41.8874 36.4993 41.8878 36.5001 39.6337C36.5029 32.1183 36.4604 24.6025 36.5474 17.0882C36.5631 15.7325 37.1099 14.3829 37.4366 12.9574C37.4617 12.8844 37.4996 12.7347 37.4996 12.7347C37.591 12.7069 37.6836 12.6846 37.8486 12.6757C37.5848 14.5177 36.9889 16.3475 36.9606 18.186C36.8448 25.6996 36.8799 33.216 36.9202 40.731C36.9263 41.8547 36.6236 42.2876 35.4685 42.264C32.7663 42.2086 30.062 42.2291 27.359 42.2624C26.3407 42.2749 25.9777 41.9718 25.9872 40.8491C26.0538 32.9559 26.0238 25.0619 26.0474 17.1682C26.0527 15.3881 25.7338 13.7321 24.5474 12.1992Z" fill="#7ED8BD"/>
<path d="M179.335 38.0461C179.257 37.9733 179.224 37.8839 179.29 37.5626C179.349 37.0508 179.352 36.7543 179.367 36.4496C179.379 36.4414 179.403 36.4251 179.498 36.4952C179.836 37.0361 180.228 37.4872 180.294 37.9816C180.491 39.4763 180.64 40.9865 180.664 42.4929C180.718 45.8462 180.712 49.2011 180.67 52.5546C180.654 53.7885 181.102 54.3445 182.375 54.302C184.05 54.246 185.733 54.2183 187.405 54.3098C188.789 54.3855 189.162 53.8051 189.145 52.5037C189.087 48.1225 189.206 43.7376 189.074 39.3597C189.032 37.9622 188.435 36.5777 188.062 35.1955C187.91 34.6305 187.677 34.087 187.559 33.3963C187.685 33.165 187.733 33.0711 187.781 32.9773C187.892 33.0644 188.003 33.1514 188.146 33.4669C188.641 34.6145 189.106 35.5336 189.571 36.4526C189.617 36.6993 189.663 36.946 189.638 37.4104C189.749 38.3152 189.932 39.0023 190.115 39.6893C190.088 44.843 190.061 49.9966 189.781 55.1168C186.476 55.1326 183.424 55.182 180.372 55.2313C180.313 55.2473 180.255 55.2632 180.121 55.141C179.963 54.7753 179.882 54.5477 179.8 54.3201C179.781 50.3986 179.762 46.477 179.833 42.2913C179.727 40.7001 179.531 39.3731 179.335 38.0461Z" fill="#7ED8BD"/>
<path d="M2.68389 6.04382C0.214223 10.2922 0.421821 15.0441 0.4459 19.7982C0.500279 30.5311 0.463002 41.2644 0.452014 51.9975C0.451419 52.5837 0.350389 53.1699 0.21779 53.8651C0.0943466 53.4953 0.010122 53.0164 0.00983469 52.5375C0.00226453 40.1185 0.00801141 27.6996 5.19319e-06 15.2806C-0.00212543 11.9697 0.650952 8.85478 2.68389 6.04382Z" fill="#7ED8BD"/>
<path d="M187.148 5.76489C189.151 7.58456 189.923 10.093 190.059 12.5587C190.248 15.9748 190.061 19.4633 189.558 22.8498C189.146 25.6151 187.082 27.5149 184.754 29.0157C184.527 29.1625 184.397 29.4607 184.139 29.8182C183.907 29.9463 183.757 29.9448 183.605 29.8204C183.875 29.2086 184.021 28.5322 184.434 28.2595C188.743 25.4155 189.547 21.1678 189.166 16.4898C188.932 13.613 188.495 10.7527 188.13 7.78319C187.908 7.41853 187.705 7.15564 187.502 6.89189C187.501 6.89102 187.5 6.88904 187.485 6.79143C187.363 6.38418 187.256 6.07454 187.148 5.76489Z" fill="#7ED8BD"/>
<path d="M10.635 55.1396C10.5217 42.3173 10.5197 29.4656 10.519 16.6139C10.519 14.8914 10.8021 13.2774 12.3898 12.1133C11.3063 13.6629 10.9086 15.4337 10.915 17.3986C10.9537 29.3889 10.9381 41.3795 10.9282 53.3699C10.9277 53.95 10.8098 54.53 10.635 55.1396Z" fill="#7ED8BD"/>
<path d="M51.7163 15.7776C51.8836 16.379 52.1062 17.1032 52.1074 17.8278C52.1264 29.5788 52.1141 41.3299 52.1233 53.0809C52.1238 53.7165 52.2509 54.352 52.3704 55.1105C51.1243 55.2584 51.673 54.2641 51.6717 53.7177C51.6432 42.0315 51.6514 30.3452 51.6537 18.6589C51.6539 17.7394 51.6635 16.82 51.7163 15.7776Z" fill="#7ED8BD"/>
<path d="M207.963 0.688347C208.072 0.659909 208.18 0.631461 208.518 0.643361C210.839 0.573237 212.931 0.359832 215.021 0.372089C220.721 0.405481 226.42 0.534187 232.119 0.625129C232.233 0.622523 232.347 0.619917 232.616 0.737485C234.387 1.78416 236.005 2.71067 237.489 3.63666C236.706 3.38967 236.068 3.10496 235.404 2.90376C233.312 2.26938 231.23 1.23157 229.109 1.13564C223.555 0.884462 217.98 0.992775 212.416 1.06852C208.469 1.12222 204.887 2.2535 202.026 5.16335C201.702 5.49327 201.227 5.67495 200.822 5.92535C200.822 5.92535 200.752 5.85585 200.764 5.72876C201.232 4.98387 201.687 4.36607 202.142 3.74827C202.287 3.6276 202.432 3.50693 202.782 3.34735C204.645 2.43506 206.304 1.5617 207.963 0.688347Z" fill="#7ED8BD"/>
<path d="M175.592 33.9288C168.557 33.9425 161.522 33.9561 154.235 33.9073C153.906 33.8323 153.83 33.8196 153.764 33.6821C154.255 33.3284 154.727 32.9205 155.215 32.9021C157.211 32.8266 159.212 32.8391 161.21 32.8756C166.009 32.9633 170.811 33.0048 175.601 33.2619C176.457 33.3078 177.263 34.2986 177.974 34.8462C177.7 34.8381 177.543 34.8369 177.386 34.8357C177.329 34.8081 177.272 34.7804 177.116 34.5782C176.541 34.2455 176.067 34.0872 175.592 33.9288Z" fill="#7ED8BD"/>
<path d="M56.3976 2.89961C56.0192 2.87341 55.6255 2.90593 55.265 2.81137C53.0984 2.24306 50.9604 1.26283 48.7734 1.14354C45.0758 0.941859 41.3363 1.13701 37.6412 1.46596C36.3524 1.58069 35.1271 2.55464 33.9043 3.19622C33.3935 3.46429 32.9647 3.88881 32.3651 4.18167C32.1546 3.97876 32.0774 3.83636 32.0002 3.69396C32.0701 3.60507 32.14 3.51617 32.3837 3.37734C32.9217 2.96749 33.2858 2.60757 33.6498 2.24766C33.8107 2.10539 33.9715 1.96313 34.3479 1.7673C36.6204 1.17857 38.6773 0.643417 40.7342 0.108254C42.5863 0.0948871 44.4383 0.0815101 46.555 0.15326C48.5221 0.364108 50.2247 0.489841 51.9272 0.615573C52.14 0.625046 52.3528 0.634519 52.7142 0.7919C54.0411 1.59308 55.2193 2.24635 56.3976 2.89961Z" fill="#7ED8BD"/>
<path d="M124.019 37.1824C125.42 38.2599 125.006 40.0135 125.068 41.5073C125.23 45.3814 125.182 49.2681 125.094 53.147C125.062 54.5514 125.448 55.0549 126.901 54.9944C129.645 54.8803 132.396 54.9426 135.289 54.9225C135.035 55.0629 134.638 55.3365 134.237 55.3421C131.491 55.3804 128.743 55.3124 125.999 55.3861C124.803 55.4182 124.587 54.9481 124.59 53.8589C124.605 48.9066 124.542 43.9538 124.469 39.0017C124.461 38.434 124.217 37.8696 124.019 37.1824Z" fill="#7ED8BD"/>
<path d="M232.028 0.555273C226.42 0.534237 220.721 0.405532 215.021 0.372139C212.931 0.359882 210.839 0.573287 208.602 0.649942C209.337 0.415103 210.216 0.0475276 211.098 0.0398782C217.204 -0.0130645 223.31 -0.00941773 229.417 0.0281165C230.257 0.0332888 231.096 0.325845 232.028 0.555273Z" fill="#7ED8BD"/>
<path d="M38.7886 11.4542C39.5091 10.925 40.231 9.9443 40.9498 9.94654C43.721 9.95515 46.5097 10.1555 49.2492 10.5676C49.9563 10.674 50.5079 11.8134 51.057 12.5807C50.8825 12.6419 50.7799 12.6357 50.6751 12.6644C50.6751 12.6644 50.5885 12.6198 50.5842 12.5033C50.3974 12.2535 50.2148 12.1203 50.0323 11.9871C49.8337 11.8581 49.635 11.7292 49.3293 11.4546C48.9943 11.235 48.7664 11.1609 48.5385 11.0868C45.813 11.0849 43.0876 11.083 40.097 11.0813C39.4841 11.2058 39.1363 11.33 38.7886 11.4542Z" fill="#7ED8BD"/>
<path d="M202.035 3.75574C201.687 4.36614 201.232 4.98394 200.729 5.69413C199.858 7.32042 199 8.83769 198.228 10.397C197.948 10.9613 197.872 11.6263 197.617 12.3323C197.69 8.86959 199.163 5.98798 202.035 3.75574Z" fill="#7ED8BD"/>
<path d="M180.498 55.2659C183.424 55.182 186.476 55.1327 189.641 55.152C186.711 55.2473 183.667 55.2738 180.498 55.2659Z" fill="#7ED8BD"/>
<path d="M144.135 55.2519C146.953 55.166 149.896 55.1181 152.951 55.1407C150.129 55.2375 147.194 55.2638 144.135 55.2519Z" fill="#7ED8BD"/>
<path d="M53.5322 55.2891C56.1447 55.1951 58.8805 55.1466 61.7276 55.1713C59.1111 55.2746 56.3833 55.3047 53.5322 55.2891Z" fill="#7ED8BD"/>
<path d="M40.6133 0.0672302C38.6771 0.643514 36.6202 1.17867 34.4465 1.72445C36.0846 0.0857595 38.2553 -0.0638825 40.6133 0.0672302Z" fill="#7ED8BD"/>
<path d="M237.623 3.63728C236.005 2.71077 234.387 1.78426 232.696 0.7677C234.563 1.70126 236.503 2.72491 238.361 3.85604C238.13 3.92802 237.981 3.89254 237.802 3.8161C237.728 3.72347 237.678 3.6775 237.623 3.63728Z" fill="#7ED8BD"/>
<path d="M187.147 5.71623C187.256 6.07457 187.363 6.38421 187.376 6.77185C186.161 5.67585 185.041 4.50186 183.921 3.32786C183.921 3.32786 183.929 3.31924 184.056 3.31476C184.349 3.29853 184.513 3.28678 184.678 3.27502C184.827 3.37863 184.976 3.48225 185.197 3.75483C185.463 4.05162 185.656 4.17945 185.849 4.30727C185.849 4.30727 185.87 4.29853 185.884 4.41279C186.284 4.89522 186.67 5.26341 187.055 5.63159C187.055 5.63159 187.146 5.66754 187.147 5.71623Z" fill="#7ED8BD"/>
<path d="M61.9508 9.74199C61.0559 8.28727 60.171 6.71328 59.281 5.02454C60.1709 6.48077 61.0659 8.05175 61.9508 9.74199Z" fill="#7ED8BD"/>
<path d="M51.8354 0.543655C50.2245 0.489939 48.522 0.364207 46.7063 0.172363C48.31 0.228041 50.0269 0.349839 51.8354 0.543655Z" fill="#7ED8BD"/>
<path d="M207.871 0.654663C206.304 1.56173 204.645 2.43509 202.868 3.31006C204.427 2.41476 206.103 1.51786 207.871 0.654663Z" fill="#7ED8BD"/>
<path d="M56.4756 2.93547C55.2192 2.24635 54.0409 1.59309 52.8103 0.839844C54.3468 1.53769 55.9356 2.33551 57.5674 3.23006C57.4682 3.32034 57.3262 3.31392 57.0786 3.28682C56.8333 3.16787 56.6935 3.06959 56.4756 2.93547Z" fill="#7ED8BD"/>
<path d="M185.681 30.8629C186.365 31.5101 187.049 32.1574 187.757 32.8909C187.733 33.0711 187.685 33.165 187.454 33.3671C186.475 32.6295 185.68 31.7835 184.895 30.9261C184.905 30.9146 184.923 30.8908 185.049 30.8938C185.344 30.8855 185.513 30.8742 185.681 30.8629Z" fill="#7ED8BD"/>
<path d="M179.314 38.1594C179.531 39.3731 179.727 40.7001 179.862 42.1397C179.632 40.9258 179.463 39.5993 179.314 38.1594Z" fill="#7ED8BD"/>
<path d="M183.059 2.19401C181.933 1.80497 180.73 1.33287 179.45 0.774658C180.575 1.16268 181.779 1.63681 183.059 2.19401Z" fill="#7ED8BD"/>
<path d="M26.5849 1.01933C25.6734 0.832772 24.6941 0.568684 23.6331 0.225464C24.5399 0.411491 25.5285 0.67664 26.5849 1.01933Z" fill="#7ED8BD"/>
<path d="M189.588 36.3369C189.106 35.5335 188.641 34.6145 188.167 33.5753C188.641 34.3772 189.123 35.2992 189.588 36.3369Z" fill="#7ED8BD"/>
<path d="M190.148 39.5883C189.932 39.0022 189.749 38.3152 189.62 37.5363C189.842 38.1254 190.012 38.8063 190.148 39.5883Z" fill="#7ED8BD"/>
<path d="M50.6812 12.7761C50.7801 12.6357 50.8828 12.6419 51.0591 12.7024C51.2191 12.8913 51.3034 13.0607 51.4414 13.3086C51.5812 13.7814 51.6673 14.1757 51.7246 14.6886C51.3595 14.1675 51.0233 13.5276 50.6812 12.7761Z" fill="#7ED8BD"/>
<path d="M62.5583 12.3219C62.3313 11.8298 62.1462 11.2444 62.0156 10.5714C62.2469 11.0655 62.4235 11.6471 62.5583 12.3219Z" fill="#7ED8BD"/>
<path d="M31.8862 3.71619C32.0772 3.83643 32.1544 3.97883 32.2535 4.19936C32.2754 4.2775 32.2885 4.27111 32.1676 4.29578C31.5923 4.41624 31.1378 4.51204 30.6834 4.60784C30.6834 4.60784 30.6781 4.61038 30.6805 4.60938C30.564 4.39141 30.445 4.17446 30.312 3.86549C30.7894 3.76178 31.2809 3.75006 31.8862 3.71619Z" fill="#7ED8BD"/>
<path d="M7.88159 1.69116C7.50371 2.02432 7.02863 2.34777 6.4502 2.67611C6.82602 2.34784 7.3052 2.01465 7.88159 1.69116Z" fill="#7ED8BD"/>
<path d="M237.833 3.85706C237.981 3.89254 238.13 3.92802 238.393 3.95948C238.689 4.11697 238.871 4.27851 239.093 4.52237C239.136 4.74505 239.139 4.88538 239.037 5.1207C238.566 4.76281 238.199 4.30993 237.833 3.85706Z" fill="#7ED8BD"/>
<path d="M28.6862 2.25175C28.202 2.04117 27.6768 1.73709 27.1106 1.34253C27.5948 1.55412 28.12 1.85618 28.6862 2.25175Z" fill="#7ED8BD"/>
<path d="M33.5518 2.24829C33.2856 2.60757 32.9215 2.96749 32.4568 3.33356C32.7221 2.97612 33.088 2.61253 33.5518 2.24829Z" fill="#7ED8BD"/>
<path d="M187.04 5.53129C186.67 5.26338 186.284 4.89519 185.881 4.42358C186.251 4.69045 186.638 5.06073 187.04 5.53129Z" fill="#7ED8BD"/>
<path d="M178.64 36.0932C178.584 36.0621 178.527 36.031 178.437 35.796C178.392 35.4389 178.382 35.2857 178.487 35.155C178.869 35.5934 179.136 36.0093 179.403 36.4252C179.403 36.4252 179.379 36.4414 179.297 36.4105C179.023 36.2842 178.832 36.1887 178.64 36.0932Z" fill="#7ED8BD"/>
<path d="M183.606 29.9433C183.757 29.9448 183.907 29.9464 184.171 29.9403C184.344 29.9548 184.404 29.9769 184.534 30.1607C184.711 30.5119 184.817 30.7013 184.923 30.8907C184.923 30.8907 184.905 30.9146 184.782 30.9152C184.308 30.5916 183.957 30.2675 183.606 29.9433Z" fill="#7ED8BD"/>
<path d="M178.652 36.1971C178.832 36.1886 179.024 36.2841 179.285 36.4187C179.352 36.7543 179.349 37.0507 179.318 37.4943C179.081 37.1946 178.872 36.7478 178.652 36.1971Z" fill="#7ED8BD"/>
<path d="M12.7156 0.115356C12.2806 0.316227 11.761 0.483368 11.1206 0.626154C11.5436 0.428424 12.0873 0.255031 12.7156 0.115356Z" fill="#7ED8BD"/>
<path d="M135.357 38.9766C135.188 38.6629 135.061 38.2431 134.969 37.7089C135.135 38.0198 135.267 38.4451 135.357 38.9766Z" fill="#7ED8BD"/>
<path d="M59.265 4.81806C58.9431 4.61718 58.6021 4.31624 58.2434 3.91724C58.5658 4.11877 58.9058 4.41838 59.265 4.81806Z" fill="#7ED8BD"/>
<path d="M10.135 0.716675C9.80709 0.933261 9.39871 1.12719 8.8728 1.30046C9.18833 1.08455 9.62138 0.889276 10.135 0.716675Z" fill="#7ED8BD"/>
<path d="M38.7689 11.5195C39.1365 11.3301 39.4842 11.2058 39.9426 11.088C39.6804 11.3396 39.3076 11.5849 38.8369 11.8421C38.7108 11.7631 38.7143 11.6733 38.7689 11.5195Z" fill="#7ED8BD"/>
<path d="M175.677 33.9949C176.067 34.0872 176.541 34.2455 177.072 34.494C176.673 34.4097 176.217 34.2353 175.677 33.9949Z" fill="#7ED8BD"/>
<path d="M30.2004 3.60597C29.9399 3.48279 29.6597 3.27 29.3586 2.96924C29.6188 3.09297 29.8997 3.30466 30.2004 3.60597Z" fill="#7ED8BD"/>
<path d="M178.372 35.1325C178.382 35.2857 178.392 35.4389 178.399 35.7072C178.088 35.5554 177.78 35.2885 177.429 34.9287C177.543 34.837 177.699 34.8381 178.015 34.898C178.233 35.0231 178.299 35.0817 178.372 35.1325Z" fill="#7ED8BD"/>
<path d="M184.627 3.19248C184.513 3.28681 184.349 3.29856 184.06 3.31035C183.833 3.12371 183.729 2.93705 183.604 2.67334C183.914 2.76749 184.245 2.9387 184.627 3.19248Z" fill="#7ED8BD"/>
<path d="M185.049 30.8937C184.817 30.7013 184.711 30.5119 184.581 30.2441C184.898 30.342 185.238 30.5182 185.63 30.7786C185.513 30.8742 185.344 30.8855 185.049 30.8937Z" fill="#7ED8BD"/>
<path d="M22.6541 11.0845C22.8884 11.1212 23.2021 11.2063 23.5439 11.3672C23.2925 11.3396 23.0129 11.2362 22.6541 11.0845Z" fill="#7ED8BD"/>
<path d="M48.5881 11.1578C48.7665 11.1608 48.9944 11.2349 49.2338 11.3846C49.0428 11.3831 48.8402 11.306 48.5881 11.1578Z" fill="#7ED8BD"/>
<path d="M179.762 54.3871C179.882 54.5477 179.964 54.7753 180.042 55.0959C179.934 54.9439 179.83 54.699 179.762 54.3871Z" fill="#7ED8BD"/>
<path d="M50.0386 12.0714C50.2149 12.1204 50.3974 12.2536 50.5718 12.4563C50.3906 12.4024 50.2177 12.2791 50.0386 12.0714Z" fill="#7ED8BD"/>
<path d="M5.94605 2.86377C5.8732 3.01066 5.71554 3.16603 5.47021 3.32889C5.54213 3.18168 5.70169 3.02696 5.94605 2.86377Z" fill="#7ED8BD"/>
<path d="M134.388 35.0928C134.229 34.9975 134.078 34.8119 133.943 34.5317C134.106 34.6256 134.251 34.814 134.388 35.0928Z" fill="#7ED8BD"/>
<path d="M153.753 33.807C153.83 33.8197 153.906 33.8323 154.095 33.8763C154.079 34.0461 153.951 34.1845 153.778 34.4066C153.641 34.438 153.564 34.3692 153.506 34.1548C153.592 33.9527 153.672 33.8799 153.753 33.807Z" fill="#7ED8BD"/>
<path d="M185.818 4.22271C185.656 4.17944 185.463 4.05161 185.244 3.83606C185.408 3.87828 185.597 4.00822 185.818 4.22271Z" fill="#7ED8BD"/>
<path d="M13.5146 11.4984C13.5984 11.3568 13.7638 11.2242 14.0122 11.098C13.9289 11.2387 13.7626 11.3731 13.5146 11.4984Z" fill="#7ED8BD"/>
<path d="M5.29479 3.36414C5.28572 3.45807 5.20919 3.56204 5.06665 3.67886C5.07619 3.58586 5.15175 3.48002 5.29479 3.36414Z" fill="#7ED8BD"/>
<path d="M134.632 36.0547C134.534 36.0974 134.494 36.064 134.507 35.9547C134.606 35.904 134.65 35.9373 134.632 36.0547Z" fill="#7ED8BD"/>
<path d="M153.499 55.2247C153.454 55.1272 153.513 55.0597 153.651 54.9778C153.67 55.0449 153.628 55.142 153.499 55.2247Z" fill="#7ED8BD"/>
<path d="M37.4115 13.0304C37.1099 14.3829 36.5631 15.7325 36.5474 17.0882C36.4604 24.6025 36.5029 32.1183 36.5001 39.6336C36.4993 41.8878 36.4978 41.8874 34.1728 41.8882C32.1183 41.8889 30.0614 41.8317 28.0101 41.9139C26.7718 41.9635 26.447 41.4802 26.4532 40.3047C26.4937 32.6275 26.5473 24.9486 26.4154 17.2734C26.3871 15.626 25.6165 13.9914 25.1616 12.2395C26.8595 12.8809 27.085 14.41 27.0882 16.0087C27.1036 23.5719 27.0942 31.1351 27.0969 38.6983C27.0977 41.0969 27.4111 41.3015 29.857 41.0651C31.2935 40.9263 32.7554 40.9714 34.2015 41.0334C35.5925 41.0931 35.9066 40.4317 35.8992 39.1641C35.8558 31.6551 35.8441 24.1455 35.9143 16.637C35.9248 15.5061 36.4202 14.3798 36.8589 13.1569C37.1548 13.0518 37.2832 13.0411 37.4115 13.0304Z" fill="#7ED8BD"/>
<path d="M30.7153 4.70659C31.138 4.51196 31.5925 4.41616 32.161 4.29553C31.9568 4.99504 31.5755 5.53913 30.7153 4.70659Z" fill="#7ED8BD"/>
<path d="M37.4364 12.9574C37.283 13.0411 37.1546 13.0518 36.9292 13.0648C37.0113 12.923 37.1904 12.7789 37.4344 12.6847C37.4994 12.7347 37.4615 12.8844 37.4364 12.9574Z" fill="#7ED8BD"/>
<path d="M89.1181 20.2034C89.1191 14.4131 89.1149 8.78508 89.1236 3.15712C89.1267 1.16256 89.2367 1.05445 91.2561 1.05329C100.672 1.04791 110.088 1.02332 119.504 1.06403C123.363 1.08071 127.029 1.88398 130.045 4.49919C132.892 6.96764 134.264 10.2128 134.495 13.9036C134.7 17.1925 134.691 20.4731 133.412 23.6378C132.667 25.4816 131.502 26.86 129.868 27.9233C127.869 29.224 127.964 29.7345 129.851 31.0996C131.88 32.5669 133.768 34.3391 133.922 37.0528C134.223 42.3765 134.357 47.7097 134.566 53.0387C134.601 53.9374 134.175 54.3017 133.293 54.2922C131.291 54.2708 129.288 54.2461 127.287 54.3033C126.137 54.3361 125.783 53.8408 125.792 52.7523C125.828 48.7481 125.934 44.7382 125.772 40.7403C125.579 35.9642 123.091 32.593 118.043 32.8084C112.21 33.0574 106.357 32.8609 100.513 32.8718C98.3108 32.8759 97.7201 33.3624 97.6956 35.4775C97.6582 38.6905 97.7428 41.9049 97.7803 45.1188C97.8097 47.6462 97.8419 50.1735 97.8817 52.7008C97.8988 53.7892 97.5698 54.3975 96.2894 54.3157C94.6186 54.2091 92.9359 54.2961 91.2583 54.2877C89.2389 54.2776 89.1253 54.174 89.1227 52.1854C89.1151 46.2869 89.1196 40.3883 89.1192 34.4898C89.1189 29.7818 89.1185 25.0737 89.1181 20.2034ZM113.902 24.7527C114.974 24.8567 116.047 25.0676 117.116 25.0464C121.629 24.9571 123.891 24.0467 125.431 19.3475C126.654 15.6115 124.422 9.81414 119.044 9.81702C112.615 9.82044 106.186 9.8348 99.7566 9.80552C98.3061 9.79891 97.6295 10.5355 97.6112 11.8581C97.5617 15.4229 97.5623 18.989 97.599 22.554C97.6107 23.692 98.2008 24.5573 99.395 24.7082C100.889 24.8969 102.4 25.0587 103.902 25.0431C107.135 25.0094 110.367 24.8548 113.902 24.7527Z" fill="#7ED8BD"/>
<path d="M237.802 3.81613C238.199 4.30994 238.566 4.76282 239.049 5.22591C239.165 5.23611 239.158 5.24894 239.151 5.37169C239.306 5.88745 239.416 6.31389 239.639 6.66811C241.186 9.1171 241.794 11.7499 241.762 14.67C241.662 23.7545 241.724 32.8407 241.724 41.9263C241.724 45.4415 241.667 48.9582 241.753 52.4713C241.788 53.9141 241.287 54.3983 239.878 54.31C238.316 54.2122 236.74 54.2296 235.175 54.3067C233.783 54.3752 233.242 53.8546 233.262 52.4325C233.321 48.1609 233.29 43.888 233.274 39.6156C233.271 38.9724 233.177 38.3277 233.1 37.6867C232.991 36.7877 232.498 36.3384 231.564 36.4359C231.404 36.4527 231.24 36.4353 231.078 36.4353C223.831 36.4351 216.584 36.4231 209.337 36.4633C208.883 36.4658 208.43 36.8765 207.976 37.0972C207.935 37.3514 207.893 37.6056 207.827 37.9872C207.635 38.6971 207.332 39.2783 207.326 39.8624C207.284 44.0253 207.257 48.1896 207.329 52.3517C207.354 53.8543 206.789 54.3843 205.327 54.3075C203.709 54.2224 202.078 54.2067 200.463 54.3145C198.977 54.4136 198.506 53.8915 198.513 52.3889C198.566 40.8725 198.542 29.3557 198.542 17.8389C198.542 16.9198 198.59 15.9974 198.532 15.082C198.325 11.8595 198.919 8.84873 200.796 6.03643C201.227 5.67506 201.702 5.49339 202.026 5.16346C204.887 2.25362 208.469 1.12234 212.415 1.06863C217.98 0.992892 223.554 0.884579 229.109 1.13576C231.23 1.23168 233.312 2.2695 235.404 2.90388C236.067 3.10508 236.705 3.38978 237.489 3.63678C237.678 3.67752 237.728 3.72348 237.802 3.81613ZM214.937 27.9922C220.234 27.9924 225.53 28.0044 230.826 27.9867C232.906 27.9798 233.31 27.587 233.27 25.5131C233.204 22.0091 233.131 18.5032 232.945 15.0043C232.828 12.8164 230.854 10.6348 228.735 10.2375C227.469 10.0001 226.167 9.82661 224.883 9.83981C221.062 9.8791 217.241 10.0187 213.421 10.131C209.439 10.248 207.317 12.4399 207.306 16.4257C207.298 19.2899 207.371 22.1574 207.255 25.0172C207.166 27.1985 207.537 27.8231 209.75 27.956C211.366 28.053 212.992 27.986 214.937 27.9922Z" fill="#7DD7BC"/>
<path d="M208.126 37.0798C208.43 36.8763 208.883 36.4657 209.338 36.4632C216.584 36.423 223.831 36.435 231.078 36.4352C231.24 36.4352 231.404 36.4525 231.564 36.4358C232.498 36.3383 232.991 36.7876 233.1 37.6866C233.178 38.3275 233.271 38.9722 233.274 39.6155C233.29 43.8879 233.321 48.1608 233.262 52.4323C233.242 53.8545 233.784 54.375 235.175 54.3065C236.74 54.2295 238.316 54.2121 239.878 54.3099C241.287 54.3981 241.789 53.914 241.753 52.4712C241.667 48.9581 241.724 45.4414 241.724 41.9262C241.725 32.8406 241.662 23.7543 241.762 14.6699C241.794 11.7498 241.187 9.11698 239.64 6.66799C239.416 6.31377 239.306 5.88733 239.144 5.37402C241.317 7.23533 242.304 9.85069 242.326 12.6372C242.432 26.2653 242.377 39.8946 242.403 53.5234C242.405 54.5473 242.077 54.9966 241.005 54.9745C238.68 54.9265 236.353 54.9134 234.029 54.977C232.848 55.0094 232.562 54.48 232.569 53.4174C232.6 48.6043 232.538 43.7901 232.608 38.9778C232.629 37.5099 232.183 36.9869 230.664 37.002C223.202 37.0764 215.739 37.052 208.126 37.0798Z" fill="#7ED8BD"/>
<path d="M70.6165 16.3072C70.7024 12.4344 70.8063 8.7243 70.86 5.01341C70.8717 4.21181 70.6846 3.40905 70.6219 2.60426C70.5367 1.50914 71.0624 1.02813 72.1619 1.04563C74.0541 1.07576 75.9491 1.1025 77.8394 1.03345C79.0852 0.987963 79.3866 1.54658 79.3977 2.68874C79.4654 9.60221 79.6444 16.5148 79.6824 23.4283C79.735 33 79.6988 42.5723 79.6935 52.1443C79.6923 54.1735 79.5888 54.2739 77.603 54.2855C75.7644 54.2961 73.9255 54.2699 72.0871 54.2894C71.0669 54.3002 70.5989 53.8406 70.6191 52.8196C70.7083 48.3034 70.8455 43.787 70.8477 39.2706C70.8498 35.1854 70.6717 31.1005 70.6247 27.0149C70.5842 23.5002 70.6164 19.9847 70.6165 16.3072Z" fill="#7ED8BD"/>
<path d="M153.764 33.6821C153.672 33.8798 153.592 33.9527 153.462 34.0901C153.302 34.8334 153.098 35.5116 153.094 36.1909C153.068 41.4395 153.085 46.6884 153.077 51.9373C153.073 53.9926 152.784 54.2734 150.724 54.2872C149.154 54.2976 147.584 54.2467 146.016 54.3008C144.756 54.3442 144.284 53.8093 144.295 52.5645C144.331 48.0735 144.306 43.5821 144.306 39.0908C144.306 27.3102 144.306 15.5295 144.309 3.74879C144.31 1.117 144.385 1.04898 147.069 1.04887C155.944 1.04851 164.819 1.14159 173.691 1.00439C177.27 0.949071 180.488 1.94553 183.8 3.31876C185.041 4.50187 186.161 5.67586 187.39 6.86947C187.5 6.88908 187.501 6.89106 187.507 7.00155C187.725 7.36969 187.938 7.62734 188.15 7.88499C188.495 10.7527 188.932 13.6131 189.166 16.4898C189.547 21.1679 188.743 25.4156 184.434 28.2596C184.021 28.5322 183.875 29.2086 183.605 29.8204C183.957 30.2675 184.308 30.5916 184.772 30.9266C185.68 31.7834 186.475 32.6294 187.376 33.5045C187.677 34.087 187.91 34.6304 188.062 35.1954C188.435 36.5777 189.032 37.9621 189.074 39.3597C189.206 43.7376 189.087 48.1225 189.145 52.5036C189.162 53.8051 188.789 54.3855 187.405 54.3097C185.733 54.2183 184.05 54.2459 182.375 54.3019C181.102 54.3445 180.654 53.7885 180.67 52.5546C180.712 49.2011 180.718 45.8461 180.664 42.4929C180.64 40.9864 180.491 39.4762 180.294 37.9815C180.228 37.4872 179.836 37.0361 179.498 36.4951C179.136 36.0092 178.869 35.5933 178.487 35.1549C178.299 35.0817 178.233 35.0231 178.133 34.9049C177.262 34.2986 176.457 33.3078 175.601 33.2618C170.811 33.0048 166.008 32.9633 161.21 32.8756C159.212 32.8391 157.211 32.8266 155.215 32.902C154.727 32.9205 154.254 33.3284 153.764 33.6821ZM178.055 23.6158C180.961 20.8654 180.658 17.3211 180.158 13.9109C179.804 11.4991 177.148 9.90986 173.809 9.85672C167.59 9.75775 161.37 9.81272 155.15 9.83661C153.817 9.84172 153.063 10.4895 153.077 11.9488C153.113 15.6262 153.134 19.3049 153.067 22.9814C153.043 24.3125 153.677 24.9255 154.846 24.9875C155.912 25.044 156.99 24.8081 158.062 24.8215C162.867 24.8816 167.673 24.9401 172.476 25.0938C174.431 25.1563 176.236 24.8709 178.055 23.6158Z" fill="#7ED8BD"/>
<path d="M188.131 7.78326C187.938 7.62737 187.725 7.36972 187.508 7.00244C187.705 7.15571 187.908 7.4186 188.131 7.78326Z" fill="#7ED8BD"/>
<path d="M113.751 24.7513C110.367 24.8549 107.135 25.0094 103.902 25.0431C102.4 25.0588 100.889 24.897 99.395 24.7083C98.2007 24.5574 97.6106 23.6921 97.5989 22.5541C97.5622 18.9891 97.5616 15.423 97.6111 11.8582C97.6294 10.5355 98.306 9.79898 99.7565 9.80559C106.185 9.83487 112.615 9.82051 119.044 9.81708C124.422 9.81421 126.654 15.6116 125.431 19.3476C123.891 24.0468 121.629 24.9571 117.116 25.0465C116.047 25.0676 114.974 24.8568 113.751 24.7513ZM98.8635 23.3354C99.2293 23.4955 99.5946 23.794 99.9609 23.7952C106.504 23.8175 113.048 23.8134 119.591 23.7917C121.564 23.7852 122.958 22.8003 123.844 21.0686C124.911 18.9819 124.851 16.7321 124.385 14.5752C123.87 12.1919 122.237 11.0641 119.81 11.0564C112.889 11.0343 105.967 11.055 98.8098 11.1543C98.7215 12.4183 98.5514 13.6829 98.5618 14.9461C98.584 17.6671 98.6991 20.3874 98.8635 23.3354Z" fill="#7ED8BD"/>
<path d="M214.775 27.9922C212.992 27.986 211.366 28.053 209.751 27.956C207.537 27.8231 207.166 27.1985 207.255 25.0172C207.371 22.1574 207.298 19.2899 207.306 16.4257C207.317 12.4399 209.439 10.248 213.421 10.131C217.241 10.0187 221.062 9.8791 224.883 9.83982C226.167 9.82662 227.469 10.0001 228.735 10.2375C230.854 10.6348 232.828 12.8164 232.945 15.0043C233.131 18.5032 233.204 22.0092 233.27 25.5131C233.31 27.587 232.906 27.9798 230.827 27.9867C225.53 28.0044 220.234 27.9924 214.775 27.9922ZM208.167 24.8604C208.179 26.9845 208.179 26.9829 210.279 26.9533C210.982 26.9434 211.685 26.9401 212.388 26.9408C218.445 26.946 224.503 26.9507 230.56 26.9619C231.337 26.9634 232.154 27.058 232.148 25.9045C232.127 22.4447 232.254 18.9754 232.036 15.528C231.852 12.6318 229.864 11.0373 226.935 11.0258C222.609 11.0088 218.272 11.2161 213.958 10.9759C210.032 10.7572 208.085 13.6398 208.165 16.7602C208.231 19.3545 208.173 21.9519 208.167 24.8604Z" fill="#7ED8BD"/>
<path d="M177.964 23.6933C176.236 24.8709 174.431 25.1563 172.477 25.0938C167.673 24.9401 162.867 24.8815 158.062 24.8214C156.99 24.808 155.912 25.044 154.846 24.9875C153.677 24.9254 153.043 24.3125 153.067 22.9814C153.134 19.3049 153.114 15.6261 153.077 11.9488C153.063 10.4895 153.817 9.84168 155.15 9.83657C161.37 9.81268 167.591 9.75771 173.809 9.85668C177.148 9.90982 179.804 11.499 180.158 13.9108C180.658 17.3211 180.961 20.8653 177.964 23.6933ZM174.88 11.0611C167.889 11.0611 160.899 11.0611 153.85 11.0611C153.85 15.1018 153.874 18.8809 153.833 22.6594C153.823 23.5776 154.271 23.754 155.021 23.7529C161.557 23.7436 168.094 23.7895 174.629 23.7125C177.032 23.6842 178.435 22.4676 179.136 20.2324C179.313 19.6678 179.492 19.098 179.596 18.5173C180.166 15.3309 178.857 11.154 174.88 11.0611Z" fill="#7ED8BD"/>
<path d="M98.9278 11.1066C99.0083 15.0045 98.9706 18.9502 98.8545 23.0019C98.6991 20.3873 98.584 17.6671 98.5617 14.9461C98.5514 13.6829 98.7214 12.4183 98.9278 11.1066Z" fill="#7ED8BD"/>
</svg>
