<svg width="227" height="61" viewBox="0 0 227 61" fill="none" xmlns="http://www.w3.org/2000/svg">
<g filter="url(#filter0_d_5283_1117)">
<path d="M4.97725 28.3633C4.97725 14.9184 15.9282 3.98181 29.3588 3.98181C42.8037 3.98181 53.7403 14.9327 53.7546 28.3777C53.769 41.7796 42.7751 52.7592 29.3444 52.7592C15.8851 52.7592 4.97725 41.837 4.97725 28.3633ZM39.7077 33.5378C39.0196 33.5378 38.3173 33.5378 37.6293 33.5378C36.7406 33.5378 36.6833 33.4374 37.1133 32.6491C38.1453 30.7571 38.5036 28.736 38.045 26.6433C37.2423 23.0456 35.0206 20.6518 31.4228 19.7918C27.7677 18.9175 24.6717 20.0642 22.3353 23.0026C20.2999 25.5539 20.1422 28.5067 20.8589 31.5597C22.6506 39.0992 30.0181 43.729 37.6006 42.095C43.6207 40.7906 48.3365 35.2292 48.5515 29.1947C48.6948 24.7656 47.4908 20.7522 44.9394 17.1544C39.5213 9.52893 28.9861 6.86287 20.9449 11.206C14.3085 14.8037 8.76134 22.0279 10.424 31.7747C11.9147 40.5469 19.9989 47.5131 28.9718 47.5561C29.2011 47.5561 29.4448 47.3841 29.6741 47.2837C29.4734 47.1261 29.3014 46.8967 29.0721 46.8107C23.1523 44.9044 18.9382 41.1203 16.6305 35.3438C15.0968 31.5167 14.7098 27.5607 16.1432 23.6046C19.3969 14.6174 30.3191 11.4496 37.9303 17.2404C42.6317 20.8238 44.5954 27.3456 42.6317 32.8928C42.474 33.3371 42.2734 33.5665 41.7717 33.5235C41.098 33.4948 40.3957 33.5378 39.7077 33.5378Z" fill="black"/>
</g>
<g filter="url(#filter1_d_5283_1117)">
<path d="M76.8832 44.3724C68.2678 44.3724 62.8518 38.4545 62.8518 28.7726C62.8518 19.1535 68.3096 13.1938 76.8832 13.1938C83.8884 13.1938 89.2208 17.5642 89.8899 24.0467H84.5785C83.8675 20.2618 80.7936 17.7733 76.8832 17.7733C71.6972 17.7733 68.3723 22.0392 68.3723 28.7726C68.3723 35.5478 71.6763 39.7928 76.9041 39.7928C80.8981 39.7928 83.7629 37.639 84.5994 34.0004H89.8899C88.9489 40.462 84.0139 44.3724 76.8832 44.3724ZM101.475 40.2947C104.423 40.2947 106.786 38.329 106.786 35.6524V33.9586L101.663 34.2723C99.1536 34.4395 97.7107 35.5687 97.7107 37.3253C97.7107 39.1446 99.2163 40.2947 101.475 40.2947ZM99.9064 44.226C95.6196 44.226 92.5038 41.5284 92.5038 37.5344C92.5038 33.6031 95.5359 31.2401 100.931 30.9056L106.786 30.571V28.9817C106.786 26.6606 105.218 25.3223 102.646 25.3223C100.178 25.3223 98.6099 26.5142 98.2753 28.3544H93.4448C93.6748 24.214 97.2088 21.2446 102.855 21.2446C108.354 21.2446 111.93 24.1512 111.93 28.6053V43.8705H106.912V40.3365H106.807C105.531 42.7413 102.75 44.226 99.9064 44.226ZM116.28 43.8705V13.6957H121.487V43.8705H116.28ZM126.066 43.8705V13.6957H131.273V43.8705H126.066ZM155.237 29.6091H150.323C149.905 27.2461 148.253 25.4687 145.472 25.4687C142.189 25.4687 140.077 28.2289 140.077 32.7876C140.077 37.4298 142.21 40.1065 145.514 40.1065C148.148 40.1065 149.863 38.6009 150.344 36.0915H155.258C154.84 41.0475 151.013 44.3096 145.451 44.3096C138.968 44.3096 134.786 39.981 134.786 32.7876C134.786 25.6987 138.968 21.2446 145.409 21.2446C151.264 21.2446 154.882 24.9459 155.237 29.6091ZM168.181 44.3096C161.678 44.3096 157.454 39.981 157.454 32.7876C157.454 25.6359 161.72 21.2446 168.181 21.2446C174.643 21.2446 178.909 25.615 178.909 32.7876C178.909 39.981 174.685 44.3096 168.181 44.3096ZM168.181 40.1901C171.485 40.1901 173.618 37.5135 173.618 32.7876C173.618 28.0825 171.485 25.385 168.181 25.385C164.898 25.385 162.744 28.0825 162.744 32.7876C162.744 37.5135 164.877 40.1901 168.181 40.1901ZM182.255 43.8705V21.7046H187.252V25.5523H187.357C188.319 22.9802 190.661 21.2864 193.672 21.2864C196.809 21.2864 199.046 22.8966 199.862 25.7405H199.987C201.054 23.0011 203.689 21.2864 206.888 21.2864C211.258 21.2864 214.123 24.2349 214.123 28.6681V43.8705H208.916V29.9436C208.916 27.2252 207.494 25.6778 204.943 25.6778C202.434 25.6778 200.719 27.5179 200.719 30.1737V43.8705H195.659V29.6718C195.659 27.2043 194.153 25.6778 191.727 25.6778C189.218 25.6778 187.461 27.6225 187.461 30.2991V43.8705H182.255Z" fill="black"/>
</g>
<defs>
<filter id="filter0_d_5283_1117" x="1.10269e-05" y="-1.56164e-05" width="60.7228" height="60.7228" filterUnits="userSpaceOnUse" color-interpolation-filters="sRGB">
<feFlood flood-opacity="0" result="BackgroundImageFix"/>
<feColorMatrix in="SourceAlpha" type="matrix" values="0 0 0 0 0 0 0 0 0 0 0 0 0 0 0 0 0 0 127 0" result="hardAlpha"/>
<feOffset dx="0.995457" dy="1.99091"/>
<feGaussianBlur stdDeviation="2.98637"/>
<feComposite in2="hardAlpha" operator="out"/>
<feColorMatrix type="matrix" values="0 0 0 0 1 0 0 0 0 1 0 0 0 0 1 0 0 0 0.25 0"/>
<feBlend mode="normal" in2="BackgroundImageFix" result="effect1_dropShadow_5283_1117"/>
<feBlend mode="normal" in="SourceGraphic" in2="effect1_dropShadow_5283_1117" result="shape"/>
</filter>
<filter id="filter1_d_5283_1117" x="54.117" y="6.20602" width="172.235" height="52.1419" filterUnits="userSpaceOnUse" color-interpolation-filters="sRGB">
<feFlood flood-opacity="0" result="BackgroundImageFix"/>
<feColorMatrix in="SourceAlpha" type="matrix" values="0 0 0 0 0 0 0 0 0 0 0 0 0 0 0 0 0 0 127 0" result="hardAlpha"/>
<feOffset dx="1.74696" dy="3.49391"/>
<feGaussianBlur stdDeviation="5.24087"/>
<feComposite in2="hardAlpha" operator="out"/>
<feColorMatrix type="matrix" values="0 0 0 0 1 0 0 0 0 1 0 0 0 0 1 0 0 0 0.25 0"/>
<feBlend mode="normal" in2="BackgroundImageFix" result="effect1_dropShadow_5283_1117"/>
<feBlend mode="normal" in="SourceGraphic" in2="effect1_dropShadow_5283_1117" result="shape"/>
</filter>
</defs>
</svg>
