<svg width="158" height="410" viewBox="0 0 158 410" fill="none" xmlns="http://www.w3.org/2000/svg">
<g opacity="0.5">
<path d="M90.667 165.807H54.0518V133.519C54.0518 133.519 56.6671 48.0006 147.333 48.0006C238 48.0006 238 133.519 238 133.519V275.759C238 275.759 238 358.66 147.333 358.66C56.6671 358.66 54.0518 275.759 54.0518 275.759V240.854H90.667V275.759C90.667 275.759 94.1542 322.009 147.333 322.009C200.513 322.009 200.513 275.759 200.513 275.759V133.519C200.513 133.519 200.513 84.6514 147.333 84.6514C94.1542 84.6514 90.667 133.519 90.667 133.519V165.807Z" fill="#5FF1D8"/>
<path d="M64.5126 22.4825C119.435 -8.93281 162.153 1.75079 162.153 1.75079V36.4447C162.153 36.4447 127.281 27.93 85.4352 51.4912C43.5892 75.0524 37.4867 105.595 36.6152 133.307V183.92H125.538V154.251C125.538 154.251 125.538 137.671 144.717 137.671C163.897 137.671 162.153 154.251 162.153 154.251V253.731C162.153 253.731 163.897 268.566 144.717 268.566C125.538 268.566 125.538 253.731 125.538 253.731V221.444H36.6152V276.42C36.6152 276.42 40.1024 324.825 78.4613 351.467C116.82 378.109 162.153 374.367 162.153 374.367V409.934C162.153 409.934 88.051 413.424 44.4614 369.792C0.871792 326.16 0 276.134 0 276.134V133.307C0.871499 109.085 9.59061 53.8977 64.5126 22.4825Z" fill="#5FF1D8"/>
</g>
</svg>
