<svg width="46" height="46" viewBox="0 0 46 46" fill="none" xmlns="http://www.w3.org/2000/svg">
<rect width="45.7882" height="45.7882" rx="9.46038" fill="#00C9A7"/>
<path d="M20.3216 19.3861H17.0488V16.5029C17.0488 16.5029 17.2826 8.86639 25.3867 8.86639C33.4908 8.86639 33.4908 16.5029 33.4908 16.5029V29.2045C33.4908 29.2045 33.4908 36.6073 25.3867 36.6073C17.2826 36.6073 17.0488 29.2045 17.0488 29.2045V26.0876H20.3216V29.2045C20.3216 29.2045 20.6333 33.3345 25.3867 33.3345C30.14 33.3345 30.14 29.2045 30.14 29.2045V16.5029C30.14 16.5029 30.14 12.1392 25.3867 12.1392C20.6333 12.1392 20.3216 16.5029 20.3216 16.5029V19.3861Z" fill="white"/>
<path d="M17.9832 6.58769C22.8923 3.78241 26.7106 4.73642 26.7106 4.73642V7.83447C26.7106 7.83447 23.5936 7.07414 19.8533 9.17808C16.113 11.282 15.5675 14.0094 15.4896 16.484V21.0036H23.4378V18.3542C23.4378 18.3542 23.4378 16.8736 25.1522 16.8736C26.8665 16.8736 26.7106 18.3542 26.7106 18.3542V27.2375C26.7106 27.2375 26.8665 28.5622 25.1522 28.5622C23.4378 28.5622 23.4378 27.2375 23.4378 27.2375V24.3543H15.4896V29.2635C15.4896 29.2635 15.8013 33.5859 19.2299 35.965C22.6586 38.3441 26.7106 38.0099 26.7106 38.0099V41.1859C26.7106 41.1859 20.0871 41.4976 16.1909 37.6014C12.2947 33.7052 12.2168 29.238 12.2168 29.238V16.484C12.2947 14.3211 13.074 9.39298 17.9832 6.58769Z" fill="white"/>
</svg>
