<svg width="216" height="272" viewBox="0 0 216 272" fill="none" xmlns="http://www.w3.org/2000/svg">
<path d="M31.9259 102.006C19.21 106.081 7.0982 112.089 -6.04337 114.86C-14.2546 116.644 -22.9351 116.891 -30.9338 114.362C-34.5171 113.23 -38.0933 111.495 -41.8505 111.358C-48.9471 111.067 -53.479 117.697 -48.2078 123.326C-46.2339 125.182 -43.7914 126.649 -41.2257 127.491C-15.2593 137.236 10.8858 123.595 35.4748 116.084C33.7178 111.539 32.4731 106.838 31.9259 102.006Z" fill="#09DBB8" fill-opacity="0.92"/>
<path d="M58.5699 97.4209C59.0698 102.322 58.7341 107.261 58.7471 112.133C68.0055 112.078 77.076 114.226 84.9924 119.84C99.5132 130.171 105.768 149.038 106.572 167.725C107.104 179.843 106.335 192.085 107.703 204.166C109.585 219.942 116.205 235.309 129.461 244.675C133.833 247.765 138.874 241.28 138.734 237.334C138.671 234.758 136.912 232.441 135.054 230.563C115.744 211.081 121.101 181.305 118.441 156.586C116.431 137.885 110.094 120.177 94.4967 108.604C83.6141 100.658 71.2621 97.3827 58.5699 97.4209Z" fill="#09DBB8" fill-opacity="0.92"/>
<path d="M39.9094 183.867C33.0944 179.31 27.3397 173.35 23.0345 166.455C20.6201 162.575 18.6961 158.423 17.4478 154.023C16.3526 150.437 15.4898 146.808 14.7905 143.087C14.2661 140.297 14.1376 137.372 13.7766 134.491C13.5144 133.095 13.3684 131.678 13.3387 130.239C13.3711 129.451 13.7959 128.829 14.428 128.349C18.0174 126.953 21.6977 125.719 25.378 124.486C25.774 124.351 26.1228 124.286 26.5625 124.384C27.0931 124.645 27.4349 125.183 27.497 125.833C27.8615 128.413 28.0625 131.083 28.0563 133.612C28.8926 151.511 38.7942 168.007 54.8947 176.176C58.54 177.958 62.4248 179.094 66.502 179.651C69.1437 179.937 71.8581 179.969 74.5033 179.953C79.5832 180.082 84.4698 178.862 89.3093 177.712C92.1941 177.049 94.9225 175.875 97.7854 175.096C98.5774 174.826 99.442 174.303 100.456 174.895C101.561 175.65 101.176 176.806 101.282 177.689C101.545 181.01 101.576 184.374 101.537 187.692C101.436 188.433 100.964 189.124 100.31 189.487C96.4914 190.626 92.582 191.602 88.6508 192.461C86.0676 193.127 83.5098 193.608 80.861 193.925C66.389 195.381 51.9983 191.827 39.9094 183.867Z" fill="#09DBB8" fill-opacity="0.92"/>
<path d="M-4.35791 49.8427C-3.86049 48.9668 -3.29401 48.1381 -2.65847 47.3566C-0.896969 45.5208 1.47205 45.3163 3.68195 46.8269C6.81147 49.0675 9.5887 51.6752 12.0136 54.6501C14.5767 57.7194 16.7656 61.0395 18.464 64.6324C19.5952 67.1282 20.8207 69.4859 21.7666 71.9563C22.5306 74.0998 23.1783 76.2652 23.6407 78.4052C24.3068 80.9884 24.9257 83.6407 25.312 86.3366C25.7272 88.5457 25.8627 90.8675 26.0453 93.1203C26.1441 94.6064 26.1738 96.0453 26.3888 97.5095C26.6109 98.3706 26.1134 99.2465 25.2524 99.4685C25.1361 99.4904 25.1361 99.4904 25.0198 99.5122C23.2505 100.025 21.663 100.865 19.9155 101.495C18.0045 102.215 16.0245 102.888 14.0917 103.492C13.2087 103.598 12.3582 102.915 12.2524 102.032C11.6747 93.8351 10.9589 85.5435 8.40466 77.7178C6.22893 71.2655 2.79612 65.1698 -2.2312 60.5173C-3.63424 59.4569 -4.84845 58.1203 -5.89919 56.6928C-7.49191 53.9828 -5.95944 51.8891 -4.44882 49.6792L-4.35791 49.8427Z" fill="#09DBB8" fill-opacity="0.92"/>
<path d="M181.455 177.062C179.69 179.2 176.958 180.676 174.549 180.347C172.14 180.017 169.904 178.692 167.618 177.737C155.821 172.612 142.175 174.936 130.106 179.251C128.754 179.745 127.286 180.262 125.876 179.805C122.802 178.818 124.168 171.038 124.196 168.625C124.262 160.969 143.476 160.728 148.465 160.693C158.12 160.503 167.706 162.192 176.784 165.662C178.863 166.475 181.033 167.452 182.334 169.253C184.116 171.687 183.361 174.718 181.455 177.062Z" fill="#09DBB8" fill-opacity="0.92"/>
<path d="M7.646 89.0551L5.36788 89.4231C5.49465 88.4965 6.40643 87.9038 7.28585 88.0996L7.35491 88.1468C7.54023 88.1722 7.58044 88.7063 7.646 89.0551Z" fill="#09DBB8" fill-opacity="0.92"/>
<path d="M155.385 181.841L131.404 216.924C130.932 217.614 129.955 217.858 129.195 217.339C128.504 216.867 128.26 215.889 128.78 215.13L152.761 180.048C153.233 179.357 154.21 179.113 154.97 179.632C155.66 180.104 155.904 181.082 155.385 181.841Z" fill="#09DBB8" fill-opacity="0.92"/>
<path d="M170.886 185.849L141.146 229.356C140.558 230.069 139.606 230.127 138.915 229.655C138.341 229.161 138.119 228.3 138.522 227.563L168.309 183.986C168.897 183.274 169.849 183.215 170.54 183.687C171.136 184.297 171.289 185.111 170.886 185.849Z" fill="#09DBB8" fill-opacity="0.92"/>
<path d="M138.121 180.874L125.234 199.727C124.762 200.418 123.716 200.615 123.025 200.142C122.334 199.67 122.091 198.693 122.61 197.933L135.497 179.08C135.969 178.39 136.947 178.146 137.706 178.665C138.466 179.184 138.641 180.114 138.121 180.874Z" fill="#09DBB8" fill-opacity="0.92"/>
<path d="M101.092 148.172L81.4545 176.9C80.8661 177.613 79.9141 177.671 79.2235 177.199C78.6492 176.705 78.4272 175.844 78.8302 175.106L98.4682 146.378C99.0565 145.665 100.008 145.607 100.699 146.079C101.342 146.62 101.448 147.503 101.092 148.172Z" fill="#09DBB8" fill-opacity="0.92"/>
<path d="M81.9369 121.496L49.4587 169.009C48.9866 169.7 47.9402 169.896 47.2496 169.424C46.559 168.952 46.3624 167.906 46.8344 167.215L79.3126 119.702C79.7847 119.012 80.8311 118.815 81.5217 119.287C82.2123 119.759 82.409 120.806 81.9369 121.496Z" fill="#09DBB8" fill-opacity="0.92"/>
<path d="M67.7858 117.597L40.6419 157.306C40.0536 158.019 39.1016 158.077 38.411 157.605C37.8367 157.111 37.6147 156.25 38.0177 155.512L65.1143 115.872C65.7027 115.16 66.6546 115.101 67.3452 115.573C68.0358 116.045 68.1416 116.928 67.7858 117.597Z" fill="#09DBB8" fill-opacity="0.92"/>
<path d="M9.10042 90.0458L-6.28895 112.559C-6.73917 113.366 -7.7165 113.61 -8.47616 113.091C-9.28302 112.64 -9.5269 111.663 -9.00763 110.903C-8.96042 110.834 -8.91321 110.765 -8.866 110.696L6.52338 88.1829C7.11171 87.4704 8.06369 87.4119 8.75429 87.8839C9.35047 88.4941 9.45623 89.377 9.10042 90.0458Z" fill="#09DBB8" fill-opacity="0.92"/>
<path d="M3.27887 71.5792L-25.6116 113.843C-26.0837 114.534 -27.1301 114.731 -27.8207 114.259C-28.5113 113.787 -28.708 112.74 -28.2359 112.05L0.65461 69.7853C1.12668 69.0947 2.17308 68.898 2.86368 69.3701C3.62333 69.8894 3.75094 70.8886 3.27887 71.5792Z" fill="#09DBB8" fill-opacity="0.92"/>
<path d="M38.5257 62.8483C36.3385 63.3798 34.1732 64.0275 32.0078 64.6753C32.4894 69.1589 33.5996 73.4643 35.291 77.6604C35.687 77.5257 36.0358 77.4602 36.4318 77.3256C43.0223 75.2443 49.8785 74.2565 56.7714 74.1045C56.7077 69.6025 57.109 65.0131 56.6274 60.5294C50.5011 60.5975 44.3897 61.385 38.5257 62.8483Z" fill="#09DBB8" fill-opacity="0.92"/>
<path d="M54.4269 90.7369C54.1436 91.1512 53.7004 91.3549 53.2354 91.4423C52.3525 91.5481 51.5709 90.9125 51.4652 90.0296L49.7748 71.7496C49.669 70.8667 50.3046 70.0852 51.1875 69.9794C52.0704 69.8737 52.8519 70.5092 52.9577 71.3921L54.6481 89.6721C54.7136 90.0209 54.6629 90.3916 54.4269 90.7369Z" fill="#09DBB8" fill-opacity="0.92"/>
<path d="M41.3965 86.0843C40.9244 86.7749 39.9471 87.0188 39.1874 86.4995C38.7731 86.2163 38.5003 85.7258 38.5292 85.2389L38.0233 66.8567C38.0338 65.9519 38.6912 65.2867 39.5741 65.1809C40.4571 65.0752 41.1442 65.8488 41.2499 66.7317L41.7558 85.114C41.7051 85.4846 41.5853 85.8081 41.3965 86.0843Z" fill="#09DBB8" fill-opacity="0.92"/>
<path d="M93.8701 132.795L64.4603 175.819C63.872 176.531 62.92 176.59 62.2294 176.118C61.6551 175.624 61.433 174.763 61.836 174.025L91.1986 131.07C91.7869 130.358 92.7389 130.299 93.4295 130.771C94.1201 131.243 94.2259 132.126 93.8701 132.795Z" fill="#09DBB8" fill-opacity="0.92"/>
<path d="M158.236 118.529C158.189 118.598 158.142 118.667 158.026 118.689L106.52 144.38C106.24 144.492 105.869 144.442 105.687 144.115C105.575 143.835 105.625 143.464 105.952 143.282L157.459 117.592C157.738 117.479 158.109 117.53 158.222 117.81C158.451 118.068 158.425 118.253 158.236 118.529Z" fill="#D1D3D4"/>
<path d="M171.975 98.4352L162.817 111.833C162.628 112.109 162.279 112.174 162.003 111.986C161.727 111.797 161.661 111.448 161.85 111.172L171.008 97.7743C171.197 97.498 171.546 97.4325 171.822 97.6213C172.098 97.8101 172.164 98.1589 171.975 98.4352Z" fill="#D1D3D4"/>
<path d="M173.976 106.182L167.745 115.298C167.556 115.574 167.207 115.64 166.931 115.451C166.654 115.262 166.589 114.913 166.778 114.637L173.009 105.521C173.198 105.245 173.547 105.18 173.823 105.368C174.146 105.488 174.165 105.906 173.976 106.182C174.023 106.113 174.023 106.113 173.976 106.182Z" fill="#D1D3D4"/>
<path d="M22.4935 153.614C22.4463 153.683 22.3519 153.822 22.2356 153.843L-24.0672 171.033C-24.347 171.145 -24.7395 170.978 -24.8522 170.699C-24.965 170.419 -24.798 170.026 -24.5183 169.914L21.7846 152.724C22.0643 152.612 22.4568 152.779 22.5696 153.058C22.6605 153.222 22.5879 153.476 22.4935 153.614Z" fill="#D1D3D4"/>
<path d="M84.3216 214.219C84.1328 214.496 83.784 214.561 83.5077 214.372C83.3696 214.278 83.2097 214.067 83.235 213.882L82.6488 186.427C82.6523 186.125 82.9575 185.827 83.3281 185.878C83.6297 185.881 83.8587 186.139 83.9024 186.371L84.4886 213.827C84.3942 213.965 84.416 214.081 84.3216 214.219Z" fill="#D1D3D4"/>
<path d="M77.3506 220.705L68.3813 233.826C68.1925 234.102 67.8436 234.168 67.5674 233.979C67.2912 233.79 67.2256 233.441 67.4144 233.165L76.3837 220.044C76.5725 219.767 76.9213 219.702 77.1976 219.891C77.4738 220.08 77.5394 220.428 77.3506 220.705Z" fill="#D1D3D4"/>
<path d="M83.2158 224.715L74.2465 237.837C74.0577 238.113 73.7089 238.178 73.4326 237.99C73.1564 237.801 73.0908 237.452 73.2797 237.176L82.2489 224.054C82.4378 223.778 82.7866 223.713 83.0628 223.901C83.339 224.09 83.4046 224.439 83.2158 224.715Z" fill="#D1D3D4"/>
<path d="M84.5397 235.24L80.0551 241.801C79.8663 242.077 79.5175 242.143 79.2412 241.954C78.965 241.765 78.8994 241.416 79.0883 241.14L83.5729 234.579C83.7617 234.303 84.1105 234.238 84.3867 234.426C84.663 234.615 84.7285 234.964 84.5397 235.24Z" fill="#D1D3D4"/>
</svg>
