<svg width="325" height="773" viewBox="0 0 325 773" fill="none" xmlns="http://www.w3.org/2000/svg">
<path d="M170.536 312.513H101.666V251.657C101.666 251.657 106.585 90.4717 277.12 90.4717C447.654 90.4717 447.654 251.657 447.654 251.657V519.751C447.654 519.751 447.654 676.001 277.12 676.001C106.585 676.001 101.666 519.751 101.666 519.751V453.961H170.536V519.751C170.536 519.751 177.095 606.922 277.12 606.922C377.145 606.922 377.145 519.751 377.145 519.751V251.657C377.145 251.657 377.145 159.551 277.12 159.551C177.095 159.551 170.536 251.657 170.536 251.657V312.513Z" fill="#00C9A7" fill-opacity="0.06"/>
<path d="M121.342 42.3749C224.645 -16.8365 304.994 3.29988 304.994 3.29988V68.6908C304.994 68.6908 239.403 52.6423 160.695 97.0504C81.9869 141.459 70.5087 199.025 68.8697 251.258L68.8697 346.653H236.125V290.732C236.125 290.732 236.125 259.481 272.199 259.481C308.274 259.481 304.994 290.732 304.994 290.732V478.232C304.994 478.232 308.274 506.193 272.199 506.193C236.125 506.193 236.125 478.232 236.125 478.232V417.377H68.8697V520.996C68.8697 520.996 75.4287 612.229 147.578 662.444C219.727 712.659 304.994 705.606 304.994 705.606V772.642C304.994 772.642 165.615 779.221 83.6275 696.983C1.63975 614.746 0 520.457 0 520.457L0 251.258C1.6392 205.604 18.039 101.586 121.342 42.3749Z" fill="#00C9A7" fill-opacity="0.06"/>
</svg>
