<svg width="288" height="773" viewBox="0 0 288 773" fill="none" xmlns="http://www.w3.org/2000/svg">
<path d="M10.5357 312.513H-58.334V251.657C-58.334 251.657 -53.4147 90.4717 117.12 90.4717C287.654 90.4717 287.654 251.657 287.654 251.657V519.751C287.654 519.751 287.654 676.001 117.12 676.001C-53.4147 676.001 -58.334 519.751 -58.334 519.751L-58.334 453.961H10.5357V519.751C10.5357 519.751 17.0947 606.922 117.12 606.922C217.145 606.922 217.145 519.751 217.145 519.751V251.657C217.145 251.657 217.145 159.551 117.12 159.551C17.0947 159.551 10.5357 251.657 10.5357 251.657V312.513Z" fill="#00C9A7" fill-opacity="0.06"/>
<path d="M-38.6581 42.3749C64.6447 -16.8365 144.994 3.29988 144.994 3.29988V68.6908C144.994 68.6908 79.4034 52.6423 0.695145 97.0504C-78.0131 141.459 -89.4913 199.025 -91.1303 251.258L-91.1303 346.653H76.1246V290.732C76.1246 290.732 76.1246 259.481 112.199 259.481C148.274 259.481 144.994 290.732 144.994 290.732V478.232C144.994 478.232 148.274 506.193 112.199 506.193C76.1246 506.193 76.1246 478.232 76.1246 478.232V417.377H-91.1303V520.996C-91.1303 520.996 -84.5713 612.229 -12.4221 662.444C59.7271 712.659 144.994 705.606 144.994 705.606V772.642C144.994 772.642 5.6152 779.221 -76.3725 696.983C-158.36 614.746 -160 520.457 -160 520.457L-160 251.258C-158.361 205.604 -141.961 101.586 -38.6581 42.3749Z" fill="#00C9A7" fill-opacity="0.06"/>
</svg>
