<svg width="147" height="49" viewBox="0 0 147 49" fill="none" xmlns="http://www.w3.org/2000/svg">
<path d="M61.3226 41.3269C59.5518 41.3269 57.9854 40.9728 56.6232 40.2644C55.2611 39.5289 54.1986 38.5073 53.4358 37.1996C52.7002 35.8919 52.3324 34.3799 52.3324 32.6636V20.6495C52.3324 18.9332 52.7002 17.4348 53.4358 16.1544C54.1986 14.8467 55.2611 13.8387 56.6232 13.1304C57.9854 12.4221 59.5518 12.0679 61.3226 12.0679C63.0934 12.0679 64.6599 12.4221 66.0221 13.1304C67.3842 13.8115 68.4331 14.7922 69.1686 16.0726C69.9314 17.3258 70.3128 18.7969 70.3128 20.486V20.7312C70.3128 20.8674 70.2583 20.99 70.1494 21.099C70.0676 21.2079 69.9587 21.2624 69.8225 21.2624L66.0221 21.4259C65.6951 21.4259 65.5317 21.2624 65.5317 20.9355V20.4451C65.5317 19.1647 65.1367 18.1295 64.3466 17.3394C63.5838 16.5494 62.5758 16.1544 61.3226 16.1544C60.0422 16.1544 59.007 16.5494 58.2169 17.3394C57.4541 18.1295 57.0727 19.1647 57.0727 20.4451V32.9906C57.0727 34.271 57.4541 35.3062 58.2169 36.0963C59.007 36.8591 60.0422 37.2405 61.3226 37.2405C62.5758 37.2405 63.5838 36.8591 64.3466 36.0963C65.1367 35.3062 65.5317 34.271 65.5317 32.9906V32.4593C65.5317 32.1596 65.6951 32.0098 66.0221 32.0098L69.8225 32.1733C69.9587 32.1733 70.0676 32.2277 70.1494 32.3367C70.2583 32.4185 70.3128 32.5274 70.3128 32.6636V32.8271C70.3128 34.5162 69.9314 36.0145 69.1686 37.3222C68.4331 38.6026 67.3842 39.597 66.0221 40.3053C64.6599 40.9864 63.0934 41.3269 61.3226 41.3269ZM75.2249 41C75.0887 41 74.9661 40.9591 74.8571 40.8774C74.7754 40.7684 74.7345 40.6458 74.7345 40.5096V12.8852C74.7345 12.749 74.7754 12.64 74.8571 12.5583C74.9661 12.4493 75.0887 12.3948 75.2249 12.3948H78.9844C79.1206 12.3948 79.2296 12.4493 79.3113 12.5583C79.4203 12.64 79.4748 12.749 79.4748 12.8852V40.5096C79.4748 40.6458 79.4203 40.7684 79.3113 40.8774C79.2296 40.9591 79.1206 41 78.9844 41H75.2249ZM90.9644 40.9591C90.8282 40.9591 90.7056 40.9183 90.5966 40.8365C90.5149 40.7276 90.474 40.605 90.474 40.4688V29.4353L90.4332 29.1902L83.3636 12.9669C83.3364 12.9125 83.3228 12.8307 83.3228 12.7218C83.3228 12.5038 83.459 12.3948 83.7314 12.3948H87.7361C88.0358 12.3948 88.2265 12.5174 88.3082 12.7626L92.7216 23.796C92.8033 23.9867 92.8851 23.9867 92.9668 23.796L97.3393 12.7626C97.421 12.5174 97.6117 12.3948 97.9114 12.3948H101.957C102.148 12.3948 102.27 12.4493 102.325 12.5583C102.379 12.6673 102.379 12.8035 102.325 12.9669L95.2143 29.1902L95.1735 29.4353V40.4688C95.1735 40.605 95.119 40.7276 95.01 40.8365C94.9283 40.9183 94.8193 40.9591 94.6831 40.9591H90.9644ZM106.671 41C106.535 41 106.413 40.9591 106.304 40.8774C106.222 40.7684 106.181 40.6458 106.181 40.5096V12.8852C106.181 12.749 106.222 12.64 106.304 12.5583C106.413 12.4493 106.535 12.3948 106.671 12.3948H110.431C110.567 12.3948 110.676 12.4493 110.758 12.5583C110.867 12.64 110.921 12.749 110.921 12.8852V36.7092C110.921 36.8454 110.989 36.9135 111.126 36.9135H122.363C122.5 36.9135 122.609 36.968 122.69 37.077C122.799 37.1587 122.854 37.2677 122.854 37.4039V40.5096C122.854 40.6458 122.799 40.7684 122.69 40.8774C122.609 40.9591 122.5 41 122.363 41H106.671ZM134.593 41.3678C132.795 41.3678 131.202 41 129.812 40.2644C128.45 39.5289 127.388 38.4936 126.625 37.1587C125.889 35.7966 125.521 34.2301 125.521 32.4593V20.9355C125.521 19.192 125.889 17.6527 126.625 16.3178C127.388 14.9557 128.45 13.9068 129.812 13.1713C131.202 12.4357 132.795 12.0679 134.593 12.0679C136.419 12.0679 138.012 12.4357 139.375 13.1713C140.764 13.9068 141.84 14.9557 142.603 16.3178C143.366 17.6527 143.747 19.192 143.747 20.9355V32.4593C143.747 34.2301 143.366 35.7966 142.603 37.1587C141.84 38.4936 140.764 39.5289 139.375 40.2644C138.012 41 136.419 41.3678 134.593 41.3678ZM134.593 37.2813C135.928 37.2813 136.991 36.8591 137.781 36.0145C138.598 35.1428 139.007 34.0258 139.007 32.6636V20.8129C139.007 19.4235 138.598 18.3066 137.781 17.462C136.991 16.5903 135.928 16.1544 134.593 16.1544C133.286 16.1544 132.237 16.5903 131.447 17.462C130.657 18.3066 130.262 19.4235 130.262 20.8129V32.6636C130.262 34.0258 130.657 35.1428 131.447 36.0145C132.237 36.8591 133.286 37.2813 134.593 37.2813Z" fill="white"/>
<rect y="3.18604" width="45.7882" height="45.7882" rx="9.46038" fill="white"/>
<path d="M20.3216 22.572H17.0488V19.6888C17.0488 19.6888 17.2826 12.0522 25.3867 12.0522C33.4908 12.0522 33.4908 19.6888 33.4908 19.6888V32.3904C33.4908 32.3904 33.4908 39.7932 25.3867 39.7932C17.2826 39.7932 17.0488 32.3904 17.0488 32.3904V29.2734H20.3216V32.3904C20.3216 32.3904 20.6333 36.5204 25.3867 36.5204C30.14 36.5204 30.14 32.3904 30.14 32.3904V19.6888C30.14 19.6888 30.14 15.325 25.3867 15.325C20.6333 15.325 20.3216 19.6888 20.3216 19.6888V22.572Z" fill="#00C9A7"/>
<path d="M17.9832 9.77373C22.8923 6.96844 26.7106 7.92245 26.7106 7.92245V11.0205C26.7106 11.0205 23.5936 10.2602 19.8533 12.3641C16.113 14.4681 15.5675 17.1954 15.4896 19.6701V24.1896H23.4378V21.5402C23.4378 21.5402 23.4378 20.0597 25.1522 20.0597C26.8665 20.0597 26.7106 21.5402 26.7106 21.5402V30.4235C26.7106 30.4235 26.8665 31.7483 25.1522 31.7483C23.4378 31.7483 23.4378 30.4235 23.4378 30.4235V27.5404H15.4896V32.4496C15.4896 32.4496 15.8013 36.772 19.2299 39.151C22.6586 41.5301 26.7106 41.196 26.7106 41.196V44.3719C26.7106 44.3719 20.0871 44.6836 16.1909 40.7874C12.2947 36.8912 12.2168 32.4241 12.2168 32.4241V19.6701C12.2947 17.5071 13.074 12.579 17.9832 9.77373Z" fill="#00C9A7"/>
</svg>
