<svg width="633" height="422" viewBox="0 0 633 422" fill="none" xmlns="http://www.w3.org/2000/svg">
<g clip-path="url(#clip0_8858_15946)">
<path opacity="0.1" d="M210.445 421.763C241.272 421.763 266.262 417.985 266.262 413.325C266.262 408.665 241.272 404.888 210.445 404.888C179.619 404.888 154.629 408.665 154.629 413.325C154.629 417.985 179.619 421.763 210.445 421.763Z" fill="#00C9A7"/>
<path opacity="0.1" d="M513.857 422C552.324 422 583.508 418.222 583.508 413.562C583.508 408.903 552.324 405.125 513.857 405.125C475.391 405.125 444.207 408.903 444.207 413.562C444.207 418.222 475.391 422 513.857 422Z" fill="#00C9A7"/>
<path opacity="0.1" d="M7.92782 182.334H66.0643V256.913H12.1839C12.0407 257.678 11.9033 258.449 11.7543 259.22H66.0643V319.366C65.9669 319.339 65.881 319.306 65.7894 319.274C64.2542 318.702 62.7304 318.099 61.2067 317.452L60.2329 317.037C58.7054 316.357 57.1778 315.638 55.6503 314.88C55.1175 314.616 54.5848 314.341 54.0578 314.061C45.5775 309.59 37.8737 303.924 31.2134 297.261C31.0186 297.083 30.8353 296.895 30.6405 296.722C29.7125 295.773 28.8017 294.814 27.9196 293.832L26.9458 292.754C25.9032 291.552 24.895 290.317 23.9155 289.066C23.7723 288.883 23.6348 288.7 23.4859 288.527C19.5021 283.329 16.1943 277.699 13.6332 271.76C13.553 271.582 13.4843 271.388 13.4098 271.221C12.6231 269.316 11.9262 267.393 11.319 265.452C11.0555 264.638 10.8034 263.835 10.5857 262.989C10.5055 262.741 10.4368 262.498 10.3738 262.255C7.12012 250.303 6.73633 237.887 6.73633 225.557C6.73633 224.117 6.73633 222.672 6.73633 221.244C6.73633 216.257 6.79934 211.237 6.89099 206.223C6.89099 204.924 6.94827 203.63 6.97692 202.325C7.05711 199.015 7.17168 195.705 7.32061 192.395C7.35498 191.473 7.40081 190.556 7.45237 189.64C7.45237 189.111 7.48101 188.583 7.53829 188.055C7.67577 186.135 7.79034 184.232 7.92782 182.334Z" fill="#00C9A7"/>
<path opacity="0.1" d="M66.0652 99.2971H34.1758C39.3596 91.6607 45.0235 84.3226 51.1373 77.3221C55.8746 71.8445 60.8754 66.5071 66.0652 61.3638V99.2971Z" fill="#00C9A7"/>
<path opacity="0.1" d="M66.0645 101.605V180.027H8.11133C8.11133 179.801 8.15143 179.569 8.16861 179.342C8.22016 178.722 8.27172 178.102 8.329 177.488C8.39201 176.765 8.46075 176.038 8.53522 175.331C8.60969 174.625 8.68989 173.762 8.77581 172.981C8.86174 172.199 8.94193 171.406 9.03931 170.625C9.13669 169.843 9.22262 169.061 9.32573 168.285C9.42884 167.508 9.52049 166.721 9.62933 165.945C9.71525 165.298 9.8069 164.656 9.89855 164.009C10.0303 163.098 10.1678 162.182 10.3167 161.276C10.3167 161.141 10.3568 161.001 10.3797 160.872C11.4253 154.241 12.8499 147.669 14.6473 141.183C16.5288 134.379 18.9315 127.712 21.8363 121.235C24.9237 114.459 28.5385 107.907 32.6514 101.632L66.0645 101.605Z" fill="#00C9A7"/>
<path opacity="0.1" d="M79.9434 182.329V256.912H204.116V182.329H79.9434ZM79.9434 259.215V323.263C80.6537 323.404 81.3583 323.538 82.0571 323.652C83.008 323.824 83.9532 323.98 84.9213 324.115C85.1046 324.142 85.2936 324.169 85.4941 324.185C85.8722 324.245 86.2617 324.293 86.6397 324.342C87.5964 324.466 88.5473 324.568 89.5039 324.649C89.9564 324.692 90.4147 324.73 90.873 324.762L91.9785 324.843C92.58 324.886 93.1757 324.919 93.7657 324.935C94.1323 324.935 94.499 324.967 94.877 324.978C95.1634 324.978 95.4499 324.978 95.7477 324.978C96.0456 324.978 96.4695 324.978 96.8304 324.978C97.323 324.978 97.8157 324.978 98.3026 324.978H98.9613C99.4539 324.978 99.9466 324.978 100.433 324.935H100.468C100.806 324.935 101.15 324.935 101.493 324.892C101.589 324.897 101.684 324.897 101.78 324.892C102.066 324.892 102.352 324.892 102.627 324.854H102.828L104.747 324.714C105.377 324.66 106.013 324.59 106.654 324.525L107.96 324.379C113.274 323.679 118.528 322.627 123.685 321.231C135.267 318.19 146.598 313.936 158.175 310.82C173.143 306.804 189.68 304.831 204.144 309.742V259.215H79.9434ZM204.116 99.2973V0.00539891C190.521 -0.133225 176.963 1.3633 163.771 4.45863C132.329 11.8933 104.117 28.0187 79.9434 48.6135V99.2919H86.1757V101.594H79.9434V180.027H204.116V101.599H111.764V99.2973H204.116ZM363.609 65.7579C355.83 65.4991 348.097 63.1809 341.102 59.601C327.727 52.7541 317.043 42.1817 305.106 33.259C280.302 14.6752 249.541 3.46123 217.984 0.679314V99.2973H395.246L395.687 98.8606L363.609 65.7579ZM379.757 63.0623L396.879 80.7458V58.4257C391.145 59.0942 386.121 60.6847 379.78 63.0407L379.757 63.0623ZM396.879 339.168V259.215H360.395C360.298 258.875 360.2 258.53 360.086 258.185C360.195 258.53 360.286 258.875 360.389 259.215H218.007V317.036C219.359 317.98 220.693 318.972 222.017 319.98C223.443 321.058 224.852 322.196 226.267 323.312L227.693 324.423C228.375 324.962 229.062 325.501 229.756 326.008C231.13 327.057 232.519 328.092 233.92 329.113C234.613 329.652 235.323 330.137 236.028 330.644C247.214 338.693 259.013 345.957 271.332 352.377C274.093 353.814 276.878 355.218 279.689 356.587C281.562 357.488 283.447 358.382 285.337 359.25C288.178 360.555 291.043 361.813 293.93 363.024C320.547 374.27 348.693 381.986 377.563 385.954C383.975 386.845 390.411 387.546 396.873 388.056V339.162H397.446L396.879 339.168ZM218.007 101.599V180.027H396.902V101.599H218.007ZM218.007 182.329V256.912H396.902V182.329H218.007ZM410.787 58.3287V83.2258L432.64 60.6577C425.4 59.5579 418.115 58.7726 410.787 58.3017V58.3287ZM410.787 182.356V256.912H584.784V182.329L410.787 182.356ZM584.148 345.087L584.761 259.215H410.787V388.914C421.994 389.357 433.219 389.231 444.412 388.536H444.607C449.953 388.22 455.275 387.76 460.572 387.156H460.692C488.95 384.061 516.581 377.122 542.721 366.556M618.335 194.61C617.682 193.16 617 191.721 616.307 190.297C615.012 187.602 613.643 184.982 612.234 182.361H598.658V256.912H632.982C632.965 235.8 627.288 214.235 618.352 194.583L618.335 194.61ZM598.658 259.242V333.103C608.327 324.379 616.496 314.4 622.379 302.992C629.453 289.255 632.69 274.38 632.953 259.231L598.658 259.242ZM598.658 160.624V180.032H610.962C607.24 173.351 603.138 166.863 598.675 160.597L598.658 160.624ZM480.655 72.9607C479.75 72.6372 478.845 72.3084 477.934 71.9903C468.328 68.6516 458.512 65.8752 448.542 63.6769L415.1 98.219L414.459 98.8606L414.888 99.3027H533.911C517.335 88.5635 499.464 79.712 480.672 72.9338L480.655 72.9607ZM537.4 101.626H413.227L410.787 103.729V180.027H432.176H432.211H584.807V143.069C571.003 127.357 555.071 113.415 537.417 101.599L537.4 101.626Z" fill="#00C9A7"/>
<path opacity="0.1" d="M66.0645 141.161V180.027H8.11133C8.11133 179.8 8.15143 179.568 8.16861 179.342C8.22016 178.722 8.27172 178.102 8.329 177.487C8.39201 176.765 8.46075 176.037 8.53522 175.331C8.60969 174.625 8.68989 173.762 8.77581 172.98C8.86174 172.198 8.94193 171.406 9.03931 170.624C9.13669 169.842 9.22262 169.061 9.32573 168.284C9.42884 167.508 9.52049 166.721 9.62933 165.945C9.71525 165.298 9.8069 164.656 9.89855 164.009C10.0303 163.098 10.1678 162.181 10.3167 161.276C10.3167 161.141 10.3568 161.001 10.3797 160.871C11.4253 154.241 12.8499 147.668 14.6473 141.182L66.0645 141.161Z" fill="#00C9A7"/>
<path opacity="0.1" d="M7.92782 182.334H66.0643V256.913H12.1839C12.0407 257.678 11.9033 258.449 11.7543 259.22H66.0643V319.366C65.9669 319.339 65.881 319.306 65.7894 319.274C64.2542 318.702 62.7304 318.099 61.2067 317.452L60.2329 317.037C58.7054 316.357 57.1778 315.638 55.6503 314.88C55.1175 314.616 54.5848 314.341 54.0578 314.061C45.5775 309.59 37.8737 303.924 31.2134 297.261C31.0186 297.083 30.8353 296.895 30.6405 296.722C29.7125 295.773 28.8017 294.814 27.9196 293.832L26.9458 292.754C25.9032 291.552 24.895 290.317 23.9155 289.066C23.7723 288.883 23.6348 288.7 23.4859 288.527C19.5021 283.329 16.1943 277.699 13.6332 271.76C13.553 271.582 13.4843 271.388 13.4098 271.221C12.6231 269.316 11.9262 267.393 11.319 265.452C11.0555 264.638 10.8034 263.835 10.5857 262.989C10.5055 262.741 10.4368 262.498 10.3738 262.255C7.12012 250.303 6.73633 237.887 6.73633 225.557C6.73633 224.117 6.73633 222.672 6.73633 221.244C6.73633 216.257 6.79934 211.237 6.89099 206.223C6.89099 204.924 6.94827 203.63 6.97692 202.325C7.05711 199.015 7.17168 195.705 7.32061 192.395C7.35498 191.473 7.40081 190.556 7.45237 189.64C7.45237 189.111 7.48101 188.583 7.53829 188.055C7.67577 186.135 7.79034 184.232 7.92782 182.334Z" fill="#00C9A7"/>
<path opacity="0.1" d="M123.656 112.829V180.027H79.9434V112.829H86.1758V90.0781H111.758V112.829H123.656Z" fill="#00C9A7"/>
<path opacity="0.1" d="M123.656 182.329H79.9492V256.907H123.656V182.329Z" fill="#00C9A7"/>
<path opacity="0.1" d="M79.9434 259.22H123.656V321.22C118.5 322.614 113.245 323.665 107.932 324.363L106.626 324.514C105.984 324.584 105.348 324.643 104.718 324.703C104.088 324.762 103.435 324.805 102.799 324.843H102.599C102.324 324.843 102.026 324.875 101.757 324.881H101.465C101.121 324.881 100.777 324.913 100.433 324.924C99.9466 324.951 99.4597 324.956 98.9613 324.961C98.7494 324.961 98.5489 324.961 98.3369 324.961C97.8443 324.961 97.3574 324.961 96.8648 324.961H95.7821C95.49 324.961 95.2093 324.961 94.9057 324.961L93.8001 324.924C93.2273 324.924 92.6086 324.864 92.0129 324.827L90.913 324.751L89.544 324.633C88.5816 324.552 87.625 324.449 86.6798 324.325L85.5342 324.174L84.9613 324.099C84.0047 323.959 83.0596 323.808 82.0972 323.635C81.3926 323.522 80.6938 323.382 79.9835 323.247L79.9434 259.22Z" fill="#00C9A7"/>
<path opacity="0.1" d="M396.902 104.894H360.859V180.022H396.902V104.894Z" fill="#00C9A7"/>
<path opacity="0.1" d="M396.908 182.329V256.913H218.008V224.743H313.298V243.72H360.86V182.329H396.908Z" fill="#00C9A7"/>
<path opacity="0.1" d="M397.475 339.184H396.903V388.11C390.449 387.596 384.014 386.897 377.598 386.013C348.714 382.033 320.556 374.3 293.931 363.035C286.243 359.779 278.712 356.224 271.338 352.371C259.02 345.949 247.219 338.685 236.029 330.639C233.218 328.612 230.444 326.538 227.706 324.417C225.81 322.946 223.925 321.436 222.018 319.97C220.694 318.961 219.36 317.969 218.008 317.02V259.22H360.385C360.287 258.875 360.19 258.53 360.087 258.19C360.196 258.53 360.299 258.875 360.396 259.22H396.903V339.152C397.097 339.157 397.286 339.173 397.475 339.184Z" fill="#00C9A7"/>
<path opacity="0.1" d="M490.904 99.2973H467.418V92.4288H477.947V71.9688C478.859 72.2814 479.768 72.6031 480.673 72.9338V92.4288H490.904V99.2973Z" fill="#00C9A7"/>
<path opacity="0.1" d="M547.487 180.027H432.188C432.188 180.027 432.188 180.027 432.228 180.054L432.177 180.027H410.787V104.899H416.848V160.43H444.544V127.543H467.423V101.605H490.909V127.564H513.788V160.451H547.487V180.027Z" fill="#00C9A7"/>
<path opacity="0.1" d="M410.787 182.329V256.913H547.487V182.329H410.787ZM584.595 344.705L584.784 285.67H547.487V259.252H410.787V388.914C421.995 389.357 433.219 389.231 444.412 388.536H444.607C449.953 388.22 455.275 387.76 460.572 387.156H460.692C488.95 384.061 516.581 377.122 542.721 366.556" fill="#00C9A7"/>
<path opacity="0.1" d="M601.087 259.22H632.977C632.696 274.364 629.466 289.239 622.397 302.976C616.514 314.389 608.34 324.368 598.682 333.086V285.643H601.087V259.22Z" fill="#00C9A7"/>
<path opacity="0.1" d="M632.995 256.913H601.088V194.583H618.353C627.289 214.235 632.966 235.8 632.995 256.913Z" fill="#00C9A7"/>
<path opacity="0.1" d="M396.908 125.779H377.598V149.334H396.908V125.779Z" fill="#00C9A7"/>
<path opacity="0.1" d="M396.908 174.603H377.598V180.027H396.908V174.603Z" fill="#00C9A7"/>
<path opacity="0.1" d="M396.908 182.329H377.598V198.153H396.908V182.329Z" fill="#00C9A7"/>
<path opacity="0.1" d="M396.908 223.427H377.598V246.982H396.908V223.427Z" fill="#00C9A7"/>
<path opacity="0.1" d="M396.908 272.251H377.598V295.806H396.908V272.251Z" fill="#00C9A7"/>
<path opacity="0.1" d="M396.902 339.152C397.097 339.152 397.286 339.152 397.475 339.184H396.902V344.656H377.598V321.075H396.902V339.152Z" fill="#00C9A7"/>
<path opacity="0.1" d="M396.902 369.888V388.083C390.448 387.569 384.013 386.87 377.598 385.986V369.888H396.902Z" fill="#00C9A7"/>
<path opacity="0.1" d="M300.765 255.182H218.008V256.912H300.765V255.182Z" fill="#00C9A7"/>
<path opacity="0.1" d="M300.765 259.214H218.008V265.846H300.765V259.214Z" fill="#00C9A7"/>
<path opacity="0.1" d="M300.765 287.583H218.008V298.248H300.765V287.583Z" fill="#00C9A7"/>
<path opacity="0.1" d="M300.759 319.985V330.649H236.029C233.218 328.629 230.442 326.556 227.7 324.428C225.804 322.956 223.925 321.446 222.012 319.985H300.759Z" fill="#00C9A7"/>
<path opacity="0.1" d="M300.758 352.382V363.035H293.925C286.245 359.775 278.716 356.219 271.338 352.366L300.758 352.382Z" fill="#00C9A7"/>
<path opacity="0.1" d="M460.709 189.559H444.418V204.892H460.709V189.559Z" fill="#00C9A7"/>
<path opacity="0.1" d="M107.973 118.118H91.6816V133.451H107.973V118.118Z" fill="#00C9A7"/>
<path opacity="0.1" d="M107.973 153.733H91.6816V169.066H107.973V153.733Z" fill="#00C9A7"/>
<path opacity="0.1" d="M107.973 189.349H91.6816V204.682H107.973V189.349Z" fill="#00C9A7"/>
<path opacity="0.1" d="M107.973 224.958H91.6816V240.291H107.973V224.958Z" fill="#00C9A7"/>
<path opacity="0.1" d="M107.973 260.573H91.6816V275.906H107.973V260.573Z" fill="#00C9A7"/>
<path opacity="0.1" d="M107.973 296.188H91.6816V311.521H107.973V296.188Z" fill="#00C9A7"/>
<path opacity="0.1" d="M522.903 189.559H506.611V204.892H522.903V189.559Z" fill="#00C9A7"/>
<path opacity="0.1" d="M460.709 227.379H444.418V242.712H460.709V227.379Z" fill="#00C9A7"/>
<path opacity="0.1" d="M522.903 227.379H506.611V242.712H522.903V227.379Z" fill="#00C9A7"/>
<path opacity="0.1" d="M460.709 265.193H444.418V280.526H460.709V265.193Z" fill="#00C9A7"/>
<path opacity="0.1" d="M522.903 265.193H506.611V280.526H522.903V265.193Z" fill="#00C9A7"/>
<path opacity="0.1" d="M460.709 303.014H444.418V318.347H460.709V303.014Z" fill="#00C9A7"/>
<path opacity="0.1" d="M522.903 303.014H506.611V318.347H522.903V303.014Z" fill="#00C9A7"/>
<path opacity="0.1" d="M460.709 340.834H444.418V356.167H460.709V340.834Z" fill="#00C9A7"/>
<path opacity="0.1" d="M522.903 340.834H506.611V356.167H522.903V340.834Z" fill="#00C9A7"/>
<path opacity="0.1" d="M444.418 388.536V378.648H460.704V387.129L444.418 388.536Z" fill="#00C9A7"/>
<path opacity="0.1" d="M10.3105 160.861V169.633H66.0641V160.861H10.3105ZM15.867 169.083H11.3187V161.4H15.9014L15.867 169.083ZM21.4177 169.083H16.8351V161.4H21.4177V169.083ZM26.957 169.083H22.3743V161.4H26.957V169.083ZM32.5077 169.083H27.9308V161.4H32.5134L32.5077 169.083ZM38.0527 169.083H33.4701V161.4H38.0527V169.083ZM43.6034 169.083H39.0208V161.4H43.6034V169.083ZM49.1541 169.083H44.5715V161.4H49.1541V169.083ZM54.6991 169.083H50.1165V161.4H54.6991V169.083ZM60.2441 169.083H55.6615V161.4H60.2441V169.083ZM65.7891 169.083H61.2065V161.4H65.7891V169.083Z" fill="#00C9A7"/>
<path opacity="0.1" d="M10.3105 186.383V195.155H66.0641V186.383H10.3105ZM15.867 194.6H11.3187V186.939H15.9014L15.867 194.6ZM21.4177 194.6H16.8351V186.939H21.4177V194.6ZM26.957 194.6H22.3743V186.939H26.957V194.6ZM32.5077 194.6H27.9308V186.939H32.5134L32.5077 194.6ZM38.0527 194.6H33.4701V186.939H38.0527V194.6ZM43.6034 194.6H39.0208V186.939H43.6034V194.6ZM49.1541 194.6H44.5715V186.939H49.1541V194.6ZM54.6991 194.6H50.1165V186.939H54.6991V194.6ZM60.2441 194.6H55.6615V186.939H60.2441V194.6ZM65.7891 194.6H61.2065V186.939H65.7891V194.6Z" fill="#00C9A7"/>
<path opacity="0.1" d="M10.3105 211.917V220.704H66.0641V211.917H10.3105ZM15.867 220.133H11.3187V212.466H15.9014L15.867 220.133ZM21.4177 220.133H16.8351V212.466H21.4177V220.133ZM26.957 220.133H22.3743V212.466H26.957V220.133ZM32.5077 220.133H27.9308V212.466H32.5134L32.5077 220.133ZM38.0527 220.133H33.4701V212.466H38.0527V220.133ZM43.6034 220.133H39.0208V212.466H43.6034V220.133ZM49.1541 220.133H44.5715V212.466H49.1541V220.133ZM54.6991 220.133H50.1165V212.466H54.6991V220.133ZM60.2441 220.133H55.6615V212.466H60.2441V220.133ZM65.7891 220.133H61.2065V212.466H65.7891V220.133Z" fill="#00C9A7"/>
<path opacity="0.1" d="M10.3105 237.45V246.211H66.0641V237.45H10.3105ZM15.867 245.666H11.3187V237.994H15.9014L15.867 245.666ZM21.4177 245.666H16.8351V237.994H21.4177V245.666ZM26.957 245.666H22.3743V237.994H26.957V245.666ZM32.5077 245.666H27.9308V237.994H32.5134L32.5077 245.666ZM38.0527 245.666H33.4701V237.994H38.0527V245.666ZM43.6034 245.666H39.0208V237.994H43.6034V245.666ZM49.1541 245.666H44.5715V237.994H49.1541V245.666ZM54.6991 245.666H50.1165V237.994H54.6991V245.666ZM60.2441 245.666H55.6615V237.994H60.2441V245.666ZM65.7891 245.666H61.2065V237.994H65.7891V245.666Z" fill="#00C9A7"/>
<path opacity="0.1" d="M10.5508 262.978C10.7742 263.802 11.0262 264.627 11.2897 265.441V263.527H15.8724V271.194H13.4207C13.4951 271.372 13.5696 271.566 13.6441 271.733H66.0637V262.978H10.5508ZM21.4346 271.194H16.8519V263.527H21.4346V271.194ZM26.9738 271.194H22.3912V263.527H26.9738V271.194ZM32.5245 271.194H27.9304V263.527H32.5131L32.5245 271.194ZM38.0695 271.194H33.4869V263.527H38.0695V271.194ZM43.6203 271.194H39.0376V263.527H43.6203V271.194ZM49.171 271.194H44.5883V263.527H49.171V271.194ZM54.716 271.194H50.1333V263.527H54.716V271.194ZM60.261 271.194H55.6783V263.527H60.261V271.194ZM65.806 271.194H61.2233V263.527H65.806V271.194Z" fill="#00C9A7"/>
<path opacity="0.1" d="M23.498 288.511C23.6413 288.683 23.7787 288.877 23.9277 289.05H26.9579V292.732C27.2845 293.099 27.6052 293.465 27.9375 293.81V289.028H32.5201V296.722H30.6641C30.8475 296.9 31.025 297.088 31.237 297.261H66.0822V288.511H23.498ZM38.0537 296.722H33.471V289.061H38.0537V296.722ZM43.6044 296.722H39.0217V289.061H43.6044V296.722ZM49.1551 296.722H44.5725V289.061H49.1551V296.722ZM54.7001 296.722H50.1174V289.061H54.7001V296.722ZM60.2451 296.722H55.6624V289.061H60.2451V296.722ZM65.7901 296.722H61.2074V289.061H65.7901V296.722Z" fill="#00C9A7"/>
<path opacity="0.1" d="M54.0801 314.039C54.6014 314.319 55.1341 314.578 55.6725 314.859V314.589H60.2552V317.015L61.229 317.441V314.589H65.8116V319.252C65.8995 319.294 65.9917 319.326 66.0866 319.349V314.039H54.0801Z" fill="#00C9A7"/>
<path opacity="0.1" d="M360.086 258.185C360.195 258.53 360.287 258.875 360.39 259.215C360.298 258.875 360.201 258.53 360.086 258.185ZM86.1992 99.2812V101.583H111.788V99.2812H86.1992ZM360.086 258.185C360.195 258.53 360.287 258.875 360.39 259.215C360.298 258.875 360.201 258.53 360.086 258.185ZM360.086 258.185C360.195 258.53 360.287 258.875 360.39 259.215C360.298 258.875 360.201 258.53 360.086 258.185Z" fill="#00C9A7"/>
<path d="M264.418 204.692C264.418 204.692 262.161 204.396 262.161 201.301C262.161 198.207 260.546 192.427 260.546 192.427C260.546 192.4 259.148 182.362 257.218 180.766C255.287 179.17 252.807 169.8 252.807 169.8C252.807 169.8 252.383 164.716 251.518 163.621C250.653 162.527 249.484 159.847 247.76 156.025C246.036 152.203 238.847 149.555 238.847 149.555C238.847 149.555 225.849 142.46 222.166 140.148C221.831 139.958 221.518 139.735 221.232 139.484C220.591 138.692 217.795 138.676 217.795 138.676C217.503 136.94 217.223 134.945 217.131 133.139C217.131 132.945 217.131 132.751 217.102 132.557C221.209 130.272 224.303 126.669 225.815 122.41C225.884 122.205 225.941 121.99 226.004 121.785C226.25 121.708 226.477 121.585 226.669 121.421C226.861 121.258 227.015 121.058 227.121 120.836C227.453 120.14 227.459 119.326 227.872 118.679C228.353 117.914 229.269 117.504 229.991 116.927C231.813 115.471 232.282 113.018 232.196 110.786C232.139 108.98 231.83 107.158 231.95 105.363L231.984 104.91C232.019 104.64 232.059 104.371 232.11 104.112C232.391 102.775 233.004 101.513 233.348 100.187C233.691 98.8608 233.726 97.3674 232.924 96.2245C231.75 94.5478 229.304 94.2135 227.156 94.041C224.721 93.8469 222.544 94.1003 220.986 92.1972C220.257 91.2025 219.437 90.2698 218.534 89.4098C218.214 89.1295 215.097 87.3396 215.097 87.221C212.056 85.8952 208.609 85.6463 205.388 86.5201C203.773 86.9622 202.249 87.6846 200.611 88.0458C197.076 88.833 193.009 87.9811 190.007 89.8843C188.335 90.9625 187.332 92.677 186.393 94.3483C185.629 95.7249 184.854 97.0997 184.067 98.4726C182.801 100.732 181.512 103.028 180.98 105.53C180.868 106.074 180.799 106.626 180.773 107.18V107.207C180.773 107.406 180.773 107.606 180.773 107.805V108.058C180.773 108.247 180.773 108.43 180.808 108.598C180.842 108.765 180.836 108.819 180.854 108.932C180.871 109.045 180.899 109.298 180.934 109.471C180.968 109.643 181.037 109.945 181.106 110.183C181.134 110.285 181.174 110.382 181.209 110.479C181.266 110.662 181.335 110.84 181.409 111.018C181.449 111.11 181.49 111.207 181.535 111.299C181.621 111.487 181.724 111.671 181.827 111.838C181.873 111.913 181.908 111.983 181.954 112.053C182.113 112.304 182.289 112.545 182.48 112.776C183.706 114.215 185.511 115.132 186.845 116.48C186.845 116.534 186.845 116.587 186.845 116.636C186.845 116.787 186.845 116.933 186.845 117.083C186.916 120.089 187.766 123.034 189.322 125.66C190.877 128.286 193.091 130.515 195.77 132.152C195.77 132.357 195.799 132.567 195.81 132.772C195.922 134.373 195.901 135.979 195.747 137.576C195.514 137.317 195.222 137.111 194.893 136.973C194.564 136.835 194.206 136.768 193.845 136.778C193.599 136.767 193.353 136.787 193.112 136.837L193.061 136.8V136.848C191.8 137.139 190.248 138.374 188.764 141.884C188.764 141.884 184.251 146.671 180.814 146.472C177.377 146.272 168.675 151.453 168.675 151.453C168.675 151.453 160.186 156.64 158.364 161.923C157.346 164.919 156.125 167.851 154.71 170.7L144.215 191.052L142.279 207.199C142.279 207.199 143.35 214.381 143.139 215.475C142.927 216.569 147.544 226.441 147.544 226.441C147.544 226.441 162.798 251.667 169.03 252.961L169.477 252.664C169.744 252.795 170.027 252.895 170.319 252.961L171.602 252.109C171.68 253.058 171.647 254.013 171.505 254.956C170.646 257.446 171.826 273.701 173.327 276.888C174.827 280.074 174.295 321.851 174.295 321.851L174.083 325.539C174.083 325.539 174.083 325.657 174.134 325.862L174.083 326.736L174.237 326.811C174.398 327.981 174.346 329.168 174.083 330.321C173.544 331.938 173.327 336.51 173.327 336.51C173.327 336.51 169.036 362.324 171.07 367.51C173.103 372.697 174.833 378.379 174.833 378.379C174.833 378.379 176.981 384.849 174.936 385.954C172.891 387.059 167.077 388.914 168.274 391.609C169.363 394.1 173.493 400.775 174.106 401.75L174.054 402.263L173.212 410.851C173.348 411.985 173.675 413.091 174.18 414.129C175.102 416 176.895 417.941 180.304 417.73C180.877 417.693 181.541 417.628 182.183 417.547C188.421 416.76 196.102 414.14 196.102 414.14C195.704 413.901 195.338 413.617 195.014 413.293C194.707 413.014 194.464 412.678 194.3 412.308C194.136 411.937 194.053 411.538 194.057 411.137C194.149 409.573 191.039 402.122 190.265 400.289C190.145 400.025 190.082 399.874 190.082 399.874C190.082 399.874 197.174 392.898 195.994 386.714C195.994 386.714 188.146 382.401 190.729 380.034C193.313 377.667 197.93 370.869 197.93 370.869C197.93 370.869 198.142 345.449 197.93 341.653C197.709 339.019 197.841 336.369 198.325 333.766C198.411 333.372 198.514 332.99 198.623 332.612C202.196 333.114 205.803 333.372 209.415 333.383C210.732 333.383 212.073 333.383 213.425 333.308C213.425 333.667 213.442 334.055 213.476 334.472C213.774 340.769 214.33 351.811 214.782 355.913C215.424 361.795 218.97 377.646 218.97 377.646C218.97 377.646 212.205 381.733 220.15 391.803C220.15 391.803 220.15 395.453 219.623 395.982C219.06 397.709 218.607 399.466 218.265 401.244C217.933 403.141 217.795 405.061 218.334 406.058C219.623 408.441 227.356 408.247 227.356 408.247L227.545 408.215C229.005 408.073 230.48 408.205 231.886 408.604C233.291 409.003 234.598 409.66 235.731 410.538C238.669 412.76 249.822 411.784 255.86 411.077C258.226 410.797 259.807 410.538 259.807 410.538C259.883 410.286 259.911 410.023 259.887 409.762C259.824 408.366 258.661 405.303 250.779 402.57C250.779 402.57 243.367 397.88 243.47 393.793H243.315H242.456C243.08 393.761 243.481 393.793 243.481 393.793C243.481 393.793 240.577 383.819 241.763 383.01C242.948 382.202 239.397 371.149 239.397 371.149C239.397 371.149 237.363 352.603 237.255 351.304C237.259 350.189 237.439 349.081 237.787 348.015L237.255 337.847C237.255 337.847 237.151 334.467 237.255 333.367C237.237 332.412 237.155 331.46 237.008 330.515C236.957 330.138 236.905 329.744 236.848 329.356C239.626 328.693 241.43 328.078 241.43 328.078L241.11 292.684C243.47 288.371 243.905 278.909 243.894 272.197C243.894 267.884 243.687 264.692 243.687 264.692L246.912 259.738C246.912 259.738 247.657 253.807 246.477 252.508C245.956 251.92 246.191 251.311 246.62 250.81C246.843 250.643 247.079 250.492 247.325 250.357C247.325 250.357 247.29 250.308 247.25 250.238C247.476 250.061 247.715 249.901 247.966 249.758C247.966 249.758 246.821 248.087 247.846 247.381C248.808 247.995 249.668 248.459 250.321 248.837C250.275 249.23 250.229 249.457 250.229 249.457L250.504 248.917C251.134 249.252 251.518 249.457 251.518 249.457C251.518 249.457 256.57 239.984 256.461 238.588C256.353 237.191 259.898 231.309 259.898 231.309C259.898 231.309 260.328 228.22 262.264 226.926C264.2 225.632 263.765 216.257 263.765 216.257C263.765 216.257 264.304 211.372 265.592 209.377C266.881 207.383 264.418 204.692 264.418 204.692ZM167.747 200.536L167.845 202.795C167.272 201.927 166.859 201.301 166.859 201.301L167.747 200.536Z" fill="url(#paint0_linear_8858_15946)"/>
<path d="M251.794 245.364L250.556 250.324C250.556 250.324 240.646 245.564 238.859 239.515C237.072 233.466 241.849 231.169 241.849 231.169L251.083 234.851L251.794 245.364Z" fill="white"/>
<path opacity="0.1" d="M251.794 245.364L250.556 250.324C250.556 250.324 240.646 245.564 238.859 239.515C237.072 233.466 241.849 231.169 241.849 231.169L251.083 234.851L251.794 245.364Z" fill="black"/>
<path d="M196.176 414.172C196.176 414.172 187.011 417.342 180.71 417.741C177.365 417.951 175.606 416.021 174.701 414.161C174.207 413.127 173.888 412.026 173.756 410.899L174.575 402.354L175.01 397.804L188.397 394.531L190.293 399.987L190.471 400.402C191.233 402.225 194.286 409.638 194.194 411.185C194.191 411.581 194.272 411.974 194.433 412.34C194.595 412.706 194.833 413.037 195.134 413.315C195.441 413.641 195.792 413.929 196.176 414.172Z" fill="white"/>
<path d="M258.782 409.827C258.805 410.086 258.778 410.347 258.702 410.598C258.702 410.598 239.1 413.676 235.09 410.598C233.959 409.698 232.641 409.031 231.221 408.639C229.8 408.248 228.309 408.14 226.841 408.322C226.841 408.322 219.257 408.516 217.991 406.166C217.464 405.179 217.601 403.265 217.928 401.378C218.261 399.61 218.705 397.862 219.257 396.143L219.56 395.917L221.365 394.553L242.491 393.965H242.651C242.548 398.03 249.823 402.694 249.823 402.694C257.55 405.39 258.69 408.436 258.782 409.827Z" fill="white"/>
<path opacity="0.1" d="M258.781 409.827C258.801 410.086 258.772 410.347 258.695 410.598C258.695 410.598 239.099 413.676 235.089 410.598C233.959 409.699 232.642 409.032 231.223 408.641C229.803 408.249 228.312 408.14 226.846 408.322C226.846 408.322 219.256 408.517 217.995 406.166C217.468 405.174 217.6 403.265 217.927 401.378C220.848 401.653 225.459 402.338 227.27 403.972C230.008 406.457 234.648 408.937 237.495 409.131C239.723 409.266 253.053 409.665 258.781 409.827Z" fill="black"/>
<path opacity="0.1" d="M196.177 414.172C196.177 414.172 187.011 417.342 180.71 417.741C177.365 417.951 175.606 416.021 174.707 414.155C177.038 414.894 180.275 415.67 181.976 414.959C183.993 414.118 191.142 413.573 195.151 413.341C195.457 413.656 195.801 413.935 196.177 414.172Z" fill="black"/>
<path d="M209.776 158.704C202.215 155.939 192.488 146.8 194.917 142.53C195.456 141.453 195.777 140.29 195.862 139.102C196.018 137.488 196.041 135.866 195.931 134.249C195.76 131.602 195.422 128.966 194.917 126.356C194.917 126.356 218.523 126.858 217.148 130.13C216.747 131.09 216.684 132.756 216.793 134.621C216.902 136.487 217.188 138.595 217.486 140.379C217.899 142.827 218.311 144.692 218.311 144.692C218.311 144.692 216.868 146.595 216.02 146.698C215.172 146.8 220.625 162.645 209.776 158.704Z" fill="#CF6F80"/>
<path opacity="0.1" d="M190.455 400.402L190.277 400.586C183.22 392.553 174.685 402.564 174.685 402.564L174.559 402.354L174.994 397.804L188.381 394.531L190.277 399.987L190.455 400.402Z" fill="black"/>
<path opacity="0.1" d="M242.657 394.531C242.657 394.531 237.502 394.429 234.752 396.714C232.002 399 218.713 397.21 219.286 396.714C219.455 396.469 219.558 396.187 219.583 395.895L221.388 394.531L242.514 393.943C242.594 394.305 242.657 394.531 242.657 394.531Z" fill="black"/>
<path d="M199.237 331.447C198.853 332.341 198.561 333.267 198.366 334.213C197.888 336.804 197.755 339.441 197.971 342.063C198.183 345.837 197.971 371.127 197.971 371.127C197.971 371.127 193.44 377.872 190.913 380.249C188.387 382.627 196.069 386.897 196.069 386.897C197.214 393.043 190.272 399.987 190.272 399.987C183.214 391.954 174.679 401.971 174.679 401.971C174.679 401.971 170.039 394.423 168.882 391.728C167.725 389.032 173.413 387.166 175.413 386.072C177.412 384.978 175.315 378.524 175.315 378.524C175.315 378.524 173.625 372.869 171.62 367.709C169.616 362.55 173.832 336.865 173.832 336.865C173.832 336.865 174.049 332.304 174.57 330.714C174.833 329.566 174.886 328.385 174.725 327.22C174.691 326.827 174.651 326.498 174.622 326.277C174.593 326.056 174.57 325.953 174.57 325.953L174.651 325.824L177.515 320.799C177.515 320.799 200.611 328.282 199.237 331.447Z" fill="#00C9A7"/>
<path d="M242.657 393.938C242.657 393.938 237.502 393.836 234.752 396.095C232.002 398.354 218.713 396.591 219.286 396.095C219.858 395.599 219.813 391.927 219.813 391.927C212.016 381.91 218.667 377.845 218.667 377.845C218.667 377.845 215.184 362.075 214.554 356.226C214.113 352.139 213.569 341.157 213.277 334.887C213.151 332.191 213.076 330.337 213.076 330.337L219.446 329.129L220.265 328.973L235.628 326.072C235.628 326.072 236.052 328.768 236.339 330.973C236.482 331.914 236.562 332.863 236.579 333.814C236.476 334.892 236.579 338.267 236.579 338.267L237.101 348.387C236.76 349.448 236.585 350.551 236.579 351.659C236.682 352.948 238.682 371.397 238.682 371.397C238.682 371.397 242.159 382.406 240.973 383.199C239.787 383.991 242.657 393.938 242.657 393.938Z" fill="#00C9A7"/>
<path opacity="0.1" d="M217.148 130.13C216.747 131.09 216.684 132.756 216.792 134.621C213.63 136.413 209.995 137.33 206.305 137.265C202.615 137.2 199.019 136.157 195.93 134.255C195.76 131.605 195.421 128.968 194.916 126.356C194.916 126.356 218.522 126.847 217.148 130.13Z" fill="black"/>
<path d="M226.274 118.216C226.279 120.158 225.954 122.089 225.312 123.936C223.877 128.073 220.934 131.599 217.003 133.892C213.073 136.184 208.408 137.095 203.832 136.464C199.257 135.832 195.067 133.698 192.001 130.44C188.936 127.182 187.193 123.008 187.081 118.658C187.081 118.507 187.081 118.367 187.081 118.216C187.037 115.767 187.511 113.334 188.476 111.059C189.441 108.785 190.877 106.713 192.702 104.967C194.526 103.22 196.702 101.833 199.102 100.886C201.502 99.9389 204.078 99.4512 206.68 99.4512C209.283 99.4512 211.859 99.9389 214.259 100.886C216.659 101.833 218.835 103.22 220.659 104.967C222.484 106.713 223.92 108.785 224.885 111.059C225.85 113.334 226.324 115.767 226.28 118.216H226.274Z" fill="#CF6F80"/>
<path opacity="0.1" d="M209.776 158.704C202.215 155.939 192.488 146.8 194.917 142.53C195.456 141.453 195.777 140.29 195.862 139.102L206.213 147.108L212.617 152.052L217.486 140.385C217.899 142.832 218.311 144.698 218.311 144.698C218.311 144.698 216.868 146.601 216.02 146.703C215.172 146.806 220.625 162.645 209.776 158.704Z" fill="black"/>
<path d="M236.544 194.087L227.9 330.757L216.627 331.453L187.436 252.206L192.224 158.122L193.233 138.244L206.213 148.277L212.623 153.221L217.635 141.215L226.955 148.86L236.544 194.087Z" fill="#00C9A7"/>
<path opacity="0.1" d="M199.236 331.447C198.853 332.341 198.561 333.267 198.366 334.213C190.163 333.021 182.196 330.679 174.731 327.264L174.576 327.188L174.628 326.32L174.656 325.867L177.521 320.843C177.521 320.843 200.611 328.283 199.236 331.447Z" fill="black"/>
<path opacity="0.1" d="M219.577 334.235C217.48 334.571 215.365 334.797 213.242 334.914C213.115 332.219 213.041 330.364 213.041 330.364L219.411 329.156L219.577 334.235Z" fill="black"/>
<path opacity="0.1" d="M236.304 331C232.231 331.997 225.942 333.119 220.311 332.418L220.23 329L235.594 326.099C235.594 326.099 236.018 328.768 236.304 331Z" fill="black"/>
<path opacity="0.1" d="M220.207 333.043C196.721 336.817 175.211 325.997 175.211 325.997L175.417 322.331C175.417 322.331 175.95 280.769 174.472 277.583C172.994 274.396 171.843 258.239 172.679 255.759C173.515 253.279 169.626 216.089 169.626 216.089L168.996 200.994L145.934 192.2L156.245 171.972C157.637 169.136 158.835 166.219 159.83 163.238C161.623 157.987 169.947 152.828 169.947 152.828C169.947 152.828 178.482 147.674 181.856 147.868C185.23 148.062 189.652 143.307 189.652 143.307C192.917 135.473 195.873 139.021 195.873 139.021C195.873 139.393 195.873 139.021 195.713 140.18C194.567 148.779 214.238 175.951 214.519 176.431L216.392 219.378L218.288 273.728L220.207 333.043Z" fill="black"/>
<path d="M219.577 333.043C196.091 336.817 174.576 325.997 174.576 325.997L174.788 322.331C174.788 322.331 175.321 280.769 173.837 277.583C172.353 274.397 171.208 258.239 172.05 255.759C172.892 253.279 168.997 216.09 168.997 216.09L168.361 200.994L145.287 192.168L155.598 171.94C156.988 169.103 158.185 166.186 159.184 163.206C160.971 157.955 169.3 152.795 169.3 152.795C169.3 152.795 177.835 147.641 181.204 147.835C184.572 148.03 189 143.274 189 143.274C192.271 135.441 195.874 138.988 195.874 138.988C195.874 139.36 195.53 139.527 195.713 140.147C198.234 148.488 213.609 175.919 213.889 176.399L215.785 219.346L217.681 273.696L219.577 333.043Z" fill="white"/>
<path opacity="0.1" d="M213.247 177.622C210.721 176.63 197.34 162.252 197.34 162.252V158.979C196.853 157.901 193.96 158.559 191.611 159.313L192.62 139.436L193.765 140.331C196.274 148.665 212.955 177.142 213.247 177.622Z" fill="black"/>
<path d="M213.884 176.431C211.352 175.439 197.97 161.06 197.97 161.06V157.788C197.484 156.709 194.591 157.367 192.242 158.122L193.256 138.244L194.402 139.139C196.916 147.474 213.603 175.956 213.884 176.431Z" fill="white"/>
<path opacity="0.1" d="M175.211 248.141C175.526 248.141 191.542 246.556 191.542 246.556C191.542 246.556 201.24 264.503 200.604 268.87C199.968 273.237 198.817 277.103 194.916 276.418C191.015 275.733 173.922 276.957 173.922 276.957L175.211 248.141Z" fill="black"/>
<path d="M174.576 246.949C174.891 246.949 190.907 245.364 190.907 245.364C190.907 245.364 200.6 263.317 199.97 267.679C199.339 272.041 198.177 275.911 194.281 275.227C190.386 274.542 173.287 275.766 173.287 275.766L174.576 246.949Z" fill="white"/>
<path d="M186.645 238.522C186.645 238.522 201.344 245.957 201.659 248.227C201.974 250.497 194.178 247.235 192.494 246.841C191.385 246.59 190.257 246.424 189.12 246.345L177.887 246.631L186.645 238.522Z" fill="#CF6F80"/>
<path opacity="0.1" d="M209.146 178.549C210 178.549 210.693 177.898 210.693 177.094C210.693 176.29 210 175.638 209.146 175.638C208.292 175.638 207.6 176.29 207.6 177.094C207.6 177.898 208.292 178.549 209.146 178.549Z" fill="black"/>
<path d="M209.146 177.957C210 177.957 210.693 177.305 210.693 176.501C210.693 175.697 210 175.045 209.146 175.045C208.292 175.045 207.6 175.697 207.6 176.501C207.6 177.305 208.292 177.957 209.146 177.957Z" fill="#3F3D56"/>
<path opacity="0.1" d="M211.992 241.563C212.846 241.563 213.539 240.911 213.539 240.108C213.539 239.304 212.846 238.652 211.992 238.652C211.138 238.652 210.445 239.304 210.445 240.108C210.445 240.911 211.138 241.563 211.992 241.563Z" fill="black"/>
<path d="M211.992 240.965C212.846 240.965 213.539 240.313 213.539 239.509C213.539 238.705 212.846 238.054 211.992 238.054C211.138 238.054 210.445 238.705 210.445 239.509C210.445 240.313 211.138 240.965 211.992 240.965Z" fill="#3F3D56"/>
<path opacity="0.1" d="M210.687 210.056C211.541 210.056 212.234 209.405 212.234 208.601C212.234 207.797 211.541 207.145 210.687 207.145C209.833 207.145 209.141 207.797 209.141 208.601C209.141 209.405 209.833 210.056 210.687 210.056Z" fill="black"/>
<path d="M210.687 209.464C211.541 209.464 212.234 208.812 212.234 208.008C212.234 207.204 211.541 206.552 210.687 206.552C209.833 206.552 209.141 207.204 209.141 208.008C209.141 208.812 209.833 209.464 210.687 209.464Z" fill="#3F3D56"/>
<path d="M246.34 246.043C246.34 246.043 247.394 247.531 246.34 248.227C245.286 248.922 246.443 250.605 246.443 250.605C246.443 250.605 243.813 252.055 244.971 253.359C246.128 254.664 245.394 260.557 245.394 260.557L242.232 265.485C242.232 265.485 242.421 268.66 242.433 272.952C242.433 279.648 242.015 289.061 239.701 293.352L240.021 328.563C240.021 328.563 228.949 332.369 219.68 331.21L218.305 274.709C218.305 274.709 220.31 242.669 221.049 236.522C221.482 233.332 221.658 230.115 221.576 226.899C221.576 226.899 221.261 217.281 220.201 212.817C220.201 212.817 219.056 193.478 218.941 188.125C218.89 185.564 219.033 178.091 219.193 170.986C219.371 163.217 219.571 155.89 219.571 155.89L217.48 140.32C217.48 140.32 219.571 140.12 220.201 140.913C220.484 141.161 220.791 141.383 221.118 141.576C224.727 143.873 237.478 150.935 237.478 150.935C237.478 150.935 244.535 153.577 246.225 157.362C247.915 161.146 249.089 163.831 249.908 164.91C250.728 165.988 251.174 171.056 251.174 171.056C251.174 171.056 253.603 180.383 255.499 181.962C257.395 183.542 258.782 193.591 258.782 193.591L242.026 205.991C242.026 205.991 240.554 226.619 240.239 227.416C239.924 228.214 246.34 246.043 246.34 246.043Z" fill="white"/>
<path d="M246.977 246.044C246.977 246.044 248.025 247.532 246.977 248.227C245.928 248.923 247.074 250.605 247.074 250.605C247.074 250.605 244.462 252.071 245.607 253.376C246.753 254.681 246.031 260.573 246.031 260.573L242.869 265.501C242.869 265.501 243.058 268.677 243.076 272.968C243.076 279.664 242.657 289.077 240.343 293.369L240.658 328.579C240.658 328.579 229.568 332.386 220.311 331.227L218.942 274.726C218.942 274.726 220.947 242.685 221.686 236.539C222.119 233.348 222.293 230.131 222.207 226.915C222.207 226.915 221.892 217.297 220.838 212.833C220.838 212.833 219.693 193.495 219.572 188.141C219.521 185.58 219.67 178.108 219.824 171.002C220.002 163.233 220.202 155.906 220.202 155.906L217.441 140.126C217.441 140.126 220.202 140.126 220.838 140.929C221.118 141.18 221.425 141.403 221.755 141.592C225.364 143.889 238.121 150.952 238.121 150.952C238.121 150.952 245.172 153.593 246.862 157.378C248.552 161.163 249.726 163.848 250.551 164.926C251.376 166.004 251.811 171.072 251.811 171.072C251.811 171.072 254.24 180.399 256.136 181.979C258.032 183.558 259.401 193.586 259.401 193.586L242.646 205.986C242.646 205.986 241.174 226.613 240.853 227.411C240.532 228.209 246.977 246.044 246.977 246.044Z" fill="white"/>
<path opacity="0.1" d="M226.909 160.484L228.421 164.635L220.459 172.183C220.637 164.419 220.837 157.087 220.837 157.087L218.076 141.307C218.076 141.307 220.837 141.307 221.473 142.11C221.752 142.36 222.059 142.581 222.39 142.768L229.16 161.152L226.909 160.484Z" fill="black"/>
<path d="M226.274 159.292L227.792 163.443L219.83 170.991C220.008 163.222 220.208 155.895 220.208 155.895L217.441 140.115C217.441 140.115 220.208 140.115 220.838 140.918C221.119 141.168 221.426 141.39 221.755 141.581L228.531 159.96L226.274 159.292Z" fill="white"/>
<path opacity="0.1" d="M226.274 118.216C226.279 120.158 225.954 122.089 225.312 123.936C225.203 123.952 225.093 123.947 224.987 123.922C224.88 123.897 224.781 123.852 224.693 123.79C224.544 118.938 222.006 114.382 218.885 110.506C218.008 109.336 216.945 108.299 215.734 107.433C214.509 106.567 212.986 106.162 211.461 106.295C209.742 106.516 208.224 107.616 206.488 107.756C204.197 107.934 202.146 106.441 199.872 106.366C198.948 106.374 198.036 106.568 197.197 106.934C196.359 107.3 195.613 107.831 195.009 108.49C193.814 109.82 192.927 111.369 192.403 113.04C191.502 115.573 191.011 118.219 190.948 120.89C190.919 122.399 190.764 124.292 189.275 124.842C189.387 123.731 189.253 122.611 188.881 121.552C188.51 120.494 187.908 119.519 187.115 118.69L187.081 118.658C187.081 118.507 187.081 118.367 187.081 118.216C187.037 115.767 187.511 113.334 188.476 111.059C189.441 108.785 190.877 106.713 192.702 104.967C194.526 103.22 196.702 101.833 199.102 100.886C201.502 99.9389 204.078 99.4512 206.68 99.4512C209.283 99.4512 211.859 99.9389 214.259 100.886C216.659 101.833 218.835 103.22 220.659 104.967C222.484 106.713 223.92 108.785 224.885 111.059C225.85 113.334 226.324 115.767 226.28 118.216H226.274Z" fill="black"/>
<path d="M214.794 88.9245C211.817 87.6066 208.432 87.3574 205.274 88.2236C203.687 88.6657 202.192 89.3827 200.582 89.7439C197.145 90.5257 193.135 89.6792 190.185 91.5716C188.547 92.6498 187.562 94.3535 186.645 96.0086L184.354 100.117C183.105 102.365 181.845 104.651 181.324 107.126C180.802 109.6 181.117 112.371 182.784 114.361C183.999 115.811 185.792 116.722 187.109 118.086C187.899 118.916 188.497 119.89 188.868 120.948C189.239 122.005 189.373 123.123 189.263 124.232C190.758 123.693 190.901 121.795 190.936 120.286C191 117.615 191.49 114.969 192.391 112.436C192.914 110.765 193.801 109.215 194.997 107.886C195.601 107.227 196.347 106.697 197.186 106.331C198.024 105.965 198.936 105.77 199.861 105.762C202.152 105.837 204.208 107.325 206.477 107.147C208.195 107.012 209.719 105.907 211.449 105.691C212.974 105.556 214.498 105.961 215.722 106.829C216.933 107.694 217.994 108.731 218.867 109.902C221.995 113.778 224.532 118.323 224.681 123.186C225.329 123.634 226.262 123.051 226.583 122.361C226.904 121.671 226.915 120.863 227.322 120.205C227.792 119.445 228.691 119.04 229.396 118.469C231.183 117.019 231.63 114.576 231.561 112.361C231.492 110.145 231.034 107.896 231.481 105.718C231.75 104.381 232.357 103.131 232.689 101.81C233.022 100.489 233.062 99.0062 232.277 97.8686C231.131 96.1973 228.72 95.8685 226.617 95.7121C224.229 95.518 222.092 95.766 220.568 93.8737C219.853 92.8862 219.048 91.959 218.162 91.1025C217.859 90.8222 214.794 89.0431 214.794 88.9245Z" fill="#512E4E"/>
<path opacity="0.1" d="M152.533 202.617L146.546 192.201L144.65 208.272C144.65 208.272 145.704 215.41 145.492 216.505C145.281 217.599 149.812 227.411 149.812 227.411C149.812 227.411 164.78 252.503 170.892 253.796L191.542 239.908L186.066 233.363C186.066 233.363 184.17 232.668 183.694 233.363C183.694 233.363 173.527 216.898 172.473 215.707C171.419 214.515 171.625 212.138 171.625 212.138C171.625 212.138 170.044 210.553 170.571 209.065C171.098 207.577 167.518 202.417 167.518 202.417L170.783 199.544L152.533 202.617Z" fill="black"/>
<path d="M146.862 191.014L145.281 192.2L143.385 208.272C143.385 208.272 144.439 215.41 144.227 216.504C144.015 217.599 148.552 227.411 148.552 227.411C148.552 227.411 163.514 252.502 169.626 253.796L190.282 239.908L184.8 233.363C184.8 233.363 182.904 232.667 182.429 233.363C182.429 233.363 172.261 216.898 171.207 215.706C170.153 214.515 170.365 212.137 170.365 212.137C170.365 212.137 168.784 210.552 169.311 209.064C169.838 207.576 166.252 202.417 166.252 202.417L169.517 199.543L146.862 191.014Z" fill="white"/>
<path opacity="0.1" d="M244.97 253.974C246.116 255.284 245.394 261.166 245.394 261.166L242.232 266.094C242.232 266.094 242.421 269.275 242.433 273.561L237.117 275.124C236.636 275.265 236.127 275.296 235.631 275.215C235.136 275.133 234.668 274.941 234.267 274.654C233.866 274.368 233.544 273.995 233.327 273.568C233.11 273.14 233.005 272.67 233.021 272.197L233.938 244.372L246.339 248.836C245.285 249.526 246.442 251.219 246.442 251.219C246.442 251.219 243.813 252.664 244.97 253.974Z" fill="black"/>
<path d="M245.607 253.376C246.752 254.686 246.031 260.573 246.031 260.573L242.869 265.501C242.869 265.501 243.058 268.676 243.075 272.968L237.662 274.558C237.191 274.696 236.692 274.726 236.207 274.645C235.722 274.565 235.264 274.377 234.872 274.096C234.48 273.815 234.164 273.451 233.952 273.032C233.74 272.614 233.637 272.154 233.652 271.69L234.574 243.779L246.982 248.243C245.922 248.933 247.079 250.621 247.079 250.621C247.079 250.621 244.461 252.071 245.607 253.376Z" fill="white"/>
<path d="M249.714 240.113C249.714 240.113 248.872 245.176 246.764 245.472C244.656 245.769 243.711 253.662 241.609 253.381C239.507 253.101 240.899 246.044 240.973 244.674C241.047 243.305 238.682 237.633 240.452 236.345C242.222 235.056 247.824 236.345 247.824 236.345L249.714 240.113Z" fill="#CF6F80"/>
<path opacity="0.1" d="M254.198 201.128L258.174 193.581C258.174 193.581 259.755 199.333 259.755 202.406C259.755 205.479 261.966 205.781 261.966 205.781C261.966 205.781 264.389 208.477 263.112 210.439C261.834 212.402 261.319 217.286 261.319 217.286C261.319 217.286 261.737 226.608 259.841 227.896C257.945 229.185 257.549 232.263 257.549 232.263C257.549 232.263 254.067 238.113 254.175 239.504C254.284 240.895 249.329 250.313 249.329 250.313C249.329 250.313 251.752 238.609 237.632 233.552C237.632 233.552 237.523 229.578 238.577 228.489C239.631 227.4 241.275 226.904 240.244 221.4C239.213 215.895 239.946 209.318 239.946 207.997C239.946 206.676 243.108 198.438 243.108 198.438L254.198 201.128Z" fill="black"/>
<path d="M255.918 192.502L259.39 193.581C259.39 193.581 260.976 199.333 260.976 202.406C260.976 205.479 263.188 205.781 263.188 205.781C263.188 205.781 265.611 208.477 264.333 210.439C263.056 212.402 262.546 217.286 262.546 217.286C262.546 217.286 262.964 226.608 261.068 227.896C259.172 229.185 258.748 232.263 258.748 232.263C258.748 232.263 255.271 238.113 255.38 239.504C255.489 240.895 250.528 250.314 250.528 250.314C250.528 250.314 252.957 238.609 238.831 233.552C238.831 233.552 238.728 229.579 239.782 228.489C240.836 227.4 242.48 226.904 241.449 221.4C240.418 215.895 241.151 209.318 241.151 207.997C241.151 206.676 244.313 198.438 244.313 198.438L255.918 192.502Z" fill="white"/>
<path opacity="0.1" d="M179.244 388.137C179.244 388.137 184.778 384.865 188.409 387.242C192.041 389.62 179.244 388.137 179.244 388.137Z" fill="black"/>
<path opacity="0.1" d="M222.24 378.017C222.24 378.017 227.138 377.424 231.251 381.592C235.364 385.759 222.24 378.017 222.24 378.017Z" fill="black"/>
<g opacity="0.1">
<path d="M229.408 117.288C228.704 117.86 227.798 118.27 227.329 119.03C226.928 119.682 226.916 120.485 226.596 121.186C226.275 121.887 225.341 122.459 224.694 122.017C224.545 117.164 222.001 112.609 218.88 108.727C218.007 107.556 216.946 106.519 215.735 105.654C214.509 104.786 212.983 104.381 211.456 104.516C209.737 104.737 208.225 105.837 206.489 105.972C204.198 106.155 202.141 104.662 199.867 104.586C198.943 104.595 198.032 104.79 197.194 105.157C196.356 105.524 195.611 106.056 195.01 106.716C193.814 108.043 192.926 109.592 192.403 111.261C191.503 113.794 191.013 116.44 190.948 119.111C190.914 120.615 190.765 122.491 189.287 123.052C189.322 123.45 189.322 123.85 189.287 124.249C190.776 123.709 190.925 121.812 190.96 120.302C191.024 117.632 191.514 114.985 192.415 112.452C192.938 110.781 193.825 109.232 195.021 107.902C195.624 107.244 196.369 106.714 197.207 106.347C198.044 105.981 198.955 105.787 199.879 105.778C202.17 105.853 204.232 107.341 206.501 107.164C208.219 107.029 209.743 105.923 211.467 105.708C212.994 105.572 214.52 105.978 215.746 106.845C216.957 107.71 218.018 108.747 218.891 109.918C222.013 113.795 224.556 118.34 224.705 123.203C225.352 123.65 226.286 123.068 226.607 122.378C226.928 121.688 226.939 120.879 227.34 120.221C227.81 119.461 228.715 119.057 229.42 118.485C231.207 117.035 231.654 114.593 231.585 112.377C231.585 112.307 231.585 112.237 231.585 112.172C231.476 114.091 230.932 116.048 229.408 117.288Z" fill="black"/>
<path d="M187.121 116.906C185.804 115.542 184.005 114.63 182.796 113.186C181.779 111.906 181.197 110.367 181.129 108.77C180.949 110.765 181.541 112.755 182.796 114.372C184.005 115.822 185.804 116.733 187.121 118.097C188.386 119.431 189.146 121.122 189.281 122.906C189.368 121.821 189.222 120.73 188.851 119.698C188.48 118.667 187.892 117.717 187.121 116.906Z" fill="black"/>
<path d="M232.701 100.629C232.363 101.95 231.762 103.206 231.487 104.538C231.324 105.428 231.265 106.331 231.309 107.233C231.329 106.72 231.388 106.208 231.487 105.702C231.762 104.365 232.363 103.114 232.701 101.794C232.898 101.065 232.962 100.31 232.89 99.5615C232.855 99.9212 232.792 100.278 232.701 100.629Z" fill="black"/>
</g>
<path opacity="0.1" d="M76.0314 410.058C106.858 410.058 131.848 406.281 131.848 401.621C131.848 396.961 106.858 393.184 76.0314 393.184C45.2048 393.184 20.2148 396.961 20.2148 401.621C20.2148 406.281 45.2048 410.058 76.0314 410.058Z" fill="#00C9A7"/>
<path d="M77.8299 239.989H74.2383V316.098H77.8299V239.989Z" fill="#535461"/>
<path d="M100.399 315.867L100.176 319.295L99.8552 324.148L99.7234 326.164L99.4083 331.016L99.2709 333.032L98.9501 337.885L95.3298 392.914C95.1724 395.282 94.0624 397.504 92.2256 399.128C90.3888 400.753 87.9633 401.658 85.4427 401.659H66.6196C64.0996 401.658 61.6747 400.753 59.8389 399.128C58.003 397.503 56.8942 395.281 56.7382 392.914L53.1351 337.847L52.8144 332.995L52.6826 330.978L52.3618 326.126L52.2301 324.11L51.9093 319.258L51.6802 315.829C51.6404 315.169 51.7442 314.508 51.9855 313.887C52.2267 313.267 52.6001 312.699 53.0828 312.219C53.5656 311.739 54.1475 311.356 54.7928 311.095C55.4382 310.835 56.1333 310.701 56.8356 310.702H95.3355C96.0352 310.707 96.7262 310.848 97.3659 311.115C98.0056 311.381 98.5805 311.769 99.055 312.253C99.5295 312.737 99.8936 313.307 100.125 313.929C100.356 314.55 100.449 315.21 100.399 315.867Z" fill="#3F3D56"/>
<path d="M100.176 319.295L99.8555 324.131H52.2075L51.8867 319.295H100.176Z" fill="#9D9CB5"/>
<path d="M99.7243 326.148L99.4093 330.989H52.6606L52.3398 326.148H99.7243Z" fill="#9D9CB5"/>
<path d="M99.2724 333.011L98.9573 337.847H53.1138L52.793 333.011H99.2724Z" fill="#9D9CB5"/>
<path d="M46.4058 268.514C67.3198 282.758 76.0497 305.035 76.0497 305.035C76.0497 305.035 50.8452 304.221 29.9255 289.977C9.00571 275.733 0.292969 253.462 0.292969 253.462C0.292969 253.462 25.486 254.271 46.4058 268.514Z" fill="#00C9A7"/>
<path d="M0.275391 253.462C0.275391 253.462 26.4423 267.129 34.8342 278.445C43.2262 289.762 76.0493 305.035 76.0493 305.035" stroke="#535461" stroke-width="2" stroke-miterlimit="10"/>
<path d="M59.9061 239.822C71.2882 247.569 76.0484 259.694 76.0484 259.694C76.0484 259.694 62.3292 259.252 50.9413 251.505C39.5534 243.757 34.8047 231.627 34.8047 231.627C34.8047 231.627 48.5182 232.069 59.9061 239.822Z" fill="#00C9A7"/>
<path d="M34.8047 231.627C34.8047 231.627 49.0452 239.067 53.6107 245.224C58.1762 251.381 76.0484 259.694 76.0484 259.694" stroke="#535461" stroke-width="2" stroke-miterlimit="10"/>
<path d="M92.5749 259.08C79.4972 272.607 76.7305 290.285 76.7305 290.285C76.7305 290.285 95.1699 286.026 108.236 272.494C121.302 258.961 124.081 241.289 124.081 241.289C124.081 241.289 105.653 245.553 92.5749 259.08Z" fill="#00C9A7"/>
<path d="M124.092 241.294C124.092 241.294 107.056 255.16 102.725 264.714C98.3949 274.267 76.7305 290.285 76.7305 290.285" stroke="#535461" stroke-width="2" stroke-miterlimit="10"/>
<path d="M572.64 254.319C572.64 254.319 563.183 210.035 566.803 204.525C566.803 204.525 566.935 199.403 566.717 192.874C566.717 192.626 566.717 192.378 566.717 192.125C567.354 192.525 568.018 192.885 568.705 193.203C572.04 194.816 575.87 195.281 579.531 194.519L576.667 191.516C575.98 190.799 575.264 190.022 575.115 189.073C574.966 188.124 575.378 187.278 575.733 186.432C578.454 179.962 578.598 171.827 573.356 166.888C568.928 162.737 567.851 157.378 563.045 153.588C559.534 150.811 557.603 146.741 555.782 142.805C554.241 139.479 552.688 136.125 551.806 132.599C551.119 129.844 550.844 126.992 549.899 124.302C548.954 121.612 547.184 118.997 544.417 117.795C543.432 117.369 542.337 117.126 541.438 116.56C540.258 115.811 539.548 114.592 538.694 113.525C534.358 108.133 519.837 111.309 512.963 113.498C511.094 114.049 509.363 114.951 507.876 116.15L507.939 116.053C507.991 115.972 508.054 115.892 508.111 115.811C507.358 116.383 506.709 117.066 506.186 117.832C505.184 119.326 504.766 121.067 503.929 122.685C502.921 124.599 497.313 129.941 499.725 132.093C499.894 132.237 500.087 132.354 500.297 132.438C501.203 132.792 502.2 132.886 503.162 132.707L503.059 132.939C502.235 134.837 501.813 136.868 501.815 138.918C501.815 147.776 509.577 154.957 519.161 154.957C520.962 154.959 522.754 154.699 524.471 154.186C524.511 154.391 524.545 154.596 524.585 154.801C524.585 154.882 524.614 154.962 524.626 155.043L524.322 155.442C524.307 155.418 524.29 155.394 524.27 155.372L515.277 167.201C513.902 168.112 505.986 173.503 505.539 177.547C505.069 181.973 504.599 187.154 504.599 187.154L504.536 188.265C504.143 188.574 503.684 188.799 503.189 188.925C502.695 189.05 502.177 189.073 501.672 188.992C498.865 188.561 498.865 198.697 498.865 198.697C498.865 198.697 496.998 200.314 495.715 198.912C494.432 197.511 491.041 202.261 491.041 202.261L469.789 203.123L469.302 203.15L468.156 199.813C468.033 199.461 467.767 199.169 467.416 199C467.065 198.832 466.658 198.8 466.283 198.912C466.194 198.94 466.108 198.974 466.025 199.015L465.945 199.058L465.796 199.155L465.721 199.22C465.68 199.255 465.642 199.293 465.607 199.333L465.538 199.409L465.504 199.441C465.372 199.613 465.284 199.812 465.248 200.022C465.212 200.231 465.229 200.446 465.298 200.648L466.283 203.511C462.181 204.288 457.988 206.477 461.408 212.504L444.074 209.49L449.682 213.922L478.633 219.545C478.249 220.192 478.501 221.13 479.699 222.451C484.854 228.15 494.248 229.697 498.029 230.096C499.027 232.198 500.275 234.187 501.747 236.026L501.42 241.703C501.42 241.703 491.848 284.974 490.095 287.168C490.98 286.225 491.79 285.221 492.518 284.165C489.74 293.056 485.856 305.224 484.837 307.046C483.199 309.957 481.681 321.738 483.548 322.492C484.121 322.724 485.759 322.611 488.096 322.444V323.42L487.993 360.399C487.993 360.399 488.463 383.08 487.174 385.242C485.885 387.404 485.541 391.938 485.541 391.938C485.541 391.938 480.386 400.882 476.302 404.478C476.274 404.506 476.243 404.531 476.21 404.554L476.084 403.713C476.084 403.713 471.175 409.546 460.314 409.217C460.314 409.217 453.778 413.217 463.47 413.433C473.163 413.649 485.541 413.11 485.541 413.11C485.541 413.11 494.185 400.71 501.426 402.327V411.724H503.643V402.176C504.671 401.539 505.551 400.712 506.229 399.746C506.908 398.779 507.37 397.693 507.59 396.553C507.779 395.378 507.64 394.177 507.186 393.068C506.732 391.959 505.979 390.98 505 390.229C504.561 389.855 504.208 389.399 503.965 388.891C503.721 388.382 503.592 387.832 503.586 387.274L503.505 387.339C503.505 387.15 503.454 386.956 503.431 386.757C502.795 381.905 501.999 371.893 504.811 364.485C508.667 354.328 509.835 340.181 507.028 331.76C506.123 329.068 505.379 326.33 504.8 323.56C504.731 323.209 504.668 322.875 504.611 322.562C506.53 322.807 508.43 323.167 510.299 323.641C516.801 325.328 531.024 325.641 543.168 325.549C543.197 325.862 543.231 326.191 543.271 326.52C543.488 328.806 543.94 331.066 544.623 333.27C546.147 337.583 546.846 356.598 546.846 356.598C546.846 356.598 548.81 372.233 547.739 378.594C547.166 382.131 546.594 385.684 546.267 389.253V389.323C546.267 389.323 543.048 397.949 540.693 402.634C540.636 402.753 540.573 402.871 540.516 402.985C539.888 403.039 539.27 403.167 538.677 403.367C538.677 403.367 535.521 409.298 532.376 410.279C529.231 411.26 530.274 414.49 537.394 413.304C544.514 412.118 555.266 411.147 555.266 411.147L555.73 405.098L557.918 402.521L557.346 408.554L559.677 408.123L559.368 400.785L562.948 396.569C562.948 396.569 567.273 392.946 560.846 385.819V385.975C560.777 385.873 560.714 385.765 560.639 385.662V385.63C559.574 384.077 558.726 381.182 560.278 376.044C563.085 366.76 564.718 358.334 564.718 358.334C564.718 358.334 570.985 335.76 563.452 325.08H563.784C563.012 323.577 562.467 321.98 562.163 320.336C562.125 320.142 562.091 319.942 562.06 319.737C567.634 319.435 573.104 318.487 577.567 316.438C577.549 316.416 574.863 262.848 572.64 254.319ZM501.878 216.957V217.065L500.733 217.119L501.878 216.957ZM497.949 217.469C497.761 217.509 497.584 217.588 497.433 217.701C496.941 218.357 496.632 219.119 496.534 219.917L494.747 219.54C494.747 219.54 493.492 219.286 491.688 219.001L490.834 218.192C493.183 218.009 495.623 217.739 497.949 217.469Z" fill="url(#paint1_linear_8858_15946)"/>
<path d="M557.082 400.86L556.4 408.5L558.686 408.069L558.342 399.782L557.082 400.86Z" fill="#1D2366"/>
<path d="M504.937 364.588C502.182 371.974 502.961 381.943 503.58 386.784C503.809 388.574 504.021 389.663 504.021 389.663C504.021 389.663 499.902 398.494 499.558 398.828C499.215 399.163 487.437 405.929 487.437 405.929L479.206 410.452C479.206 410.452 470.854 407.007 474.858 405.821C475.676 405.512 476.413 405.039 477.018 404.435C481.027 400.85 486.063 391.938 486.063 391.938C486.063 391.938 486.406 387.415 487.666 385.264C488.927 383.113 488.468 360.507 488.468 360.507L488.566 323.657V318.854L504.233 318.961C504.332 320.592 504.557 322.214 504.909 323.814C505.471 326.575 506.2 329.303 507.091 331.987C509.852 340.392 508.706 354.469 504.937 364.588Z" fill="#FFB0B1"/>
<path opacity="0.1" d="M504.021 389.663C504.021 389.663 499.902 398.494 499.558 398.828C499.215 399.163 487.437 405.929 487.437 405.929L479.206 410.452C479.206 410.452 470.854 407.007 474.858 405.821C475.676 405.512 476.413 405.039 477.018 404.435L477.373 406.791L480.117 406.684L503.603 386.795C503.809 388.574 504.021 389.663 504.021 389.663Z" fill="black"/>
<path d="M503.734 387.296L480.117 407.319L477.373 407.427L476.8 403.653C476.8 403.653 472 409.465 461.333 409.142C461.333 409.142 454.929 413.126 464.421 413.341C473.913 413.557 486.034 413.018 486.034 413.018C486.034 413.018 494.5 400.618 501.586 402.235V411.6H503.763V402.149C504.775 401.508 505.639 400.68 506.302 399.717C506.966 398.753 507.415 397.673 507.624 396.542C507.812 395.377 507.679 394.185 507.236 393.082C506.794 391.979 506.057 391.002 505.098 390.245C504.669 389.867 504.327 389.41 504.092 388.903C503.858 388.396 503.736 387.849 503.734 387.296Z" fill="#1D2366"/>
<path d="M559.26 376.104C557.736 381.225 558.567 384.11 559.61 385.657V385.689C560.947 387.6 561.877 389.737 562.348 391.981L562.439 392.466L551.693 407.212L545.862 409.368C545.862 409.368 536.485 406.354 538.197 405.492C538.627 405.281 539.297 404.16 540.065 402.613C542.356 397.949 545.518 389.345 545.518 389.345V389.275C545.85 385.722 546.377 382.18 546.962 378.654C548.01 372.308 546.085 356.733 546.085 356.733C546.085 356.733 545.398 337.793 543.908 333.485C543.236 331.295 542.789 329.049 542.574 326.778C542.264 324.083 542.196 321.862 542.196 321.862C542.196 321.862 548.371 313.775 559.69 322.509C560.595 323.205 561.391 324.018 562.056 324.924C569.875 335.394 563.579 358.458 563.579 358.458C563.579 358.458 562.004 366.847 559.26 376.104Z" fill="#FFB0B1"/>
<path opacity="0.1" d="M562.455 392.466L551.709 407.212L545.877 409.368C545.877 409.368 536.5 406.355 538.213 405.492C538.643 405.282 539.313 404.16 540.08 402.613C544.05 402.581 546.107 406.139 546.107 406.139L551.136 405.384C551.136 405.384 557.769 393.113 559.259 392.364C560.748 391.615 559.488 386.762 559.488 386.762V385.528C559.528 385.571 559.562 385.619 559.608 385.663V385.695C560.945 387.605 561.875 389.742 562.346 391.987L562.455 392.466Z" fill="black"/>
<path d="M546.45 406.457C546.45 406.457 543.586 401.508 538.099 403.335C538.099 403.335 535.011 409.266 531.923 410.225C528.836 411.185 529.867 414.42 536.844 413.239C543.821 412.058 554.338 411.082 554.338 411.082L554.797 405.05L561.888 396.547C561.888 396.547 566.116 392.941 559.826 385.84V387.075C559.826 387.075 561.086 391.927 559.597 392.677C558.108 393.426 551.497 405.702 551.497 405.702L546.45 406.457Z" fill="#1D2366"/>
<path opacity="0.1" d="M504.25 318.951C504.349 320.581 504.575 322.203 504.926 323.803C498.476 322.913 492.49 323.355 488.566 323.646V318.843L504.25 318.951Z" fill="black"/>
<path opacity="0.1" d="M562.692 326.266C562.692 326.266 553.526 326.687 542.597 326.773C542.288 324.077 542.219 321.856 542.219 321.856C542.219 321.856 548.394 313.769 559.713 322.503C560.618 323.2 561.415 324.013 562.079 324.918C562.256 325.378 562.461 325.828 562.692 326.266Z" fill="black"/>
<path d="M562.691 325.296C562.691 325.296 522.547 327.124 510.311 323.894C498.075 320.665 485.949 323.463 484.121 322.714C482.294 321.964 483.778 310.227 485.382 307.321C486.986 304.415 495.784 275.027 495.784 275.027L504.251 233.482L513.17 231.169L513.8 231.002L529.341 226.969L540.728 224.009C540.728 224.009 563.372 307.213 561.43 313.349C560.725 315.698 560.612 318.17 561.098 320.568C561.395 322.205 561.931 323.797 562.691 325.296Z" fill="#1D2366"/>
<path d="M474.739 205.069C474.739 205.069 466.72 213.156 472.792 217.663C478.864 222.171 482.856 218.095 482.856 218.095L474.739 205.069Z" fill="#C7DAF5"/>
<path opacity="0.1" d="M474.739 205.069C474.739 205.069 466.72 213.156 472.792 217.663C478.864 222.171 482.856 218.095 482.856 218.095L474.739 205.069Z" fill="black"/>
<path d="M539.531 151.901C539.531 151.901 538.592 152.742 537.177 153.982C535.161 155.755 532.176 158.349 529.53 160.521C525.864 163.524 522.839 165.729 523.922 163.848C525.004 161.966 524.798 158.688 524.26 155.621C524.22 155.416 524.185 155.211 524.145 155.011C523.699 152.758 523.108 150.533 522.375 148.348C522.375 148.348 528.298 141.145 531.575 138.304C532.795 137.225 533.648 136.783 533.7 137.533C533.757 138.541 534.559 140.767 535.556 143.129C535.584 143.204 535.613 143.274 535.647 143.35C536.312 144.967 537.062 146.628 537.721 148.062C538.729 150.262 539.531 151.901 539.531 151.901Z" fill="#FFB0B1"/>
<path opacity="0.1" d="M535.647 143.35C535.091 146.168 533.74 148.793 531.737 150.951C529.734 153.11 527.151 154.723 524.26 155.621C523.804 153.159 523.175 150.73 522.375 148.348C522.375 148.348 533.528 134.789 533.7 137.533C533.74 138.573 534.611 140.881 535.647 143.35Z" fill="black"/>
<path opacity="0.1" d="M523.148 159.244L524.591 157.33C524.591 157.33 525.548 162.818 529.065 160.397C532.582 157.977 532.754 178.615 532.754 178.615L528.979 231.735L501.701 230.199L502.474 204.531L505.562 191.591L513.198 172.781L517.74 166.565L523.148 159.244Z" fill="black"/>
<path d="M532.755 178.943L529.318 226.974L528.957 232.064L513.748 231.207L513.175 231.174L501.719 230.527L502.492 204.854L505.58 191.915L513.215 173.104L517.758 166.888L523.166 159.54L524.609 157.631C524.609 157.631 525.566 163.12 529.083 160.699L529.157 160.65C532.594 158.602 532.755 178.943 532.755 178.943Z" fill="#1D2366"/>
<path d="M505.963 187.418C505.963 187.418 504.594 190.114 501.844 189.677C499.094 189.241 499.1 199.382 499.1 199.382C499.1 199.382 497.273 200.999 496.013 199.597C494.752 198.196 491.43 202.935 491.43 202.935L470.613 203.797C470.613 203.797 479.876 207.781 478.06 219.836C478.06 219.836 509.508 218.003 510.54 215.205C511.571 212.407 505.963 187.418 505.963 187.418Z" fill="white"/>
<path opacity="0.03" d="M505.963 187.418C505.963 187.418 504.594 190.114 501.844 189.677C499.094 189.241 499.1 199.382 499.1 199.382C499.1 199.382 497.273 200.999 496.013 199.597C494.752 198.196 491.43 202.935 491.43 202.935L470.613 203.797C470.613 203.797 479.876 207.781 478.06 219.836C478.06 219.836 509.508 218.003 510.54 215.205C511.571 212.407 505.963 187.418 505.963 187.418Z" fill="black"/>
<path d="M445.467 210.132L450.955 214.542L496.128 223.475L490.526 218.095L445.467 210.132Z" fill="white"/>
<path d="M523.234 160.942C522.484 162.02 520.336 167.541 518.543 172.361C517.048 176.377 515.799 179.908 515.799 179.908C515.799 179.908 512.883 197.775 511.394 201.005C509.904 204.234 510.712 216.828 510.712 216.828L505.161 247.931C505.161 247.931 502.647 263.97 498.763 273.55C494.931 282.98 490.663 287.401 490.531 287.541C492.25 285.352 501.615 242.254 501.615 242.254L504.709 187.898C504.709 187.898 505.161 182.733 505.62 178.318C506.078 173.903 515.358 167.875 515.358 167.875L524.305 155.901C525.205 157.033 524.603 159.006 523.234 160.942Z" fill="white"/>
<path d="M499.904 230.797C499.904 230.797 486.729 230.258 480.347 223.044C473.966 215.831 495.098 220.165 495.098 220.165L500.591 221.352L499.904 230.797Z" fill="#FFB0B1"/>
<path opacity="0.1" d="M561.431 313.354C560.726 315.703 560.612 318.175 561.099 320.573C546.726 321.533 531.352 317.877 531.352 317.877C528.487 320.357 520.943 324.013 520.943 324.013L516.83 276.03C514.201 269.56 513.17 235.665 513.17 235.665C513.17 235.665 513.405 233.891 513.743 231.234C513.743 231.169 513.743 231.099 513.771 231.034C514.797 223.61 516.83 209.674 517.827 207.792C519.202 205.204 513.6 198.32 513.6 198.32L516.149 177.86L516.458 175.39C521.831 173.131 525.95 165.918 525.95 165.918L529.112 160.704C532.549 158.629 532.726 178.97 532.726 178.97L529.289 227.001L540.677 224.042C540.677 224.042 563.373 307.219 561.431 313.354Z" fill="black"/>
<path d="M576.181 316.67C560.514 323.991 532.039 317.209 532.039 317.209C529.175 319.689 521.631 323.344 521.631 323.344L517.512 275.362C514.889 268.892 513.857 234.997 513.857 234.997C513.857 234.997 517.168 209.706 518.543 207.124C518.944 206.369 518.749 205.248 518.274 204.04C515.936 198.292 515.077 192.105 515.765 185.984L516.865 177.191L517.168 174.727C522.547 172.463 526.666 165.249 526.666 165.249L529.53 160.527L534.8 151.825L537.298 147.706L537.722 148.067L540.958 150.828C540.958 150.828 542.333 151.906 544.395 153.523C548.88 157.082 556.631 163.346 560.629 167.179C564.146 170.554 565.257 183.682 565.578 193.565C565.79 200.072 565.664 205.172 565.664 205.172C562.118 210.666 571.392 254.772 571.392 254.772C573.552 263.296 576.181 316.67 576.181 316.67Z" fill="white"/>
<path opacity="0.03" d="M546.108 165.141C546.108 165.141 535.356 184.404 536.605 191.726C537.854 199.047 541.405 207.334 539.693 209.269C539.104 210.003 538.343 210.598 537.47 211.008C536.596 211.419 535.634 211.634 534.657 211.636C532.939 211.744 528.356 214.758 528.356 215.081C528.356 215.405 524.123 215.405 520.337 216.914C516.55 218.424 510.959 219.281 510.959 219.281C510.959 219.281 500.076 218.957 499.062 219.928C498.048 220.898 497.005 226.705 499.176 231.336C501.347 235.967 503.759 239.423 505.58 240.054C507.402 240.684 518.962 237.04 528.339 236.177C537.716 235.315 547.895 228.322 547.895 228.322C547.895 228.322 559.106 224.548 561.07 218.203C563.035 211.857 558.67 176.981 558.67 176.981C558.67 176.981 555.371 160.726 546.108 165.141Z" fill="black"/>
<path opacity="0.03" d="M544.732 163.524C544.732 163.524 533.98 182.793 535.24 190.109C536.501 197.425 540.041 205.717 538.322 207.657C537.736 208.391 536.976 208.987 536.104 209.398C535.231 209.809 534.269 210.023 533.293 210.024C531.574 210.132 526.992 213.146 526.992 213.469C526.992 213.793 522.758 213.793 518.972 215.297C515.186 216.801 509.595 217.664 509.595 217.664C509.595 217.664 498.711 217.34 497.703 218.311C496.695 219.281 495.641 225.093 497.817 229.719C499.994 234.344 502.4 237.806 504.222 238.436C506.043 239.067 517.603 235.423 526.98 234.565C536.357 233.708 546.537 226.705 546.537 226.705C546.537 226.705 557.741 222.931 559.683 216.591C561.625 210.251 557.283 175.363 557.283 175.363C557.283 175.363 553.995 159.114 544.732 163.524Z" fill="black"/>
<path d="M545.769 164.171C545.769 164.171 535.017 183.439 536.277 190.756C537.537 198.072 541.077 206.363 539.364 208.299C538.778 209.035 538.018 209.632 537.144 210.044C536.27 210.455 535.306 210.67 534.329 210.671C532.611 210.779 528.028 213.793 528.028 214.111C528.028 214.429 523.801 214.434 520.008 215.944C516.216 217.453 510.631 218.311 510.631 218.311C510.631 218.311 499.747 217.987 498.734 218.957C497.72 219.928 496.677 225.74 498.848 230.366C501.019 234.991 503.431 238.452 505.252 239.083C507.074 239.714 518.634 236.07 528.011 235.207C537.388 234.344 547.567 227.352 547.567 227.352C547.567 227.352 558.778 223.578 560.742 217.232C562.707 210.887 558.371 176.01 558.371 176.01C558.371 176.01 555.026 159.782 545.769 164.171Z" fill="white"/>
<path opacity="0.1" d="M545.535 215.852C545.535 215.852 536.943 214.235 539.933 216.931C542.923 219.626 542.906 221.988 546.566 221.88C550.226 221.772 545.535 215.852 545.535 215.852Z" fill="black"/>
<path opacity="0.1" d="M560.056 273.852C560.056 273.852 556.172 276.327 563.601 282.031C571.031 287.735 560.056 273.852 560.056 273.852Z" fill="black"/>
<path opacity="0.1" d="M552.643 294.193C552.643 294.517 551.269 306.054 556.413 308.939C561.557 311.823 552.643 294.193 552.643 294.193Z" fill="black"/>
<path d="M470.97 203.77C466.823 203.905 457.864 205.096 462.509 213.253C466.617 220.472 473.519 215.647 477.403 211.986C476.456 208.573 474.153 205.633 470.97 203.77Z" fill="#FFB0B1"/>
<path opacity="0.1" d="M544.395 153.852C539.996 156.682 536.307 159.071 535.585 159.567C533.615 160.942 529.857 169.012 527.434 173.131C525.504 176.447 519.231 177.299 516.865 177.509L517.169 175.045C522.548 172.781 526.666 165.567 526.666 165.567L537.298 148.024L540.958 151.156C540.958 151.156 542.333 152.235 544.395 153.852Z" fill="black"/>
<path d="M544.395 153.529C539.996 156.359 536.307 158.748 535.585 159.249C533.615 160.618 529.857 168.689 527.434 172.808C525.504 176.124 519.231 176.976 516.865 177.186L517.169 174.722C522.548 172.458 526.666 165.244 526.666 165.244L537.298 147.701L540.958 150.822C540.958 150.822 542.333 151.89 544.395 153.529Z" fill="#DCE7FF"/>
<path d="M535.928 139.792C535.93 143.028 534.887 146.189 532.937 148.854C530.635 152.006 527.208 154.277 523.278 155.254C519.349 156.232 515.178 155.851 511.521 154.181C507.864 152.511 504.965 149.663 503.349 146.154C501.732 142.644 501.506 138.705 502.712 135.052C503.917 131.399 506.474 128.274 509.918 126.243C513.362 124.212 517.466 123.411 521.484 123.984C525.502 124.558 529.169 126.468 531.819 129.368C534.469 132.268 535.927 135.966 535.928 139.792Z" fill="#FFB0B1"/>
<path opacity="0.1" d="M565.578 193.57C563.252 192.223 561.357 190.308 560.096 188.028C559.139 186.249 558.504 184.195 556.871 182.933C555.399 181.801 553.434 181.526 551.601 181.019C545.575 179.342 540.522 174.167 540.333 168.258C540.242 165.476 541.164 162.699 540.746 159.944C540.508 158.385 539.849 156.909 538.833 155.658C538.328 155.06 537.774 154.499 537.177 153.982C536.375 153.27 535.533 152.58 534.8 151.825C534.338 151.358 533.934 150.842 533.597 150.289C533.325 149.836 533.104 149.357 532.938 148.86C531.793 145.56 532.835 141.646 531.575 138.309L531.506 138.126C531.031 136.94 530.063 135.754 528.716 135.662C527.37 135.57 526.219 136.622 524.936 137.091C522.249 138.072 519.351 136.401 517.111 134.697C514.871 132.993 512.345 131.047 509.498 131.424C507.613 131.678 506.124 132.885 504.388 133.511C503.996 133.654 503.592 133.764 503.18 133.84C504.649 130.392 507.347 127.533 510.812 125.755C514.277 123.976 518.292 123.389 522.167 124.094C526.042 124.799 529.535 126.752 532.047 129.618C534.558 132.483 535.93 136.083 535.928 139.797C535.93 140.919 535.805 142.037 535.556 143.134C535.585 143.21 535.613 143.28 535.648 143.355C536.312 144.973 537.063 146.633 537.721 148.067L540.958 150.828C540.958 150.828 542.333 151.906 544.395 153.523C548.88 157.082 556.63 163.346 560.629 167.18C564.146 170.565 565.246 183.688 565.578 193.57Z" fill="black"/>
<path d="M504.188 123.661C505.007 122.092 505.414 120.334 506.393 118.846C507.831 116.69 510.34 115.309 512.918 114.474C519.649 112.29 533.872 109.12 538.122 114.474C538.959 115.552 539.652 116.749 540.809 117.493C541.691 118.059 542.757 118.302 543.725 118.728C546.434 119.924 548.164 122.534 549.086 125.197C550.009 127.86 550.284 130.718 550.96 133.462C551.825 136.983 553.343 140.32 554.855 143.635C556.636 147.55 558.527 151.609 561.964 154.375C566.655 158.149 567.692 163.492 572.045 167.632C577.201 172.549 577.035 180.663 574.377 187.106C574.027 187.952 573.632 188.836 573.77 189.737C573.907 190.637 574.617 191.456 575.288 192.174L578.106 195.166C571.438 196.681 563.894 193.403 560.789 187.65C559.833 185.871 559.197 183.822 557.559 182.555C556.092 181.423 554.122 181.154 552.294 180.647C546.268 178.965 541.216 173.784 541.027 167.875C540.935 165.098 541.857 162.322 541.439 159.572C541.206 158.003 540.545 156.517 539.52 155.259C537.945 153.324 535.568 152.024 534.284 149.868C532.113 146.261 533.763 141.576 532.199 137.705C531.718 136.519 530.756 135.333 529.41 135.241C528.064 135.15 526.912 136.201 525.623 136.67C522.942 137.651 520.044 135.985 517.804 134.276C515.564 132.567 513.038 130.626 510.186 131.009C508.301 131.257 506.817 132.465 505.082 133.095C503.798 133.559 501.198 133.974 500.075 132.955C497.704 130.901 503.197 125.58 504.188 123.661Z" fill="#591D4B"/>
<path opacity="0.1" d="M562.382 185.871C561.42 184.092 560.79 182.043 559.151 180.782C557.685 179.649 555.714 179.374 553.881 178.868C547.861 177.191 542.809 172.01 542.614 166.101C542.522 163.325 543.444 160.543 543.032 157.793C542.792 156.233 542.131 154.758 541.113 153.507C539.532 151.571 537.155 150.272 535.877 148.116C533.706 144.514 535.356 139.829 533.787 135.953C533.311 134.772 532.343 133.586 531.003 133.489C529.662 133.392 528.499 134.454 527.216 134.923C524.535 135.904 521.631 134.233 519.397 132.529C517.163 130.826 514.625 128.879 511.778 129.257C509.894 129.51 508.404 130.718 506.675 131.343C505.391 131.807 502.785 132.227 501.662 131.208C499.302 129.052 504.796 123.741 505.781 121.833C506.6 120.259 507.007 118.506 507.992 117.018C508.044 116.938 508.101 116.857 508.158 116.776C507.421 117.351 506.785 118.031 506.274 118.792C505.294 120.28 504.887 122.027 504.068 123.607C503.077 125.515 497.584 130.842 499.95 132.982C501.095 134.007 503.673 133.586 504.956 133.122C506.675 132.492 508.175 131.284 510.06 131.036C512.924 130.653 515.445 132.599 517.679 134.303C519.913 136.007 522.834 137.678 525.503 136.697C526.787 136.228 527.909 135.171 529.284 135.268C530.659 135.365 531.575 136.546 532.074 137.732C533.638 141.603 531.988 146.288 534.159 149.895C535.442 152.014 537.819 153.34 539.395 155.286C540.42 156.543 541.081 158.029 541.314 159.599C541.732 162.349 540.809 165.125 540.901 167.902C541.09 173.832 546.143 178.992 552.169 180.674C553.985 181.181 555.967 181.45 557.433 182.582C559.077 183.849 559.724 185.898 560.664 187.677C563.768 193.43 571.313 196.708 577.98 195.193L576.651 193.78C570.872 193.861 565.023 190.766 562.382 185.871Z" fill="black"/>
<path opacity="0.1" d="M522.89 161.265C522.139 162.343 519.991 167.864 518.198 172.684C516.52 172.069 514.996 168.15 514.996 168.15L523.944 156.17C524.86 157.357 524.259 159.324 522.89 161.265Z" fill="black"/>
<path d="M523.233 160.941C522.483 162.02 520.335 167.54 518.542 172.36C516.864 171.751 515.34 167.826 515.34 167.826L524.287 155.852C525.204 157.033 524.602 159.006 523.233 160.941Z" fill="#DCE7FF"/>
<path d="M471.21 216.019L466.249 201.296C466.191 201.123 466.169 200.942 466.185 200.761C466.201 200.581 466.255 200.405 466.343 200.245C466.431 200.084 466.553 199.941 466.7 199.824C466.847 199.708 467.017 199.62 467.2 199.565C467.57 199.457 467.969 199.49 468.313 199.657C468.656 199.825 468.915 200.114 469.033 200.46L473.994 215.168L473.501 218.246L471.21 216.019Z" fill="#BE8B87"/>
<path opacity="0.1" d="M466.72 200.002C467.09 199.892 467.491 199.924 467.835 200.092C468.18 200.259 468.44 200.549 468.558 200.897L473.519 215.604L473.147 217.912L473.508 218.268L474 215.189L469.011 200.482C468.893 200.135 468.633 199.847 468.29 199.679C467.947 199.511 467.547 199.478 467.178 199.587C466.867 199.681 466.599 199.871 466.416 200.126C466.513 200.077 466.615 200.035 466.72 200.002Z" fill="white"/>
<path d="M471.209 216.019L473.993 215.189L473.586 217.712L473.5 218.267L472.687 217.469L471.209 216.019Z" fill="#EFC8C4"/>
<path d="M472.688 217.47C472.736 217.412 472.796 217.364 472.865 217.33C472.905 217.306 472.952 217.293 473 217.293C473.047 217.293 473.094 217.306 473.134 217.33C473.173 217.374 473.206 217.423 473.232 217.475C473.27 217.535 473.321 217.585 473.383 217.624C473.444 217.662 473.514 217.687 473.587 217.696L473.501 218.235L472.688 217.47Z" fill="#727A9C"/>
<path d="M466.221 206.525C466.221 206.525 476.171 206.472 473.828 210.456C471.485 214.44 467.825 214.92 467.825 214.92L466.221 206.525Z" fill="#FFB0B1"/>
<path d="M404.337 27.7222H403.907C386.814 27.7222 371.697 36.2351 363.001 48.7968C354.306 36.2351 339.189 27.7222 322.096 27.7222H321.666C308.838 27.8372 296.577 32.7124 287.546 41.2882C278.516 49.864 273.446 61.4475 273.439 73.5214C273.439 88.5147 280.417 109.789 294.021 127.294C319.942 160.65 363.001 189.834 363.001 189.834C363.001 189.834 406.061 160.656 431.976 127.294C445.586 109.789 452.558 88.5147 452.558 73.5214C452.551 61.4484 447.482 49.8658 438.453 41.2901C429.424 32.7144 417.164 27.8386 404.337 27.7222ZM398.19 129.861C396.244 129.854 394.345 129.293 392.743 128.252C391.141 127.211 389.911 125.738 389.214 124.027H378.995C378.322 124.023 377.667 123.822 377.122 123.451C376.576 123.079 376.168 122.557 375.953 121.957L372.814 113.056L362.881 145.722C362.688 146.351 362.283 146.904 361.727 147.297C361.171 147.691 360.495 147.904 359.799 147.905H359.599C358.873 147.872 358.181 147.606 357.639 147.151C357.097 146.695 356.737 146.079 356.62 145.404L346.384 87.458L338.902 121.747C338.731 122.398 338.333 122.977 337.771 123.39C337.209 123.803 336.516 124.028 335.803 124.027H321.408C320.977 124.044 320.546 123.979 320.142 123.836C319.738 123.692 319.369 123.473 319.057 123.192C318.745 122.911 318.497 122.573 318.328 122.199C318.158 121.825 318.071 121.423 318.071 121.016C318.071 120.61 318.158 120.207 318.328 119.834C318.497 119.46 318.745 119.122 319.057 118.841C319.369 118.559 319.738 118.34 320.142 118.197C320.546 118.053 320.977 117.988 321.408 118.005H333.283L343.88 71.904C344.054 71.2224 344.474 70.6189 345.069 70.1965C345.663 69.7742 346.395 69.5593 347.139 69.5886C347.883 69.6179 348.594 69.8895 349.149 70.3571C349.703 70.8247 350.069 71.4591 350.181 72.152L360.636 131.262L369.537 102.036C369.723 101.421 370.115 100.878 370.655 100.489C371.195 100.101 371.854 99.8867 372.533 99.8796H372.596C373.27 99.8798 373.925 100.08 374.471 100.452C375.016 100.824 375.422 101.348 375.632 101.95L381.309 118.021H389.088C389.641 116.44 390.648 115.033 391.997 113.956C393.346 112.879 394.985 112.174 396.733 111.918C398.481 111.662 400.27 111.866 401.903 112.507C403.535 113.147 404.948 114.2 405.985 115.549C407.022 116.898 407.643 118.49 407.78 120.15C407.916 121.81 407.562 123.473 406.758 124.956C405.953 126.439 404.729 127.684 403.22 128.553C401.711 129.422 399.977 129.882 398.208 129.882L398.19 129.861Z" fill="#00C9A7"/>
</g>
<defs>
<linearGradient id="paint0_linear_8858_15946" x1="204.116" y1="417.757" x2="204.116" y2="86.0079" gradientUnits="userSpaceOnUse">
<stop stop-color="#808080" stop-opacity="0.25"/>
<stop offset="0.54" stop-color="#808080" stop-opacity="0.12"/>
<stop offset="1" stop-color="#808080" stop-opacity="0.1"/>
</linearGradient>
<linearGradient id="paint1_linear_8858_15946" x1="511.783" y1="413.562" x2="511.783" y2="110.57" gradientUnits="userSpaceOnUse">
<stop stop-color="#808080" stop-opacity="0.25"/>
<stop offset="0.54" stop-color="#808080" stop-opacity="0.12"/>
<stop offset="1" stop-color="#808080" stop-opacity="0.1"/>
</linearGradient>
<clipPath id="clip0_8858_15946">
<rect width="633" height="422" fill="white"/>
</clipPath>
</defs>
</svg>
