<svg width="128" height="36" viewBox="0 0 128 36" fill="none" xmlns="http://www.w3.org/2000/svg">
<g clip-path="url(#clip0_8814_26701)">
<g clip-path="url(#clip1_8814_26701)">
<g clip-path="url(#clip2_8814_26701)">
<mask id="mask0_8814_26701" style="mask-type:luminance" maskUnits="userSpaceOnUse" x="0" y="0" width="128" height="36">
<path d="M127.722 0.276978H0.933594V35.7231H127.722V0.276978Z" fill="white"/>
</mask>
<g mask="url(#mask0_8814_26701)">
<path fill-rule="evenodd" clip-rule="evenodd" d="M18.7809 0.276978C28.6377 0.276978 36.6281 8.21187 36.6281 18.0001C36.6281 27.7882 28.6377 35.7231 18.7809 35.7231C8.92409 35.7231 0.933594 27.7882 0.933594 18.0001C0.933594 8.21187 8.92409 0.276978 18.7809 0.276978ZM8.86063 25.2637C7.71438 25.2637 6.78516 26.1863 6.78516 27.3247C6.78516 28.463 7.71438 29.3857 8.86063 29.3857C10.0069 29.3857 10.9361 28.463 10.9361 27.3247C10.9361 26.1863 10.0069 25.2637 8.86063 25.2637ZM14.6281 17.9456C12.1891 17.9456 10.212 19.9089 10.212 22.331C10.212 24.7529 12.1891 26.7164 14.6281 26.7164C17.0671 26.7164 19.0442 24.7529 19.0442 22.331C19.0442 19.9089 17.0671 17.9456 14.6281 17.9456ZM25.1061 4.92565C20.512 4.92565 16.7876 8.624 16.7876 13.1862C16.7876 17.7483 20.512 21.4466 25.1061 21.4466C29.7002 21.4466 33.4244 17.7483 33.4244 13.1862C33.4244 8.624 29.7002 4.92565 25.1061 4.92565Z" fill="#434343"/>
<path d="M19.6738 16.1768V10.1118H20.6722V16.1768H19.6738ZM26.07 16.1768H22.6152V10.1118H26.07V10.9498H23.6137V12.6009H25.9155V13.4305H23.6137V15.3347H26.07V16.1768ZM29.9886 10.8751C29.4148 10.8751 28.9637 11.077 28.635 11.4808C28.3063 11.8846 28.1421 12.4418 28.1421 13.1526C28.1421 13.8965 28.3001 14.4593 28.6162 14.841C28.9324 15.2226 29.3897 15.4135 29.9886 15.4135C30.2475 15.4135 30.4982 15.3879 30.7405 15.3367C30.9828 15.2855 31.2348 15.2199 31.4966 15.1397V15.9901C31.0176 16.1699 30.4745 16.2598 29.8674 16.2598C28.9734 16.2598 28.2869 15.9908 27.8078 15.4529C27.3288 14.915 27.0894 14.1455 27.0894 13.1443C27.0894 12.5137 27.2056 11.962 27.4381 11.4891C27.6707 11.0161 28.007 10.6538 28.447 10.4021C28.8871 10.1505 29.4037 10.0247 29.9969 10.0247C30.6207 10.0247 31.1972 10.1546 31.7264 10.4146L31.3671 11.2401C31.161 11.1434 30.943 11.0583 30.7133 10.985C30.4835 10.9118 30.242 10.8751 29.9886 10.8751Z" fill="#434343"/>
<path fill-rule="evenodd" clip-rule="evenodd" d="M71.8638 7.0691C73.0817 7.0691 73.9951 7.39202 74.6106 8.03785C75.2235 8.68369 75.5293 9.60835 75.5293 10.8118V11.6898H70.1028C70.1265 12.0517 70.203 12.3538 70.3348 12.5989C70.4693 12.8414 70.6406 13.036 70.8594 13.1799C71.0716 13.3239 71.3181 13.4263 71.6015 13.4899C71.8849 13.5521 72.1933 13.5832 72.5281 13.5832C72.8167 13.5832 73.1001 13.5521 73.3769 13.4885C73.655 13.4263 73.9107 13.3446 74.14 13.2409C74.3431 13.1539 74.5315 13.0567 74.7028 12.9543C74.8755 12.8518 75.0153 12.7624 75.1234 12.6819H75.3857V14.6985C75.1826 14.7763 74.9968 14.8502 74.8294 14.9177C74.662 14.9864 74.4327 15.0538 74.14 15.1239C73.8711 15.194 73.5944 15.2484 73.311 15.2873C73.025 15.3262 72.677 15.347 72.2658 15.347C70.7671 15.347 69.6191 14.9929 68.8191 14.2887C68.0203 13.5819 67.6209 12.5756 67.6209 11.2696C67.6209 9.99352 67.9926 8.97418 68.7386 8.21163C69.482 7.45037 70.5246 7.0691 71.8638 7.0691ZM79.9268 7.0691C80.4844 7.0691 80.9997 7.12378 81.4712 7.23312C81.9387 7.34247 82.3347 7.47394 82.6578 7.62626V9.61143H82.4592C82.3731 9.54633 82.2394 9.45782 82.0526 9.34847C81.8685 9.24042 81.6884 9.1467 81.5148 9.06729C81.3056 8.97356 81.0724 8.89806 80.8141 8.83688C80.5546 8.777 80.291 8.74706 80.0221 8.74706C79.6619 8.74706 79.3572 8.80694 79.1082 8.92801C78.8606 9.04906 78.736 9.20918 78.736 9.40835C78.736 9.58538 78.7983 9.72598 78.9201 9.82882C79.0447 9.93035 79.3109 10.0306 79.7241 10.1282C79.9361 10.179 80.1824 10.2297 80.4592 10.2779C80.7387 10.3274 81.0049 10.3938 81.2606 10.4783C81.8327 10.6593 82.2671 10.9261 82.5652 11.2777C82.8592 11.6292 83.0102 12.0965 83.0102 12.6784C83.0102 13.0454 82.9214 13.3969 82.7467 13.7301C82.5705 14.0634 82.3215 14.3433 82.0009 14.5711C81.6592 14.8184 81.2565 15.0085 80.7956 15.1452C80.3321 15.2792 79.7784 15.347 79.1347 15.347C78.548 15.347 77.9917 15.2844 77.4659 15.1582C76.944 15.0333 76.5109 14.8848 76.1705 14.7182V12.6523H76.3745C76.4937 12.7395 76.6275 12.8372 76.7811 12.9439C76.9308 13.0506 77.1427 13.1626 77.4116 13.2785C77.6447 13.3852 77.9056 13.4763 78.1983 13.5545C78.4884 13.6313 78.8036 13.669 79.1453 13.669C79.4963 13.669 79.8049 13.6156 80.0738 13.5089C80.3401 13.4022 80.4751 13.2316 80.4751 12.9986C80.4751 12.819 80.4128 12.6809 80.2884 12.5872C80.1665 12.4948 79.9268 12.4063 79.5719 12.323C79.3798 12.2762 79.1427 12.2253 78.8526 12.1707C78.5625 12.1173 78.3069 12.0574 78.0844 11.9872C77.4579 11.7958 76.9877 11.5133 76.6738 11.1384C76.3586 10.7622 76.201 10.2714 76.201 9.66089C76.201 9.31072 76.2818 8.98137 76.4474 8.67156C76.6102 8.36304 76.85 8.08707 77.1692 7.84364C77.4844 7.60672 77.8778 7.41797 78.3453 7.27869C78.8115 7.13809 79.3387 7.0691 79.9268 7.0691ZM86.8444 5.15883V7.3931H89.2087V9.09047H86.8444V11.8565C86.8444 12.1294 86.8471 12.3675 86.8523 12.5706C86.8575 12.7763 86.893 12.9587 86.9649 13.1205C87.0291 13.2821 87.147 13.4115 87.3134 13.5059C87.4771 13.6017 87.7195 13.6483 88.0364 13.6483C88.17 13.6483 88.3415 13.6211 88.5537 13.5668C88.7659 13.5124 88.914 13.462 88.9991 13.4167H89.2087V15.1257C88.9427 15.1943 88.6586 15.2486 88.3586 15.2874C88.0574 15.3263 87.6919 15.347 87.2544 15.347C86.2511 15.347 85.5229 15.1438 85.0644 14.735C84.6087 14.3288 84.3781 13.6612 84.3781 12.7349V9.09047H83.4377V7.3931H84.3781V5.15883H86.8444ZM107.772 7.0691C108.99 7.0691 109.904 7.39202 110.519 8.03785C111.132 8.68369 111.438 9.60835 111.438 10.8118V11.6898H106.012C106.035 12.0517 106.111 12.3538 106.243 12.5989C106.376 12.8414 106.549 13.036 106.768 13.1799C106.978 13.3239 107.227 13.4263 107.51 13.4899C107.793 13.5521 108.102 13.5832 108.437 13.5832C108.725 13.5832 109.007 13.5521 109.285 13.4885C109.563 13.4263 109.819 13.3446 110.048 13.2409C110.251 13.1539 110.438 13.0567 110.612 12.9543C110.784 12.8518 110.924 12.7624 111.032 12.6819H111.294V14.6985C111.091 14.7763 110.905 14.8502 110.738 14.9177C110.57 14.9864 110.341 15.0538 110.048 15.1239C109.78 15.194 109.501 15.2484 109.219 15.2873C108.933 15.3262 108.585 15.347 108.174 15.347C106.675 15.347 105.527 14.9929 104.726 14.2887C103.929 13.5819 103.529 12.5756 103.529 11.2696C103.529 9.99352 103.9 8.97418 104.647 8.21163C105.39 7.45037 106.433 7.0691 107.772 7.0691ZM48.5373 7.3255V15.1347H46.103V7.3255H48.5373ZM55.4874 7.0691C56.302 7.0691 56.9258 7.32168 57.3563 7.82814C57.7868 8.332 58.0027 9.065 58.0027 10.0245V15.1347H55.498V11.2418C55.498 10.9242 55.486 10.6091 55.4595 10.294C55.4344 9.98026 55.3841 9.74852 55.3139 9.59879C55.2277 9.42173 55.1059 9.29543 54.9443 9.21862C54.7841 9.1405 54.5681 9.10274 54.2992 9.10274C54.0966 9.10274 53.8913 9.1392 53.6821 9.21472C53.4741 9.29024 53.2516 9.4074 53.0145 9.57015V15.1347H50.5218V7.28262H53.0145V8.15233C53.4224 7.81252 53.8185 7.54691 54.2052 7.35423C54.592 7.16415 55.0185 7.0691 55.4874 7.0691ZM61.4407 7.28135L63.0641 12.4731L64.6614 7.28135H67.1935L64.359 15.1347H61.6712L58.8576 7.28135H61.4407ZM99.8538 7.0691C100.221 7.0691 100.55 7.12639 100.843 7.24226C101.135 7.35943 101.381 7.5352 101.584 7.76825C101.804 8.01953 101.969 8.31897 102.08 8.66529C102.19 9.01292 102.246 9.46599 102.246 10.0245V15.1347H99.7592V11.2133C99.7592 10.8265 99.7514 10.4997 99.7386 10.2354C99.7228 9.96985 99.6814 9.75242 99.6096 9.58447C99.5406 9.41652 99.4304 9.29543 99.2827 9.21862C99.134 9.1405 98.9282 9.10274 98.6614 9.10274C98.4733 9.10274 98.2877 9.14311 98.1034 9.22513C97.9205 9.30585 97.723 9.42173 97.5072 9.57015V15.1347H95.0183V11.2133C95.0183 10.8317 95.0103 10.5062 94.9919 10.2381C94.9774 9.97116 94.934 9.75242 94.8617 9.58447C94.7919 9.41652 94.6813 9.29543 94.5326 9.21862C94.3865 9.1405 94.1772 9.10274 93.9153 9.10274C93.7126 9.10274 93.5138 9.14962 93.3217 9.24206C93.1282 9.3358 92.9387 9.44516 92.7558 9.57015V15.1347H90.2774V7.28262H92.7558V8.15233C93.1598 7.81252 93.5429 7.54691 93.9009 7.35423C94.2602 7.16415 94.6616 7.0691 95.1104 7.0691C95.5948 7.0691 96.0212 7.18237 96.3884 7.41021C96.7557 7.63936 97.036 7.98047 97.2321 8.43094C97.7046 7.99349 98.1547 7.65759 98.5738 7.42193C98.9962 7.18628 99.4225 7.0691 99.8538 7.0691ZM71.674 8.63959C71.1916 8.63959 70.8159 8.78095 70.5457 9.06367C70.2729 9.34768 70.1239 9.73285 70.0949 10.2205H73.0895C73.0738 9.70432 72.9525 9.31266 72.7232 9.04422C72.4951 8.77446 72.1445 8.63959 71.674 8.63959ZM107.582 8.63959C107.1 8.63959 106.724 8.78095 106.454 9.06367C106.181 9.34768 106.032 9.73285 106.004 10.2205H108.998C108.982 9.70432 108.861 9.31266 108.632 9.04422C108.402 8.77446 108.053 8.63959 107.582 8.63959ZM48.5981 4.30981V6.21194H46.0332V4.30981H48.5981Z" fill="#434343"/>
<path fill-rule="evenodd" clip-rule="evenodd" d="M56.2618 23.6247C57.4796 23.6247 58.3931 23.9476 59.006 24.5934C59.6202 25.2406 59.926 26.164 59.926 27.3675V28.2454H54.4995C54.5219 28.6072 54.601 28.9094 54.7329 29.1545C54.8646 29.3984 55.0386 29.5915 55.2561 29.7355C55.4683 29.8807 55.7161 29.9832 55.9982 30.0454C56.2816 30.1077 56.5899 30.1402 56.9247 30.1402C57.2121 30.1402 57.4955 30.1077 57.7735 30.0454C58.0517 29.9832 58.3047 29.9002 58.5367 29.7964C58.741 29.7096 58.9269 29.6123 59.0995 29.5098C59.2708 29.4074 59.4119 29.3179 59.5201 29.2388H59.7823V31.2542C59.5793 31.3332 59.3948 31.4059 59.2274 31.4733C59.06 31.5421 58.8293 31.6108 58.5367 31.6795C58.2678 31.7495 57.991 31.804 57.7064 31.8429C57.4216 31.8819 57.0737 31.9025 56.6624 31.9025C55.1651 31.9025 54.0158 31.5498 53.2158 30.8444C52.4169 30.1375 52.0176 29.1311 52.0176 27.8265C52.0176 26.5492 52.3893 25.5298 53.1353 24.7672C53.88 24.006 54.9226 23.6247 56.2618 23.6247ZM72.9635 23.6247C74.2522 23.6247 75.25 23.9929 75.9609 24.732C76.6691 25.4696 77.0251 26.4813 77.0251 27.7668C77.0251 29.0485 76.6704 30.0576 75.9634 30.7953C75.2565 31.533 74.256 31.9025 72.9635 31.9025C71.68 31.9025 70.6821 31.533 69.97 30.7953C69.2578 30.0576 68.903 29.0485 68.903 27.7668C68.903 26.4723 69.2578 25.458 69.97 24.7255C70.6821 23.9916 71.68 23.6247 72.9635 23.6247ZM85.3003 23.837V27.7298C85.3003 28.136 85.311 28.4654 85.3321 28.7232C85.3533 28.9784 85.4036 29.1958 85.4845 29.3729C85.5599 29.5356 85.6777 29.6593 85.8354 29.7426C85.9943 29.826 86.2154 29.8689 86.4988 29.8689C86.6737 29.8689 86.8802 29.826 87.1199 29.7426C87.3583 29.6593 87.5794 29.5448 87.7834 29.4002V23.837H90.2771V31.6891H87.7834V30.8194C87.353 31.1748 86.9571 31.443 86.5969 31.6265C86.2366 31.8115 85.8076 31.9025 85.311 31.9025C84.5203 31.9025 83.9033 31.6578 83.461 31.1656C83.0173 30.6735 82.7962 29.934 82.7962 28.9471V23.837H85.3003ZM106.093 23.6247C107.382 23.6247 108.381 23.9929 109.089 24.732C109.8 25.4696 110.154 26.4813 110.154 27.7668C110.154 29.0485 109.8 30.0576 109.093 30.7953C108.386 31.533 107.386 31.9025 106.093 31.9025C104.81 31.9025 103.812 31.533 103.1 30.7953C102.388 30.0576 102.032 29.0485 102.032 27.7668C102.032 26.4723 102.388 25.458 103.1 24.7255C103.812 23.9916 104.81 23.6247 106.093 23.6247ZM62.7228 23.837L64.345 29.0287L65.9422 23.837H68.4755L65.6411 31.6903H62.9532L60.1397 23.837H62.7228ZM94.753 21.5022V23.7364H97.1167V25.4338H94.753V28.1998C94.753 28.4728 94.7557 28.7108 94.7596 28.9153C94.7649 29.1197 94.8015 29.3033 94.8722 29.4651C94.9364 29.6268 95.0529 29.7549 95.2192 29.8493C95.3843 29.9464 95.6278 29.993 95.9447 29.993C96.077 29.993 96.2472 29.9645 96.4607 29.9102C96.6727 29.8558 96.8221 29.8053 96.9045 29.7601H97.1167V31.4691C96.8483 31.5376 96.5654 31.592 96.2655 31.6308C95.9657 31.6709 95.5976 31.6903 95.1617 31.6903C94.1598 31.6903 93.4291 31.4872 92.9722 31.0797C92.5164 30.6722 92.2873 30.0059 92.2873 29.0795V25.4338H91.3458V23.7364H92.2873V21.5022H94.753ZM116.404 23.6247C117.217 23.6247 117.841 23.8773 118.272 24.3837C118.702 24.8889 118.919 25.6206 118.919 26.5802V31.6903H116.414V27.7975C116.414 27.4811 116.402 27.1648 116.375 26.8497C116.35 26.5359 116.299 26.3041 116.23 26.1544C116.145 25.9773 116.022 25.8511 115.861 25.7743C115.7 25.6974 115.483 25.6584 115.214 25.6584C115.013 25.6584 114.806 25.6961 114.598 25.7703C114.389 25.8459 114.167 25.9643 113.93 26.1271V31.6903H111.437V23.8382H113.93V24.7079C114.338 24.3682 114.735 24.1025 115.121 23.9111C115.506 23.7198 115.934 23.6247 116.404 23.6247ZM80.8725 20.6532V31.4781H78.3076V20.6532H80.8725ZM100.477 23.6679V31.4781H98.0427V23.6679H100.477ZM72.9635 25.3715C72.7443 25.3715 72.5474 25.4051 72.37 25.4723C72.1925 25.5395 72.0296 25.6661 71.8808 25.856C71.7413 26.0369 71.6292 26.2836 71.5457 26.5963C71.4622 26.9102 71.4204 27.3057 71.4204 27.7811C71.4204 28.2565 71.4596 28.6403 71.5378 28.9335C71.6173 29.2268 71.7204 29.4607 71.8469 29.6364C71.976 29.8159 72.1391 29.9478 72.3347 30.0305C72.5304 30.1145 72.7469 30.1558 72.9857 30.1558C73.18 30.1558 73.3795 30.1145 73.5817 30.0305C73.7839 29.9478 73.9457 29.8237 74.0682 29.657C74.2117 29.4594 74.3213 29.2191 74.3956 28.9413C74.4712 28.6623 74.5078 28.2746 74.5078 27.7811C74.5078 27.3198 74.47 26.9348 74.3917 26.6286C74.3148 26.3211 74.2091 26.0757 74.0747 25.8909C73.93 25.6971 73.7669 25.5614 73.5856 25.4865C73.403 25.409 73.1969 25.3715 72.9635 25.3715ZM106.093 25.3715C105.874 25.3715 105.677 25.4051 105.499 25.4723C105.322 25.5395 105.16 25.6661 105.011 25.856C104.871 26.0369 104.759 26.2836 104.675 26.5963C104.591 26.9102 104.55 27.3057 104.55 27.7811C104.55 28.2565 104.589 28.6403 104.669 28.9335C104.747 29.2268 104.85 29.4607 104.975 29.6364C105.105 29.8159 105.269 29.9478 105.465 30.0305C105.66 30.1145 105.876 30.1558 106.114 30.1558C106.31 30.1558 106.509 30.1145 106.711 30.0305C106.913 29.9478 107.076 29.8237 107.197 29.657C107.341 29.4594 107.451 29.2191 107.526 28.9413C107.601 28.6623 107.638 28.2746 107.638 27.7811C107.638 27.3198 107.599 26.9348 107.523 26.6286C107.446 26.3211 107.338 26.0757 107.205 25.8909C107.06 25.6971 106.896 25.5614 106.715 25.4865C106.534 25.409 106.326 25.3715 106.093 25.3715ZM56.0707 25.1952C55.5896 25.1952 55.2126 25.3379 54.9424 25.6193C54.6708 25.9033 54.5206 26.2884 54.4929 26.776H57.4849C57.4718 26.2613 57.3505 25.8683 57.1211 25.5998C56.8918 25.3301 56.5425 25.1952 56.0707 25.1952ZM100.537 20.6532V22.5556H97.9716V20.6532H100.537Z" fill="#434343"/>
<path fill-rule="evenodd" clip-rule="evenodd" d="M120.136 15.1642H117.645V11.2859C117.645 10.9694 117.631 10.6555 117.605 10.3416C117.58 10.029 117.531 9.79809 117.459 9.64892C117.377 9.47252 117.253 9.34671 117.094 9.27017C116.934 9.19235 116.718 9.15474 116.451 9.15474C116.249 9.15474 116.043 9.19105 115.837 9.26628C115.628 9.34152 115.407 9.45825 115.174 9.62039V15.1642H112.691V7.34139H115.174V8.20785C115.576 7.86931 115.973 7.60469 116.357 7.41272C116.74 7.22335 117.165 7.12866 117.634 7.12866C118.442 7.12866 119.063 7.3803 119.492 7.88488C119.919 8.38685 120.136 9.11711 120.136 10.0731V15.1642Z" fill="#434343"/>
<path fill-rule="evenodd" clip-rule="evenodd" d="M125.018 15.316C124.009 15.316 123.273 15.1123 122.815 14.7025C122.354 14.2951 122.125 13.6259 122.125 12.6971V9.0432H121.178V7.34141H122.125V5.10132H124.607V7.34141H126.986V9.0432H124.607V11.8163C124.607 12.0901 124.609 12.3287 124.615 12.5324C124.617 12.7386 124.655 12.9215 124.725 13.0836C124.792 13.2458 124.907 13.3755 125.076 13.4702C125.242 13.5662 125.487 13.6129 125.806 13.6129C125.938 13.6129 126.111 13.5856 126.324 13.5312C126.541 13.4767 126.69 13.4261 126.773 13.3807H126.986V15.0941C126.716 15.163 126.43 15.2174 126.128 15.2563C125.827 15.2952 125.456 15.316 125.018 15.316Z" fill="#434343"/>
</g>
</g>
</g>
</g>
<defs>
<clipPath id="clip0_8814_26701">
<rect width="128" height="36" fill="white"/>
</clipPath>
<clipPath id="clip1_8814_26701">
<rect width="128" height="36" fill="white"/>
</clipPath>
<clipPath id="clip2_8814_26701">
<rect width="128" height="35.4462" fill="white" transform="translate(0 0.276978)"/>
</clipPath>
</defs>
</svg>
