<svg width="563" height="726" viewBox="0 0 563 726" fill="none" xmlns="http://www.w3.org/2000/svg">
<g opacity="0.5">
<path d="M236.954 87.5244H141.262V3.10414C141.262 3.10414 148.097 -220.496 385.048 -220.496C622 -220.496 622 3.10414 622 3.10414V375.01C622 375.01 622 591.764 385.048 591.764C148.097 591.764 141.262 375.01 141.262 375.01V283.744H236.954V375.01C236.954 375.01 246.067 495.936 385.048 495.936C524.03 495.936 524.03 375.01 524.03 375.01V3.10414C524.03 3.10414 524.03 -124.668 385.048 -124.668C246.067 -124.668 236.954 3.10414 236.954 3.10414V87.5244Z" fill="#5FF1D8"/>
<path d="M168.6 -287.217C312.136 -369.356 423.779 -341.422 423.779 -341.422V-250.711C423.779 -250.711 332.642 -272.973 223.28 -211.369C113.918 -149.765 97.9693 -69.9084 95.6919 2.55037V134.885H328.087V57.3095C328.087 57.3095 328.087 13.9585 378.211 13.9585C428.335 13.9585 423.779 57.3095 423.779 57.3095V317.415C423.779 317.415 428.335 356.203 378.211 356.203C328.087 356.203 328.087 317.415 328.087 317.415V232.995H95.6919V376.737C95.6919 376.737 104.806 503.298 205.054 572.957C305.303 642.617 423.779 632.833 423.779 632.833V725.826C423.779 725.826 230.116 734.953 116.197 620.872C2.27838 506.79 0 375.99 0 375.99V2.55037C2.27762 -60.7819 25.0645 -205.077 168.6 -287.217Z" fill="#5FF1D8"/>
</g>
</svg>
