<svg width="124" height="20" viewBox="0 0 124 20" fill="none" xmlns="http://www.w3.org/2000/svg">
<g clip-path="url(#clip0_8814_26578)">
<g clip-path="url(#clip1_8814_26578)">
<g clip-path="url(#clip2_8814_26578)">
<path d="M11.1651 8.3337V15.7311H9.23132V8.6793C9.23132 6.42748 7.93358 5.09656 5.79337 5.11802C3.74463 5.11802 2.28733 6.62067 2.26393 8.24353V15.7311H0.330078V3.62611H2.15118V5.39494C2.92556 4.24649 4.38286 3.3728 6.28693 3.3728C9.36747 3.3728 11.1651 5.32625 11.1651 8.3337Z" fill="#434343"/>
<path d="M19.5285 14.167C21.4857 14.167 22.5793 13.4092 23.1707 12.0074L24.8556 13.0422C23.9684 14.7594 22.3027 16.0045 19.4604 16.0045C15.7735 16.0045 13.2695 13.2954 13.2695 9.68907C13.2695 6.17288 15.931 3.3479 19.3242 3.3479C22.9409 3.3479 25.2428 6.2201 25.2428 9.41215C25.2428 9.75777 25.2194 10.1699 25.1981 10.3996H15.2225C15.5672 12.6514 17.3202 14.167 19.5285 14.167ZM23.2621 8.70162C22.9664 6.42618 21.3964 5.05233 19.3924 5.05233C17.3882 5.05233 15.6139 6.409 15.2481 8.70162H23.2621Z" fill="#434343"/>
<path d="M37.8787 3.62744V15.7323H36.0343V14.015C35.5701 14.6409 34.9648 15.1462 34.2685 15.4889C33.5721 15.8316 32.8049 16.0019 32.0303 15.9857C28.9583 15.9857 27.25 13.9635 27.25 11.0913V3.62744H29.186V10.8616C29.186 12.9073 30.4815 14.2619 32.5303 14.2383C34.579 14.2147 35.9236 12.77 35.947 11.233V3.62744H37.8787Z" fill="#434343"/>
<path d="M45.9722 3.3728V5.18671C43.7852 5.21032 42.2598 6.70439 42.2598 8.42599V15.7246H40.3281V3.62611H42.1492V5.39494C42.5774 4.77159 43.1488 4.26209 43.8145 3.90996C44.4802 3.55783 45.2206 3.37353 45.9722 3.3728Z" fill="#434343"/>
<path d="M86.5866 5.14583C85.5803 3.90721 84.0847 3.22888 82.3317 3.22888C78.7661 3.22888 76.1791 5.93579 76.1791 9.6688C76.1444 11.4003 76.7652 13.0799 77.9151 14.3657C78.4831 14.9691 79.1687 15.4476 79.9288 15.7707C80.6888 16.094 81.507 16.2551 82.3317 16.2439C84.074 16.2439 85.5718 15.542 86.5866 14.2562V15.9907H88.897V3.36626H86.5866V5.14583ZM86.5185 9.66665C86.5185 12.219 84.891 14.0029 82.5635 14.0029C80.3085 14.0029 78.6086 12.1374 78.6086 9.66665C78.6086 7.19587 80.3106 5.35405 82.5635 5.35405C84.891 5.35405 86.5185 7.12717 86.5185 9.66665Z" fill="#434343"/>
<path d="M100.981 5.23293L101.004 5.20502V3.36536H91.5223V5.49053H97.8598L91.2031 14.2166V15.9876H101.253V13.8645H94.3709L100.981 5.23293Z" fill="#434343"/>
<path d="M108.81 3.08645C107.971 3.08411 107.141 3.25423 106.37 3.5864C105.599 3.91858 104.903 4.40583 104.326 5.01843C103.139 6.27592 102.484 7.94932 102.497 9.68522C102.463 11.4242 103.105 13.1079 104.285 14.3756C105.455 15.5906 107.11 16.2603 108.946 16.2603C111.616 16.2668 113.516 15.2236 114.579 13.1756L114.69 12.961L112.537 11.6343L112.422 11.9091C111.844 13.2766 110.763 13.912 109.018 13.912C108.08 13.9285 107.167 13.6121 106.438 13.0181C105.708 12.4241 105.208 11.5901 105.025 10.662H114.92L114.943 10.428C114.967 10.194 114.99 9.77109 114.99 9.41474C115.002 7.78827 114.402 6.21766 113.313 5.01843C112.738 4.39766 112.039 3.90515 111.264 3.57247C110.488 3.23977 109.653 3.07422 108.81 3.08645ZM105.044 8.45305C105.222 7.56305 105.702 6.76338 106.401 6.19144C107.099 5.6195 107.974 5.311 108.874 5.31895C110.694 5.31895 112.084 6.54469 112.443 8.45305H105.044Z" fill="#434343"/>
<path d="M123.089 3.11353C122.421 3.11273 121.76 3.25001 121.147 3.51694C120.533 3.78386 119.98 4.17477 119.522 4.66555V3.36469H117.182V15.987H119.628V8.42432C119.628 6.77355 121.147 5.4641 123.085 5.44479H123.338V3.11353H123.089Z" fill="#434343"/>
<path d="M53.241 3.40235C52.0217 3.40448 50.8303 3.77112 49.8174 4.45597C48.8045 5.14082 48.0153 6.11318 47.5497 7.25026C47.084 8.38734 46.9627 9.63814 47.2011 10.8447C47.4396 12.0513 48.0269 13.1595 48.8891 14.0295C49.7513 14.8995 50.8497 15.4922 52.0454 15.7328C53.2412 15.9732 54.4808 15.8509 55.6077 15.3811C56.7346 14.9112 57.6983 14.115 58.377 13.0928C59.0558 12.0708 59.4191 10.8687 59.4212 9.63834C59.4226 8.81902 59.2637 8.00748 58.9536 7.25026C58.6436 6.49304 58.1884 5.80503 57.6142 5.22568C57.04 4.64633 56.3581 4.18704 55.6077 3.87416C54.8572 3.56127 54.053 3.40094 53.241 3.40235ZM53.241 14.1571C52.3578 14.1549 51.4952 13.8887 50.7619 13.3921C50.0285 12.8954 49.4576 12.1907 49.121 11.3668C48.7845 10.5429 48.6976 9.63681 48.8711 8.76306C49.0447 7.88931 49.4711 7.08708 50.0963 6.4577C50.7215 5.82833 51.5176 5.40005 52.384 5.22698C53.2503 5.05391 54.1481 5.14381 54.9638 5.48531C55.7795 5.82682 56.4767 6.40462 56.9671 7.14571C57.4576 7.88681 57.7193 8.75794 57.7193 9.64908C57.7159 10.8455 57.2427 11.9917 56.4033 12.8367C55.5638 13.6817 54.4267 14.1565 53.241 14.1571Z" fill="#434343"/>
<path d="M67.8297 3.1283C66.5534 3.12787 65.3057 3.50936 64.2442 4.22452C63.1829 4.93967 62.3555 5.95636 61.8668 7.14602C61.378 8.33566 61.25 9.64482 61.4988 10.9079C61.7475 12.1711 62.3618 13.3313 63.2641 14.2421C64.1665 15.1529 65.3162 15.7732 66.568 16.0246C67.8197 16.2759 69.1171 16.1472 70.2963 15.6545C71.4755 15.1617 72.4834 14.3272 73.1925 13.2565C73.9016 12.1857 74.2801 10.9269 74.2801 9.63906C74.2801 7.91267 73.6006 6.25696 72.3909 5.03601C71.1813 3.81507 69.5406 3.12887 67.8297 3.1283ZM67.8297 13.7241C67.0303 13.7241 66.2488 13.485 65.584 13.0368C64.9193 12.5886 64.4012 11.9516 64.0952 11.2063C63.7893 10.461 63.7092 9.64097 63.8652 8.84981C64.0211 8.05863 64.4061 7.33189 64.9715 6.76148C65.5368 6.19108 66.257 5.80263 67.0411 5.64525C67.8253 5.48788 68.6379 5.56865 69.3765 5.87735C70.1152 6.18605 70.7465 6.70882 71.1906 7.37954C71.6347 8.05026 71.8718 8.83882 71.8718 9.6455C71.8718 10.7272 71.446 11.7646 70.688 12.5296C69.9299 13.2944 68.9018 13.7241 67.8297 13.7241Z" fill="#434343"/>
<path d="M71.8814 2.78902C72.6229 2.78902 73.2239 2.18257 73.2239 1.43448C73.2239 0.6864 72.6229 0.0799561 71.8814 0.0799561C71.1401 0.0799561 70.5391 0.6864 70.5391 1.43448C70.5391 2.18257 71.1401 2.78902 71.8814 2.78902Z" fill="#434343"/>
<path d="M70.7359 16.9242C68.8661 17.6856 66.7765 17.6856 64.9067 16.9242H62.3984C62.9821 17.8429 63.7854 18.5987 64.7342 19.1222C65.6831 19.6457 66.7473 19.92 67.8287 19.92C68.9102 19.92 69.9743 19.6457 70.9232 19.1222C71.8721 18.5987 72.6754 17.8429 73.2591 16.9242H70.7359Z" fill="#434343"/>
</g>
</g>
</g>
<defs>
<clipPath id="clip0_8814_26578">
<rect width="124" height="20" fill="white"/>
</clipPath>
<clipPath id="clip1_8814_26578">
<rect width="124" height="20" fill="white"/>
</clipPath>
<clipPath id="clip2_8814_26578">
<rect width="124" height="19.84" fill="white" transform="translate(0 0.0799561)"/>
</clipPath>
</defs>
</svg>
