<svg width="267" height="700" viewBox="0 0 267 700" fill="none" xmlns="http://www.w3.org/2000/svg">
<path d="M15.6683 283.085H-46.793V227.96C-46.793 227.96 -42.3314 81.9524 112.335 81.9524C267.001 81.9524 267.001 227.96 267.001 227.96V470.809C267.001 470.809 267.001 612.346 112.335 612.346C-42.3315 612.346 -46.793 470.809 -46.793 470.809V411.214H15.6683V470.809C15.6683 470.809 21.617 549.772 112.335 549.772C203.052 549.772 203.052 470.809 203.052 470.809V227.96C203.052 227.96 203.052 144.527 112.335 144.527C21.617 144.527 15.6683 227.96 15.6683 227.96V283.085Z" fill="#C0F6ED" fill-opacity="0.5"/>
<path d="M-28.9491 38.3847C64.7413 -15.2511 137.614 2.98915 137.614 2.98915V62.2226C137.614 62.2226 78.1267 47.6853 6.74234 87.9118C-64.642 128.138 -75.0522 180.284 -76.5387 227.598V314.011H75.1531V263.355C75.1531 263.355 75.1531 235.048 107.871 235.048C140.589 235.048 137.614 263.355 137.614 263.355V433.2C137.614 433.2 140.589 458.528 107.871 458.528C75.1531 458.528 75.1531 433.2 75.1531 433.2V378.075H-76.5387V471.937C-76.5387 471.937 -70.59 554.579 -5.15431 600.065C60.2813 645.552 137.614 639.164 137.614 639.164V699.887C137.614 699.887 11.2046 705.846 -63.1541 631.353C-137.513 556.859 -139 471.449 -139 471.449V227.598C-137.513 186.243 -122.64 92.0205 -28.9491 38.3847Z" fill="#C0F6ED" fill-opacity="0.5"/>
</svg>
