<svg width="363" height="377" viewBox="0 0 363 377" fill="none" xmlns="http://www.w3.org/2000/svg">
<g opacity="0.2">
<path d="M350.285 113.772C350.285 120.009 344.967 125.066 338.407 125.066H249.982C243.533 125.066 238.315 130.037 238.305 136.169V352.142C238.305 358.37 233.007 363.417 226.467 363.427H226.437C225.862 363.427 225.287 363.398 224.721 363.312C218.888 362.506 214.559 357.756 214.549 352.142V136.169C214.599 117.591 230.444 102.564 249.971 102.535H338.397C344.301 102.535 349.306 106.661 350.154 112.217C350.235 112.726 350.275 113.244 350.275 113.772H350.285Z" fill="#00C9A7"/>
<path d="M238.307 286.151H226.934V351.691H238.307V286.151Z" fill="url(#paint0_linear_8814_27005)"/>
<path d="M195.688 137.818V175.53C195.667 196.353 177.916 213.223 156.026 213.242H139.546C130.746 213.242 123.611 220.036 123.601 228.403V244.649C123.581 265.491 105.799 282.37 83.8792 282.361H39.2628C30.4627 282.361 23.3277 289.154 23.3176 297.522V371.208C23.5396 377.436 18.4129 382.656 11.8633 382.867C5.31359 383.078 -0.176414 378.204 -0.398434 371.976C-0.398434 371.717 -0.398434 371.458 -0.398434 371.208V297.522C-0.37825 276.699 17.3633 259.82 39.2628 259.81H83.8792C92.6794 259.791 99.8042 253.016 99.8244 244.649V228.403C99.8446 207.571 117.586 190.691 139.486 190.663H155.966C164.756 190.663 171.881 183.888 171.881 175.53V137.818C171.881 129.46 164.756 122.686 155.966 122.686H0.974068C-20.9052 122.628 -38.6165 105.759 -38.6367 84.955V8.88874C-38.4147 2.65145 -32.9146 -2.23284 -26.3549 -2.02173C-20.108 -1.82021 -15.1024 2.94892 -14.8803 8.88874V84.955C-14.8803 93.2937 -7.78572 100.059 0.984161 100.097H156.026C177.926 100.116 195.667 116.995 195.688 137.809V137.818Z" fill="#00C9A7"/>
<path d="M148.399 202.485L147.774 213.261H139.488C130.688 213.261 123.553 220.055 123.543 228.422V230.553L112.008 227.347C112.008 227.347 113.269 214.7 123.795 207.791C134.321 200.882 148.399 202.494 148.399 202.494V202.485Z" fill="url(#paint1_linear_8814_27005)"/>
<path d="M278.413 83.5932V136.284C278.352 152.885 264.224 166.329 246.765 166.396H-20.9033C-27.4631 166.185 -32.5999 160.955 -32.3778 154.718C-32.1659 148.778 -27.1502 144.018 -20.9033 143.807H246.765C251.134 143.807 254.667 140.429 254.667 136.284V83.5932C254.667 79.4382 251.134 76.0605 246.765 76.0509H137.621C120.151 76.0221 105.992 62.5495 105.982 45.9391V12.3249C105.982 6.09722 111.311 1.0498 117.861 1.0498C124.41 1.0498 129.708 6.09722 129.719 12.3249V45.9391C129.719 50.0941 133.261 53.4719 137.631 53.4815H246.775C264.244 53.5103 278.403 66.9828 278.413 83.5932Z" fill="#00C9A7"/>
<path d="M60.377 144.085H12.5312V165.09H60.377V144.085Z" fill="url(#paint2_linear_8814_27005)"/>
<path d="M55.3986 100.185H19.2695V121.19H55.3986V100.185Z" fill="url(#paint3_linear_8814_27005)"/>
<path d="M278.409 93.9176V136.283C278.349 152.884 264.22 166.328 246.761 166.395H-20.9067C-25.3573 166.395 -29.4344 164.025 -31.4629 160.263C-29.4344 156.502 -25.3573 154.131 -20.9067 154.141H246.761C251.131 154.141 254.663 150.763 254.663 146.618V83.5637C254.663 79.4087 251.131 76.031 246.761 76.0214H137.617C120.158 75.9926 106.019 62.5488 105.979 45.948V22.6589C105.979 16.4312 111.307 11.3838 117.857 11.3838C124.407 11.3838 129.705 16.4312 129.715 22.6589V56.2923C129.715 60.4473 133.268 63.8155 137.627 63.8155H246.771C264.24 63.8442 278.399 77.3168 278.409 93.9272V93.9176Z" fill="url(#paint4_linear_8814_27005)"/>
<path d="M364.489 239.333C364.489 245.561 359.171 250.608 352.621 250.608H166.274C161.006 250.628 156.747 254.677 156.737 259.686V371.228C156.515 377.465 151.015 382.35 144.455 382.139C138.208 381.937 133.202 377.168 132.98 371.228V259.686C133.001 242.212 147.886 228.058 166.264 228.039H352.611C359.171 228.039 364.479 233.106 364.479 239.333H364.489Z" fill="#00C9A7"/>
<path d="M358.535 243.364H230.711V250.053H358.535V243.364Z" fill="url(#paint5_linear_8814_27005)"/>
<path d="M214.975 243.105V250.676H166.271C161.003 250.695 156.745 254.745 156.734 259.754V371.296C156.734 375.278 154.524 378.963 150.922 380.987L149.388 381.285V377.619C149.388 377.619 147.399 270.712 149.388 256.76C151.376 242.807 168.148 243.095 168.148 243.095H214.975V243.105Z" fill="url(#paint6_linear_8814_27005)"/>
<path d="M364.486 183.697C364.506 183.917 364.506 184.148 364.486 184.368C364.123 190.327 358.935 194.981 352.658 194.981H284.962C281.369 194.981 278.462 197.754 278.452 201.171V299.701C278.432 314.689 265.646 326.838 249.882 326.857H-30.956C-31.2184 326.876 -31.4707 326.876 -31.7331 326.857C-38.2626 326.435 -43.1975 321.051 -42.7535 314.843C-42.3296 308.941 -37.1827 304.355 -30.9661 304.335H249.832C252.496 304.326 254.656 302.272 254.666 299.739V201.209C254.686 185.337 268.209 172.469 284.911 172.45H352.608C359.147 172.45 364.456 177.478 364.476 183.697H364.486Z" fill="#00C9A7"/>
<path d="M364.333 185.098C363.596 190.74 358.561 194.982 352.576 194.982H284.879C281.287 194.982 278.38 197.755 278.37 201.171V299.701C278.37 314.69 265.604 326.848 249.84 326.857H-30.9573L-31.6738 326.109C-30.9371 320.457 -25.8912 316.216 -19.9067 316.216H248.125C257.833 316.216 265.695 308.731 265.695 299.509V202.39C265.695 186.518 279.258 184.407 295.95 184.407H363.647L364.323 185.117L364.333 185.098Z" fill="url(#paint7_linear_8814_27005)"/>
<path d="M50.2835 8.90011V177.653C50.2229 198.61 32.3703 215.585 10.3296 215.642C-5.43402 215.662 -18.2104 227.81 -18.2306 242.799V372.41C-18.2508 378.628 -23.5591 383.666 -30.0987 383.666H-31.0675C-37.2337 383.195 -41.9769 378.302 -41.9668 372.419V242.799C-41.9365 215.345 -18.5434 193.102 10.3296 193.073C19.2811 193.054 26.5372 186.164 26.5473 177.653V8.90011C26.5473 2.67241 31.8758 -2.375 38.4255 -2.375C44.9751 -2.375 50.2734 2.67241 50.2835 8.90011Z" fill="#00C9A7"/>
<path d="M50.2825 8.89911V177.651C50.222 198.609 32.3694 215.584 10.3286 215.641C-5.43495 215.661 -18.2113 227.809 -18.2315 242.798V372.409C-18.2517 378.627 -23.56 383.665 -30.0996 383.665H-31.0684C-32.0675 381.985 -32.5822 380.095 -32.5721 378.176V248.565C-32.5418 221.111 -9.13868 198.858 19.7343 198.829C28.6858 198.81 35.9419 191.921 35.952 183.409V14.647C35.952 8.41931 41.2705 3.3623 47.8201 3.3623C48.133 3.3623 48.4559 3.3623 48.7688 3.3623C49.7679 5.05117 50.2825 6.96075 50.2725 8.88951L50.2825 8.89911Z" fill="url(#paint8_linear_8814_27005)"/>
<path d="M314.165 392.032C307.615 392.032 302.297 386.975 302.297 380.747V0.953196C302.519 -5.2841 308.019 -10.1684 314.579 -9.95727C320.826 -9.75576 325.831 -4.98663 326.053 0.953196V380.756C326.053 386.984 320.735 392.041 314.185 392.041H314.175L314.165 392.032Z" fill="#00C9A7"/>
<path d="M81.1048 384.087C74.5551 384.087 69.2266 379.049 69.2266 372.812V45.7761C69.2467 31.0273 81.8213 19.0804 97.3326 19.0709H240.587C242.111 19.0709 243.353 17.8906 243.353 16.4416V-5.40813C243.575 -11.6454 249.075 -16.5297 255.634 -16.3186C261.881 -16.1171 266.887 -11.348 267.109 -5.40813V16.384C267.089 30.3172 255.211 41.6115 240.557 41.6307H97.272C94.8701 41.6307 92.9224 43.4827 92.9224 45.7665V372.793C92.9224 379.001 87.6544 384.039 81.1249 384.077L81.1048 384.087Z" fill="#00C9A7"/>
<path d="M83.8711 282.38V384.087C83.8711 384.087 91.107 382.408 92.6208 376.209V280.759L83.8711 282.39V282.38Z" fill="url(#paint9_linear_8814_27005)"/>
<path d="M58.4655 -4.20898H20.0254V8.10247H58.4655V-4.20898Z" fill="#00C9A7"/>
<path d="M19.3806 172.633L19.3764 175.502C19.3735 177.49 21.0655 179.103 23.1556 179.106L52.2404 179.144C54.3305 179.147 56.0273 177.538 56.0302 175.551L56.0344 172.682C56.0373 170.694 54.3453 169.081 52.2552 169.078L23.1703 169.04C21.0802 169.037 19.3835 170.646 19.3806 172.633Z" fill="#00C9A7"/>
<path d="M19.3827 171.516L19.3825 171.612C19.3805 172.974 20.5401 174.08 21.9725 174.082L53.4391 174.123C54.8715 174.125 56.0343 173.023 56.0363 171.661L56.0365 171.565C56.0385 170.203 54.8789 169.097 53.4465 169.095L21.9799 169.053C20.5475 169.051 19.3847 170.154 19.3827 171.516Z" fill="url(#paint10_linear_8814_27005)"/>
<path d="M6.81119 187.218H3.168C0.598565 187.218 -1.48438 189.198 -1.48438 191.641V219.345C-1.48438 221.788 0.598565 223.768 3.168 223.768H6.81119C9.38062 223.768 11.4636 221.788 11.4636 219.345V191.641C11.4636 189.198 9.38062 187.218 6.81119 187.218Z" fill="#00C9A7"/>
<path d="M1.98367 187.198H1.97358C0.0562532 187.198 -1.49805 188.676 -1.49805 190.499V220.448C-1.49805 222.271 0.0562532 223.749 1.97358 223.749H1.98367C3.90099 223.749 5.45529 222.271 5.45529 220.448V190.499C5.45529 188.676 3.90099 187.198 1.98367 187.198Z" fill="url(#paint11_linear_8814_27005)"/>
<path d="M92.8332 88.1025H69.2383V99.8766H92.8332V88.1025Z" fill="url(#paint12_linear_8814_27005)"/>
<path d="M92.8407 122.763H69.0742V132.138H92.8407V122.763Z" fill="url(#paint13_linear_8814_27005)"/>
<path d="M171.934 142.837V137.818C171.934 129.46 164.809 122.686 156.019 122.686H61.3061L55.4023 121.179L56.5326 109.895H158.471C158.471 109.895 172.025 111.785 178.049 122.292C181.703 128.779 183.761 135.966 184.074 143.307L171.934 142.837Z" fill="url(#paint14_linear_8814_27005)"/>
<path d="M154.258 93.3506H149.919C147.433 93.3506 145.418 95.2667 145.418 97.6303V122.436C145.418 124.799 147.433 126.715 149.919 126.715H154.258C156.744 126.715 158.759 124.799 158.759 122.436V97.6303C158.759 95.2667 156.744 93.3506 154.258 93.3506Z" fill="#00C9A7"/>
<path d="M149.193 93.3418H148.779C146.917 93.3418 145.408 94.7767 145.408 96.5468V123.502C145.408 125.272 146.917 126.707 148.779 126.707H149.193C151.054 126.707 152.563 125.272 152.563 123.502V96.5468C152.563 94.7767 151.054 93.3418 149.193 93.3418Z" fill="url(#paint15_linear_8814_27005)"/>
<path d="M154.249 183.553H149.909C147.423 183.553 145.408 185.469 145.408 187.832V212.638C145.408 215.001 147.423 216.917 149.909 216.917H154.249C156.735 216.917 158.75 215.001 158.75 212.638V187.832C158.75 185.469 156.735 183.553 154.249 183.553Z" fill="#00C9A7"/>
<path d="M149.193 183.533H148.779C146.917 183.533 145.408 184.968 145.408 186.738V213.693C145.408 215.463 146.917 216.898 148.779 216.898H149.193C151.054 216.898 152.563 215.463 152.563 213.693V186.738C152.563 184.968 151.054 183.533 149.193 183.533Z" fill="url(#paint16_linear_8814_27005)"/>
<path d="M125.667 227.05H99.5791C97.0933 227.05 95.0781 228.966 95.0781 231.33V235.456C95.0781 237.819 97.0933 239.736 99.5791 239.736H125.667C128.153 239.736 130.168 237.819 130.168 235.456V231.33C130.168 228.966 128.153 227.05 125.667 227.05Z" fill="#00C9A7"/>
<path d="M126.797 232.942H98.4488C96.5873 232.942 95.0781 234.377 95.0781 236.147V236.541C95.0781 238.311 96.5873 239.746 98.4488 239.746H126.797C128.659 239.746 130.168 238.311 130.168 236.541V236.147C130.168 234.377 128.659 232.942 126.797 232.942Z" fill="url(#paint17_linear_8814_27005)"/>
<path d="M280.05 87.6416H253.871C251.369 87.6416 249.34 89.5706 249.34 91.9501V96.0763C249.34 98.4559 251.369 100.385 253.871 100.385H280.05C282.552 100.385 284.581 98.4559 284.581 96.0763V91.9501C284.581 89.5706 282.552 87.6416 280.05 87.6416Z" fill="#00C9A7"/>
<path d="M281.2 93.5537H252.721C250.853 93.5537 249.34 94.9929 249.34 96.7683V97.1713C249.34 98.9467 250.853 100.386 252.721 100.386H281.2C283.067 100.386 284.581 98.9467 284.581 97.1713V96.7683C284.581 94.9929 283.067 93.5537 281.2 93.5537Z" fill="url(#paint18_linear_8814_27005)"/>
<path d="M238.855 46.8779H234.516C232.013 46.8779 229.984 48.8069 229.984 51.1865V76.0781C229.984 78.4576 232.013 80.3866 234.516 80.3866H238.855C241.358 80.3866 243.386 78.4576 243.386 76.0781V51.1865C243.386 48.8069 241.358 46.8779 238.855 46.8779Z" fill="#00C9A7"/>
<path d="M233.789 46.8779H233.365C231.498 46.8779 229.984 48.3172 229.984 50.0925V77.172C229.984 78.9474 231.498 80.3866 233.365 80.3866H233.789C235.656 80.3866 237.17 78.9474 237.17 77.172V50.0925C237.17 48.3172 235.656 46.8779 233.789 46.8779Z" fill="url(#paint19_linear_8814_27005)"/>
<path d="M187.988 221.859H183.648C181.146 221.859 179.117 223.788 179.117 226.168V251.06C179.117 253.439 181.146 255.368 183.648 255.368H187.988C190.491 255.368 192.519 253.439 192.519 251.06V226.168C192.519 223.788 190.491 221.859 187.988 221.859Z" fill="#00C9A7"/>
<path d="M182.922 221.859H182.498C180.631 221.859 179.117 223.299 179.117 225.074V252.153C179.117 253.929 180.631 255.368 182.498 255.368H182.922C184.789 255.368 186.303 253.929 186.303 252.153V225.074C186.303 223.299 184.789 221.859 182.922 221.859Z" fill="url(#paint20_linear_8814_27005)"/>
<path d="M345.64 97.1133H341.301C338.798 97.1133 336.77 99.0423 336.77 101.422V126.313C336.77 128.693 338.798 130.622 341.301 130.622H345.64C348.143 130.622 350.172 128.693 350.172 126.313V101.422C350.172 99.0423 348.143 97.1133 345.64 97.1133Z" fill="#00C9A7"/>
<path d="M340.574 97.1133H340.15C338.283 97.1133 336.77 98.5525 336.77 100.328V127.407C336.77 129.183 338.283 130.622 340.15 130.622H340.574C342.441 130.622 343.955 129.183 343.955 127.407V100.328C343.955 98.5525 342.441 97.1133 340.574 97.1133Z" fill="url(#paint21_linear_8814_27005)"/>
<path d="M300.138 164.571H295.799C293.296 164.571 291.268 166.5 291.268 168.88V193.771C291.268 196.151 293.296 198.08 295.799 198.08H300.138C302.641 198.08 304.67 196.151 304.67 193.771V168.88C304.67 166.5 302.641 164.571 300.138 164.571Z" fill="#00C9A7"/>
<path d="M295.072 164.571H294.648C292.781 164.571 291.268 166.011 291.268 167.786V194.865C291.268 196.641 292.781 198.08 294.648 198.08H295.072C296.939 198.08 298.453 196.641 298.453 194.865V167.786C298.453 166.011 296.939 164.571 295.072 164.571Z" fill="url(#paint22_linear_8814_27005)"/>
<path d="M360.459 222.464H356.119C353.617 222.464 351.588 224.393 351.588 226.772V251.664C351.588 254.044 353.617 255.973 356.119 255.973H360.459C362.961 255.973 364.99 254.044 364.99 251.664V226.772C364.99 224.393 362.961 222.464 360.459 222.464Z" fill="#00C9A7"/>
<path d="M355.393 222.464H354.969C353.102 222.464 351.588 223.903 351.588 225.678V252.758C351.588 254.533 353.102 255.973 354.969 255.973H355.393C357.26 255.973 358.773 254.533 358.773 252.758V225.678C358.773 223.903 357.26 222.464 355.393 222.464Z" fill="url(#paint23_linear_8814_27005)"/>
<path d="M360.468 166.837H356.129C353.626 166.837 351.598 168.766 351.598 171.145V196.037C351.598 198.417 353.626 200.346 356.129 200.346H360.468C362.971 200.346 365 198.417 365 196.037V171.145C365 168.766 362.971 166.837 360.468 166.837Z" fill="#00C9A7"/>
<path d="M355.402 166.837H354.978C353.111 166.837 351.598 168.276 351.598 170.052V197.131C351.598 198.906 353.111 200.346 354.978 200.346H355.402C357.269 200.346 358.783 198.906 358.783 197.131V170.052C358.783 168.276 357.269 166.837 355.402 166.837Z" fill="url(#paint24_linear_8814_27005)"/>
<path d="M239.999 351.7H213.82C211.318 351.7 209.289 353.629 209.289 356.009V360.135C209.289 362.514 211.318 364.443 213.82 364.443H239.999C242.501 364.443 244.53 362.514 244.53 360.135V356.009C244.53 353.629 242.501 351.7 239.999 351.7Z" fill="#00C9A7"/>
<path d="M241.149 351.7H212.67C210.803 351.7 209.289 353.139 209.289 354.915V355.318C209.289 357.093 210.803 358.532 212.67 358.532H241.149C243.016 358.532 244.53 357.093 244.53 355.318V354.915C244.53 353.139 243.016 351.7 241.149 351.7Z" fill="url(#paint25_linear_8814_27005)"/>
<path d="M95.2136 373.166H69.0352C66.5326 373.166 64.5039 375.095 64.5039 377.475V381.601C64.5039 383.98 66.5326 385.909 69.0352 385.909H95.2136C97.7162 385.909 99.7449 383.98 99.7449 381.601V377.475C99.7449 375.095 97.7162 373.166 95.2136 373.166Z" fill="#00C9A7"/>
<path d="M96.3641 373.166H67.8847C66.0175 373.166 64.5039 374.605 64.5039 376.381V376.784C64.5039 378.559 66.0175 379.998 67.8847 379.998H96.3641C98.2313 379.998 99.7449 378.559 99.7449 376.784V376.381C99.7449 374.605 98.2313 373.166 96.3641 373.166Z" fill="url(#paint26_linear_8814_27005)"/>
<path d="M24.9441 371.736H-1.23435C-3.73691 371.736 -5.76562 373.665 -5.76562 376.045V380.171C-5.76562 382.551 -3.73691 384.48 -1.23435 384.48H24.9441C27.4466 384.48 29.4754 382.551 29.4754 380.171V376.045C29.4754 373.665 27.4466 371.736 24.9441 371.736Z" fill="#00C9A7"/>
<path d="M26.0946 371.736H-2.38483C-4.25199 371.736 -5.76562 373.176 -5.76562 374.951V375.354C-5.76562 377.129 -4.25199 378.569 -2.38483 378.569H26.0946C27.9617 378.569 29.4754 377.129 29.4754 375.354V374.951C29.4754 373.176 27.9617 371.736 26.0946 371.736Z" fill="url(#paint27_linear_8814_27005)"/>
<path d="M130.887 -2.37598H104.709C102.206 -2.37598 100.178 -0.446984 100.178 1.93255V6.05877C100.178 8.4383 102.206 10.3673 104.709 10.3673H130.887C133.39 10.3673 135.419 8.4383 135.419 6.05877V1.93255C135.419 -0.446984 133.39 -2.37598 130.887 -2.37598Z" fill="#00C9A7"/>
<path d="M132.038 -2.37598H103.559C101.691 -2.37598 100.178 -0.93675 100.178 0.838628V1.24165C100.178 3.01703 101.691 4.45626 103.559 4.45626H132.038C133.905 4.45626 135.419 3.01703 135.419 1.24165V0.838628C135.419 -0.93675 133.905 -2.37598 132.038 -2.37598Z" fill="url(#paint28_linear_8814_27005)"/>
<path d="M157.743 269.147H131.564C129.062 269.147 127.033 271.076 127.033 273.456V277.582C127.033 279.962 129.062 281.891 131.564 281.891H157.743C160.245 281.891 162.274 279.962 162.274 277.582V273.456C162.274 271.076 160.245 269.147 157.743 269.147Z" fill="#00C9A7"/>
<path d="M158.893 275.078H130.414C128.547 275.078 127.033 276.517 127.033 278.293V278.696C127.033 280.471 128.547 281.91 130.414 281.91H158.893C160.761 281.91 162.274 280.471 162.274 278.696V278.293C162.274 276.517 160.761 275.078 158.893 275.078Z" fill="url(#paint29_linear_8814_27005)"/>
<path d="M189.49 299.104H185.15C182.648 299.104 180.619 301.034 180.619 303.413V328.305C180.619 330.684 182.648 332.613 185.15 332.613H189.49C191.992 332.613 194.021 330.684 194.021 328.305V303.413C194.021 301.034 191.992 299.104 189.49 299.104Z" fill="#00C9A7"/>
<path d="M184.424 299.104H184C182.133 299.104 180.619 300.544 180.619 302.319V329.399C180.619 331.174 182.133 332.613 184 332.613H184.424C186.291 332.613 187.805 331.174 187.805 329.399V302.319C187.805 300.544 186.291 299.104 184.424 299.104Z" fill="url(#paint30_linear_8814_27005)"/>
<path d="M106.687 299.104H102.348C99.8451 299.104 97.8164 301.034 97.8164 303.413V328.305C97.8164 330.684 99.8451 332.613 102.348 332.613H106.687C109.19 332.613 111.218 330.684 111.218 328.305V303.413C111.218 301.034 109.19 299.104 106.687 299.104Z" fill="#00C9A7"/>
<path d="M101.602 299.104H101.178C99.3105 299.104 97.7969 300.544 97.7969 302.319V329.399C97.7969 331.174 99.3105 332.613 101.178 332.613H101.602C103.469 332.613 104.982 331.174 104.982 329.399V302.319C104.982 300.544 103.469 299.104 101.602 299.104Z" fill="url(#paint31_linear_8814_27005)"/>
<path d="M157.782 345.953H131.604C129.101 345.953 127.072 347.882 127.072 350.262V354.388C127.072 356.767 129.101 358.696 131.604 358.696H157.782C160.285 358.696 162.313 356.767 162.313 354.388V350.262C162.313 347.882 160.285 345.953 157.782 345.953Z" fill="#00C9A7"/>
<path d="M158.932 351.863H130.453C128.586 351.863 127.072 353.303 127.072 355.078V355.481C127.072 357.256 128.586 358.696 130.453 358.696H158.932C160.8 358.696 162.313 357.256 162.313 355.481V355.078C162.313 353.303 160.8 351.863 158.932 351.863Z" fill="url(#paint32_linear_8814_27005)"/>
<path d="M123.592 239.87V244.668C123.572 265.51 105.79 282.389 83.8707 282.38H39.2543C30.4541 282.38 23.3191 289.173 23.309 297.541V303.529L13.207 303.778V290.392C13.207 290.392 17.2135 277.361 27.588 276.085C37.9625 274.809 83.1239 276.085 83.1239 276.085C83.1239 276.085 96.5159 276.382 102.531 269.396C108.556 262.411 113.914 263.984 113.581 239.812L123.572 239.86L123.592 239.87Z" fill="url(#paint33_linear_8814_27005)"/>
<path d="M68.5938 259.274C68.5938 259.274 85.1748 260.473 92.6731 257.604V228.701H69.0883L68.5938 259.274Z" fill="url(#paint34_linear_8814_27005)"/>
<path d="M-18.9141 316.704H69.0774V326.559H-17.9251L-18.9141 316.704Z" fill="url(#paint35_linear_8814_27005)"/>
<path d="M325.389 -0.677734H315.953V378.646H325.389V-0.677734Z" fill="url(#paint36_linear_8814_27005)"/>
<path d="M226.357 133.185C215.034 133.204 205.87 141.955 205.891 152.722C205.911 163.488 215.115 172.201 226.438 172.182C237.741 172.163 246.904 163.44 246.904 152.683C246.904 141.907 237.7 133.185 226.377 133.185C226.377 133.185 226.377 133.185 226.367 133.185H226.357ZM226.357 167.403C217.799 167.403 210.866 160.811 210.866 152.674C210.866 144.536 217.799 137.944 226.357 137.944C234.915 137.944 241.848 144.536 241.848 152.674C241.848 160.811 234.915 167.403 226.357 167.403Z" fill="url(#paint37_linear_8814_27005)"/>
<path d="M226.358 159.294C230.198 159.294 233.311 156.334 233.311 152.683C233.311 149.031 230.198 146.071 226.358 146.071C222.517 146.071 219.404 149.031 219.404 152.683C219.404 156.334 222.517 159.294 226.358 159.294Z" fill="url(#paint38_linear_8814_27005)"/>
<path d="M244.452 151.339H230.363V154.016H244.452V151.339Z" fill="url(#paint39_linear_8814_27005)"/>
<path d="M227.757 135.458H224.941V148.854H227.757V135.458Z" fill="url(#paint40_linear_8814_27005)"/>
<path d="M222.332 151.339H208.244V154.016H222.332V151.339Z" fill="url(#paint41_linear_8814_27005)"/>
<path d="M227.757 156.502H224.941V169.898H227.757V156.502Z" fill="url(#paint42_linear_8814_27005)"/>
<path d="M231.867 152.682C231.867 155.58 229.395 157.941 226.337 157.941C223.279 157.941 220.807 155.59 220.807 152.682C220.807 149.775 223.279 147.424 226.337 147.424C229.395 147.424 231.867 149.775 231.867 152.682Z" fill="url(#paint43_linear_8814_27005)"/>
<path d="M223.975 156.598L221.604 152.683L223.975 148.768H228.728L231.09 152.683L228.728 156.598H223.975Z" fill="url(#paint44_linear_8814_27005)"/>
<path d="M228.483 152.682C228.574 153.795 227.706 154.774 226.535 154.86C225.364 154.946 224.335 154.121 224.244 153.008C224.244 152.902 224.244 152.787 224.244 152.682C224.335 151.569 225.364 150.734 226.535 150.83C227.574 150.907 228.402 151.693 228.483 152.682Z" fill="url(#paint45_linear_8814_27005)"/>
<path d="M228.751 133.434C217.428 133.434 208.244 142.166 208.244 152.932C208.244 163.699 217.428 172.431 228.751 172.431C240.074 172.431 249.258 163.699 249.258 152.932C249.258 142.156 240.084 133.434 228.771 133.434H228.761H228.751ZM228.751 167.652C220.193 167.652 213.24 161.07 213.24 152.923C213.24 144.785 220.163 138.174 228.731 138.174C237.289 138.174 244.242 144.757 244.242 152.904C244.242 161.05 237.319 167.652 228.771 167.652H228.761H228.751Z" fill="#00C9A7"/>
<path d="M228.727 159.525C232.567 159.525 235.68 156.565 235.68 152.913C235.68 149.262 232.567 146.302 228.727 146.302C224.887 146.302 221.773 149.262 221.773 152.913C221.773 156.565 224.887 159.525 228.727 159.525Z" fill="#00C9A7"/>
<path d="M246.846 151.579H232.758V154.256H246.846V151.579Z" fill="#00C9A7"/>
<path d="M230.142 135.697H227.326V149.093H230.142V135.697Z" fill="#00C9A7"/>
<path d="M224.713 151.579H210.625V154.256H224.713V151.579Z" fill="#00C9A7"/>
<path d="M230.142 156.741H227.326V170.137H230.142V156.741Z" fill="#00C9A7"/>
<path d="M234.252 152.913C234.252 155.811 231.78 158.171 228.722 158.171C225.664 158.171 223.191 155.82 223.191 152.913C223.191 150.005 225.664 147.654 228.722 147.654C231.78 147.654 234.252 150.005 234.252 152.913Z" fill="#00C9A7"/>
<path d="M226.358 156.829L223.977 152.914L226.358 148.999H231.112L233.483 152.914L231.112 156.829H226.358Z" fill="#00C9A7"/>
<path d="M230.862 152.913C230.862 154.026 229.923 154.937 228.753 154.947C227.582 154.947 226.623 154.055 226.613 152.942C226.613 151.828 227.552 150.917 228.722 150.907C228.722 150.907 228.743 150.907 228.753 150.907C229.923 150.907 230.862 151.809 230.862 152.913Z" fill="#00C9A7"/>
<path d="M227.327 147.874V149.016H226.379L224.804 151.722V151.588H223.422C223.916 149.764 225.41 148.344 227.327 147.874Z" fill="url(#paint46_linear_8814_27005)"/>
<path d="M234.048 151.588H232.766V151.723L231.121 149.017H230.143V147.865C232.05 148.355 233.544 149.775 234.048 151.598V151.588Z" fill="url(#paint47_linear_8814_27005)"/>
<path d="M227.325 156.828V157.97C225.428 157.481 223.944 156.07 223.43 154.266H224.802V154.132L226.447 156.828H227.335H227.325Z" fill="url(#paint48_linear_8814_27005)"/>
<path d="M234.048 154.266C233.544 156.089 232.05 157.51 230.143 157.999V156.828H231.121L232.766 154.132V154.266H234.048Z" fill="url(#paint49_linear_8814_27005)"/>
<path d="M227.327 147.874V149.016H226.379L224.804 151.722V151.588H223.422C223.916 149.764 225.41 148.344 227.327 147.874Z" fill="url(#paint50_linear_8814_27005)"/>
<path d="M234.048 151.588H232.766V151.723L231.121 149.017H230.143V147.865C232.05 148.355 233.544 149.775 234.048 151.598V151.588Z" fill="url(#paint51_linear_8814_27005)"/>
<path d="M227.325 156.828V157.97C225.428 157.481 223.944 156.07 223.43 154.266H224.802V154.132L226.447 156.828H227.335H227.325Z" fill="url(#paint52_linear_8814_27005)"/>
<path d="M234.048 154.266C233.544 156.089 232.05 157.51 230.143 157.999V156.828H231.121L232.766 154.132V154.266H234.048Z" fill="url(#paint53_linear_8814_27005)"/>
<path d="M228.82 133.261C217.487 133.261 208.293 141.983 208.293 152.759C208.293 163.536 217.467 172.277 228.8 172.277C240.133 172.277 249.327 163.555 249.327 152.779C249.327 142.003 240.163 133.261 228.84 133.261H228.83H228.82ZM227.437 167.422C220.01 166.76 214.126 161.165 213.43 154.103H222.038C222.624 156.675 224.733 158.69 227.437 159.237V167.422ZM227.437 157.807C225.54 157.318 224.057 155.907 223.542 154.103H224.803V153.969L226.448 156.665H227.397L227.437 157.807ZM227.437 148.844H226.489L224.803 151.56V151.426H223.502C223.996 149.602 225.49 148.182 227.397 147.712L227.437 148.844ZM227.437 146.282C224.713 146.81 222.583 148.825 222.038 151.416H213.43C214.116 144.344 220 138.74 227.437 138.068V146.282ZM230.192 138.068C237.64 138.73 243.534 144.334 244.23 151.416H235.592C235.037 148.825 232.917 146.8 230.192 146.282V138.068ZM230.192 147.683C232.1 148.173 233.593 149.593 234.098 151.416H232.816V151.55L231.171 148.844H230.192V147.693V147.683ZM230.192 156.655H231.171L232.816 153.959V154.093H234.098C233.593 155.917 232.1 157.337 230.192 157.826V156.655ZM230.192 167.422V159.237C232.917 158.709 235.047 156.694 235.592 154.103H244.23C243.534 161.175 237.65 166.769 230.223 167.441H230.192V167.422Z" fill="url(#paint54_linear_8814_27005)"/>
<path d="M81.6826 132.081C70.3594 132.081 61.1758 140.813 61.1758 151.58C61.1758 162.346 70.3594 171.079 81.6826 171.079C93.0057 171.079 102.189 162.346 102.189 151.58C102.189 140.823 93.0259 132.091 81.7128 132.081C81.7128 132.081 81.6926 132.081 81.6826 132.081ZM81.6826 166.3C73.1246 166.3 66.1915 159.707 66.1915 151.57C66.1915 143.433 73.1246 136.841 81.6826 136.841C90.2405 136.841 97.1737 143.433 97.1737 151.57C97.1737 159.707 90.2405 166.3 81.6826 166.3Z" fill="url(#paint55_linear_8814_27005)"/>
<path d="M81.6604 158.191C85.5006 158.191 88.6137 155.231 88.6137 151.579C88.6137 147.928 85.5006 144.968 81.6604 144.968C77.8201 144.968 74.707 147.928 74.707 151.579C74.707 155.231 77.8201 158.191 81.6604 158.191Z" fill="url(#paint56_linear_8814_27005)"/>
<path d="M99.7758 150.235H85.6875V152.913H99.7758V150.235Z" fill="url(#paint57_linear_8814_27005)"/>
<path d="M83.0695 134.346H80.2539V147.741H83.0695V134.346Z" fill="url(#paint58_linear_8814_27005)"/>
<path d="M77.6333 150.235H63.5449V152.913H77.6333V150.235Z" fill="url(#paint59_linear_8814_27005)"/>
<path d="M83.0695 155.39H80.2539V168.785H83.0695V155.39Z" fill="url(#paint60_linear_8814_27005)"/>
<path d="M87.1701 151.58C87.1701 154.478 84.6976 156.838 81.6397 156.838C78.5819 156.838 76.1094 154.487 76.1094 151.58C76.1094 148.672 78.5819 146.321 81.6397 146.321C84.6976 146.321 87.1701 148.672 87.1701 151.58Z" fill="url(#paint61_linear_8814_27005)"/>
<path d="M79.2899 155.476L76.9082 151.58L79.2899 147.665H84.0432L86.4148 151.58L84.0432 155.476H79.2899Z" fill="url(#paint62_linear_8814_27005)"/>
<path d="M83.7881 151.579C83.6973 152.692 82.6679 153.527 81.4972 153.431C80.4578 153.354 79.6302 152.567 79.5495 151.579C79.4587 150.466 80.3266 149.487 81.4972 149.401C82.6679 149.314 83.6973 150.14 83.7881 151.253C83.7881 151.358 83.7881 151.473 83.7881 151.579Z" fill="url(#paint63_linear_8814_27005)"/>
<path d="M82.6422 146.771V147.903H81.6734L80.0284 150.618V150.484H78.7266C79.2211 148.661 80.7147 147.241 82.6321 146.771H82.6422Z" fill="url(#paint64_linear_8814_27005)"/>
<path d="M89.3988 150.486H88.0161V150.62L86.3813 147.905H85.4023V146.763C87.3602 147.204 88.8942 148.643 89.3988 150.495V150.486Z" fill="url(#paint65_linear_8814_27005)"/>
<path d="M82.6439 155.715V156.866C80.7365 156.377 79.2429 154.967 78.7383 153.153H80.0401V153.019L81.6851 155.648L82.654 155.715H82.6439Z" fill="url(#paint66_linear_8814_27005)"/>
<path d="M89.4013 153.152C88.8967 154.966 87.4132 156.396 85.5059 156.885V155.714H86.4848L88.1197 153.085V153.219L89.4013 153.152Z" fill="url(#paint67_linear_8814_27005)"/>
<path d="M82.6422 146.771V147.903H81.6734L80.0284 150.618V150.484H78.7266C79.2211 148.661 80.7147 147.241 82.6321 146.771H82.6422Z" fill="url(#paint68_linear_8814_27005)"/>
<path d="M89.3988 150.486H88.0161V150.62L86.3813 147.905H85.4023V146.763C87.3602 147.204 88.8942 148.643 89.3988 150.495V150.486Z" fill="url(#paint69_linear_8814_27005)"/>
<path d="M82.6439 155.715V156.866C80.7365 156.377 79.2429 154.967 78.7383 153.153H80.0401V153.019L81.6851 155.648L82.654 155.715H82.6439Z" fill="url(#paint70_linear_8814_27005)"/>
<path d="M89.4013 153.152C88.8967 154.966 87.4132 156.396 85.5059 156.885V155.714H86.4848L88.1197 153.085V153.219L89.4013 153.152Z" fill="url(#paint71_linear_8814_27005)"/>
<path d="M84.1338 132.148C72.8006 132.119 63.5968 140.832 63.5665 151.608C63.5362 162.384 72.6997 171.135 84.0329 171.164C95.3661 171.193 104.57 162.48 104.6 151.704C104.6 151.685 104.6 151.665 104.6 151.656C104.6 140.899 95.4469 132.167 84.1338 132.148ZM82.7512 166.299C75.2933 165.675 69.3794 160.071 68.673 152.99H77.2814C77.8566 155.571 79.976 157.586 82.6806 158.123L82.7512 166.299ZM82.7512 156.703C80.8438 156.214 79.3502 154.803 78.8457 152.99H80.1475V152.855L81.7925 155.552H82.7613V156.703H82.7512ZM82.7512 147.731H81.7824L80.1374 150.447V150.303H78.8356C79.3301 148.489 80.8338 147.069 82.7411 146.599V147.731H82.7512ZM82.7512 145.169C80.0264 145.697 77.897 147.712 77.3521 150.303H68.673C69.3592 143.231 75.2428 137.627 82.6806 136.965L82.7512 145.159V145.169ZM85.5164 136.965C92.9542 137.617 98.8479 143.221 99.5442 150.303H90.9257C90.3706 147.712 88.2513 145.687 85.5265 145.169V136.974L85.5164 136.965ZM85.5164 146.58C87.4339 147.05 88.9275 148.48 89.4119 150.293H88.1302V150.437L86.4953 147.722H85.5164V146.58ZM85.5164 155.542H86.4953L88.1302 152.846V152.98H89.4018C88.8972 154.794 87.4137 156.223 85.5063 156.713V155.542H85.5164ZM85.5164 166.299V158.114C88.2311 157.567 90.3504 155.552 90.9156 152.98H99.5341C98.8478 160.043 92.9743 165.647 85.5366 166.318H85.5063L85.5164 166.299Z" fill="url(#paint72_linear_8814_27005)"/>
</g>
<defs>
<linearGradient id="paint0_linear_8814_27005" x1="270.228" y1="282.342" x2="103.902" y2="461.274" gradientUnits="userSpaceOnUse">
<stop stop-opacity="0"/>
<stop offset="0.95"/>
</linearGradient>
<linearGradient id="paint1_linear_8814_27005" x1="117.78" y1="200.287" x2="155.505" y2="249.387" gradientUnits="userSpaceOnUse">
<stop stop-opacity="0"/>
<stop offset="0.95"/>
</linearGradient>
<linearGradient id="paint2_linear_8814_27005" x1="38.8611" y1="128.415" x2="30.689" y2="226.479" gradientUnits="userSpaceOnUse">
<stop stop-opacity="0"/>
<stop offset="0.95"/>
</linearGradient>
<linearGradient id="paint3_linear_8814_27005" x1="39.6451" y1="85.5317" x2="31.8018" y2="179.764" gradientUnits="userSpaceOnUse">
<stop stop-opacity="0"/>
<stop offset="0.95"/>
</linearGradient>
<linearGradient id="paint4_linear_8814_27005" x1="67.3471" y1="226.167" x2="472.186" y2="-357.403" gradientUnits="userSpaceOnUse">
<stop stop-opacity="0"/>
<stop offset="0.95"/>
</linearGradient>
<linearGradient id="paint5_linear_8814_27005" x1="289.062" y1="227.579" x2="313.426" y2="320.158" gradientUnits="userSpaceOnUse">
<stop stop-opacity="0"/>
<stop offset="0.95"/>
</linearGradient>
<linearGradient id="paint6_linear_8814_27005" x1="274.598" y1="278.35" x2="11.774" y2="362.244" gradientUnits="userSpaceOnUse">
<stop stop-opacity="0"/>
<stop offset="0.95"/>
</linearGradient>
<linearGradient id="paint7_linear_8814_27005" x1="151.151" y1="245.274" x2="430.254" y2="455.241" gradientUnits="userSpaceOnUse">
<stop stop-opacity="0"/>
<stop offset="0.95"/>
</linearGradient>
<linearGradient id="paint8_linear_8814_27005" x1="-34.4593" y1="181" x2="117.855" y2="229.663" gradientUnits="userSpaceOnUse">
<stop stop-opacity="0"/>
<stop offset="0.95"/>
</linearGradient>
<linearGradient id="paint9_linear_8814_27005" x1="124.118" y1="321.618" x2="24.1232" y2="353.534" gradientUnits="userSpaceOnUse">
<stop stop-opacity="0"/>
<stop offset="0.95"/>
</linearGradient>
<linearGradient id="paint10_linear_8814_27005" x1="50.2739" y1="171.643" x2="-30.6526" y2="171.249" gradientUnits="userSpaceOnUse">
<stop stop-opacity="0"/>
<stop offset="0.95"/>
</linearGradient>
<linearGradient id="paint11_linear_8814_27005" x1="3.25525" y1="180.894" x2="0.280084" y2="244.222" gradientUnits="userSpaceOnUse">
<stop stop-opacity="0"/>
<stop offset="0.95"/>
</linearGradient>
<linearGradient id="paint12_linear_8814_27005" x1="80.0467" y1="86.999" x2="84.7355" y2="123.334" gradientUnits="userSpaceOnUse">
<stop stop-opacity="0"/>
<stop offset="0.95"/>
</linearGradient>
<linearGradient id="paint13_linear_8814_27005" x1="78.9845" y1="137.867" x2="84.4388" y2="105.951" gradientUnits="userSpaceOnUse">
<stop stop-opacity="0"/>
<stop offset="0.86" stop-opacity="0.73"/>
<stop offset="0.95"/>
</linearGradient>
<linearGradient id="paint14_linear_8814_27005" x1="117.276" y1="142.655" x2="129.713" y2="69.9587" gradientUnits="userSpaceOnUse">
<stop stop-opacity="0"/>
<stop offset="0.86" stop-opacity="0.73"/>
<stop offset="0.95"/>
</linearGradient>
<linearGradient id="paint15_linear_8814_27005" x1="150.151" y1="87.5555" x2="147.441" y2="145.422" gradientUnits="userSpaceOnUse">
<stop stop-opacity="0"/>
<stop offset="0.95"/>
</linearGradient>
<linearGradient id="paint16_linear_8814_27005" x1="150.151" y1="177.766" x2="147.441" y2="235.623" gradientUnits="userSpaceOnUse">
<stop stop-opacity="0"/>
<stop offset="0.95"/>
</linearGradient>
<linearGradient id="paint17_linear_8814_27005" x1="89.0028" y1="235.245" x2="149.831" y2="238.407" gradientUnits="userSpaceOnUse">
<stop stop-opacity="0"/>
<stop offset="0.95"/>
</linearGradient>
<linearGradient id="paint18_linear_8814_27005" x1="243.244" y1="95.8567" x2="304.315" y2="99.04" gradientUnits="userSpaceOnUse">
<stop stop-opacity="0"/>
<stop offset="0.95"/>
</linearGradient>
<linearGradient id="paint19_linear_8814_27005" x1="234.748" y1="41.0629" x2="232.01" y2="99.1697" gradientUnits="userSpaceOnUse">
<stop stop-opacity="0"/>
<stop offset="0.95"/>
</linearGradient>
<linearGradient id="paint20_linear_8814_27005" x1="183.881" y1="216.044" x2="181.161" y2="274.151" gradientUnits="userSpaceOnUse">
<stop stop-opacity="0"/>
<stop offset="0.95"/>
</linearGradient>
<linearGradient id="paint21_linear_8814_27005" x1="341.543" y1="91.2982" x2="338.805" y2="149.395" gradientUnits="userSpaceOnUse">
<stop stop-opacity="0"/>
<stop offset="0.95"/>
</linearGradient>
<linearGradient id="paint22_linear_8814_27005" x1="296.031" y1="158.756" x2="293.293" y2="216.863" gradientUnits="userSpaceOnUse">
<stop stop-opacity="0"/>
<stop offset="0.95"/>
</linearGradient>
<linearGradient id="paint23_linear_8814_27005" x1="356.341" y1="216.668" x2="353.622" y2="274.765" gradientUnits="userSpaceOnUse">
<stop stop-opacity="0"/>
<stop offset="0.95"/>
</linearGradient>
<linearGradient id="paint24_linear_8814_27005" x1="356.361" y1="161.041" x2="353.632" y2="219.138" gradientUnits="userSpaceOnUse">
<stop stop-opacity="0"/>
<stop offset="0.95"/>
</linearGradient>
<linearGradient id="paint25_linear_8814_27005" x1="250.646" y1="356.229" x2="189.565" y2="353.067" gradientUnits="userSpaceOnUse">
<stop stop-opacity="0"/>
<stop offset="0.95"/>
</linearGradient>
<linearGradient id="paint26_linear_8814_27005" x1="105.851" y1="377.695" x2="44.7697" y2="374.533" gradientUnits="userSpaceOnUse">
<stop stop-opacity="0"/>
<stop offset="0.95"/>
</linearGradient>
<linearGradient id="paint27_linear_8814_27005" x1="35.581" y1="376.266" x2="-25.4897" y2="373.093" gradientUnits="userSpaceOnUse">
<stop stop-opacity="0"/>
<stop offset="0.95"/>
</linearGradient>
<linearGradient id="paint28_linear_8814_27005" x1="141.524" y1="2.15326" x2="80.4637" y2="-1.0088" gradientUnits="userSpaceOnUse">
<stop stop-opacity="0"/>
<stop offset="0.95"/>
</linearGradient>
<linearGradient id="paint29_linear_8814_27005" x1="120.928" y1="277.381" x2="182.008" y2="280.554" gradientUnits="userSpaceOnUse">
<stop stop-opacity="0"/>
<stop offset="0.95"/>
</linearGradient>
<linearGradient id="paint30_linear_8814_27005" x1="185.383" y1="293.309" x2="182.663" y2="351.396" gradientUnits="userSpaceOnUse">
<stop stop-opacity="0"/>
<stop offset="0.95"/>
</linearGradient>
<linearGradient id="paint31_linear_8814_27005" x1="102.56" y1="293.309" x2="99.8406" y2="351.396" gradientUnits="userSpaceOnUse">
<stop stop-opacity="0"/>
<stop offset="0.95"/>
</linearGradient>
<linearGradient id="paint32_linear_8814_27005" x1="120.977" y1="354.166" x2="182.047" y2="357.339" gradientUnits="userSpaceOnUse">
<stop stop-opacity="0"/>
<stop offset="0.95"/>
</linearGradient>
<linearGradient id="paint33_linear_8814_27005" x1="37.2763" y1="235.197" x2="135.562" y2="363.109" gradientUnits="userSpaceOnUse">
<stop stop-opacity="0"/>
<stop offset="0.95"/>
</linearGradient>
<linearGradient id="paint34_linear_8814_27005" x1="80.149" y1="233.403" x2="83.1058" y2="305.001" gradientUnits="userSpaceOnUse">
<stop stop-opacity="0"/>
<stop offset="0.95"/>
</linearGradient>
<linearGradient id="paint35_linear_8814_27005" x1="25.0968" y1="317.098" x2="26.3744" y2="348.069" gradientUnits="userSpaceOnUse">
<stop stop-opacity="0"/>
<stop offset="0.95"/>
</linearGradient>
<linearGradient id="paint36_linear_8814_27005" x1="247.924" y1="193.887" x2="461.284" y2="177.965" gradientUnits="userSpaceOnUse">
<stop stop-opacity="0"/>
<stop offset="0.95"/>
</linearGradient>
<linearGradient id="paint37_linear_8814_27005" x1="230.636" y1="78.1429" x2="210.211" y2="475.32" gradientUnits="userSpaceOnUse">
<stop stop-opacity="0"/>
<stop offset="0.95"/>
</linearGradient>
<linearGradient id="paint38_linear_8814_27005" x1="230.596" y1="78.1328" x2="210.171" y2="475.32" gradientUnits="userSpaceOnUse">
<stop stop-opacity="0"/>
<stop offset="0.95"/>
</linearGradient>
<linearGradient id="paint39_linear_8814_27005" x1="241.616" y1="78.6982" x2="221.19" y2="475.886" gradientUnits="userSpaceOnUse">
<stop stop-opacity="0"/>
<stop offset="0.95"/>
</linearGradient>
<linearGradient id="paint40_linear_8814_27005" x1="229.997" y1="78.0941" x2="209.581" y2="475.3" gradientUnits="userSpaceOnUse">
<stop stop-opacity="0"/>
<stop offset="0.95"/>
</linearGradient>
<linearGradient id="paint41_linear_8814_27005" x1="219.567" y1="77.5754" x2="199.132" y2="474.754" gradientUnits="userSpaceOnUse">
<stop stop-opacity="0"/>
<stop offset="0.95"/>
</linearGradient>
<linearGradient id="paint42_linear_8814_27005" x1="231.188" y1="78.1616" x2="210.763" y2="475.348" gradientUnits="userSpaceOnUse">
<stop stop-opacity="0"/>
<stop offset="0.95"/>
</linearGradient>
<linearGradient id="paint43_linear_8814_27005" x1="230.586" y1="78.1322" x2="210.151" y2="475.319" gradientUnits="userSpaceOnUse">
<stop stop-opacity="0"/>
<stop offset="0.95"/>
</linearGradient>
<linearGradient id="paint44_linear_8814_27005" x1="230.727" y1="75.6377" x2="210.301" y2="472.825" gradientUnits="userSpaceOnUse">
<stop stop-opacity="0"/>
<stop offset="0.95"/>
</linearGradient>
<linearGradient id="paint45_linear_8814_27005" x1="230.612" y1="78.1318" x2="210.177" y2="475.318" gradientUnits="userSpaceOnUse">
<stop stop-opacity="0"/>
<stop offset="0.95"/>
</linearGradient>
<linearGradient id="paint46_linear_8814_27005" x1="226.227" y1="141.167" x2="224.374" y2="163.033" gradientUnits="userSpaceOnUse">
<stop stop-opacity="0"/>
<stop offset="0.95"/>
</linearGradient>
<linearGradient id="paint47_linear_8814_27005" x1="232.807" y1="142.165" x2="231.145" y2="161.727" gradientUnits="userSpaceOnUse">
<stop stop-opacity="0"/>
<stop offset="0.95"/>
</linearGradient>
<linearGradient id="paint48_linear_8814_27005" x1="226.104" y1="148.355" x2="224.442" y2="167.84" gradientUnits="userSpaceOnUse">
<stop stop-opacity="0"/>
<stop offset="0.95"/>
</linearGradient>
<linearGradient id="paint49_linear_8814_27005" x1="232.857" y1="147.501" x2="230.995" y2="169.454" gradientUnits="userSpaceOnUse">
<stop stop-opacity="0"/>
<stop offset="0.95"/>
</linearGradient>
<linearGradient id="paint50_linear_8814_27005" x1="226.439" y1="138.921" x2="224.102" y2="166.511" gradientUnits="userSpaceOnUse">
<stop stop-opacity="0"/>
<stop offset="0.95"/>
</linearGradient>
<linearGradient id="paint51_linear_8814_27005" x1="232.999" y1="140.15" x2="230.898" y2="164.859" gradientUnits="userSpaceOnUse">
<stop stop-opacity="0"/>
<stop offset="0.95"/>
</linearGradient>
<linearGradient id="paint52_linear_8814_27005" x1="226.296" y1="146.34" x2="224.205" y2="170.943" gradientUnits="userSpaceOnUse">
<stop stop-opacity="0"/>
<stop offset="0.95"/>
</linearGradient>
<linearGradient id="paint53_linear_8814_27005" x1="233.069" y1="145.236" x2="230.704" y2="172.951" gradientUnits="userSpaceOnUse">
<stop stop-opacity="0"/>
<stop offset="0.95"/>
</linearGradient>
<linearGradient id="paint54_linear_8814_27005" x1="244.997" y1="150.332" x2="184.763" y2="160.346" gradientUnits="userSpaceOnUse">
<stop stop-opacity="0"/>
<stop offset="0.95"/>
</linearGradient>
<linearGradient id="paint55_linear_8814_27005" x1="85.9212" y1="77.0201" x2="65.4865" y2="474.217" gradientUnits="userSpaceOnUse">
<stop stop-opacity="0"/>
<stop offset="0.95"/>
</linearGradient>
<linearGradient id="paint56_linear_8814_27005" x1="85.899" y1="77.0197" x2="65.4734" y2="474.216" gradientUnits="userSpaceOnUse">
<stop stop-opacity="0"/>
<stop offset="0.95"/>
</linearGradient>
<linearGradient id="paint57_linear_8814_27005" x1="96.94" y1="77.5854" x2="76.5054" y2="474.781" gradientUnits="userSpaceOnUse">
<stop stop-opacity="0"/>
<stop offset="0.95"/>
</linearGradient>
<linearGradient id="paint58_linear_8814_27005" x1="85.2999" y1="76.9914" x2="64.8743" y2="474.178" gradientUnits="userSpaceOnUse">
<stop stop-opacity="0"/>
<stop offset="0.95"/>
</linearGradient>
<linearGradient id="paint59_linear_8814_27005" x1="74.8681" y1="76.4531" x2="54.4518" y2="473.639" gradientUnits="userSpaceOnUse">
<stop stop-opacity="0"/>
<stop offset="0.95"/>
</linearGradient>
<linearGradient id="paint60_linear_8814_27005" x1="86.4907" y1="77.0588" x2="66.0651" y2="474.246" gradientUnits="userSpaceOnUse">
<stop stop-opacity="0"/>
<stop offset="0.95"/>
</linearGradient>
<linearGradient id="paint61_linear_8814_27005" x1="85.8884" y1="77.0201" x2="65.4629" y2="474.217" gradientUnits="userSpaceOnUse">
<stop stop-opacity="0"/>
<stop offset="0.95"/>
</linearGradient>
<linearGradient id="paint62_linear_8814_27005" x1="86.0515" y1="74.5256" x2="65.6168" y2="471.722" gradientUnits="userSpaceOnUse">
<stop stop-opacity="0"/>
<stop offset="0.95"/>
</linearGradient>
<linearGradient id="paint63_linear_8814_27005" x1="85.8973" y1="77.0194" x2="65.4719" y2="474.215" gradientUnits="userSpaceOnUse">
<stop stop-opacity="0"/>
<stop offset="0.95"/>
</linearGradient>
<linearGradient id="paint64_linear_8814_27005" x1="81.5523" y1="140.063" x2="79.6896" y2="161.929" gradientUnits="userSpaceOnUse">
<stop stop-opacity="0"/>
<stop offset="0.95"/>
</linearGradient>
<linearGradient id="paint65_linear_8814_27005" x1="88.107" y1="141.063" x2="86.4451" y2="160.624" gradientUnits="userSpaceOnUse">
<stop stop-opacity="0"/>
<stop offset="0.95"/>
</linearGradient>
<linearGradient id="paint66_linear_8814_27005" x1="81.4227" y1="147.251" x2="79.77" y2="166.736" gradientUnits="userSpaceOnUse">
<stop stop-opacity="0"/>
<stop offset="0.95"/>
</linearGradient>
<linearGradient id="paint67_linear_8814_27005" x1="88.2105" y1="146.387" x2="86.3478" y2="168.34" gradientUnits="userSpaceOnUse">
<stop stop-opacity="0"/>
<stop offset="0.95"/>
</linearGradient>
<linearGradient id="paint68_linear_8814_27005" x1="81.7642" y1="137.818" x2="79.4084" y2="165.408" gradientUnits="userSpaceOnUse">
<stop stop-opacity="0"/>
<stop offset="0.95"/>
</linearGradient>
<linearGradient id="paint69_linear_8814_27005" x1="88.2987" y1="139.038" x2="86.1986" y2="163.737" gradientUnits="userSpaceOnUse">
<stop stop-opacity="0"/>
<stop offset="0.95"/>
</linearGradient>
<linearGradient id="paint70_linear_8814_27005" x1="81.6145" y1="145.236" x2="79.5235" y2="169.84" gradientUnits="userSpaceOnUse">
<stop stop-opacity="0"/>
<stop offset="0.95"/>
</linearGradient>
<linearGradient id="paint71_linear_8814_27005" x1="88.4224" y1="144.122" x2="86.0666" y2="171.856" gradientUnits="userSpaceOnUse">
<stop stop-opacity="0"/>
<stop offset="0.95"/>
</linearGradient>
<linearGradient id="paint72_linear_8814_27005" x1="100.311" y1="149.219" x2="40.0661" y2="159.212" gradientUnits="userSpaceOnUse">
<stop stop-opacity="0"/>
<stop offset="0.95"/>
</linearGradient>
</defs>
</svg>
