<svg width="290" height="254" viewBox="0 0 290 254" fill="none" xmlns="http://www.w3.org/2000/svg">
<path d="M29.536 167.604C29.536 167.604 43.8208 199.348 29.536 203.157C15.2512 206.966 29.536 167.604 29.536 167.604Z" fill="#00C9A7"/>
<g opacity="0.08">
<path d="M29.536 167.604C29.536 167.604 43.8208 199.348 29.536 203.157C15.2512 206.966 29.536 167.604 29.536 167.604Z" fill="#000001"/>
</g>
<path d="M126.522 56.6152H167.965V247.761H126.522V56.6152Z" fill="#00C9A7"/>
<path d="M7.00076 168.475H48.444V127.961C48.444 126.053 49.9992 124.497 51.9072 124.497H249.734V83.0542H51.9144C27.1536 83.0542 7.00797 103.2 7.00797 127.961V168.475H7.00076Z" fill="#00C9A7"/>
<path d="M81.2329 77.4956H111.062V131.359H81.2329V77.4956Z" fill="#00C9A7"/>
<g opacity="0.39">
<path d="M81.2329 77.4956H111.062V131.359H81.2329V77.4956Z" fill="white"/>
</g>
<path d="M182.817 77.4956H212.646V131.359H182.817V77.4956Z" fill="#00C9A7"/>
<g opacity="0.39">
<path d="M182.817 77.4956H212.646V131.359H182.817V77.4956Z" fill="white"/>
</g>
<path d="M120.055 176.582V146.752H173.918V176.582H120.055Z" fill="#00C9A7"/>
<g opacity="0.39">
<path d="M120.055 176.582V146.752H173.918V176.582H120.055Z" fill="white"/>
</g>
<path d="M0.939453 176.582L0.939453 146.752H54.8027V176.582H0.939453Z" fill="#00C9A7"/>
<g opacity="0.39">
<path d="M0.9375 176.582L0.9375 146.752H54.8007V176.582H0.9375Z" fill="white"/>
</g>
<path d="M119.407 7.18066H175.804C177.387 7.18066 178.67 8.46364 178.67 10.0463V12.2351C178.67 13.8177 177.387 15.1007 175.804 15.1007H119.407C117.824 15.1007 116.541 13.8177 116.541 12.2351V10.0463C116.541 8.46364 117.824 7.18066 119.407 7.18066Z" fill="#24285B"/>
<path d="M111.063 38.4717H181.205V61.8501H111.063V38.4717Z" fill="#24285B"/>
<path d="M156.826 30.1988L151.577 3.0548C150.8 -0.977205 145.047 -1.0348 144.19 2.9828L138.387 30.1988H156.826Z" fill="#FFD200"/>
<path d="M123.41 30.0044H170.57V38.4716H123.41V30.0044Z" fill="#FFD200"/>
<path d="M271.299 139.956C251.317 139.956 235.119 123.757 235.119 103.776C235.119 83.794 251.317 67.5957 271.299 67.5957C291.28 67.5957 307.479 83.794 307.479 103.776C307.479 123.757 291.28 139.956 271.299 139.956Z" fill="#24285B"/>
<path d="M271.298 128.767C257.496 128.767 246.307 117.578 246.307 103.775C246.307 89.9731 257.496 78.7842 271.298 78.7842C285.1 78.7842 296.289 89.9731 296.289 103.775C296.289 117.578 285.1 128.767 271.298 128.767Z" fill="white"/>
<g opacity="0.03">
<path d="M271.299 121.66C261.421 121.66 253.414 113.653 253.414 103.775C253.414 93.8979 261.421 85.8906 271.299 85.8906C281.176 85.8906 289.184 93.8979 289.184 103.775C289.184 113.653 281.176 121.66 271.299 121.66Z" fill="#000001"/>
</g>
<path d="M265.207 105.345L262.125 89.1812C261.938 88.202 263.134 87.5684 263.839 88.274L275.467 99.866L275.445 99.8804C276.525 100.867 277.353 102.184 277.382 104.136C277.411 106.49 276.23 108.794 274.142 109.881C271.14 111.444 267.425 110.292 265.841 107.296C265.509 106.67 265.322 106.008 265.221 105.345H265.207Z" fill="#FFD200"/>
<g opacity="0.08">
<path d="M161.613 225.715C161.613 225.715 133.634 226.672 140.488 247.761H158.222L161.613 225.715Z" fill="#000001"/>
</g>
<path d="M270.974 107.714C269.077 107.714 267.539 106.176 267.539 104.28C267.539 102.383 269.077 100.845 270.974 100.845C272.871 100.845 274.408 102.383 274.408 104.28C274.408 106.176 272.871 107.714 270.974 107.714Z" fill="#24285B"/>
<path d="M157.747 250.425C157.747 250.425 143.729 230.273 164.638 224.714C185.546 219.156 159.598 192.005 179.059 188.433C198.521 184.862 195.281 213.59 195.281 213.59C195.281 213.59 208.716 202.005 217.99 211.74C227.256 221.474 214.282 232.145 214.282 232.145C214.282 232.145 233.002 238.61 221.323 250.425H157.747Z" fill="#E6E6E6"/>
<path d="M185.863 253.104C185.863 253.104 176.957 237.876 163.838 239.755C150.72 241.627 152.124 253.104 152.124 253.104H185.863Z" fill="#A5A5A5"/>
<path d="M40.6533 247.754C42.2085 247.79 43.7493 247.538 45.2109 246.998C50.7477 244.975 63.5564 239.308 57.8468 231.928C50.6468 222.633 45.7653 239.359 39.9621 234.016C34.1517 228.674 32.5317 221.719 25.5621 225.196C18.5925 228.674 31.1493 240.655 21.1557 239.193C11.1621 237.732 7.67727 226.737 2.33487 230.143C-2.26593 233.08 -0.149151 241.67 9.42685 245.594C11.9109 246.609 14.5893 247.084 17.2749 247.149L40.6677 247.74L40.6533 247.754Z" fill="#00C9A7"/>
<g opacity="0.08">
<path d="M40.6533 247.754C42.2085 247.79 43.7493 247.538 45.2109 246.998C50.7477 244.975 63.5564 239.308 57.8468 231.928C50.6468 222.633 45.7653 239.359 39.9621 234.016C34.1517 228.674 32.5317 221.719 25.5621 225.196C18.5925 228.674 31.1493 240.655 21.1557 239.193C11.1621 237.732 7.67727 226.737 2.33487 230.143C-2.26593 233.08 -0.149151 241.67 9.42685 245.594C11.9109 246.609 14.5893 247.084 17.2749 247.149L40.6677 247.74L40.6533 247.754Z" fill="#000001"/>
</g>
</svg>
