<svg width="90" height="48" viewBox="0 0 90 48" fill="none" xmlns="http://www.w3.org/2000/svg">
<g clip-path="url(#clip0_8814_26595)">
<g clip-path="url(#clip1_8814_26595)">
<mask id="mask0_8814_26595" style="mask-type:luminance" maskUnits="userSpaceOnUse" x="0" y="0" width="90" height="48">
<path d="M89.3411 0.263794H0.330078V47.7363H89.3411V0.263794Z" fill="white"/>
</mask>
<g mask="url(#mask0_8814_26595)">
<path d="M6.37214 43.2003C6.37214 44.7467 5.20194 45.7093 3.34577 45.7093H1.94414V47.6224H0.330078V40.6784H3.34458C5.215 40.6784 6.37214 41.6409 6.37214 43.2003ZM4.74383 43.2003C4.74383 42.4408 4.24774 41.9838 3.25557 41.9838H1.94533V44.3919H3.25557C4.24774 44.3919 4.74383 43.948 4.74383 43.2003ZM7.18748 44.1498C7.18748 42.0847 8.80273 40.5632 11.0031 40.5632C13.1916 40.5632 14.8199 42.0847 14.8199 44.1498C14.8211 46.2291 13.1916 47.7363 11.0031 47.7363C8.80273 47.7363 7.18748 46.216 7.18748 44.1498ZM13.1785 44.1498C13.1785 42.8324 12.2374 41.9328 11.0031 41.9328C9.75693 41.9328 8.82884 42.8324 8.82884 44.1498C8.82884 45.4671 9.76999 46.3679 11.0031 46.3679C12.2493 46.3679 13.1785 45.4683 13.1785 44.1498ZM15.5949 44.1498C15.5949 42.0586 17.2113 40.5632 19.3737 40.5632C20.5819 40.5632 21.5871 40.994 22.2363 41.7928L21.205 42.7434C20.735 42.2105 20.1487 41.9328 19.4497 41.9328C18.1394 41.9328 17.2232 42.8443 17.2232 44.1498C17.2232 45.4553 18.1525 46.3679 19.4497 46.3679C20.1499 46.3679 20.735 46.089 21.2061 45.5443L22.2351 46.4937C21.5741 47.2936 20.5688 47.7363 19.3607 47.7363C17.2113 47.7363 15.5949 46.2409 15.5949 44.1498ZM25.8739 44.8987L24.9327 45.8742V47.6355H23.3305V40.6902H24.9327V43.935L28.0244 40.6914H29.8177L26.9301 43.7831L29.9826 47.6355H28.1015L25.8739 44.8987ZM36.103 46.33V47.6236H30.709V40.6784H35.9748V41.9708H32.3112V43.478H35.5429V44.7337H32.3112V46.343H36.103V46.3311V46.33ZM38.8244 41.9838H36.5979V40.6784H42.6792V41.9838H40.4527V47.6224H38.8374V41.9838H38.8244Z" fill="#434343"/>
<path d="M46.584 40.6784H49.5225C51.7609 40.6784 53.2871 42.0847 53.2871 44.151C53.2871 46.216 51.7609 47.6224 49.5225 47.6224H46.584V40.6784ZM49.4584 46.7608C51.1758 46.7608 52.2831 45.7093 52.2831 44.1498C52.2831 42.5915 51.1758 41.5388 49.4584 41.5388H47.5762V46.7608H49.4584ZM59.8644 46.7608V47.6224H54.8015V40.6784H59.7244V41.54H55.8067V43.6691H59.3042V44.5177H55.8067V46.7608H59.8644ZM67.4731 40.6784V47.6224H66.6577L62.473 42.4396V47.6224H61.4809V40.6784H62.295L66.4797 45.8612V40.6784H67.4731ZM70.9564 41.54H68.5661V40.6784H74.3281V41.54H71.9367V47.6224H70.9445V41.5412L70.9564 41.54ZM75.4093 40.6784H76.4015V47.6224H75.4093V40.6784ZM77.8648 46.8237L78.2327 46.0511C78.7549 46.5199 79.6332 46.8498 80.5363 46.8498C81.7445 46.8498 82.2537 46.381 82.2537 45.7722C82.2537 44.075 78.0298 45.1515 78.0298 42.5666C78.0298 41.489 78.8701 40.5763 80.7013 40.5763C81.5155 40.5763 82.3676 40.7923 82.9408 41.197L82.6097 41.9957C82.0403 41.629 81.3785 41.4315 80.7013 41.4261C79.5192 41.4261 79.0101 41.9198 79.0101 42.5274C79.0101 44.2257 83.2328 43.1612 83.2328 45.7081C83.2328 46.7738 82.3806 47.6865 80.5363 47.6865C79.4682 47.6984 78.4226 47.3435 77.8648 46.8237ZM85.9696 41.54H83.577V40.6784H89.3401V41.54H86.9487V47.6224H85.9565V41.5412H85.9684L85.9696 41.54Z" fill="#434343"/>
<path d="M54.459 3.0267V16.1291L54.5362 16.4733H50.7704C50.7455 15.5476 50.4144 14.6729 49.9432 13.7982C49.0412 12.1379 47.5779 12.2019 46.5726 12.9117C45.5674 13.6214 42.1969 15.2046 42.1969 15.2046L44.8933 13.2285C43.926 13.5834 42.6027 11.7961 40.8344 12.7087C39.7152 13.2914 39.0293 14.8497 39.0423 16.459H35.2754C35.3972 15.7888 35.5939 15.1344 35.8616 14.5079C36.3696 13.3294 37.0568 12.2898 37.9481 11.4163C38.8485 10.5389 39.9056 9.83846 41.0646 9.35122C42.2467 8.84327 43.532 8.60353 44.9064 8.60353C46.2795 8.60353 47.5529 8.85632 48.7481 9.37496C49.294 9.60401 49.7913 9.88292 50.2743 10.1867V1.08744C48.5109 0.541018 46.6753 0.263352 44.8292 0.263794C34.7544 0.263794 26.5879 8.3994 26.5879 18.4363C26.5879 24.9127 29.9834 30.5892 35.0973 33.8091V20.0836H40.4285C41.2545 21.5659 41.3566 22.6044 42.1067 24.3288C43.011 26.42 43.608 25.0385 43.608 25.0385C43.659 24.9365 44.0922 24.1508 44.1551 23.479C44.185 23.246 44.263 23.0217 44.3842 22.8204C44.4346 22.7339 44.5078 22.6631 44.5959 22.6155C44.6839 22.5681 44.7834 22.5457 44.8833 22.551C44.9832 22.5562 45.0798 22.5889 45.1623 22.6454C45.2449 22.702 45.3104 22.7801 45.3514 22.8714C45.7834 23.8588 45.5294 25.3803 46.4457 25.4824C47.6028 25.6082 48.2638 23.1883 48.392 22.6305C48.4929 22.1617 48.595 21.503 49.4222 20.0836H54.5741C54.4518 20.8113 54.2426 21.5218 53.9511 22.1997C53.4289 23.3782 52.7417 24.4166 51.8646 25.2913C50.9739 26.1779 49.92 26.8835 48.7611 27.3694C47.5779 27.8892 46.2925 28.1432 44.9182 28.1432C44.3842 28.1432 43.862 28.0791 43.3279 27.9652C42.8071 27.8511 42.2966 27.6943 41.8016 27.4964C41.3245 27.3101 40.8612 27.09 40.4155 26.8377C40.0147 26.608 39.6395 26.3363 39.2963 26.0271V35.759C41.0385 36.3168 42.9089 36.6206 44.8423 36.6206C54.9183 36.6206 63.0836 28.485 63.0836 18.4481C63.0836 11.9337 59.6371 6.23109 54.459 3.02551V3.0267Z" fill="#434343"/>
</g>
</g>
</g>
<defs>
<clipPath id="clip0_8814_26595">
<rect width="90" height="48" fill="white"/>
</clipPath>
<clipPath id="clip1_8814_26595">
<rect width="90" height="47.4725" fill="white" transform="translate(0 0.263794)"/>
</clipPath>
</defs>
</svg>
