<svg width="108" height="32" viewBox="0 0 108 32" fill="none" xmlns="http://www.w3.org/2000/svg">
<g clip-path="url(#clip0_8814_26606)">
<path d="M8.59207 24.7887C6.63299 24.7887 5.2411 24.3095 3.96978 23.3509C2.69846 22.3923 2.31737 21.7902 1.98242 20.1715L5.12647 19.5375C5.2932 20.2459 5.68918 20.8607 6.31442 21.3817C6.93965 21.8818 7.53959 22.1319 8.5608 22.1319C9.56119 22.1319 10.0673 21.9235 10.5259 21.5066C10.9843 21.0899 11.2136 20.6106 11.2136 20.0689C11.2136 19.277 10.8906 18.7456 10.2445 18.4747C9.61924 18.1829 8.96721 17.9225 7.84179 17.6932C6.96645 17.5057 6.31442 17.2557 5.43909 16.9431C4.5846 16.6305 3.86558 16.1929 3.28202 15.6303C2.71931 15.0468 2.43795 14.2654 2.43795 13.286C2.43795 11.9314 2.95898 10.8062 4.00104 9.91013C5.0431 8.99324 6.27869 8.53479 8.1544 8.53479C9.88423 8.53479 11.0573 8.95155 12.1202 9.78509C13.204 10.6187 13.7972 11.3383 13.9847 12.8595L10.8385 13.3172C10.7342 12.6503 10.4216 12.1294 9.9006 11.7543C9.40041 11.3792 8.94637 11.1916 8.09188 11.1916C7.25823 11.1916 6.83545 11.3688 6.37694 11.723C5.91844 12.0564 5.68918 12.4941 5.68918 13.0359C5.68918 13.5777 6.00181 14.0049 6.62704 14.3174C7.27311 14.63 7.89389 14.9113 8.93595 15.1614C9.97805 15.3906 10.7134 15.6616 11.5887 15.9741C12.4849 16.2659 13.204 16.7034 13.7458 17.2869C14.2876 17.8704 14.5586 18.7248 14.5586 19.85C14.5794 21.2671 14.0272 22.4444 12.9018 23.3822C11.7971 24.3199 10.5094 24.7887 8.59207 24.7887Z" fill="#434343"/>
<path d="M17.5508 24.4136V1.9082H20.8646V15.3177L26.8043 8.90989H31.1095L24.5133 15.9429L32.0787 24.4136H27.5546L20.8646 16.4743V24.4136H17.5508Z" fill="#434343"/>
<path d="M33.9082 24.4137V8.90995H37.1594V11.0734C37.7157 10.0251 38.6963 9.05116 39.7186 8.7291C40.8167 8.38317 41.9804 8.43885 43.2355 8.43885V11.5758C42.0632 11.5758 40.8014 11.3239 39.7186 11.7879C37.9358 12.5218 37.2219 15.2862 37.2219 16.9744V24.4137H33.9082Z" fill="#434343"/>
<path d="M86.7887 24.6816C85.2673 24.6816 84.1002 24.5254 83.1623 23.5876C82.3696 22.795 82.2022 21.2462 82.2022 19.35V12.0223H78.9844V8.90994C80.7676 8.8889 82.2022 7.43735 82.2022 5.65402V4.41331L85.3283 4.37537V8.87199L88.6778 8.90994V12.0223H85.5159V19.35C85.5159 20.2044 85.4765 21.122 85.8308 21.4554C86.2059 21.768 86.6741 21.8685 87.5703 21.8685H88.6778V24.6816H86.7887Z" fill="#434343"/>
<path d="M98.1318 24.7887C96.6104 24.7887 95.2558 24.4553 94.0678 23.7885C92.9007 23.1008 91.9837 22.1527 91.3167 20.944C90.6498 19.7354 90.3164 18.3289 90.3164 16.7243C90.3164 15.0989 90.6394 13.6715 91.2854 12.442C91.9524 11.2126 92.8694 10.2539 94.0366 9.56629C95.2245 8.87863 96.6 8.53479 98.163 8.53479C99.685 8.53479 101.008 8.87863 102.133 9.56629C103.259 10.2331 104.134 11.1291 104.759 12.2544C105.384 13.3797 105.697 14.6196 105.697 15.9741C105.697 16.1824 105.686 16.4117 105.666 16.6618C105.666 16.891 105.656 17.1515 105.635 17.4432H93.9025C94.0067 18.9436 94.4965 19.7548 95.3719 20.5466C96.268 21.3177 96.9647 21.7031 98.1318 21.7031C99.0697 21.7031 99.5165 21.4948 100.142 21.078C100.788 20.6404 101.764 20.0078 102.077 19.2785L104.98 20.1157C104.254 21.6005 103.978 22.3402 102.728 23.3197C101.498 24.299 99.9654 24.7887 98.1318 24.7887ZM98.1318 11.5891C97.0273 11.5891 96.3826 11.9225 95.5281 12.5893C94.7635 13.3507 94.2611 13.853 93.965 15.1926H102.048C101.853 13.9647 101.518 13.5181 100.767 12.6518C99.9753 11.9434 99.3193 11.5891 98.1318 11.5891Z" fill="#434343"/>
<path d="M59.4166 20.9178L61.3566 19.0134L63.5311 16.5507L65.6347 14.4847C67.0488 13.0956 67.9275 12.326 68.3161 12.1362C69.1654 11.7212 70.0044 11.5427 70.8052 11.5636L70.7915 8.34842C70.7437 8.34756 70.657 8.34837 70.6095 8.34837C69.3692 8.34841 68.1714 8.64183 66.9694 9.23535C65.9045 9.7611 65.7269 9.90786 63.5704 12.0437L61.3566 14.2362L59.1821 16.5507L57.2559 18.485C55.0871 20.6632 54.6124 21.0243 53.4543 21.3763C52.9534 21.5285 52.3909 21.595 51.9004 21.5842V24.7886C51.9509 24.7895 52.0619 24.7887 52.1123 24.7888H52.1219C52.7612 24.7884 53.398 24.7124 54.0138 24.5547C55.9824 24.0509 56.7537 23.5317 59.4166 20.9178Z" fill="url(#paint0_linear_8814_26606)"/>
<path d="M48.8134 24.1628C49.8109 24.5759 50.88 24.7885 51.9596 24.7885V21.5827C51.302 21.5827 50.651 21.4451 50.0435 21.1935C49.436 20.9419 48.884 20.5731 48.4191 20.1082C47.9541 19.6434 47.5854 19.0916 47.3338 18.4842C47.0821 17.8767 46.9526 17.2257 46.9526 16.5683C46.9526 15.9109 47.0821 15.2599 47.3338 14.6526C47.5854 14.0451 47.9541 13.4932 48.4191 13.0284C48.884 12.5635 49.436 12.1947 50.0435 11.9431C50.651 11.6916 51.302 11.5621 51.9596 11.5621V11.5495C52.7603 11.5286 53.5466 11.721 54.3958 12.136C54.7845 12.3258 55.6631 13.0954 57.0773 14.4844L59.1808 16.5505L61.3554 19.0133L63.2953 20.9176C65.9583 23.5314 66.7295 24.0507 68.6982 24.5546C69.314 24.7121 69.9508 24.7881 70.5901 24.7885H70.5997C70.6285 24.7885 70.6574 24.7883 70.6864 24.788L70.7066 24.7877L70.7271 24.7874L70.7512 24.787V24.7885C71.8308 24.7885 72.8998 24.5759 73.8973 24.1628C74.8947 23.7497 75.801 23.1442 76.5644 22.3809C77.3279 21.6176 77.9335 20.7114 78.3466 19.7141C78.7598 18.7167 78.9724 17.6478 78.9724 16.5683C78.9724 15.4888 78.7598 14.4199 78.3466 13.4226C77.9335 12.4253 77.3279 11.5191 76.5644 10.7557C75.801 9.99247 74.8947 9.38698 73.8973 8.97387C72.8998 8.56077 71.8308 8.34814 70.7512 8.34814V11.5621C71.4087 11.5621 72.0597 11.6916 72.6672 11.9431C73.2747 12.1947 73.8266 12.5635 74.2916 13.0284C74.7565 13.4932 75.1254 14.0451 75.3769 14.6526C75.6286 15.2599 75.7581 15.9109 75.7581 16.5683C75.7581 17.2257 75.6286 17.8767 75.3769 18.4842C75.1254 19.0916 74.7565 19.6434 74.2916 20.1082C73.8266 20.5731 73.2747 20.9419 72.6672 21.1935C72.0597 21.4451 71.4087 21.5746 70.7512 21.5746V21.5827C70.2606 21.5935 69.7586 21.5283 69.2577 21.376C68.0996 21.0241 67.6248 20.6629 65.456 18.4848L63.5299 16.5505L61.3554 14.2359L59.1416 12.0434C56.9851 9.90764 56.8074 9.76087 55.7426 9.23513C54.5406 8.64161 53.3433 8.34819 52.103 8.34814C52.0554 8.34814 52.0073 8.34858 51.9596 8.34944V8.34814C50.88 8.34814 49.8109 8.56077 48.8134 8.97387C47.8159 9.38698 46.9096 9.99247 46.1462 10.7557C45.3828 11.5191 44.7773 12.4253 44.3641 13.4226C43.9509 14.4199 43.7383 15.4888 43.7383 16.5683C43.7383 17.6478 43.9509 18.7167 44.3641 19.7141C44.7773 20.7114 45.3828 21.6176 46.1462 22.3809C46.9096 23.1442 47.8159 23.7497 48.8134 24.1628Z" fill="#434343"/>
<path d="M70.5566 8.34832H70.6619C70.6444 8.3482 70.6269 8.34814 70.6094 8.34814C70.592 8.34814 70.574 8.3482 70.5566 8.34832Z" fill="#434343"/>
</g>
<defs>
<linearGradient id="paint0_linear_8814_26606" x1="51.9608" y1="16.5684" x2="70.7523" y2="16.5684" gradientUnits="userSpaceOnUse">
<stop offset="0.0677083"/>
<stop offset="0.53125"/>
<stop offset="0.963542"/>
</linearGradient>
<clipPath id="clip0_8814_26606">
<rect width="108" height="32" fill="white"/>
</clipPath>
</defs>
</svg>
