<svg width="97" height="36" viewBox="0 0 97 36" fill="none" xmlns="http://www.w3.org/2000/svg">
<g clip-path="url(#clip0_8814_26677)">
<g clip-path="url(#clip1_8814_26677)">
<path d="M36.4002 18C36.4002 27.8397 28.4236 35.8164 18.5839 35.8164C8.74422 35.8164 0.767578 27.8397 0.767578 18C0.767578 8.16035 8.74422 0.183716 18.5839 0.183716C28.4236 0.183716 36.4002 8.16035 36.4002 18Z" fill="#434343"/>
<path d="M24.4798 14.1677C24.0782 15.8737 23.462 17.4938 22.6548 19.0002C22.5277 19.2529 22.3964 19.5028 22.2598 19.749C23.5572 18.7674 25.2694 18.3474 26.9815 18.7452C28.0329 18.9895 28.9466 19.5104 29.6632 20.2122C29.8445 19.8009 29.991 19.3677 30.0976 18.9148C30.4944 17.2291 30.28 15.5434 29.5977 14.0868C28.7279 12.2298 27.0974 10.7461 25.0039 10.1097C24.9698 11.4618 24.797 12.8203 24.4798 14.1677Z" fill="url(#paint0_linear_8814_26677)"/>
<path d="M5.85742 28.863C8.24589 28.7637 10.5618 28.223 12.7016 27.3051C11.7112 26.2692 10.8192 25.1259 10.043 23.884C9.95559 23.7441 9.87025 23.6033 9.78627 23.4619C8.6968 25.8384 7.54014 27.3364 5.85742 28.863Z" fill="url(#paint1_linear_8814_26677)"/>
<path d="M8.0048 8.15988C6.79134 13.3142 7.67107 18.4776 10.0909 22.7675C10.0918 22.7655 10.0926 22.7637 10.0934 22.7618C10.1018 22.7798 10.1098 22.7969 10.1182 22.8148C10.9889 24.3486 12.0559 25.7703 13.2956 27.0386C18.08 24.7941 21.9039 20.6337 23.5509 15.3087C23.6146 15.0901 23.6752 14.8698 23.7321 14.6476C23.7653 14.5178 23.7985 14.388 23.8293 14.2569C24.1694 12.8125 24.3441 11.3683 24.3686 9.94299C21.362 9.34518 18.3892 10.6337 16.736 13.016C13.3839 11.5866 10.5598 9.3262 8.45601 6.54614C8.28532 7.07338 8.13394 7.61119 8.0048 8.15988ZM20.3045 15.0897C19.941 15.0053 19.7151 14.6439 19.8001 14.2828C19.8852 13.9217 20.2488 13.6973 20.6124 13.7818C20.9759 13.8662 21.2018 14.2275 21.1168 14.5887C21.0438 14.8984 20.766 15.1075 20.459 15.1075C20.4081 15.1075 20.3563 15.1018 20.3045 15.0897Z" fill="url(#paint2_linear_8814_26677)"/>
<path d="M56.3555 24.363C56.2367 24.363 56.1358 24.3274 56.0526 24.2561C55.9814 24.173 55.9457 24.072 55.9457 23.9533V13.4773H52.525C52.4062 13.4773 52.3053 13.4416 52.2221 13.3704C52.1509 13.2872 52.1152 13.1863 52.1152 13.0675V12.3192C52.1152 12.1885 52.1509 12.0876 52.2221 12.0163C52.3053 11.9332 52.4062 11.8916 52.525 11.8916H61.1125C61.2431 11.8916 61.3441 11.9332 61.4154 12.0163C61.4985 12.0876 61.5401 12.1885 61.5401 12.3192V13.0675C61.5401 13.1863 61.4985 13.2872 61.4154 13.3704C61.3441 13.4416 61.2431 13.4773 61.1125 13.4773H57.7096V23.9533C57.7096 24.072 57.668 24.173 57.5848 24.2561C57.5136 24.3274 57.4126 24.363 57.282 24.363H56.3555Z" fill="#434343"/>
<path d="M65.6665 24.5412C64.9064 24.5412 64.2591 24.3749 63.7246 24.0423C63.2019 23.6979 62.8041 23.2228 62.5309 22.617C62.2577 22.0112 62.1211 21.3164 62.1211 20.5325V15.5083C62.1211 15.3895 62.1567 15.2945 62.228 15.2232C62.3111 15.1401 62.4121 15.0985 62.5309 15.0985H63.4217C63.5405 15.0985 63.6355 15.1401 63.7067 15.2232C63.7899 15.2945 63.8315 15.3895 63.8315 15.5083V20.4434C63.8315 22.2132 64.6035 23.098 66.1476 23.098C66.884 23.098 67.4719 22.8664 67.9114 22.4032C68.3627 21.9281 68.5884 21.2748 68.5884 20.4434V15.5083C68.5884 15.3895 68.6241 15.2945 68.6953 15.2232C68.7785 15.1401 68.8794 15.0985 68.9982 15.0985H69.8712C70.0018 15.0985 70.1028 15.1401 70.1741 15.2232C70.2453 15.2945 70.281 15.3895 70.281 15.5083V23.9532C70.281 24.072 70.2453 24.173 70.1741 24.2561C70.1028 24.3274 70.0018 24.363 69.8712 24.363H69.0516C68.9329 24.363 68.8319 24.3274 68.7488 24.2561C68.6775 24.173 68.6419 24.072 68.6419 23.9532V23.1693C68.3212 23.585 67.9292 23.9176 67.466 24.167C67.0146 24.4164 66.4148 24.5412 65.6665 24.5412Z" fill="#434343"/>
<path d="M79.9407 27.7482C79.8101 27.7482 79.7091 27.7066 79.6379 27.6235C79.5666 27.5522 79.531 27.4572 79.531 27.3384V23.205C79.234 23.5851 78.848 23.9058 78.3729 24.1671C77.9097 24.4165 77.3336 24.5412 76.6447 24.5412C75.9915 24.5412 75.4273 24.4284 74.9522 24.2027C74.4771 23.9652 74.0851 23.6563 73.7763 23.2763C73.4794 22.8843 73.2537 22.4389 73.0993 21.94C72.9567 21.4293 72.8736 20.8948 72.8498 20.3366C72.838 20.1465 72.832 19.9446 72.832 19.7308C72.832 19.517 72.838 19.3151 72.8498 19.1251C72.8736 18.5549 72.9567 18.0205 73.0993 17.5216C73.2537 17.0227 73.4794 16.5773 73.7763 16.1854C74.0851 15.7934 74.4771 15.4846 74.9522 15.2589C75.4273 15.0332 75.9915 14.9204 76.6447 14.9204C77.3574 14.9204 77.9513 15.0511 78.4264 15.3124C78.9015 15.5737 79.2815 15.9003 79.5666 16.2923V15.5083C79.5666 15.3896 79.6022 15.2946 79.6735 15.2233C79.7566 15.1401 79.8576 15.0986 79.9764 15.0986H80.7959C80.9147 15.0986 81.0097 15.1401 81.081 15.2233C81.1641 15.2946 81.2057 15.3896 81.2057 15.5083V27.3384C81.2057 27.4572 81.1641 27.5522 81.081 27.6235C81.0097 27.7066 80.9147 27.7482 80.7959 27.7482H79.9407ZM77.0189 23.0981C77.589 23.0981 78.0522 22.9675 78.4085 22.7061C78.7767 22.4448 79.0499 22.1123 79.2281 21.7084C79.4181 21.3046 79.5191 20.8948 79.531 20.4791C79.5428 20.2772 79.5488 20.0456 79.5488 19.7843C79.5488 19.523 79.5428 19.2973 79.531 19.1072C79.5191 18.6678 79.4241 18.2402 79.2459 17.8245C79.0677 17.3969 78.7946 17.0465 78.4264 16.7733C78.07 16.5001 77.6009 16.3635 77.0189 16.3635C76.4131 16.3635 75.9321 16.5001 75.5757 16.7733C75.2194 17.0346 74.9641 17.385 74.8096 17.8245C74.6552 18.2521 74.5662 18.7153 74.5424 19.2141C74.5305 19.5586 74.5305 19.903 74.5424 20.2475C74.5662 20.7463 74.6552 21.2155 74.8096 21.655C74.9641 22.0826 75.2194 22.433 75.5757 22.7061C75.9321 22.9675 76.4131 23.0981 77.0189 23.0981Z" fill="#434343"/>
<path d="M90.8665 27.7482C90.7359 27.7482 90.6349 27.7066 90.5636 27.6235C90.4924 27.5522 90.4567 27.4572 90.4567 27.3384V23.205C90.1598 23.5851 89.7738 23.9058 89.2987 24.1671C88.8355 24.4165 88.2594 24.5412 87.5705 24.5412C86.9172 24.5412 86.3531 24.4284 85.878 24.2027C85.4029 23.9652 85.0109 23.6563 84.7021 23.2763C84.4051 22.8843 84.1795 22.4389 84.0251 21.94C83.8825 21.4293 83.7994 20.8948 83.7756 20.3366C83.7637 20.1465 83.7578 19.9446 83.7578 19.7308C83.7578 19.517 83.7637 19.3151 83.7756 19.1251C83.7994 18.5549 83.8825 18.0205 84.0251 17.5216C84.1795 17.0227 84.4051 16.5773 84.7021 16.1854C85.0109 15.7934 85.4029 15.4846 85.878 15.2589C86.3531 15.0332 86.9172 14.9204 87.5705 14.9204C88.2832 14.9204 88.877 15.0511 89.3521 15.3124C89.8272 15.5737 90.2073 15.9003 90.4924 16.2923V15.5083C90.4924 15.3896 90.528 15.2946 90.5993 15.2233C90.6824 15.1401 90.7834 15.0986 90.9022 15.0986H91.7217C91.8405 15.0986 91.9355 15.1401 92.0068 15.2233C92.0899 15.2946 92.1315 15.3896 92.1315 15.5083V27.3384C92.1315 27.4572 92.0899 27.5522 92.0068 27.6235C91.9355 27.7066 91.8405 27.7482 91.7217 27.7482H90.8665ZM87.9446 23.0981C88.5148 23.0981 88.978 22.9675 89.3343 22.7061C89.7025 22.4448 89.9757 22.1123 90.1539 21.7084C90.3439 21.3046 90.4449 20.8948 90.4567 20.4791C90.4686 20.2772 90.4746 20.0456 90.4746 19.7843C90.4746 19.523 90.4686 19.2973 90.4567 19.1072C90.4449 18.6678 90.3498 18.2402 90.1717 17.8245C89.9935 17.3969 89.7203 17.0465 89.3521 16.7733C88.9958 16.5001 88.5266 16.3635 87.9446 16.3635C87.3389 16.3635 86.8578 16.5001 86.5015 16.7733C86.1452 17.0346 85.8898 17.385 85.7354 17.8245C85.581 18.2521 85.4919 18.7153 85.4682 19.2141C85.4563 19.5586 85.4563 19.903 85.4682 20.2475C85.4919 20.7463 85.581 21.2155 85.7354 21.655C85.8898 22.0826 86.1452 22.433 86.5015 22.7061C86.8578 22.9675 87.3389 23.0981 87.9446 23.0981Z" fill="#434343"/>
<path d="M95.5035 24.3631C95.3847 24.3631 95.2837 24.3274 95.2006 24.2562C95.1293 24.173 95.0937 24.0721 95.0937 23.9533V15.5083C95.0937 15.3896 95.1293 15.2945 95.2006 15.2233C95.2837 15.1401 95.3847 15.0986 95.5035 15.0986H96.3587C96.4774 15.0986 96.5725 15.1401 96.6437 15.2233C96.715 15.2945 96.7506 15.3896 96.7506 15.5083V23.9533C96.7506 24.0721 96.715 24.173 96.6437 24.2562C96.5725 24.3274 96.4774 24.3631 96.3587 24.3631H95.5035ZM95.3609 13.3704C95.2422 13.3704 95.1412 13.3347 95.0581 13.2635C94.9868 13.1803 94.9512 13.0794 94.9512 12.9606V11.9985C94.9512 11.8797 94.9868 11.7847 95.0581 11.7135C95.1412 11.6303 95.2422 11.5887 95.3609 11.5887H96.4834C96.6022 11.5887 96.6972 11.6303 96.7684 11.7135C96.8516 11.7847 96.8931 11.8797 96.8931 11.9985V12.9606C96.8931 13.0794 96.8516 13.1803 96.7684 13.2635C96.6972 13.3347 96.6022 13.3704 96.4834 13.3704H95.3609Z" fill="#434343"/>
</g>
</g>
<defs>
<linearGradient id="paint0_linear_8814_26677" x1="141.383" y1="28.3902" x2="58.5047" y2="-97.158" gradientUnits="userSpaceOnUse">
<stop stop-color="white"/>
<stop offset="0.885097" stop-color="white"/>
<stop offset="1" stop-color="white"/>
</linearGradient>
<linearGradient id="paint1_linear_8814_26677" x1="311.449" y1="153.343" x2="233.442" y2="-45.1093" gradientUnits="userSpaceOnUse">
<stop stop-color="white"/>
<stop offset="1" stop-color="white"/>
</linearGradient>
<linearGradient id="paint2_linear_8814_26677" x1="95.8084" y1="42.9035" x2="81.3048" y2="-13.772" gradientUnits="userSpaceOnUse">
<stop stop-color="white"/>
<stop offset="1" stop-color="white"/>
</linearGradient>
<clipPath id="clip0_8814_26677">
<rect width="97" height="36" fill="white"/>
</clipPath>
<clipPath id="clip1_8814_26677">
<rect width="97" height="35.6327" fill="white" transform="translate(0 0.183716)"/>
</clipPath>
</defs>
</svg>
