<svg width="303" height="320" viewBox="0 0 303 320" fill="none" xmlns="http://www.w3.org/2000/svg">
<g clip-path="url(#clip0_8814_26857)">
<path d="M227.097 49.3671L191.495 49.7137C189.822 41.4802 184.199 19.8769 189.263 13.9844C189.493 11.7666 190.571 9.72321 192.271 8.27961C193.972 6.83602 196.164 6.10344 198.391 6.23438C203.909 -2.39825 213.1 -1.10212 219.313 4.28933C225.564 6.44531 227.922 10.2755 227.097 15.4733C231.727 19.5237 232.582 24.4516 230.503 30.0611L227.097 49.3671Z" fill="#2F2E41"/>
<path d="M223.669 71.2858L197.983 67.7314L192.846 60.2276C199.922 55.5363 202.426 48.9838 199.168 40.0859L216.951 39.6909C216.118 47.6147 218.74 53.7498 226.04 57.4631L223.669 71.2858Z" fill="#FFB9B9"/>
<path d="M191.912 302.831L190.929 316.25C190.885 316.857 190.971 317.467 191.182 318.039C191.392 318.61 191.723 319.13 192.151 319.563C192.579 319.997 193.095 320.333 193.664 320.551C194.233 320.769 194.843 320.862 195.451 320.826L202.348 320.408C202.667 320.389 202.979 320.299 203.26 320.146C203.541 319.993 203.784 319.779 203.974 319.521C204.163 319.263 204.293 318.967 204.355 318.653C204.416 318.339 204.408 318.015 204.331 317.705L200.502 302.401L191.912 302.831Z" fill="#E6E6E6"/>
<path d="M214.239 302.401L210.411 317.705C210.333 318.015 210.325 318.339 210.387 318.653C210.448 318.967 210.578 319.263 210.768 319.521C210.957 319.78 211.201 319.993 211.482 320.146C211.763 320.299 212.074 320.389 212.394 320.408L219.29 320.826C219.899 320.862 220.508 320.769 221.077 320.551C221.646 320.333 222.162 319.997 222.59 319.563C223.018 319.13 223.349 318.61 223.56 318.039C223.77 317.467 223.856 316.857 223.812 316.25L222.83 302.831L214.239 302.401Z" fill="#E6E6E6"/>
<path d="M223.275 304.693L213.968 303.76L204.702 204.774L201.2 303.441L192.056 303.114L176.645 166.465H235.525L223.275 304.693Z" fill="#00C9A7"/>
<path d="M209.048 46.4051C218.869 46.4051 226.831 38.4483 226.831 28.633C226.831 18.8177 218.869 10.8608 209.048 10.8608C199.227 10.8608 191.266 18.8177 191.266 28.633C191.266 38.4483 199.227 46.4051 209.048 46.4051Z" fill="#FFB9B9"/>
<path d="M244.22 169.625L172.299 170.415C182.972 129.806 189.357 92.0846 178.226 66.1518L196.009 57.4632C204.583 66.4013 214.133 65.4798 224.461 56.6733L241.454 61.0176C238.543 95.0245 239.848 131.446 244.22 169.625Z" fill="#00C9A7"/>
<path d="M152.539 127.762L197.193 145.534L207.177 148.469C207.624 148.6 208.092 148.64 208.554 148.585C209.017 148.531 209.463 148.384 209.867 148.153C210.271 147.922 210.624 147.611 210.905 147.241C211.186 146.87 211.389 146.446 211.502 145.994C211.7 145.203 211.611 144.367 211.251 143.635C210.891 142.903 210.283 142.322 209.536 141.995L199.169 138.82L167.951 120.653L174.471 103.473L160.838 96.167L152.539 127.762Z" fill="#FFB9B9"/>
<path d="M152.936 95.3771C161.431 98.6897 168.189 104.343 173.484 111.964L190.082 87.8734L178.226 66.1519L152.936 95.3771Z" fill="#00C9A7"/>
<path d="M229.091 25.7525C221.873 23.8939 214.777 23.6388 207.879 25.9961C203.485 28.123 198.208 27.9271 192.34 26.1746V8.44336L224.022 9.28771L229.091 25.7525Z" fill="#2F2E41"/>
<path d="M197.046 107.055C195.65 107.056 194.311 107.611 193.324 108.598C192.336 109.585 191.781 110.923 191.779 112.318L193.858 155.81C193.86 157.206 194.415 158.544 195.403 159.531C196.39 160.517 197.729 161.073 199.125 161.074H222.893C224.29 161.073 225.628 160.517 226.616 159.531C227.603 158.544 228.159 157.206 228.16 155.81L230.239 112.318C230.237 110.923 229.682 109.585 228.695 108.598C227.707 107.611 226.369 107.056 224.972 107.055H197.046Z" fill="#3F3D56"/>
<path d="M264.482 124.477L225.56 139.966L222.623 141.134C222.53 141.171 222.436 141.202 222.338 141.233L212.499 144.126C211.242 144.495 209.5 142.802 208.482 141.633C207.977 141.07 207.692 140.345 207.676 139.589C207.661 138.833 207.917 138.097 208.399 137.514C208.535 137.357 208.684 137.213 208.846 137.083C209.225 136.788 209.671 136.592 210.145 136.512L219.973 134.579C220.325 134.51 220.664 134.384 220.976 134.205L225.56 131.536L249.358 117.688C250.02 117.303 250.524 116.697 250.78 115.976C251.036 115.255 251.028 114.466 250.756 113.751L246.214 101.778C245.935 101.046 245.933 100.237 246.208 99.5027C246.482 98.7686 247.014 98.1595 247.705 97.7891L255.231 93.7584C255.661 93.5277 256.138 93.3975 256.626 93.3777C257.113 93.3578 257.599 93.4489 258.046 93.6439C258.494 93.8389 258.891 94.1329 259.208 94.5036C259.525 94.8743 259.754 95.3122 259.877 95.7841L266.41 120.654C266.611 121.416 266.526 122.226 266.171 122.93C265.816 123.635 265.215 124.185 264.482 124.477Z" fill="#FFB9B9"/>
<path d="M266.744 91.0327C258.248 94.3453 251.49 99.9986 246.195 107.62L229.598 83.529L241.453 61.0176L266.744 91.0327Z" fill="#00C9A7"/>
<path d="M220.883 44.4507C213.104 47.6847 204.947 47.5534 196.456 44.4507C198.927 40.2362 195.234 36.9353 193.338 32.6808L225.041 31.7393C222.617 35.4352 219.039 39.802 220.883 44.4507Z" fill="white"/>
<path d="M224.706 32.4426L224.338 32.0754L224.858 31.5559L227.962 27.9346L228.357 28.2722L225.239 31.9081L224.706 32.4426Z" fill="white"/>
<path d="M191.165 30.2414L190.832 30.6406L193.95 33.2377L194.283 32.8385L191.165 30.2414Z" fill="white"/>
<path d="M225.601 35.4964L220.143 44.0659L220.581 44.3449L226.039 35.7753L225.601 35.4964Z" fill="white"/>
<path d="M191.737 35.496L191.299 35.7749L196.756 44.3453L197.195 44.0664L191.737 35.496Z" fill="white"/>
<path d="M226.6 130.8V140.21L223.322 141.515C223.217 141.555 223.113 141.59 223.003 141.625L212.021 144.854C210.617 145.266 208.673 143.376 207.536 142.071C206.973 141.443 206.654 140.633 206.637 139.79C206.62 138.946 206.906 138.125 207.444 137.474C207.595 137.299 207.762 137.138 207.942 136.992C208.366 136.663 208.864 136.444 209.393 136.355L220.363 134.198C220.757 134.121 221.135 133.98 221.483 133.78L226.6 130.8Z" fill="white"/>
<path d="M231.35 97.236H229.472C229.472 70.6883 224.003 52.1876 218.673 52.1876L218.203 50.3105C222.983 50.3105 226.03 58.0104 227.745 64.47C230.07 73.227 231.35 84.8635 231.35 97.236Z" fill="#3F3D56"/>
<path d="M188.153 90.6664H186.275C186.275 66.3529 191.783 51.249 199.892 51.249L199.422 53.126C193.813 53.126 188.153 64.7339 188.153 90.6664Z" fill="#3F3D56"/>
<path d="M230.412 102.398C233.005 102.398 235.107 100.297 235.107 97.7052C235.107 95.1136 233.005 93.0127 230.412 93.0127C227.819 93.0127 225.717 95.1136 225.717 97.7052C225.717 100.297 227.819 102.398 230.412 102.398Z" fill="#3F3D56"/>
<path d="M180.642 101.928H178.764C178.764 95.2007 182.555 89.7275 187.215 89.7275V91.6046C183.591 91.6046 180.642 96.2357 180.642 101.928Z" fill="#3F3D56"/>
<path d="M195.666 101.928H193.788C193.788 96.2357 190.84 91.6046 187.215 91.6046V89.7275C191.875 89.7275 195.666 95.2007 195.666 101.928Z" fill="#3F3D56"/>
<path d="M194.726 104.275C195.763 104.275 196.604 103.434 196.604 102.398C196.604 101.361 195.763 100.521 194.726 100.521C193.689 100.521 192.848 101.361 192.848 102.398C192.848 103.434 193.689 104.275 194.726 104.275Z" fill="#3F3D56"/>
<path d="M179.702 104.275C180.74 104.275 181.58 103.434 181.58 102.398C181.58 101.361 180.74 100.521 179.702 100.521C178.665 100.521 177.824 101.361 177.824 102.398C177.824 103.434 178.665 104.275 179.702 104.275Z" fill="#3F3D56"/>
<path d="M258.304 319.961H-158.516V321H258.304V319.961Z" fill="#3F3D56"/>
<path d="M17.6699 319.497H126.812V187.192C126.812 180.187 119.908 174.487 111.421 174.487H33.0612C24.5743 174.487 17.6699 180.187 17.6699 187.192V319.497Z" fill="#E6E6E6"/>
<path d="M25.9863 314.026H118.497V201.882C118.497 195.944 112.645 191.113 105.452 191.113H39.0323C31.8386 191.113 25.9863 195.944 25.9863 201.882V314.026Z" fill="white"/>
<path d="M16.8456 164.191C14.148 164.191 11.9531 166.003 11.9531 168.23V179.887C11.9531 182.114 14.148 183.926 16.8456 183.926H127.637C130.335 183.926 132.529 182.114 132.529 179.887V168.23C132.529 166.003 130.335 164.191 127.637 164.191H16.8456Z" fill="#3F3D56"/>
<path d="M39.5942 299.646C38.3277 299.65 37.1141 300.154 36.2185 301.049C35.3229 301.944 34.8182 303.157 34.8145 304.423C34.8182 305.689 35.3229 306.902 36.2185 307.797C37.1141 308.692 38.3277 309.196 39.5942 309.2H48.5409V299.646H39.5942Z" fill="#3F3D56"/>
<path d="M56.7504 299.646H48.0488V309.2H56.7504C58.017 309.196 59.2305 308.692 60.1261 307.797C61.0217 306.902 61.5265 305.689 61.5302 304.423C61.5265 303.157 61.0217 301.944 60.1261 301.049C59.2305 300.154 58.017 299.65 56.7504 299.646Z" fill="#00C9A7"/>
<path opacity="0.2" d="M59.8693 300.816C60.6231 301.68 61.0389 302.787 61.0399 303.933C61.0362 305.199 60.5315 306.412 59.6359 307.307C58.7403 308.202 57.5267 308.706 56.2602 308.71H48.0488V309.2H56.7504C58.017 309.196 59.2305 308.692 60.1261 307.797C61.0217 306.902 61.5265 305.689 61.5302 304.423C61.529 303.738 61.3801 303.061 61.0935 302.438C60.8068 301.816 60.3893 301.263 59.8693 300.816Z" fill="black"/>
<path d="M79.9649 227.693C79.0935 226.775 77.8937 226.238 76.6277 226.201C75.3617 226.163 74.1324 226.628 73.2083 227.494C72.2892 228.365 71.7524 229.564 71.715 230.829C71.6776 232.094 72.1428 233.323 73.0088 234.246L79.1456 240.753L86.1017 234.2L79.9649 227.693Z" fill="#3F3D56"/>
<path d="M91.7354 240.171L85.7667 233.843L78.8105 240.396L84.7792 246.724C85.6507 247.643 86.8504 248.179 88.1164 248.217C89.3824 248.254 90.6117 247.789 91.5359 246.924C92.4549 246.053 92.9918 244.854 93.0292 243.588C93.0666 242.323 92.6014 241.094 91.7354 240.171Z" fill="#00C9A7"/>
<path opacity="0.2" d="M93.023 243.242C92.911 244.382 92.3901 245.444 91.5564 246.231C90.6322 247.097 89.4029 247.561 88.1369 247.524C86.8709 247.487 85.6712 246.95 84.7997 246.032L79.1673 240.06L78.8105 240.396L84.7792 246.724C85.6507 247.643 86.8504 248.179 88.1164 248.217C89.3824 248.254 90.6117 247.789 91.5359 246.924C92.034 246.453 92.4247 245.88 92.6813 245.245C92.9379 244.609 93.0545 243.926 93.023 243.242Z" fill="black"/>
<path d="M54.4981 242.756C53.6267 241.838 52.4269 241.301 51.1609 241.264C49.895 241.226 48.6656 241.691 47.7415 242.557C46.8224 243.428 46.2856 244.627 46.2482 245.892C46.2108 247.157 46.676 248.386 47.542 249.309L53.6788 255.816L60.6349 249.263L54.4981 242.756Z" fill="#3F3D56"/>
<path d="M66.2686 255.234L60.2999 248.906L53.3438 255.46L59.3124 261.788C60.1839 262.706 61.3836 263.243 62.6496 263.28C63.9156 263.317 65.1449 262.853 66.0691 261.987C66.9881 261.116 67.525 259.917 67.5624 258.652C67.5998 257.387 67.1346 256.158 66.2686 255.234Z" fill="#00C9A7"/>
<path opacity="0.2" d="M67.5562 258.305C67.4442 259.445 66.9233 260.507 66.0896 261.294C65.1654 262.159 63.9361 262.624 62.6701 262.587C61.4041 262.55 60.2044 262.013 59.3329 261.095L53.7005 255.123L53.3438 255.459L59.3124 261.787C60.1839 262.706 61.3836 263.242 62.6496 263.28C63.9156 263.317 65.1449 262.852 66.0691 261.987C66.5672 261.516 66.9579 260.943 67.2145 260.308C67.4711 259.672 67.5877 258.989 67.5562 258.305Z" fill="black"/>
<path d="M79.9649 256.781C79.0935 255.862 77.8937 255.326 76.6277 255.288C75.3617 255.251 74.1324 255.716 73.2083 256.581C72.2892 257.452 71.7524 258.651 71.715 259.916C71.6776 261.182 72.1428 262.41 73.0088 263.334L79.1456 269.84L86.1017 263.287L79.9649 256.781Z" fill="#3F3D56"/>
<path d="M91.7354 269.259L85.7667 262.931L78.8105 269.484L84.7792 275.812C85.6507 276.731 86.8504 277.267 88.1164 277.304C89.3824 277.342 90.6117 276.877 91.5359 276.011C92.4549 275.14 92.9918 273.941 93.0292 272.676C93.0666 271.411 92.6014 270.182 91.7354 269.259Z" fill="#00C9A7"/>
<path opacity="0.2" d="M93.023 272.329C92.911 273.47 92.3901 274.531 91.5564 275.318C90.6322 276.184 89.4029 276.649 88.1369 276.611C86.8709 276.574 85.6712 276.038 84.7997 275.119L79.1673 269.147L78.8105 269.484L84.7792 275.812C85.6507 276.73 86.8504 277.267 88.1164 277.304C89.3824 277.341 90.6117 276.877 91.5359 276.011C92.034 275.54 92.4247 274.967 92.6813 274.332C92.9379 273.697 93.0545 273.013 93.023 272.329Z" fill="black"/>
<path d="M95.5022 286.63C96.4106 285.748 96.9328 284.542 96.9548 283.277C96.9768 282.011 96.4967 280.788 95.6195 279.875C94.7369 278.967 93.5308 278.446 92.2644 278.424C90.9981 278.402 89.7745 278.881 88.861 279.758L82.4258 285.97L89.067 292.842L95.5022 286.63Z" fill="#3F3D56"/>
<path d="M83.1609 298.543L89.4198 292.501L82.7786 285.629L76.5198 291.671C75.6113 292.553 75.0891 293.758 75.0671 295.024C75.0451 296.29 75.5252 297.513 76.4024 298.426C77.285 299.333 78.4911 299.855 79.7575 299.877C81.0238 299.899 82.2474 299.42 83.1609 298.543Z" fill="#00C9A7"/>
<path opacity="0.2" d="M80.1044 299.867C78.9617 299.769 77.8931 299.261 77.0956 298.438C76.2184 297.525 75.7383 296.302 75.7603 295.036C75.7823 293.771 76.3046 292.565 77.213 291.683L83.1192 285.982L82.7786 285.629L76.5198 291.671C75.6113 292.553 75.0891 293.758 75.0671 295.024C75.0451 296.29 75.5252 297.513 76.4024 298.426C76.8795 298.918 77.4572 299.301 78.0961 299.55C78.7349 299.799 79.4199 299.907 80.1044 299.867Z" fill="black"/>
<path d="M61.1994 271.567C62.1078 270.685 62.6301 269.479 62.652 268.214C62.674 266.948 62.194 265.725 61.3168 264.812C60.4342 263.904 59.228 263.383 57.9617 263.361C56.6954 263.339 55.4718 263.818 54.5582 264.695L48.123 270.907L54.7642 277.779L61.1994 271.567Z" fill="#3F3D56"/>
<path d="M48.8582 283.48L55.1171 277.438L48.4759 270.566L42.217 276.608C41.3086 277.49 40.7864 278.696 40.7644 279.961C40.7424 281.227 41.2225 282.45 42.0997 283.363C42.9822 284.27 44.1884 284.792 45.4547 284.814C46.7211 284.836 47.9447 284.357 48.8582 283.48Z" fill="#00C9A7"/>
<path opacity="0.2" d="M45.8016 284.804C44.659 284.706 43.5904 284.198 42.7929 283.375C41.9156 282.462 41.4356 281.239 41.4576 279.973C41.4796 278.708 42.0018 277.502 42.9102 276.62L48.8164 270.919L48.4759 270.566L42.217 276.608C41.3086 277.49 40.7864 278.696 40.7644 279.961C40.7424 281.227 41.2225 282.45 42.0997 283.363C42.5768 283.855 43.1545 284.238 43.7933 284.487C44.4322 284.736 45.1172 284.844 45.8016 284.804Z" fill="black"/>
<path d="M110.055 253.387C110.963 252.505 111.486 251.3 111.508 250.034C111.53 248.769 111.049 247.546 110.172 246.633C109.29 245.725 108.084 245.203 106.817 245.181C105.551 245.159 104.327 245.639 103.414 246.515L96.9785 252.727L103.62 259.599L110.055 253.387Z" fill="#3F3D56"/>
<path d="M97.7117 265.3L103.971 259.259L97.3294 252.387L91.0705 258.428C90.1621 259.31 89.6399 260.516 89.6179 261.781C89.5959 263.047 90.076 264.27 90.9532 265.183C91.8357 266.091 93.0419 266.613 94.3083 266.635C95.5746 266.657 96.7982 266.177 97.7117 265.3Z" fill="#00C9A7"/>
<path opacity="0.2" d="M94.6551 266.624C93.5125 266.526 92.4439 266.019 91.6464 265.195C90.7692 264.282 90.2891 263.059 90.3111 261.793C90.3331 260.528 90.8553 259.322 91.7637 258.44L97.6699 252.739L97.3294 252.387L91.0705 258.428C90.1621 259.31 89.6399 260.516 89.6179 261.781C89.5959 263.047 90.076 264.27 90.9532 265.183C91.4303 265.675 92.008 266.058 92.6468 266.307C93.2857 266.556 93.9707 266.664 94.6551 266.624Z" fill="black"/>
<path d="M99.1954 291.062C98.3239 290.143 97.1242 289.607 95.8582 289.569C94.5922 289.532 93.3629 289.997 92.4387 290.863C91.5197 291.733 90.9828 292.932 90.9454 294.198C90.9081 295.463 91.3732 296.692 92.2393 297.615L98.3761 304.122L105.332 297.568L99.1954 291.062Z" fill="#3F3D56"/>
<path d="M110.964 303.54L104.995 297.212L98.0391 303.765L104.008 310.093C104.879 311.012 106.079 311.548 107.345 311.586C108.611 311.623 109.84 311.158 110.764 310.293C111.683 309.422 112.22 308.223 112.258 306.957C112.295 305.692 111.83 304.464 110.964 303.54Z" fill="#00C9A7"/>
<path opacity="0.2" d="M112.251 306.611C112.14 307.751 111.619 308.813 110.785 309.6C109.861 310.466 108.631 310.931 107.365 310.893C106.099 310.856 104.9 310.319 104.028 309.401L98.3958 303.429L98.0391 303.765L104.008 310.093C104.879 311.012 106.079 311.548 107.345 311.586C108.611 311.623 109.84 311.158 110.764 310.293C111.262 309.822 111.653 309.249 111.91 308.614C112.166 307.978 112.283 307.295 112.251 306.611Z" fill="black"/>
<path d="M65.4141 290.543C64.5427 289.624 63.3429 289.088 62.0769 289.05C60.811 289.013 59.5816 289.478 58.6575 290.343C57.7384 291.214 57.2016 292.413 57.1642 293.679C57.1268 294.944 57.592 296.173 58.458 297.096L64.5948 303.602L71.551 297.049L65.4141 290.543Z" fill="#3F3D56"/>
<path d="M77.1826 303.02L71.2139 296.692L64.2578 303.246L70.2265 309.574C71.098 310.492 72.2977 311.029 73.5637 311.066C74.8297 311.104 76.059 310.639 76.9831 309.773C77.9022 308.902 78.4391 307.703 78.4764 306.438C78.5138 305.173 78.0487 303.944 77.1826 303.02Z" fill="#00C9A7"/>
<path opacity="0.2" d="M78.4702 306.091C78.3583 307.232 77.8374 308.294 77.0036 309.081C76.0795 309.946 74.8501 310.411 73.5842 310.374C72.3182 310.336 71.1184 309.8 70.247 308.881L64.6146 302.91L64.2578 303.246L70.2265 309.574C71.098 310.492 72.2977 311.029 73.5637 311.066C74.8297 311.104 76.059 310.639 76.9831 309.773C77.4812 309.302 77.8719 308.73 78.1286 308.094C78.3852 307.459 78.5017 306.776 78.4702 306.091Z" fill="black"/>
<path d="M74.9231 273.405C74.9234 274.993 74.3747 276.533 73.3698 277.763C72.3649 278.993 70.9655 279.839 69.4086 280.157C68.4987 280.34 67.5612 280.34 66.6513 280.157C65.0944 279.839 63.6953 278.993 62.6904 277.763C61.6856 276.533 61.1367 274.993 61.1367 273.405C61.1367 271.817 61.6856 270.278 62.6904 269.048C63.6953 267.817 65.0944 266.972 66.6513 266.654C67.5612 266.47 68.4986 266.47 69.4086 266.654C70.9655 266.972 72.3649 267.817 73.3698 269.047C74.3747 270.278 74.9234 271.817 74.9231 273.405Z" fill="#00C9A7"/>
<path opacity="0.2" d="M69.4077 266.654V280.157C68.4978 280.34 67.5603 280.34 66.6504 280.157V266.654C67.5603 266.47 68.4978 266.47 69.4077 266.654Z" fill="black"/>
<path d="M78.0403 245.876C78.0406 247.465 77.4919 249.004 76.487 250.234C75.4821 251.465 74.0827 252.31 72.5257 252.628C71.6158 252.811 70.6784 252.811 69.7685 252.628C68.2116 252.31 66.8124 251.464 65.8076 250.234C64.8027 249.004 64.2539 247.464 64.2539 245.876C64.2539 244.288 64.8027 242.749 65.8076 241.519C66.8124 240.289 68.2116 239.443 69.7685 239.125C70.6784 238.941 71.6158 238.941 72.5257 239.125C74.0827 239.443 75.4821 240.288 76.487 241.519C77.4919 242.749 78.0406 244.288 78.0403 245.876Z" fill="#00C9A7"/>
<path opacity="0.2" d="M72.5268 239.125V252.628C71.6169 252.811 70.6794 252.811 69.7695 252.628V239.125C70.6794 238.941 71.6169 238.941 72.5268 239.125Z" fill="black"/>
<path d="M78.0403 285.352C78.0406 286.94 77.4919 288.48 76.487 289.71C75.4821 290.94 74.0827 291.786 72.5257 292.103C71.6158 292.287 70.6784 292.287 69.7685 292.103C68.2116 291.785 66.8124 290.94 65.8076 289.71C64.8027 288.479 64.2539 286.94 64.2539 285.352C64.2539 283.764 64.8027 282.225 65.8076 280.994C66.8124 279.764 68.2116 278.919 69.7685 278.601C70.6784 278.417 71.6158 278.417 72.5257 278.601C74.0827 278.918 75.4821 279.764 76.487 280.994C77.4919 282.224 78.0406 283.764 78.0403 285.352Z" fill="#00C9A7"/>
<path opacity="0.2" d="M72.5268 278.601V292.103C71.6169 292.287 70.6794 292.287 69.7695 292.103V278.601C70.6794 278.417 71.6169 278.417 72.5268 278.601Z" fill="black"/>
<path d="M95.1926 304.57C95.193 306.158 94.6442 307.698 93.6393 308.928C92.6344 310.158 91.2351 311.004 89.6781 311.322C88.7682 311.505 87.8307 311.505 86.9208 311.322C85.364 311.004 83.9648 310.158 82.9599 308.928C81.9551 307.698 81.4062 306.158 81.4062 304.57C81.4062 302.982 81.9551 301.443 82.9599 300.213C83.9648 298.982 85.364 298.137 86.9208 297.819C87.8307 297.635 88.7682 297.635 89.6781 297.819C91.2351 298.137 92.6344 298.982 93.6393 300.212C94.6442 301.443 95.193 302.982 95.1926 304.57Z" fill="#00C9A7"/>
<path opacity="0.2" d="M89.6772 297.819V311.322C88.7673 311.505 87.8298 311.505 86.9199 311.322V297.819C87.8298 297.635 88.7673 297.635 89.6772 297.819Z" fill="black"/>
<path d="M110.344 269.21C111.488 270.312 112.216 271.775 112.405 273.352C112.594 274.929 112.232 276.523 111.38 277.864C110.881 278.646 110.231 279.32 109.467 279.848C108.157 280.747 106.577 281.167 104.994 281.037C103.41 280.906 101.92 280.233 100.776 279.131C99.632 278.028 98.9039 276.565 98.7149 274.988C98.526 273.412 98.8878 271.818 99.7392 270.477C100.238 269.695 100.889 269.02 101.653 268.493C102.962 267.593 104.542 267.173 106.126 267.304C107.71 267.434 109.2 268.108 110.344 269.21Z" fill="#00C9A7"/>
<path opacity="0.2" d="M101.652 268.493L111.379 277.864C110.88 278.646 110.23 279.321 109.466 279.848L99.7383 270.477C100.237 269.695 100.888 269.02 101.652 268.493Z" fill="black"/>
<path d="M112.422 284.274C113.566 285.376 114.294 286.839 114.483 288.416C114.672 289.993 114.31 291.586 113.458 292.927C112.959 293.709 112.309 294.384 111.545 294.911C110.236 295.811 108.655 296.231 107.072 296.1C105.488 295.969 103.998 295.296 102.854 294.194C101.71 293.092 100.982 291.629 100.793 290.052C100.604 288.475 100.966 286.882 101.817 285.541C102.316 284.758 102.967 284.084 103.731 283.557C105.04 282.657 106.62 282.236 108.204 282.367C109.788 282.498 111.278 283.171 112.422 284.274Z" fill="#00C9A7"/>
<path opacity="0.2" d="M103.732 283.557L113.46 292.927C112.96 293.709 112.31 294.384 111.546 294.911L101.818 285.541C102.317 284.758 102.968 284.084 103.732 283.557Z" fill="black"/>
<path d="M50.574 287.909C51.7184 289.011 52.4466 290.475 52.6356 292.051C52.8245 293.628 52.4625 295.222 51.6108 296.563C51.1117 297.345 50.4612 298.02 49.6974 298.547C48.3879 299.447 46.8077 299.867 45.2241 299.736C43.6405 299.605 42.1506 298.932 41.0065 297.83C39.8624 296.728 39.1343 295.265 38.9454 293.688C38.7565 292.111 39.1183 290.517 39.9696 289.176C40.4687 288.394 41.1194 287.72 41.8831 287.192C43.1925 286.292 44.7727 285.872 46.3564 286.003C47.9402 286.134 49.4301 286.807 50.574 287.909Z" fill="#00C9A7"/>
<path opacity="0.2" d="M41.8842 287.192L51.6119 296.563C51.1128 297.345 50.4622 298.02 49.6984 298.547L39.9707 289.176C40.4698 288.394 41.1204 287.72 41.8842 287.192Z" fill="black"/>
<path opacity="0.2" d="M28.3252 164.191H25.7266V183.409H28.3252V164.191Z" fill="black"/>
<path opacity="0.2" d="M43.3975 164.191H40.7988V183.409H43.3975V164.191Z" fill="black"/>
<path opacity="0.2" d="M58.4697 164.191H55.8711V183.409H58.4697V164.191Z" fill="black"/>
<path opacity="0.2" d="M73.542 164.191H70.9434V183.409H73.542V164.191Z" fill="black"/>
<path opacity="0.2" d="M88.6123 164.191H86.0137V183.409H88.6123V164.191Z" fill="black"/>
<path opacity="0.2" d="M103.685 164.191H101.086V183.409H103.685V164.191Z" fill="black"/>
<path opacity="0.2" d="M118.757 164.191H116.158V183.409H118.757V164.191Z" fill="black"/>
</g>
<defs>
<clipPath id="clip0_8814_26857">
<rect width="303" height="321" fill="white"/>
</clipPath>
</defs>
</svg>
