<svg width="510" height="333" viewBox="0 0 510 333" fill="none" xmlns="http://www.w3.org/2000/svg">
<g clip-path="url(#clip0_8814_27139)">
<path opacity="0.1" d="M169.555 339.809C194.391 339.809 214.525 336.765 214.525 333.011C214.525 329.256 194.391 326.213 169.555 326.213C144.718 326.213 124.584 329.256 124.584 333.011C124.584 336.765 144.718 339.809 169.555 339.809Z" fill="#00C9A7"/>
<path opacity="0.1" d="M414.009 340C445.001 340 470.125 336.957 470.125 333.202C470.125 329.448 445.001 326.404 414.009 326.404C383.017 326.404 357.893 329.448 357.893 333.202C357.893 336.957 383.017 340 414.009 340Z" fill="#00C9A7"/>
<path opacity="0.1" d="M6.3877 146.904H53.2275V206.991H9.81681C9.70143 207.608 9.59066 208.229 9.47067 208.85H53.2275V257.309C53.1491 257.287 53.0798 257.261 53.006 257.235C51.7691 256.774 50.5415 256.288 49.3138 255.767L48.5292 255.432C47.2985 254.885 46.0678 254.306 44.8371 253.695C44.4079 253.482 43.9786 253.26 43.554 253.034C36.7216 249.432 30.5147 244.868 25.1486 239.499C24.9916 239.356 24.844 239.204 24.687 239.065C23.9394 238.3 23.2056 237.527 22.4948 236.737L21.7102 235.868C20.8703 234.899 20.058 233.905 19.2688 232.897C19.1534 232.749 19.0426 232.601 18.9226 232.462C15.713 228.274 13.0479 223.739 10.9845 218.954C10.9198 218.81 10.8645 218.654 10.8045 218.519C10.1706 216.984 9.60912 215.435 9.11991 213.871C8.90761 213.215 8.70454 212.568 8.52916 211.886C8.46455 211.686 8.40916 211.491 8.3584 211.296C5.73695 201.666 5.42773 191.662 5.42773 181.728C5.42773 180.568 5.42773 179.404 5.42773 178.253C5.42773 174.235 5.4785 170.191 5.55235 166.151C5.55235 165.104 5.5985 164.062 5.62157 163.011C5.68619 160.344 5.77849 157.677 5.89849 155.01C5.92618 154.267 5.9631 153.528 6.00464 152.79C6.00464 152.364 6.02771 151.939 6.07387 151.513C6.18463 149.967 6.27694 148.433 6.3877 146.904Z" fill="#00C9A7"/>
<path opacity="0.1" d="M53.2281 80.0028H27.5352C31.7117 73.8503 36.275 67.9381 41.2008 62.2978C45.0176 57.8846 49.0467 53.5843 53.2281 49.4404V80.0028Z" fill="#00C9A7"/>
<path opacity="0.1" d="M53.2273 81.8618V145.046H6.53516C6.53516 144.863 6.56746 144.676 6.58131 144.494C6.62284 143.994 6.66438 143.495 6.71053 143C6.7613 142.418 6.81668 141.831 6.87668 141.262C6.93668 140.693 7.00129 139.998 7.07052 139.368C7.13975 138.738 7.20436 138.1 7.28282 137.47C7.36128 136.84 7.43051 136.21 7.51358 135.585C7.59666 134.959 7.6705 134.325 7.75819 133.7C7.82742 133.178 7.90126 132.662 7.9751 132.14C8.08125 131.406 8.19202 130.668 8.31201 129.938C8.31201 129.829 8.34432 129.717 8.36278 129.612C9.20515 124.27 10.3529 118.975 11.8011 113.749C13.317 108.267 15.2528 102.896 17.5932 97.6773C20.0807 92.218 22.9931 86.9391 26.3067 81.8835L53.2273 81.8618Z" fill="#00C9A7"/>
<path opacity="0.1" d="M64.4102 146.9V206.991H164.454V146.9H64.4102ZM64.4102 208.846V260.449C64.9824 260.562 65.5501 260.671 66.1132 260.762C66.8793 260.901 67.6408 261.027 68.4208 261.135C68.5685 261.157 68.7208 261.179 68.8823 261.192C69.1869 261.24 69.5007 261.279 69.8053 261.318C70.5761 261.418 71.3422 261.5 72.113 261.565C72.4776 261.6 72.8468 261.631 73.216 261.657L74.1067 261.722C74.5913 261.757 75.0713 261.783 75.5467 261.796C75.842 261.796 76.1374 261.822 76.442 261.83C76.6728 261.83 76.9035 261.83 77.1435 261.83C77.3835 261.83 77.7251 261.83 78.0158 261.83C78.4127 261.83 78.8096 261.83 79.2019 261.83H79.7327C80.1296 261.83 80.5265 261.83 80.9188 261.796H80.9465C81.2188 261.796 81.4957 261.796 81.7726 261.761C81.8495 261.765 81.9265 261.765 82.0034 261.761C82.2341 261.761 82.4649 261.761 82.6864 261.73H82.8479L84.394 261.617C84.9017 261.574 85.414 261.518 85.9309 261.465L86.9832 261.348C91.2642 260.784 95.4976 259.936 99.652 258.811C108.984 256.362 118.113 252.934 127.44 250.424C139.5 247.188 152.824 245.598 164.477 249.555V208.846H64.4102ZM164.454 80.0024V0.00417396C153.501 -0.107513 142.578 1.09822 131.949 3.59208C106.616 9.58207 83.8864 22.5741 64.4102 39.1671V79.9981H69.4315V81.8528H64.4102V145.045H164.454V81.8572H90.0477V80.0024H164.454ZM292.956 52.9801C286.688 52.7716 280.458 50.9038 274.823 48.0196C264.046 42.5031 255.439 33.9851 245.821 26.7962C225.837 11.8234 201.053 2.7885 175.628 0.547139V80.0024H318.446L318.801 79.6506L292.956 52.9801ZM305.966 50.8083L319.761 65.0557V47.0727C315.141 47.6113 311.094 48.8927 305.984 50.7909L305.966 50.8083ZM319.761 273.263V208.846H290.367C290.288 208.572 290.21 208.294 290.117 208.016C290.205 208.294 290.279 208.572 290.362 208.846H175.646V255.432C176.735 256.192 177.811 256.991 178.877 257.804C180.026 258.672 181.161 259.589 182.301 260.488L183.45 261.383C184 261.817 184.553 262.252 185.112 262.66C186.22 263.506 187.338 264.34 188.467 265.162C189.026 265.596 189.598 265.987 190.166 266.396C199.178 272.881 208.685 278.733 218.609 283.905C220.834 285.063 223.078 286.194 225.343 287.298C226.852 288.023 228.37 288.744 229.893 289.443C232.183 290.495 234.49 291.508 236.816 292.484C258.261 301.544 280.938 307.761 304.198 310.958C309.364 311.676 314.55 312.241 319.756 312.652V273.259H320.218L319.761 273.263ZM175.646 81.8572V145.045H319.779V81.8572H175.646ZM175.646 146.9V206.991H319.779V146.9H175.646ZM330.967 46.9945V67.0538L348.574 48.871C342.74 47.9849 336.871 47.3521 330.967 46.9728V46.9945ZM330.967 146.922V206.991H471.154V146.9L330.967 146.922ZM470.642 278.032L471.135 208.846H330.967V313.342C339.996 313.699 349.04 313.598 358.058 313.038H358.215C362.522 312.784 366.81 312.413 371.078 311.926H371.174C393.942 309.433 416.204 303.842 437.264 295.329M498.185 156.795C497.659 155.626 497.11 154.467 496.551 153.32C495.508 151.148 494.405 149.037 493.27 146.926H482.332V206.991H509.986C509.972 189.981 505.399 172.606 498.199 156.773L498.185 156.795ZM482.332 208.867V268.376C490.122 261.348 496.704 253.308 501.444 244.117C507.143 233.049 509.751 221.065 509.963 208.859L482.332 208.867ZM482.332 129.412V145.05H492.245C489.246 139.666 485.942 134.439 482.346 129.39L482.332 129.412ZM387.258 58.7833C386.529 58.5227 385.8 58.2578 385.066 58.0015C377.327 55.3115 369.418 53.0746 361.386 51.3035L334.442 79.1337L333.925 79.6506L334.271 80.0067H430.166C416.811 71.3543 402.412 64.2228 387.272 58.7616L387.258 58.7833ZM432.977 81.8789H332.933L330.967 83.5729V145.045H348.2H348.228H471.172V115.269C460.051 102.61 447.214 91.3767 432.991 81.8572L432.977 81.8789Z" fill="#00C9A7"/>
<path opacity="0.1" d="M53.2273 113.731V145.045H6.53516C6.53516 144.863 6.56746 144.676 6.58131 144.494C6.62284 143.994 6.66438 143.495 6.71053 142.999C6.7613 142.417 6.81668 141.831 6.87668 141.262C6.93668 140.693 7.00129 139.998 7.07052 139.368C7.13975 138.738 7.20436 138.1 7.28282 137.47C7.36128 136.84 7.43051 136.21 7.51358 135.585C7.59666 134.959 7.6705 134.325 7.75819 133.7C7.82742 133.178 7.90126 132.661 7.9751 132.14C8.08125 131.406 8.19202 130.668 8.31201 129.938C8.31201 129.829 8.34432 129.716 8.36278 129.612C9.20515 124.27 10.3529 118.975 11.8011 113.749L53.2273 113.731Z" fill="#00C9A7"/>
<path opacity="0.1" d="M6.3877 146.904H53.2275V206.991H9.81681C9.70143 207.608 9.59066 208.229 9.47067 208.85H53.2275V257.309C53.1491 257.287 53.0798 257.261 53.006 257.235C51.7691 256.774 50.5415 256.288 49.3138 255.767L48.5292 255.432C47.2985 254.885 46.0678 254.306 44.8371 253.695C44.4079 253.482 43.9786 253.26 43.554 253.034C36.7216 249.432 30.5147 244.868 25.1486 239.499C24.9916 239.356 24.844 239.204 24.687 239.065C23.9394 238.3 23.2056 237.527 22.4948 236.737L21.7102 235.868C20.8703 234.899 20.058 233.905 19.2688 232.897C19.1534 232.749 19.0426 232.601 18.9226 232.462C15.713 228.274 13.0479 223.739 10.9845 218.954C10.9198 218.81 10.8645 218.654 10.8045 218.519C10.1706 216.984 9.60912 215.435 9.11991 213.871C8.90761 213.215 8.70454 212.568 8.52916 211.886C8.46455 211.686 8.40916 211.491 8.3584 211.296C5.73695 201.666 5.42773 191.662 5.42773 181.728C5.42773 180.568 5.42773 179.404 5.42773 178.253C5.42773 174.235 5.4785 170.191 5.55235 166.151C5.55235 165.104 5.5985 164.062 5.62157 163.011C5.68619 160.344 5.77849 157.677 5.89849 155.01C5.92618 154.267 5.9631 153.528 6.00464 152.79C6.00464 152.364 6.02771 151.939 6.07387 151.513C6.18463 149.967 6.27694 148.433 6.3877 146.904Z" fill="#00C9A7"/>
<path opacity="0.1" d="M99.6289 90.9052V145.045H64.4102V90.9052H69.4315V72.5747H90.0431V90.9052H99.6289Z" fill="#00C9A7"/>
<path opacity="0.1" d="M99.6282 146.9H64.4141V206.987H99.6282V146.9Z" fill="#00C9A7"/>
<path opacity="0.1" d="M64.4102 208.85H99.6289V258.803C95.4745 259.926 91.2411 260.773 86.9601 261.335L85.9078 261.457C85.3909 261.513 84.8786 261.561 84.371 261.609C83.8633 261.657 83.3372 261.691 82.8249 261.722H82.6633C82.4418 261.722 82.2018 261.748 81.9849 261.752H81.7495C81.4726 261.752 81.1957 261.778 80.9188 261.787C80.5265 261.809 80.1342 261.813 79.7327 261.817C79.5619 261.817 79.4004 261.817 79.2296 261.817C78.8327 261.817 78.4404 261.817 78.0435 261.817H77.1712C76.9359 261.817 76.7097 261.817 76.4651 261.817L75.5744 261.787C75.1128 261.787 74.6144 261.739 74.1344 261.709L73.2483 261.648L72.1453 261.552C71.3699 261.487 70.5992 261.405 69.8376 261.305L68.9146 261.183L68.4531 261.122C67.6823 261.009 66.9208 260.888 66.1455 260.749C65.5778 260.658 65.0147 260.545 64.4425 260.436L64.4102 208.85Z" fill="#00C9A7"/>
<path opacity="0.1" d="M319.779 84.5112H290.74V145.041H319.779V84.5112Z" fill="#00C9A7"/>
<path opacity="0.1" d="M319.784 146.9V206.991H175.646V181.072H252.421V196.362H290.741V146.9H319.784Z" fill="#00C9A7"/>
<path opacity="0.1" d="M320.241 273.276H319.78V312.695C314.58 312.281 309.395 311.718 304.226 311.006C280.955 307.799 258.269 301.569 236.817 292.493C230.623 289.869 224.555 287.005 218.614 283.901C208.69 278.726 199.182 272.874 190.166 266.391C187.901 264.758 185.666 263.087 183.46 261.379C181.932 260.193 180.414 258.977 178.877 257.795C177.811 256.983 176.736 256.184 175.646 255.419V208.85H290.358C290.279 208.572 290.201 208.294 290.118 208.021C290.205 208.294 290.288 208.572 290.367 208.85H319.78V273.25C319.937 273.254 320.089 273.267 320.241 273.276Z" fill="#00C9A7"/>
<path opacity="0.1" d="M395.514 80.0027H376.592V74.4688H385.075V57.9844C385.81 58.2363 386.542 58.4955 387.271 58.7619V74.4688H395.514V80.0027Z" fill="#00C9A7"/>
<path opacity="0.1" d="M441.104 145.045H348.209C348.209 145.045 348.209 145.045 348.242 145.067L348.2 145.045H330.967V84.5153H335.85V129.256H358.164V102.759H376.597V81.8613H395.52V102.776H413.953V129.273H441.104V145.045Z" fill="#00C9A7"/>
<path opacity="0.1" d="M330.967 146.9V206.991H441.104V146.9H330.967ZM471.002 277.724L471.154 230.161H441.104V208.877H330.967V313.343C339.996 313.7 349.04 313.598 358.058 313.039H358.215C362.523 312.784 366.81 312.413 371.078 311.927H371.175C393.942 309.433 416.204 303.842 437.264 295.329" fill="#00C9A7"/>
<path opacity="0.1" d="M484.288 208.85H509.981C509.755 221.052 507.152 233.036 501.457 244.104C496.717 253.299 490.131 261.34 482.35 268.363V230.139H484.288V208.85Z" fill="#00C9A7"/>
<path opacity="0.1" d="M509.996 206.991H484.289V156.773H498.199C505.399 172.606 509.973 189.981 509.996 206.991Z" fill="#00C9A7"/>
<path opacity="0.1" d="M319.784 101.339H304.227V120.317H319.784V101.339Z" fill="#00C9A7"/>
<path opacity="0.1" d="M319.784 140.676H304.227V145.046H319.784V140.676Z" fill="#00C9A7"/>
<path opacity="0.1" d="M319.784 146.9H304.227V159.649H319.784V146.9Z" fill="#00C9A7"/>
<path opacity="0.1" d="M319.784 180.012H304.227V198.99H319.784V180.012Z" fill="#00C9A7"/>
<path opacity="0.1" d="M319.784 219.349H304.227V238.326H319.784V219.349Z" fill="#00C9A7"/>
<path opacity="0.1" d="M319.78 273.25C319.937 273.25 320.089 273.25 320.241 273.276H319.78V277.685H304.227V258.686H319.78V273.25Z" fill="#00C9A7"/>
<path opacity="0.1" d="M319.78 298.014V312.674C314.58 312.26 309.396 311.696 304.227 310.984V298.014H319.78Z" fill="#00C9A7"/>
<path opacity="0.1" d="M242.323 205.597H175.646V206.991H242.323V205.597Z" fill="#00C9A7"/>
<path opacity="0.1" d="M242.323 208.846H175.646V214.188H242.323V208.846Z" fill="#00C9A7"/>
<path opacity="0.1" d="M242.323 231.702H175.646V240.294H242.323V231.702Z" fill="#00C9A7"/>
<path opacity="0.1" d="M242.317 257.808V266.4H190.165C187.9 264.773 185.663 263.102 183.454 261.387C181.926 260.201 180.413 258.985 178.871 257.808H242.317Z" fill="#00C9A7"/>
<path opacity="0.1" d="M242.317 283.91V292.493H236.811C230.624 289.866 224.558 287.001 218.613 283.896L242.317 283.91Z" fill="#00C9A7"/>
<path opacity="0.1" d="M371.188 152.725H358.062V165.079H371.188V152.725Z" fill="#00C9A7"/>
<path opacity="0.1" d="M86.9929 95.1665H73.8672V107.52H86.9929V95.1665Z" fill="#00C9A7"/>
<path opacity="0.1" d="M86.9929 123.861H73.8672V136.215H86.9929V123.861Z" fill="#00C9A7"/>
<path opacity="0.1" d="M86.9929 152.556H73.8672V164.909H86.9929V152.556Z" fill="#00C9A7"/>
<path opacity="0.1" d="M86.9929 181.246H73.8672V193.6H86.9929V181.246Z" fill="#00C9A7"/>
<path opacity="0.1" d="M86.9929 209.94H73.8672V222.294H86.9929V209.94Z" fill="#00C9A7"/>
<path opacity="0.1" d="M86.9929 238.635H73.8672V250.988H86.9929V238.635Z" fill="#00C9A7"/>
<path opacity="0.1" d="M421.296 152.725H408.17V165.079H421.296V152.725Z" fill="#00C9A7"/>
<path opacity="0.1" d="M371.188 183.196H358.062V195.55H371.188V183.196Z" fill="#00C9A7"/>
<path opacity="0.1" d="M421.296 183.196H408.17V195.55H421.296V183.196Z" fill="#00C9A7"/>
<path opacity="0.1" d="M371.188 213.663H358.062V226.017H371.188V213.663Z" fill="#00C9A7"/>
<path opacity="0.1" d="M421.296 213.663H408.17V226.017H421.296V213.663Z" fill="#00C9A7"/>
<path opacity="0.1" d="M371.188 244.134H358.062V256.488H371.188V244.134Z" fill="#00C9A7"/>
<path opacity="0.1" d="M421.296 244.134H408.17V256.488H421.296V244.134Z" fill="#00C9A7"/>
<path opacity="0.1" d="M371.188 274.605H358.062V286.959H371.188V274.605Z" fill="#00C9A7"/>
<path opacity="0.1" d="M421.296 274.605H408.17V286.959H421.296V274.605Z" fill="#00C9A7"/>
<path opacity="0.1" d="M358.062 313.039V305.072H371.184V311.905L358.062 313.039Z" fill="#00C9A7"/>
<path opacity="0.1" d="M8.30664 129.604V136.671H53.2266V129.604H8.30664ZM12.7834 136.228H9.11892V130.038H12.8111L12.7834 136.228ZM17.2555 136.228H13.5634V130.038H17.2555V136.228ZM21.7185 136.228H18.0263V130.038H21.7185V136.228ZM26.1906 136.228H22.5031V130.038H26.1952L26.1906 136.228ZM30.6581 136.228H26.966V130.038H30.6581V136.228ZM35.1303 136.228H31.4381V130.038H35.1303V136.228ZM39.6024 136.228H35.9103V130.038H39.6024V136.228ZM44.07 136.228H40.3778V130.038H44.07V136.228ZM48.5375 136.228H44.8453V130.038H48.5375V136.228ZM53.005 136.228H49.3129V130.038H53.005V136.228Z" fill="#00C9A7"/>
<path opacity="0.1" d="M8.30664 150.167V157.234H53.2266V150.167H8.30664ZM12.7834 156.786H9.11892V150.614H12.8111L12.7834 156.786ZM17.2555 156.786H13.5634V150.614H17.2555V156.786ZM21.7185 156.786H18.0263V150.614H21.7185V156.786ZM26.1906 156.786H22.5031V150.614H26.1952L26.1906 156.786ZM30.6581 156.786H26.966V150.614H30.6581V156.786ZM35.1303 156.786H31.4381V150.614H35.1303V156.786ZM39.6024 156.786H35.9103V150.614H39.6024V156.786ZM44.07 156.786H40.3778V150.614H44.07V156.786ZM48.5375 156.786H44.8453V150.614H48.5375V156.786ZM53.005 156.786H49.3129V150.614H53.005V156.786Z" fill="#00C9A7"/>
<path opacity="0.1" d="M8.30664 170.738V177.819H53.2266V170.738H8.30664ZM12.7834 177.358H9.11892V171.181H12.8111L12.7834 177.358ZM17.2555 177.358H13.5634V171.181H17.2555V177.358ZM21.7185 177.358H18.0263V171.181H21.7185V177.358ZM26.1906 177.358H22.5031V171.181H26.1952L26.1906 177.358ZM30.6581 177.358H26.966V171.181H30.6581V177.358ZM35.1303 177.358H31.4381V171.181H35.1303V177.358ZM39.6024 177.358H35.9103V171.181H39.6024V177.358ZM44.07 177.358H40.3778V171.181H44.07V177.358ZM48.5375 177.358H44.8453V171.181H48.5375V177.358ZM53.005 177.358H49.3129V171.181H53.005V177.358Z" fill="#00C9A7"/>
<path opacity="0.1" d="M8.30664 191.311V198.369H53.2266V191.311H8.30664ZM12.7834 197.93H9.11892V191.749H12.8111L12.7834 197.93ZM17.2555 197.93H13.5634V191.749H17.2555V197.93ZM21.7185 197.93H18.0263V191.749H21.7185V197.93ZM26.1906 197.93H22.5031V191.749H26.1952L26.1906 197.93ZM30.6581 197.93H26.966V191.749H30.6581V197.93ZM35.1303 197.93H31.4381V191.749H35.1303V197.93ZM39.6024 197.93H35.9103V191.749H39.6024V197.93ZM44.07 197.93H40.3778V191.749H44.07V197.93ZM48.5375 197.93H44.8453V191.749H48.5375V197.93ZM53.005 197.93H49.3129V191.749H53.005V197.93Z" fill="#00C9A7"/>
<path opacity="0.1" d="M8.50195 211.878C8.68195 212.543 8.88501 213.207 9.09731 213.863V212.321H12.7895V218.498H10.8142C10.8742 218.641 10.9342 218.797 10.9942 218.932H53.228V211.878H8.50195ZM17.2709 218.498H13.5787V212.321H17.2709V218.498ZM21.7338 218.498H18.0416V212.321H21.7338V218.498ZM26.2059 218.498H22.5045V212.321H26.1967L26.2059 218.498ZM30.6735 218.498H26.9813V212.321H30.6735V218.498ZM35.1456 218.498H31.4534V212.321H35.1456V218.498ZM39.6177 218.498H35.9256V212.321H39.6177V218.498ZM44.0853 218.498H40.3931V212.321H44.0853V218.498ZM48.5528 218.498H44.8606V212.321H48.5528V218.498ZM53.0203 218.498H49.3282V212.321H53.0203V218.498Z" fill="#00C9A7"/>
<path opacity="0.1" d="M18.9316 232.45C19.047 232.589 19.1578 232.745 19.2778 232.884H21.7192V235.851C21.9823 236.146 22.2408 236.442 22.5084 236.72V232.867H26.2006V239.065H24.7053C24.853 239.209 24.996 239.361 25.1668 239.5H53.2412V232.45H18.9316ZM30.6589 239.065H26.9667V232.893H30.6589V239.065ZM35.1311 239.065H31.4389V232.893H35.1311V239.065ZM39.6032 239.065H35.911V232.893H39.6032V239.065ZM44.0707 239.065H40.3786V232.893H44.0707V239.065ZM48.5383 239.065H44.8461V232.893H48.5383V239.065ZM53.0058 239.065H49.3136V232.893H53.0058V239.065Z" fill="#00C9A7"/>
<path opacity="0.1" d="M43.5723 253.017C43.9923 253.243 44.4215 253.451 44.8553 253.677V253.46H48.5475V255.415L49.3321 255.758V253.46H53.0242V257.217C53.095 257.251 53.1693 257.277 53.2458 257.296V253.017H43.5723Z" fill="#00C9A7"/>
<path opacity="0.1" d="M290.117 208.016C290.204 208.294 290.278 208.572 290.361 208.846C290.287 208.572 290.209 208.294 290.117 208.016ZM69.4492 79.9893V81.844H90.0654V79.9893H69.4492ZM290.117 208.016C290.204 208.294 290.278 208.572 290.361 208.846C290.287 208.572 290.209 208.294 290.117 208.016ZM290.117 208.016C290.204 208.294 290.278 208.572 290.361 208.846C290.287 208.572 290.209 208.294 290.117 208.016Z" fill="#00C9A7"/>
<path d="M213.038 164.918C213.038 164.918 211.22 164.679 211.22 162.186C211.22 159.692 209.919 155.036 209.919 155.036C209.919 155.014 208.792 146.926 207.237 145.641C205.682 144.355 203.683 136.805 203.683 136.805C203.683 136.805 203.342 132.709 202.645 131.828C201.948 130.946 201.007 128.787 199.617 125.707C198.228 122.628 192.436 120.495 192.436 120.495C192.436 120.495 181.964 114.778 178.997 112.915C178.727 112.762 178.475 112.583 178.244 112.381C177.727 111.742 175.475 111.729 175.475 111.729C175.24 110.33 175.014 108.723 174.94 107.268C174.94 107.112 174.94 106.955 174.917 106.799C178.226 104.958 180.718 102.056 181.937 98.6242C181.992 98.4591 182.038 98.2854 182.089 98.1203C182.287 98.0588 182.47 97.9591 182.625 97.8274C182.78 97.6958 182.904 97.5352 182.989 97.3558C183.256 96.7955 183.261 96.1396 183.593 95.6183C183.981 95.0015 184.719 94.6714 185.301 94.2066C186.769 93.0338 187.147 91.0574 187.078 89.2591C187.032 87.804 186.783 86.3358 186.879 84.8893L186.907 84.5245C186.935 84.3073 186.967 84.0901 187.009 83.8816C187.235 82.8044 187.729 81.7879 188.006 80.7194C188.282 79.6508 188.31 78.4476 187.664 77.5267C186.718 76.1758 184.747 75.9065 183.016 75.7675C181.055 75.6112 179.301 75.8153 178.046 74.282C177.458 73.4806 176.797 72.7291 176.071 72.0363C175.812 71.8104 173.301 70.3683 173.301 70.2727C170.851 69.2046 168.073 69.0041 165.479 69.7081C164.177 70.0642 162.95 70.6463 161.63 70.9373C158.782 71.5715 155.505 70.8852 153.087 72.4185C151.739 73.2873 150.931 74.6686 150.175 76.0151C149.559 77.1242 148.935 78.2319 148.301 79.3381C147.281 81.1581 146.242 83.0085 145.813 85.024C145.723 85.4626 145.667 85.9069 145.647 86.3532V86.3749C145.647 86.5356 145.647 86.6963 145.647 86.857V87.0612C145.647 87.2132 145.647 87.3609 145.675 87.4956C145.702 87.6302 145.698 87.6737 145.712 87.7649C145.726 87.8561 145.749 88.0603 145.776 88.1993C145.804 88.3382 145.859 88.5815 145.915 88.7726C145.938 88.8552 145.97 88.9333 145.998 89.0115C146.044 89.1592 146.099 89.3026 146.159 89.4459C146.192 89.5197 146.224 89.5979 146.261 89.6718C146.33 89.8238 146.413 89.9715 146.496 90.1061C146.533 90.167 146.561 90.2234 146.598 90.2799C146.727 90.4819 146.868 90.6763 147.022 90.862C148.01 92.0217 149.464 92.7602 150.539 93.8461C150.539 93.8895 150.539 93.933 150.539 93.9721C150.539 94.0937 150.539 94.211 150.539 94.3326C150.596 96.7544 151.281 99.1265 152.534 101.242C153.788 103.358 155.571 105.154 157.73 106.473C157.73 106.638 157.753 106.808 157.762 106.973C157.852 108.262 157.835 109.556 157.711 110.843C157.523 110.635 157.288 110.469 157.023 110.358C156.758 110.246 156.469 110.192 156.179 110.2C155.981 110.191 155.782 110.207 155.588 110.248L155.547 110.218V110.257C154.531 110.491 153.281 111.486 152.085 114.314C152.085 114.314 148.449 118.171 145.679 118.01C142.91 117.849 135.9 122.024 135.9 122.024C135.9 122.024 129.06 126.202 127.592 130.459C126.772 132.873 125.788 135.235 124.648 137.531L116.193 153.928L114.633 166.938C114.633 166.938 115.496 172.724 115.325 173.605C115.154 174.487 118.874 182.441 118.874 182.441C118.874 182.441 131.165 202.765 136.186 203.807L136.546 203.568C136.761 203.674 136.989 203.754 137.224 203.807L138.258 203.121C138.32 203.886 138.294 204.655 138.18 205.414C137.487 207.421 138.438 220.518 139.647 223.085C140.856 225.652 140.427 259.311 140.427 259.311L140.257 262.282C140.257 262.282 140.257 262.378 140.298 262.543L140.257 263.247L140.381 263.307C140.511 264.25 140.468 265.206 140.257 266.135C139.823 267.438 139.647 271.122 139.647 271.122C139.647 271.122 136.19 291.92 137.829 296.098C139.467 300.277 140.861 304.855 140.861 304.855C140.861 304.855 142.592 310.068 140.944 310.958C139.297 311.849 134.612 313.343 135.577 315.515C136.454 317.521 139.781 322.899 140.275 323.685L140.233 324.098L139.555 331.017C139.665 331.931 139.928 332.822 140.335 333.658C141.078 335.166 142.523 336.729 145.269 336.56C145.73 336.53 146.266 336.477 146.782 336.412C151.808 335.778 157.997 333.667 157.997 333.667C157.676 333.475 157.382 333.246 157.12 332.985C156.873 332.76 156.678 332.49 156.545 332.191C156.413 331.892 156.346 331.571 156.35 331.248C156.424 329.988 153.918 323.985 153.294 322.508C153.198 322.295 153.147 322.174 153.147 322.174C153.147 322.174 158.86 316.553 157.91 311.57C157.91 311.57 151.587 308.096 153.668 306.189C155.75 304.282 159.47 298.804 159.47 298.804C159.47 298.804 159.64 278.324 159.47 275.266C159.292 273.143 159.399 271.008 159.788 268.911C159.857 268.594 159.94 268.285 160.028 267.981C162.907 268.386 165.813 268.593 168.723 268.602C169.785 268.602 170.865 268.602 171.954 268.542C171.954 268.831 171.968 269.144 171.995 269.48C172.235 274.553 172.683 283.449 173.048 286.755C173.565 291.494 176.421 304.264 176.421 304.264C176.421 304.264 170.971 307.557 177.372 315.671C177.372 315.671 177.372 318.612 176.947 319.037C176.494 320.429 176.129 321.845 175.854 323.277C175.586 324.806 175.475 326.352 175.909 327.156C176.947 329.076 183.178 328.919 183.178 328.919L183.33 328.893C184.507 328.779 185.695 328.885 186.827 329.207C187.96 329.528 189.013 330.058 189.925 330.765C192.293 332.555 201.279 331.769 206.143 331.2C208.049 330.974 209.323 330.765 209.323 330.765C209.385 330.562 209.407 330.35 209.388 330.14C209.337 329.015 208.4 326.548 202.05 324.345C202.05 324.345 196.078 320.566 196.161 317.274H196.036H195.344C195.847 317.248 196.17 317.274 196.17 317.274C196.17 317.274 193.83 309.238 194.785 308.586C195.741 307.935 192.879 299.03 192.879 299.03C192.879 299.03 191.241 284.088 191.153 283.041C191.157 282.143 191.301 281.25 191.582 280.391L191.153 272.199C191.153 272.199 191.07 269.476 191.153 268.589C191.139 267.82 191.073 267.053 190.955 266.292C190.913 265.988 190.872 265.67 190.825 265.358C193.064 264.823 194.518 264.328 194.518 264.328L194.259 235.812C196.161 232.337 196.511 224.714 196.502 219.306C196.502 215.831 196.336 213.259 196.336 213.259L198.934 209.267C198.934 209.267 199.534 204.489 198.584 203.442C198.164 202.969 198.353 202.478 198.699 202.074C198.879 201.94 199.068 201.818 199.267 201.709C199.267 201.709 199.239 201.67 199.207 201.614C199.388 201.471 199.581 201.342 199.784 201.227C199.784 201.227 198.861 199.881 199.687 199.311C200.462 199.807 201.154 200.18 201.68 200.484C201.644 200.801 201.607 200.984 201.607 200.984L201.828 200.549C202.336 200.819 202.645 200.984 202.645 200.984C202.645 200.984 206.716 193.352 206.628 192.227C206.54 191.102 209.397 186.363 209.397 186.363C209.397 186.363 209.743 183.874 211.303 182.831C212.863 181.789 212.512 174.235 212.512 174.235C212.512 174.235 212.946 170.3 213.985 168.693C215.023 167.085 213.038 164.918 213.038 164.918ZM135.152 161.569L135.231 163.389C134.769 162.69 134.437 162.186 134.437 162.186L135.152 161.569Z" fill="url(#paint0_linear_8814_27139)"/>
<path d="M202.867 197.687L201.87 201.683C201.87 201.683 193.885 197.848 192.446 192.974C191.006 188.1 194.855 186.25 194.855 186.25L202.294 189.217L202.867 197.687Z" fill="white"/>
<path opacity="0.1" d="M202.867 197.687L201.87 201.683C201.87 201.683 193.885 197.848 192.446 192.974C191.006 188.1 194.855 186.25 194.855 186.25L202.294 189.217L202.867 197.687Z" fill="black"/>
<path d="M158.058 333.693C158.058 333.693 150.674 336.247 145.597 336.568C142.902 336.738 141.485 335.183 140.756 333.684C140.357 332.851 140.1 331.964 139.994 331.056L140.654 324.171L141.005 320.505L151.791 317.869L153.318 322.264L153.461 322.599C154.075 324.067 156.535 330.04 156.461 331.286C156.458 331.606 156.524 331.922 156.654 332.217C156.784 332.512 156.976 332.779 157.218 333.002C157.466 333.265 157.748 333.497 158.058 333.693Z" fill="white"/>
<path d="M208.496 330.192C208.515 330.401 208.493 330.611 208.432 330.813C208.432 330.813 192.638 333.293 189.408 330.813C188.497 330.088 187.435 329.551 186.291 329.235C185.146 328.92 183.944 328.833 182.762 328.98C182.762 328.98 176.651 329.136 175.631 327.242C175.207 326.448 175.318 324.906 175.581 323.385C175.849 321.961 176.207 320.552 176.651 319.167L176.896 318.985L178.35 317.886L195.371 317.413H195.5C195.417 320.688 201.278 324.445 201.278 324.445C207.504 326.617 208.423 329.071 208.496 330.192Z" fill="white"/>
<path opacity="0.1" d="M208.498 330.192C208.514 330.401 208.491 330.611 208.429 330.813C208.429 330.813 192.64 333.293 189.409 330.813C188.499 330.089 187.438 329.552 186.294 329.236C185.151 328.921 183.95 328.833 182.768 328.98C182.768 328.98 176.653 329.136 175.637 327.242C175.213 326.443 175.319 324.906 175.582 323.385C177.936 323.607 181.651 324.158 183.11 325.475C185.316 327.477 189.054 329.475 191.348 329.632C193.143 329.74 203.883 330.062 208.498 330.192Z" fill="black"/>
<path d="M169.014 127.866C162.922 125.638 155.085 118.275 157.042 114.835C157.477 113.967 157.735 113.03 157.804 112.072C157.93 110.772 157.948 109.465 157.859 108.163C157.722 106.03 157.449 103.906 157.042 101.804C157.042 101.804 176.062 102.208 174.954 104.844C174.631 105.617 174.58 106.96 174.668 108.463C174.755 109.966 174.986 111.664 175.226 113.102C175.558 115.074 175.891 116.577 175.891 116.577C175.891 116.577 174.728 118.11 174.045 118.193C173.362 118.275 177.755 131.041 169.014 127.866Z" fill="#CF6F80"/>
<path opacity="0.1" d="M153.446 322.599L153.303 322.747C147.617 316.275 140.74 324.341 140.74 324.341L140.639 324.171L140.989 320.505L151.775 317.869L153.303 322.264L153.446 322.599Z" fill="black"/>
<path opacity="0.1" d="M195.505 317.869C195.505 317.869 191.351 317.786 189.136 319.628C186.92 321.47 176.213 320.028 176.675 319.628C176.811 319.43 176.894 319.203 176.915 318.968L178.368 317.869L195.389 317.396C195.454 317.687 195.505 317.869 195.505 317.869Z" fill="black"/>
<path d="M160.521 267.043C160.212 267.763 159.977 268.509 159.82 269.271C159.435 271.359 159.328 273.483 159.501 275.595C159.672 278.636 159.501 299.012 159.501 299.012C159.501 299.012 155.851 304.446 153.815 306.362C151.78 308.278 157.969 311.718 157.969 311.718C158.892 316.67 153.299 322.264 153.299 322.264C147.613 315.792 140.736 323.863 140.736 323.863C140.736 323.863 136.998 317.782 136.065 315.61C135.133 313.438 139.716 311.935 141.327 311.053C142.937 310.171 141.248 304.972 141.248 304.972C141.248 304.972 139.887 300.415 138.271 296.259C136.656 292.102 140.053 271.408 140.053 271.408C140.053 271.408 140.228 267.733 140.648 266.452C140.86 265.527 140.902 264.575 140.773 263.637C140.745 263.32 140.713 263.055 140.69 262.877C140.667 262.699 140.648 262.616 140.648 262.616L140.713 262.512L143.02 258.464C143.02 258.464 161.629 264.493 160.521 267.043Z" fill="#00C9A7"/>
<path d="M195.505 317.391C195.505 317.391 191.351 317.309 189.136 319.129C186.921 320.949 176.213 319.528 176.675 319.129C177.136 318.729 177.099 315.771 177.099 315.771C170.818 307.7 176.176 304.425 176.176 304.425C176.176 304.425 173.37 291.72 172.863 287.007C172.507 283.714 172.069 274.866 171.833 269.814C171.732 267.643 171.672 266.148 171.672 266.148L176.804 265.175L177.464 265.049L189.842 262.712C189.842 262.712 190.184 264.884 190.414 266.661C190.529 267.419 190.594 268.184 190.608 268.95C190.525 269.819 190.608 272.538 190.608 272.538L191.028 280.691C190.754 281.546 190.612 282.434 190.608 283.328C190.691 284.366 192.302 299.23 192.302 299.23C192.302 299.23 195.103 308.1 194.148 308.738C193.193 309.377 195.505 317.391 195.505 317.391Z" fill="#00C9A7"/>
<path opacity="0.1" d="M174.955 104.844C174.632 105.617 174.581 106.96 174.668 108.463C172.121 109.906 169.192 110.645 166.219 110.592C163.246 110.54 160.348 109.7 157.86 108.167C157.723 106.033 157.45 103.908 157.043 101.804C157.043 101.804 176.062 102.199 174.955 104.844Z" fill="black"/>
<path d="M182.306 95.2447C182.31 96.81 182.048 98.3658 181.531 99.8534C180.375 103.187 178.003 106.028 174.837 107.875C171.67 109.722 167.911 110.456 164.225 109.947C160.539 109.438 157.163 107.719 154.693 105.094C152.224 102.469 150.819 99.1063 150.729 95.6009C150.729 95.4793 150.729 95.3664 150.729 95.2447C150.693 93.2717 151.075 91.3116 151.852 89.4789C152.63 87.6462 153.787 85.9776 155.257 84.5703C156.727 83.163 158.48 82.0453 160.414 81.2824C162.347 80.5194 164.423 80.1265 166.52 80.1265C168.617 80.1265 170.692 80.5194 172.626 81.2824C174.56 82.0453 176.313 83.163 177.782 84.5703C179.252 85.9776 180.41 87.6462 181.187 89.4789C181.965 91.3116 182.347 93.2717 182.311 95.2447H182.306Z" fill="#CF6F80"/>
<path opacity="0.1" d="M169.014 127.866C162.922 125.638 155.085 118.275 157.042 114.835C157.477 113.967 157.735 113.03 157.804 112.072L166.143 118.523L171.303 122.506L175.226 113.106C175.558 115.078 175.891 116.581 175.891 116.581C175.891 116.581 174.728 118.114 174.045 118.197C173.362 118.279 177.755 131.041 169.014 127.866Z" fill="black"/>
<path d="M190.58 156.374L183.616 266.487L174.533 267.048L151.014 203.199L154.872 127.397L155.684 111.382L166.142 119.465L171.307 123.449L175.345 113.775L182.854 119.935L190.58 156.374Z" fill="#00C9A7"/>
<path opacity="0.1" d="M160.523 267.043C160.213 267.763 159.979 268.509 159.821 269.271C153.212 268.311 146.793 266.424 140.779 263.672L140.654 263.612L140.696 262.912L140.719 262.547L143.027 258.499C143.027 258.499 161.63 264.493 160.523 267.043Z" fill="black"/>
<path opacity="0.1" d="M176.91 269.289C175.221 269.559 173.517 269.742 171.806 269.836C171.705 267.664 171.645 266.17 171.645 266.17L176.777 265.197L176.91 269.289Z" fill="black"/>
<path opacity="0.1" d="M190.388 266.682C187.106 267.486 182.039 268.389 177.502 267.825L177.438 265.071L189.816 262.734C189.816 262.734 190.157 264.884 190.388 266.682Z" fill="black"/>
<path opacity="0.1" d="M177.419 268.329C158.497 271.369 141.166 262.651 141.166 262.651L141.333 259.698C141.333 259.698 141.762 226.212 140.571 223.645C139.38 221.078 138.453 208.06 139.127 206.061C139.8 204.063 136.667 174.1 136.667 174.1L136.159 161.938L117.578 154.853L125.886 138.556C127.008 136.271 127.973 133.92 128.775 131.519C130.219 127.288 136.925 123.131 136.925 123.131C136.925 123.131 143.802 118.979 146.52 119.135C149.239 119.291 152.801 115.46 152.801 115.46C155.432 109.149 157.814 112.007 157.814 112.007C157.814 112.307 157.814 112.007 157.684 112.941C156.761 119.869 172.61 141.761 172.836 142.148L174.345 176.75L175.873 220.539L177.419 268.329Z" fill="black"/>
<path d="M176.911 268.329C157.989 271.369 140.654 262.651 140.654 262.651L140.825 259.698C140.825 259.698 141.254 226.212 140.059 223.645C138.864 221.078 137.94 208.06 138.619 206.062C139.297 204.063 136.159 174.101 136.159 174.101L135.647 161.938L117.057 154.827L125.364 138.53C126.484 136.244 127.449 133.894 128.253 131.493C129.693 127.262 136.404 123.105 136.404 123.105C136.404 123.105 143.28 118.953 145.994 119.109C148.708 119.265 152.275 115.434 152.275 115.434C154.911 109.123 157.814 111.981 157.814 111.981C157.814 112.281 157.537 112.415 157.684 112.915C159.715 119.635 172.102 141.735 172.328 142.122L173.856 176.724L175.384 220.513L176.911 268.329Z" fill="white"/>
<path opacity="0.1" d="M171.811 143.108C169.775 142.309 158.994 130.724 158.994 130.724V128.087C158.602 127.219 156.271 127.748 154.379 128.357L155.191 112.341L156.114 113.062C158.136 119.778 171.575 142.721 171.811 143.108Z" fill="black"/>
<path d="M172.323 142.148C170.283 141.349 159.502 129.764 159.502 129.764V127.127C159.11 126.259 156.779 126.789 154.887 127.397L155.704 111.381L156.627 112.102C158.653 118.818 172.097 141.766 172.323 142.148Z" fill="white"/>
<path opacity="0.1" d="M141.165 199.924C141.419 199.924 154.323 198.646 154.323 198.646C154.323 198.646 162.137 213.107 161.625 216.625C161.112 220.144 160.185 223.258 157.042 222.706C153.899 222.155 140.127 223.141 140.127 223.141L141.165 199.924Z" fill="black"/>
<path d="M140.654 198.964C140.907 198.964 153.812 197.687 153.812 197.687C153.812 197.687 161.621 212.151 161.113 215.665C160.605 219.179 159.668 222.298 156.53 221.746C153.392 221.195 139.615 222.181 139.615 222.181L140.654 198.964Z" fill="white"/>
<path d="M150.377 192.175C150.377 192.175 162.22 198.165 162.473 199.993C162.727 201.822 156.446 199.194 155.089 198.877C154.196 198.675 153.287 198.541 152.371 198.478L143.32 198.708L150.377 192.175Z" fill="#CF6F80"/>
<path opacity="0.1" d="M168.506 143.855C169.194 143.855 169.752 143.33 169.752 142.683C169.752 142.035 169.194 141.51 168.506 141.51C167.818 141.51 167.26 142.035 167.26 142.683C167.26 143.33 167.818 143.855 168.506 143.855Z" fill="black"/>
<path d="M168.506 143.377C169.194 143.377 169.752 142.852 169.752 142.205C169.752 141.557 169.194 141.032 168.506 141.032C167.818 141.032 167.26 141.557 167.26 142.205C167.26 142.852 167.818 143.377 168.506 143.377Z" fill="#3F3D56"/>
<path opacity="0.1" d="M170.801 194.624C171.489 194.624 172.047 194.099 172.047 193.452C172.047 192.804 171.489 192.279 170.801 192.279C170.113 192.279 169.555 192.804 169.555 193.452C169.555 194.099 170.113 194.624 170.801 194.624Z" fill="black"/>
<path d="M170.801 194.142C171.489 194.142 172.047 193.617 172.047 192.97C172.047 192.322 171.489 191.797 170.801 191.797C170.113 191.797 169.555 192.322 169.555 192.97C169.555 193.617 170.113 194.142 170.801 194.142Z" fill="#3F3D56"/>
<path opacity="0.1" d="M169.748 169.24C170.436 169.24 170.994 168.715 170.994 168.067C170.994 167.42 170.436 166.895 169.748 166.895C169.06 166.895 168.502 167.42 168.502 168.067C168.502 168.715 169.06 169.24 169.748 169.24Z" fill="black"/>
<path d="M169.748 168.762C170.436 168.762 170.994 168.237 170.994 167.589C170.994 166.942 170.436 166.417 169.748 166.417C169.06 166.417 168.502 166.942 168.502 167.589C168.502 168.237 169.06 168.762 169.748 168.762Z" fill="#3F3D56"/>
<path d="M198.472 198.234C198.472 198.234 199.321 199.433 198.472 199.994C197.623 200.554 198.555 201.909 198.555 201.909C198.555 201.909 196.437 203.078 197.369 204.129C198.301 205.18 197.711 209.928 197.711 209.928L195.163 213.898C195.163 213.898 195.315 216.456 195.325 219.914C195.325 225.309 194.988 232.893 193.123 236.351L193.382 264.719C193.382 264.719 184.46 267.786 176.993 266.852L175.885 221.33C175.885 221.33 177.501 195.515 178.096 190.563C178.444 187.993 178.586 185.401 178.521 182.81C178.521 182.81 178.267 175.061 177.413 171.464C177.413 171.464 176.49 155.883 176.398 151.57C176.356 149.507 176.471 143.486 176.601 137.761C176.744 131.502 176.905 125.599 176.905 125.599L175.221 113.054C175.221 113.054 176.905 112.893 177.413 113.532C177.64 113.732 177.888 113.911 178.151 114.066C181.059 115.917 191.332 121.607 191.332 121.607C191.332 121.607 197.018 123.735 198.38 126.785C199.741 129.834 200.687 131.997 201.347 132.866C202.007 133.735 202.367 137.818 202.367 137.818C202.367 137.818 204.324 145.332 205.852 146.605C207.38 147.878 208.496 155.974 208.496 155.974L194.997 165.965C194.997 165.965 193.811 182.584 193.557 183.227C193.303 183.87 198.472 198.234 198.472 198.234Z" fill="white"/>
<path d="M198.986 198.234C198.986 198.234 199.83 199.433 198.986 199.993C198.141 200.554 199.064 201.909 199.064 201.909C199.064 201.909 196.959 203.09 197.882 204.142C198.806 205.193 198.224 209.94 198.224 209.94L195.676 213.911C195.676 213.911 195.829 216.469 195.843 219.927C195.843 225.322 195.506 232.906 193.641 236.363L193.895 264.732C193.895 264.732 184.96 267.799 177.502 266.865L176.399 221.343C176.399 221.343 178.014 195.528 178.609 190.576C178.958 188.005 179.099 185.413 179.029 182.823C179.029 182.823 178.775 175.073 177.926 171.477C177.926 171.477 177.003 155.896 176.906 151.583C176.865 149.519 176.985 143.499 177.109 137.774C177.252 131.515 177.414 125.612 177.414 125.612L175.189 112.897C175.189 112.897 177.414 112.897 177.926 113.545C178.152 113.747 178.399 113.926 178.665 114.079C181.572 115.929 191.85 121.62 191.85 121.62C191.85 121.62 197.532 123.748 198.893 126.797C200.255 129.847 201.201 132.01 201.865 132.879C202.53 133.747 202.881 137.83 202.881 137.83C202.881 137.83 204.838 145.345 206.365 146.618C207.893 147.89 208.996 155.97 208.996 155.97L195.496 165.96C195.496 165.96 194.31 182.579 194.052 183.222C193.793 183.865 198.986 198.234 198.986 198.234Z" fill="white"/>
<path opacity="0.1" d="M182.818 129.299L184.036 132.644L177.621 138.725C177.764 132.47 177.926 126.563 177.926 126.563L175.701 113.849C175.701 113.849 177.926 113.849 178.438 114.496C178.663 114.698 178.91 114.875 179.176 115.026L184.632 129.838L182.818 129.299Z" fill="black"/>
<path d="M182.306 128.339L183.529 131.684L177.114 137.765C177.257 131.506 177.419 125.603 177.419 125.603L175.189 112.889C175.189 112.889 177.419 112.889 177.926 113.536C178.153 113.737 178.4 113.916 178.665 114.07L184.125 128.878L182.306 128.339Z" fill="white"/>
<path opacity="0.1" d="M182.306 95.2447C182.31 96.81 182.048 98.3658 181.531 99.8534C181.444 99.8662 181.355 99.8625 181.269 99.8423C181.183 99.8222 181.103 99.7861 181.032 99.7361C180.912 95.8268 178.868 92.1564 176.353 89.0332C175.646 88.0903 174.79 87.2552 173.814 86.5573C172.827 85.8598 171.6 85.533 170.371 85.6408C168.987 85.8189 167.764 86.705 166.365 86.8179C164.519 86.9613 162.867 85.7581 161.035 85.6973C160.29 85.7039 159.555 85.86 158.879 86.1551C158.204 86.4503 157.603 86.8776 157.116 87.4087C156.154 88.4804 155.439 89.7289 155.016 91.0748C154.291 93.1156 153.896 95.2477 153.844 97.3992C153.821 98.6155 153.696 100.14 152.497 100.583C152.587 99.6887 152.479 98.7863 152.179 97.9332C151.88 97.08 151.395 96.2947 150.757 95.627L150.729 95.6009C150.729 95.4793 150.729 95.3664 150.729 95.2447C150.693 93.2717 151.075 91.3116 151.852 89.4789C152.63 87.6462 153.787 85.9776 155.257 84.5703C156.727 83.163 158.48 82.0453 160.414 81.2824C162.347 80.5194 164.423 80.1265 166.52 80.1265C168.617 80.1265 170.692 80.5194 172.626 81.2824C174.56 82.0453 176.313 83.163 177.782 84.5703C179.252 85.9776 180.41 87.6462 181.187 89.4789C181.965 91.3116 182.347 93.2717 182.311 95.2447H182.306Z" fill="black"/>
<path d="M173.056 71.6453C170.658 70.5835 167.93 70.3827 165.386 71.0806C164.107 71.4368 162.903 72.0145 161.606 72.3055C158.837 72.9353 155.606 72.2534 153.229 73.778C151.909 74.6468 151.116 76.0194 150.377 77.3529L148.531 80.6628C147.525 82.4741 146.51 84.3159 146.09 86.3096C145.67 88.3034 145.923 90.5361 147.266 92.1389C148.245 93.3074 149.689 94.0415 150.751 95.1404C151.387 95.8089 151.869 96.5937 152.168 97.4458C152.466 98.2979 152.575 99.1989 152.486 100.092C153.691 99.6579 153.806 98.1289 153.834 96.9126C153.885 94.7611 154.281 92.6291 155.006 90.5882C155.427 89.2419 156.143 87.9932 157.106 86.9221C157.593 86.3915 158.194 85.9644 158.869 85.6693C159.545 85.3742 160.28 85.2179 161.024 85.2107C162.871 85.2715 164.527 86.4704 166.355 86.327C167.74 86.2184 168.967 85.328 170.361 85.1542C171.59 85.0448 172.818 85.3717 173.804 86.0707C174.78 86.7675 175.634 87.6028 176.338 88.5467C178.858 91.6698 180.902 95.3315 181.022 99.2496C181.544 99.6101 182.296 99.141 182.554 98.585C182.813 98.029 182.822 97.3774 183.15 96.8475C183.528 96.235 184.253 95.9092 184.82 95.4488C186.26 94.2804 186.62 92.3127 186.565 90.5274C186.51 88.7421 186.14 86.9308 186.5 85.1759C186.717 84.0987 187.207 83.0909 187.474 82.0267C187.742 80.9625 187.774 79.768 187.142 78.8515C186.219 77.5049 184.276 77.24 182.582 77.114C180.658 76.9576 178.936 77.1574 177.708 75.6328C177.132 74.8372 176.484 74.0901 175.77 73.4001C175.525 73.1742 173.056 71.7408 173.056 71.6453Z" fill="#512E4E"/>
<path opacity="0.1" d="M122.893 163.246L118.071 154.854L116.543 167.802C116.543 167.802 117.392 173.553 117.221 174.435C117.051 175.317 120.701 183.222 120.701 183.222C120.701 183.222 132.761 203.438 137.685 204.48L154.323 193.291L149.911 188.018C149.911 188.018 148.383 187.457 148 188.018C148 188.018 139.808 174.752 138.959 173.792C138.11 172.832 138.276 170.917 138.276 170.917C138.276 170.917 137.002 169.64 137.427 168.441C137.851 167.242 134.967 163.085 134.967 163.085L137.598 160.77L122.893 163.246Z" fill="black"/>
<path d="M118.325 153.898L117.051 154.854L115.523 167.802C115.523 167.802 116.373 173.553 116.202 174.435C116.031 175.317 119.686 183.222 119.686 183.222C119.686 183.222 131.741 203.438 136.666 204.481L153.308 193.291L148.891 188.018C148.891 188.018 147.364 187.458 146.981 188.018C146.981 188.018 138.789 174.752 137.94 173.792C137.09 172.832 137.261 170.917 137.261 170.917C137.261 170.917 135.987 169.64 136.412 168.441C136.837 167.242 133.947 163.085 133.947 163.085L136.578 160.77L118.325 153.898Z" fill="white"/>
<path opacity="0.1" d="M197.369 204.624C198.292 205.679 197.71 210.418 197.71 210.418L195.163 214.389C195.163 214.389 195.315 216.951 195.324 220.405L191.041 221.664C190.654 221.778 190.244 221.803 189.844 221.737C189.445 221.671 189.068 221.517 188.745 221.286C188.422 221.055 188.163 220.755 187.988 220.41C187.813 220.066 187.729 219.687 187.741 219.306L188.48 196.888L198.472 200.484C197.623 201.04 198.555 202.404 198.555 202.404C198.555 202.404 196.437 203.568 197.369 204.624Z" fill="black"/>
<path d="M197.881 204.141C198.804 205.197 198.223 209.94 198.223 209.94L195.675 213.911C195.675 213.911 195.827 216.469 195.841 219.927L191.48 221.208C191.101 221.319 190.699 221.343 190.308 221.278C189.917 221.213 189.548 221.062 189.232 220.835C188.916 220.609 188.662 220.316 188.491 219.978C188.32 219.641 188.237 219.271 188.249 218.897L188.992 196.41L198.989 200.006C198.135 200.562 199.067 201.922 199.067 201.922C199.067 201.922 196.958 203.09 197.881 204.141Z" fill="white"/>
<path d="M201.191 193.456C201.191 193.456 200.512 197.535 198.814 197.774C197.116 198.013 196.354 204.372 194.66 204.146C192.966 203.92 194.088 198.234 194.148 197.131C194.208 196.028 192.302 191.458 193.728 190.42C195.154 189.382 199.668 190.42 199.668 190.42L201.191 193.456Z" fill="#CF6F80"/>
<path opacity="0.1" d="M204.805 162.047L208.008 155.965C208.008 155.965 209.282 160.6 209.282 163.076C209.282 165.552 211.063 165.795 211.063 165.795C211.063 165.795 213.015 167.967 211.986 169.548C210.957 171.129 210.542 175.065 210.542 175.065C210.542 175.065 210.878 182.575 209.351 183.613C207.823 184.651 207.505 187.131 207.505 187.131C207.505 187.131 204.699 191.844 204.786 192.965C204.874 194.086 200.882 201.674 200.882 201.674C200.882 201.674 202.834 192.244 191.458 188.17C191.458 188.17 191.37 184.968 192.219 184.091C193.068 183.213 194.393 182.814 193.562 178.379C192.731 173.944 193.322 168.645 193.322 167.58C193.322 166.516 195.87 159.879 195.87 159.879L204.805 162.047Z" fill="black"/>
<path d="M206.189 155.097L208.986 155.965C208.986 155.965 210.265 160.6 210.265 163.076C210.265 165.552 212.046 165.795 212.046 165.795C212.046 165.795 213.998 167.967 212.969 169.548C211.94 171.129 211.529 175.065 211.529 175.065C211.529 175.065 211.866 182.575 210.338 183.613C208.811 184.651 208.469 187.132 208.469 187.132C208.469 187.132 205.668 191.845 205.756 192.965C205.843 194.086 201.846 201.674 201.846 201.674C201.846 201.674 203.803 192.244 192.422 188.17C192.422 188.17 192.339 184.968 193.188 184.091C194.037 183.214 195.362 182.814 194.531 178.379C193.701 173.944 194.291 168.645 194.291 167.581C194.291 166.516 196.839 159.879 196.839 159.879L206.189 155.097Z" fill="white"/>
<path opacity="0.1" d="M144.414 312.717C144.414 312.717 148.872 310.08 151.798 311.996C154.724 313.912 144.414 312.717 144.414 312.717Z" fill="black"/>
<path opacity="0.1" d="M179.057 304.564C179.057 304.564 183.003 304.086 186.316 307.444C189.63 310.802 179.057 304.564 179.057 304.564Z" fill="black"/>
<g opacity="0.1">
<path d="M184.831 94.4974C184.263 94.9579 183.534 95.288 183.156 95.9005C182.832 96.4261 182.823 97.0733 182.565 97.638C182.306 98.2026 181.554 98.6631 181.033 98.3069C180.913 94.3975 178.863 90.7271 176.348 87.5996C175.645 86.6558 174.79 85.8205 173.814 85.1237C172.827 84.4247 171.597 84.0979 170.367 84.2072C168.982 84.3853 167.764 85.2714 166.365 85.38C164.519 85.5277 162.862 84.3245 161.03 84.2637C160.286 84.2706 159.551 84.4273 158.876 84.7232C158.201 85.0192 157.601 85.4475 157.116 85.9794C156.153 87.0489 155.438 88.2962 155.017 89.6412C154.291 91.6821 153.896 93.8141 153.844 95.9656C153.817 97.1775 153.697 98.6891 152.506 99.1409C152.534 99.4618 152.534 99.7843 152.506 100.105C153.706 99.6708 153.826 98.1418 153.854 96.9256C153.905 94.774 154.3 92.642 155.026 90.6011C155.447 89.2549 156.162 88.0062 157.126 86.935C157.611 86.4045 158.212 85.9775 158.887 85.6824C159.561 85.3873 160.295 85.2309 161.039 85.2236C162.885 85.2844 164.547 86.4833 166.375 86.3399C167.759 86.2314 168.987 85.3409 170.376 85.1671C171.606 85.0579 172.836 85.3847 173.824 86.0837C174.799 86.7805 175.654 87.6158 176.357 88.5596C178.873 91.6827 180.922 95.3445 181.042 99.2625C181.563 99.623 182.316 99.1539 182.574 98.5979C182.832 98.0419 182.842 97.3904 183.165 96.8604C183.543 96.248 184.272 95.9222 184.84 95.4617C186.28 94.2933 186.64 92.3256 186.585 90.5403C186.585 90.4839 186.585 90.4274 186.585 90.3753C186.497 91.9216 186.058 93.4984 184.831 94.4974Z" fill="black"/>
<path d="M150.761 94.1889C149.7 93.09 148.251 92.3559 147.277 91.1918C146.457 90.1612 145.988 88.9207 145.934 87.6343C145.789 89.2419 146.266 90.8447 147.277 92.1474C148.251 93.3159 149.7 94.0499 150.761 95.1489C151.78 96.2239 152.392 97.5864 152.501 99.0235C152.572 98.1489 152.454 97.2699 152.155 96.4392C151.856 95.6084 151.382 94.8431 150.761 94.1889Z" fill="black"/>
<path d="M187.485 81.0754C187.212 82.1396 186.728 83.1517 186.506 84.2246C186.375 84.9415 186.327 85.6697 186.363 86.3964C186.379 85.9825 186.426 85.5702 186.506 85.1628C186.728 84.0856 187.212 83.0778 187.485 82.0136C187.643 81.4267 187.695 80.8186 187.637 80.2153C187.608 80.5051 187.557 80.7925 187.485 81.0754Z" fill="black"/>
</g>
<path opacity="0.1" d="M61.2578 330.379C86.0944 330.379 106.228 327.335 106.228 323.581C106.228 319.826 86.0944 316.783 61.2578 316.783C36.4212 316.783 16.2871 319.826 16.2871 323.581C16.2871 327.335 36.4212 330.379 61.2578 330.379Z" fill="#00C9A7"/>
<path d="M62.7062 193.356H59.8125V254.677H62.7062V193.356Z" fill="#535461"/>
<path d="M80.8899 254.489L80.71 257.252L80.4515 261.161L80.3454 262.786L80.0915 266.695L79.9808 268.32L79.7223 272.229L76.8055 316.565C76.6787 318.473 75.7844 320.263 74.3045 321.572C72.8246 322.881 70.8704 323.61 68.8396 323.611H53.674C51.6437 323.61 49.69 322.881 48.2109 321.572C46.7318 320.263 45.8384 318.473 45.7128 316.565L42.8098 272.199L42.5513 268.289L42.4452 266.665L42.1867 262.755L42.0806 261.131L41.8221 257.222L41.6375 254.459C41.6055 253.927 41.6892 253.395 41.8835 252.895C42.0778 252.395 42.3787 251.937 42.7677 251.55C43.1566 251.164 43.6254 250.856 44.1454 250.645C44.6653 250.435 45.2254 250.327 45.7912 250.328H76.8101C77.3738 250.333 77.9306 250.446 78.446 250.661C78.9614 250.876 79.4245 251.188 79.8068 251.578C80.1891 251.968 80.4825 252.427 80.6688 252.928C80.8551 253.429 80.9303 253.96 80.8899 254.489Z" fill="#3F3D56"/>
<path d="M80.711 257.252L80.4525 261.148H42.0631L41.8047 257.252H80.711Z" fill="#9D9CB5"/>
<path d="M80.347 262.773L80.0932 266.674H42.4284L42.1699 262.773H80.347Z" fill="#9D9CB5"/>
<path d="M79.9811 268.303L79.7272 272.199H42.7917L42.5332 268.303H79.9811Z" fill="#9D9CB5"/>
<path d="M37.3888 216.339C54.239 227.815 61.2726 245.763 61.2726 245.763C61.2726 245.763 40.9656 245.107 24.1108 233.631C7.25607 222.155 0.236328 204.211 0.236328 204.211C0.236328 204.211 20.5341 204.862 37.3888 216.339Z" fill="#00C9A7"/>
<path d="M0.220703 204.211C0.220703 204.211 21.303 215.222 28.0643 224.34C34.8256 233.457 61.2708 245.763 61.2708 245.763" stroke="#535461" stroke-width="2" stroke-miterlimit="10"/>
<path d="M48.2669 193.222C57.4373 199.464 61.2725 209.233 61.2725 209.233C61.2725 209.233 50.2191 208.876 41.044 202.634C31.869 196.392 28.043 186.619 28.043 186.619C28.043 186.619 39.0918 186.975 48.2669 193.222Z" fill="#00C9A7"/>
<path d="M28.043 186.619C28.043 186.619 39.5164 192.613 43.1947 197.574C46.8731 202.535 61.2725 209.233 61.2725 209.233" stroke="#535461" stroke-width="2" stroke-miterlimit="10"/>
<path d="M74.586 208.738C64.0495 219.636 61.8203 233.879 61.8203 233.879C61.8203 233.879 76.6767 230.447 87.204 219.545C97.7313 208.642 99.9697 194.403 99.9697 194.403C99.9697 194.403 85.1225 197.839 74.586 208.738Z" fill="#00C9A7"/>
<path d="M99.9789 194.407C99.9789 194.407 86.2533 205.579 82.7642 213.276C79.2751 220.973 61.8203 233.879 61.8203 233.879" stroke="#535461" stroke-width="2" stroke-miterlimit="10"/>
<path d="M461.369 204.902C461.369 204.902 453.749 169.223 456.666 164.783C456.666 164.783 456.772 160.657 456.597 155.397C456.597 155.197 456.597 154.997 456.597 154.793C457.11 155.115 457.645 155.405 458.198 155.662C460.886 156.961 463.971 157.336 466.921 156.721L464.614 154.302C464.06 153.724 463.483 153.099 463.363 152.334C463.243 151.57 463.575 150.888 463.861 150.206C466.054 144.993 466.169 138.439 461.946 134.46C458.378 131.115 457.511 126.798 453.639 123.744C450.81 121.507 449.254 118.227 447.787 115.057C446.545 112.376 445.294 109.675 444.584 106.834C444.03 104.614 443.808 102.316 443.047 100.149C442.285 97.9814 440.859 95.8747 438.63 94.9061C437.836 94.5629 436.955 94.3674 436.23 93.9113C435.279 93.3076 434.707 92.3259 434.019 91.4658C430.526 87.1221 418.826 89.6806 413.288 91.4441C411.782 91.8882 410.388 92.6153 409.189 93.5812L409.24 93.503C409.282 93.4379 409.333 93.3727 409.379 93.3076C408.772 93.7689 408.249 94.3189 407.828 94.9365C407.02 96.1397 406.683 97.5427 406.01 98.8458C405.197 100.388 400.679 104.692 402.622 106.426C402.758 106.542 402.914 106.636 403.084 106.704C403.813 106.989 404.616 107.065 405.391 106.921L405.308 107.108C404.644 108.637 404.304 110.273 404.307 111.925C404.307 119.061 410.56 124.847 418.281 124.847C419.733 124.849 421.176 124.639 422.56 124.226C422.592 124.391 422.62 124.556 422.652 124.721C422.652 124.786 422.675 124.852 422.684 124.917L422.44 125.238C422.428 125.218 422.414 125.2 422.398 125.182L415.152 134.712C414.045 135.446 407.666 139.79 407.306 143.047C406.928 146.614 406.55 150.788 406.55 150.788L406.499 151.683C406.182 151.932 405.812 152.113 405.413 152.214C405.015 152.316 404.598 152.334 404.191 152.269C401.93 151.922 401.93 160.088 401.93 160.088C401.93 160.088 400.425 161.391 399.391 160.262C398.358 159.132 395.625 162.959 395.625 162.959L378.503 163.654L378.111 163.676L377.188 160.987C377.088 160.703 376.874 160.468 376.591 160.332C376.309 160.196 375.981 160.171 375.678 160.262C375.607 160.284 375.537 160.311 375.471 160.344L375.406 160.379L375.286 160.457L375.226 160.509C375.193 160.537 375.162 160.568 375.134 160.6L375.078 160.661L375.051 160.687C374.944 160.826 374.874 160.986 374.845 161.155C374.816 161.324 374.83 161.497 374.885 161.66L375.678 163.967C372.374 164.592 368.996 166.356 371.751 171.212L357.785 168.784L362.303 172.355L385.629 176.885C385.32 177.406 385.523 178.162 386.487 179.226C390.641 183.818 398.21 185.064 401.256 185.386C402.06 187.079 403.065 188.682 404.251 190.164L403.988 194.738C403.988 194.738 396.276 229.6 394.864 231.368C395.577 230.608 396.229 229.799 396.816 228.949C394.578 236.112 391.449 245.915 390.627 247.384C389.307 249.729 388.084 259.22 389.589 259.828C390.05 260.015 391.37 259.924 393.253 259.789V260.575L393.17 290.369C393.17 290.369 393.548 308.643 392.51 310.385C391.472 312.127 391.195 315.78 391.195 315.78C391.195 315.78 387.041 322.986 383.75 325.883C383.728 325.906 383.703 325.926 383.677 325.944L383.575 325.266C383.575 325.266 379.62 329.966 370.869 329.701C370.869 329.701 365.603 332.924 373.412 333.098C381.221 333.272 391.195 332.837 391.195 332.837C391.195 332.837 398.159 322.847 403.993 324.15V331.721H405.779V324.028C406.607 323.515 407.316 322.849 407.863 322.07C408.409 321.291 408.782 320.416 408.959 319.498C409.112 318.551 409 317.583 408.634 316.69C408.268 315.796 407.661 315.008 406.873 314.403C406.518 314.101 406.234 313.734 406.038 313.325C405.842 312.915 405.738 312.472 405.733 312.022L405.668 312.074C405.668 311.922 405.627 311.766 405.608 311.605C405.096 307.696 404.454 299.63 406.72 293.661C409.826 285.478 410.768 274.08 408.506 267.295C407.777 265.126 407.177 262.921 406.711 260.688C406.656 260.406 406.605 260.137 406.559 259.885C408.105 260.082 409.635 260.372 411.142 260.753C416.38 262.113 427.84 262.365 437.624 262.291C437.647 262.543 437.675 262.808 437.707 263.073C437.881 264.915 438.246 266.736 438.796 268.511C440.024 271.986 440.587 287.307 440.587 287.307C440.587 287.307 442.17 299.903 441.307 305.029C440.845 307.878 440.384 310.741 440.121 313.617V313.673C440.121 313.673 437.527 320.623 435.63 324.398C435.584 324.493 435.533 324.589 435.487 324.68C434.981 324.723 434.483 324.827 434.005 324.988C434.005 324.988 431.462 329.766 428.929 330.557C426.395 331.348 427.235 333.949 432.972 332.994C438.708 332.038 447.371 331.256 447.371 331.256L447.745 326.383L449.508 324.306L449.046 329.167L450.925 328.82L450.676 322.908L453.56 319.511C453.56 319.511 457.045 316.592 451.866 310.85V310.976C451.811 310.893 451.76 310.806 451.7 310.724V310.698C450.842 309.447 450.159 307.114 451.409 302.974C453.671 295.495 454.986 288.705 454.986 288.705C454.986 288.705 460.035 270.518 453.966 261.913H454.234C453.612 260.702 453.172 259.416 452.928 258.091C452.897 257.934 452.869 257.774 452.845 257.609C457.335 257.365 461.743 256.601 465.338 254.95C465.324 254.933 463.16 211.774 461.369 204.902ZM404.357 174.8V174.887L403.434 174.93L404.357 174.8ZM401.191 175.213C401.04 175.244 400.897 175.308 400.776 175.399C400.379 175.928 400.13 176.542 400.051 177.185L398.611 176.881C398.611 176.881 397.601 176.677 396.147 176.446L395.459 175.795C397.351 175.647 399.318 175.43 401.191 175.213Z" fill="url(#paint1_linear_8814_27139)"/>
<path d="M448.834 322.968L448.285 329.123L450.127 328.776L449.85 322.1L448.834 322.968Z" fill="#1D2366"/>
<path d="M406.823 293.744C404.603 299.695 405.231 307.726 405.729 311.627C405.914 313.069 406.084 313.946 406.084 313.946C406.084 313.946 402.766 321.061 402.489 321.331C402.212 321.6 392.723 327.051 392.723 327.051L386.091 330.696C386.091 330.696 379.362 327.92 382.588 326.964C383.247 326.716 383.841 326.335 384.328 325.848C387.559 322.96 391.616 315.779 391.616 315.779C391.616 315.779 391.893 312.135 392.908 310.402C393.923 308.669 393.554 290.456 393.554 290.456L393.632 260.766V256.896L406.255 256.983C406.335 258.297 406.517 259.603 406.8 260.892C407.253 263.117 407.84 265.315 408.558 267.477C410.783 274.249 409.86 285.591 406.823 293.744Z" fill="#FFB0B1"/>
<path opacity="0.1" d="M406.084 313.947C406.084 313.947 402.766 321.062 402.489 321.331C402.212 321.6 392.723 327.052 392.723 327.052L386.091 330.696C386.091 330.696 379.362 327.92 382.588 326.965C383.247 326.716 383.841 326.335 384.328 325.848L384.614 327.747L386.825 327.66L405.747 311.636C405.914 313.069 406.084 313.947 406.084 313.947Z" fill="black"/>
<path d="M405.852 312.04L386.824 328.172L384.613 328.259L384.152 325.218C384.152 325.218 380.284 329.901 371.69 329.64C371.69 329.64 366.531 332.85 374.178 333.024C381.825 333.198 391.591 332.763 391.591 332.763C391.591 332.763 398.413 322.773 404.122 324.076V331.621H405.875V324.006C406.691 323.49 407.387 322.823 407.921 322.047C408.456 321.271 408.818 320.401 408.986 319.489C409.138 318.55 409.03 317.59 408.674 316.702C408.318 315.813 407.724 315.026 406.951 314.416C406.605 314.111 406.33 313.743 406.141 313.334C405.952 312.926 405.854 312.485 405.852 312.04Z" fill="#1D2366"/>
<path d="M450.588 303.022C449.36 307.148 450.029 309.472 450.869 310.719V310.745C451.947 312.284 452.696 314.006 453.075 315.814L453.149 316.205L444.491 328.085L439.793 329.822C439.793 329.822 432.238 327.394 433.618 326.699C433.964 326.53 434.504 325.626 435.122 324.38C436.968 320.622 439.516 313.69 439.516 313.69V313.633C439.784 310.771 440.208 307.917 440.679 305.076C441.523 299.964 439.973 287.415 439.973 287.415C439.973 287.415 439.419 272.155 438.219 268.685C437.677 266.92 437.317 265.111 437.144 263.281C436.894 261.109 436.839 259.32 436.839 259.32C436.839 259.32 441.814 252.804 450.934 259.841C451.663 260.402 452.305 261.057 452.84 261.787C459.14 270.222 454.068 288.805 454.068 288.805C454.068 288.805 452.798 295.564 450.588 303.022Z" fill="#FFB0B1"/>
<path opacity="0.1" d="M453.163 316.205L444.505 328.085L439.806 329.823C439.806 329.823 432.251 327.395 433.631 326.7C433.977 326.53 434.517 325.627 435.136 324.38C438.334 324.354 439.991 327.221 439.991 327.221L444.043 326.613C444.043 326.613 449.388 316.726 450.588 316.123C451.788 315.519 450.772 311.609 450.772 311.609V310.615C450.805 310.649 450.832 310.689 450.869 310.723V310.749C451.946 312.289 452.696 314.01 453.075 315.819L453.163 316.205Z" fill="black"/>
<path d="M440.268 327.477C440.268 327.477 437.96 323.49 433.539 324.962C433.539 324.962 431.051 329.74 428.564 330.513C426.076 331.287 426.907 333.893 432.528 332.941C438.15 331.99 446.623 331.204 446.623 331.204L446.992 326.343L452.706 319.493C452.706 319.493 456.112 316.587 451.045 310.867V311.861C451.045 311.861 452.06 315.771 450.86 316.375C449.66 316.978 444.334 326.869 444.334 326.869L440.268 327.477Z" fill="#1D2366"/>
<path opacity="0.1" d="M406.269 256.975C406.349 258.288 406.531 259.595 406.814 260.884C401.617 260.167 396.794 260.523 393.633 260.758V256.888L406.269 256.975Z" fill="black"/>
<path opacity="0.1" d="M453.352 262.869C453.352 262.869 445.968 263.208 437.162 263.277C436.913 261.105 436.857 259.316 436.857 259.316C436.857 259.316 441.833 252.8 450.952 259.837C451.682 260.398 452.323 261.053 452.858 261.783C453.001 262.153 453.166 262.516 453.352 262.869Z" fill="black"/>
<path d="M453.352 262.087C453.352 262.087 421.008 263.559 411.15 260.957C401.292 258.356 391.522 260.61 390.05 260.006C388.577 259.402 389.773 249.946 391.065 247.605C392.357 245.264 399.446 221.586 399.446 221.586L406.267 188.113L413.453 186.25L413.961 186.115L426.482 182.866L435.657 180.481C435.657 180.481 453.901 247.518 452.336 252.461C451.768 254.354 451.677 256.345 452.069 258.277C452.308 259.597 452.74 260.879 453.352 262.087Z" fill="#1D2366"/>
<path d="M382.492 165.222C382.492 165.222 376.03 171.737 380.922 175.369C385.815 179 389.031 175.716 389.031 175.716L382.492 165.222Z" fill="#C7DAF5"/>
<path opacity="0.1" d="M382.492 165.222C382.492 165.222 376.03 171.737 380.922 175.369C385.815 179 389.031 175.716 389.031 175.716L382.492 165.222Z" fill="black"/>
<path d="M434.694 122.384C434.694 122.384 433.937 123.062 432.797 124.061C431.172 125.49 428.768 127.579 426.636 129.33C423.682 131.749 421.245 133.526 422.117 132.01C422.989 130.494 422.823 127.853 422.39 125.382C422.357 125.216 422.33 125.051 422.297 124.891C421.938 123.075 421.462 121.283 420.871 119.522C420.871 119.522 425.643 113.719 428.283 111.429C429.266 110.561 429.954 110.205 429.995 110.808C430.042 111.621 430.688 113.415 431.491 115.317C431.514 115.378 431.537 115.434 431.565 115.495C432.1 116.798 432.705 118.136 433.235 119.292C434.048 121.064 434.694 122.384 434.694 122.384Z" fill="#FFB0B1"/>
<path opacity="0.1" d="M431.565 115.495C431.116 117.765 430.028 119.88 428.414 121.619C426.8 123.359 424.719 124.658 422.39 125.381C422.023 123.398 421.515 121.441 420.871 119.522C420.871 119.522 429.857 108.597 429.995 110.808C430.028 111.646 430.729 113.506 431.565 115.495Z" fill="black"/>
<path opacity="0.1" d="M421.494 128.3L422.657 126.758C422.657 126.758 423.428 131.18 426.262 129.23C429.095 127.28 429.234 143.907 429.234 143.907L426.193 186.706L404.215 185.468L404.838 164.788L407.325 154.363L413.478 139.207L417.137 134.199L421.494 128.3Z" fill="black"/>
<path d="M429.234 144.172L426.465 182.87L426.174 186.971L413.92 186.28L413.459 186.254L404.229 185.733L404.852 165.048L407.339 154.623L413.491 139.468L417.151 134.46L421.508 128.539L422.671 127.001C422.671 127.001 423.442 131.423 426.275 129.473L426.335 129.434C429.105 127.783 429.234 144.172 429.234 144.172Z" fill="#1D2366"/>
<path d="M407.648 151C407.648 151 406.545 153.172 404.33 152.821C402.115 152.469 402.119 160.639 402.119 160.639C402.119 160.639 400.647 161.942 399.632 160.813C398.617 159.684 395.94 163.502 395.94 163.502L379.168 164.197C379.168 164.197 386.631 167.407 385.168 177.119C385.168 177.119 410.505 175.642 411.336 173.388C412.167 171.134 407.648 151 407.648 151Z" fill="white"/>
<path opacity="0.03" d="M407.648 151C407.648 151 406.545 153.172 404.33 152.821C402.115 152.469 402.119 160.639 402.119 160.639C402.119 160.639 400.647 161.942 399.632 160.813C398.617 159.684 395.94 163.502 395.94 163.502L379.168 164.197C379.168 164.197 386.631 167.407 385.168 177.119C385.168 177.119 410.505 175.642 411.336 173.388C412.167 171.134 407.648 151 407.648 151Z" fill="black"/>
<path d="M358.906 169.301L363.328 172.854L399.723 180.051L395.21 175.716L358.906 169.301Z" fill="white"/>
<path d="M421.563 129.669C420.959 130.538 419.228 134.986 417.783 138.869C416.579 142.105 415.573 144.95 415.573 144.95C415.573 144.95 413.223 159.345 412.023 161.947C410.824 164.549 411.474 174.696 411.474 174.696L407.002 199.755C407.002 199.755 404.976 212.677 401.847 220.396C398.759 227.993 395.321 231.555 395.215 231.668C396.599 229.904 404.145 195.181 404.145 195.181L406.638 151.387C406.638 151.387 407.002 147.226 407.371 143.669C407.741 140.111 415.217 135.255 415.217 135.255L422.426 125.607C423.151 126.52 422.666 128.109 421.563 129.669Z" fill="white"/>
<path d="M402.765 185.95C402.765 185.95 392.15 185.516 387.008 179.704C381.867 173.892 398.893 177.384 398.893 177.384L403.319 178.34L402.765 185.95Z" fill="#FFB0B1"/>
<path opacity="0.1" d="M452.338 252.465C451.77 254.358 451.678 256.349 452.071 258.281C440.491 259.055 428.104 256.11 428.104 256.11C425.796 258.108 419.718 261.053 419.718 261.053L416.404 222.394C414.286 217.181 413.455 189.872 413.455 189.872C413.455 189.872 413.644 188.443 413.917 186.302C413.917 186.25 413.917 186.193 413.94 186.141C414.766 180.16 416.404 168.931 417.207 167.415C418.315 165.33 413.801 159.783 413.801 159.783L415.855 143.299L416.104 141.31C420.433 139.489 423.752 133.678 423.752 133.678L426.299 129.477C429.068 127.805 429.211 144.194 429.211 144.194L426.442 182.892L435.617 180.507C435.617 180.507 453.903 247.522 452.338 252.465Z" fill="black"/>
<path d="M464.221 255.137C451.599 261.036 428.657 255.571 428.657 255.571C426.349 257.569 420.271 260.514 420.271 260.514L416.952 221.855C414.839 216.643 414.008 189.334 414.008 189.334C414.008 189.334 416.675 168.958 417.783 166.877C418.106 166.269 417.949 165.365 417.566 164.392C415.683 159.761 414.99 154.776 415.545 149.845L416.431 142.761L416.675 140.776C421.009 138.951 424.327 133.139 424.327 133.139L426.635 129.334L430.881 122.323L432.893 119.005L433.235 119.296L435.842 121.52C435.842 121.52 436.95 122.389 438.612 123.692C442.225 126.559 448.47 131.606 451.691 134.694C454.525 137.414 455.42 147.99 455.679 155.953C455.849 161.195 455.748 165.305 455.748 165.305C452.891 169.731 460.363 205.267 460.363 205.267C462.103 212.134 464.221 255.137 464.221 255.137Z" fill="white"/>
<path opacity="0.03" d="M439.993 133.052C439.993 133.052 431.33 148.572 432.336 154.471C433.342 160.37 436.204 167.046 434.824 168.605C434.35 169.196 433.737 169.676 433.033 170.007C432.329 170.337 431.554 170.51 430.767 170.512C429.382 170.599 425.69 173.027 425.69 173.288C425.69 173.549 422.28 173.549 419.229 174.765C416.178 175.981 411.674 176.672 411.674 176.672C411.674 176.672 402.905 176.411 402.088 177.193C401.271 177.975 400.431 182.653 402.18 186.384C403.929 190.116 405.872 192.9 407.34 193.408C408.808 193.916 418.121 190.98 425.676 190.285C433.231 189.59 441.433 183.956 441.433 183.956C441.433 183.956 450.465 180.916 452.048 175.803C453.631 170.69 450.114 142.591 450.114 142.591C450.114 142.591 447.456 129.495 439.993 133.052Z" fill="black"/>
<path opacity="0.03" d="M438.884 131.749C438.884 131.749 430.221 147.274 431.236 153.168C432.252 159.062 435.104 165.743 433.719 167.307C433.247 167.898 432.635 168.378 431.932 168.709C431.229 169.04 430.453 169.213 429.667 169.214C428.283 169.301 424.59 171.729 424.59 171.989C424.59 172.25 421.18 172.25 418.129 173.462C415.078 174.674 410.574 175.369 410.574 175.369C410.574 175.369 401.805 175.108 400.993 175.89C400.18 176.672 399.331 181.354 401.085 185.081C402.839 188.808 404.777 191.597 406.245 192.105C407.712 192.613 417.026 189.677 424.581 188.986C432.136 188.296 440.337 182.653 440.337 182.653C440.337 182.653 449.365 179.613 450.929 174.504C452.494 169.396 448.996 141.288 448.996 141.288C448.996 141.288 446.346 128.196 438.884 131.749Z" fill="black"/>
<path d="M439.72 132.271C439.72 132.271 431.057 147.795 432.072 153.69C433.088 159.584 435.94 166.265 434.56 167.824C434.088 168.417 433.475 168.898 432.771 169.23C432.067 169.562 431.291 169.735 430.503 169.735C429.119 169.822 425.427 172.25 425.427 172.507C425.427 172.763 422.02 172.767 418.965 173.983C415.91 175.2 411.41 175.89 411.41 175.89C411.41 175.89 402.641 175.63 401.824 176.412C401.007 177.193 400.167 181.876 401.917 185.603C403.666 189.33 405.609 192.118 407.076 192.627C408.544 193.135 417.858 190.198 425.413 189.503C432.968 188.808 441.169 183.175 441.169 183.175C441.169 183.175 450.201 180.134 451.784 175.022C453.367 169.909 449.873 141.809 449.873 141.809C449.873 141.809 447.178 128.735 439.72 132.271Z" fill="white"/>
<path opacity="0.1" d="M439.531 173.909C439.531 173.909 432.608 172.606 435.017 174.778C437.426 176.95 437.412 178.852 440.361 178.765C443.31 178.679 439.531 173.909 439.531 173.909Z" fill="black"/>
<path opacity="0.1" d="M451.23 220.639C451.23 220.639 448.1 222.633 454.086 227.229C460.072 231.824 451.23 220.639 451.23 220.639Z" fill="black"/>
<path opacity="0.1" d="M445.257 237.028C445.257 237.288 444.15 246.584 448.294 248.908C452.439 251.232 445.257 237.028 445.257 237.028Z" fill="black"/>
<path d="M379.454 164.175C376.112 164.284 368.894 165.244 372.637 171.816C375.946 177.632 381.508 173.744 384.637 170.795C383.874 168.045 382.018 165.676 379.454 164.175Z" fill="#FFB0B1"/>
<path opacity="0.1" d="M438.612 123.956C435.068 126.237 432.096 128.161 431.514 128.561C429.927 129.668 426.899 136.171 424.947 139.489C423.391 142.161 418.338 142.847 416.432 143.017L416.676 141.031C421.01 139.207 424.328 133.395 424.328 133.395L432.894 119.261L435.843 121.784C435.843 121.784 436.951 122.653 438.612 123.956Z" fill="black"/>
<path d="M438.612 123.696C435.068 125.976 432.096 127.901 431.514 128.305C429.927 129.408 426.899 135.911 424.947 139.229C423.391 141.901 418.338 142.587 416.432 142.756L416.676 140.771C421.01 138.947 424.328 133.135 424.328 133.135L432.894 119L435.843 121.516C435.843 121.516 436.951 122.376 438.612 123.696Z" fill="#DCE7FF"/>
<path d="M431.79 112.628C431.792 115.236 430.951 117.782 429.38 119.93C427.525 122.47 424.764 124.299 421.598 125.086C418.432 125.874 415.072 125.567 412.126 124.222C409.179 122.876 406.843 120.582 405.541 117.754C404.239 114.926 404.057 111.753 405.028 108.81C405.999 105.867 408.059 103.349 410.834 101.712C413.609 100.076 416.915 99.4307 420.153 99.8926C423.39 100.355 426.345 101.894 428.48 104.23C430.615 106.567 431.789 109.546 431.79 112.628Z" fill="#FFB0B1"/>
<path opacity="0.1" d="M455.68 155.957C453.806 154.872 452.279 153.329 451.263 151.492C450.492 150.058 449.98 148.403 448.665 147.387C447.479 146.475 445.896 146.253 444.419 145.845C439.563 144.494 435.493 140.324 435.341 135.563C435.267 133.322 436.01 131.085 435.673 128.865C435.481 127.609 434.951 126.42 434.131 125.412C433.725 124.93 433.279 124.478 432.798 124.061C432.151 123.488 431.473 122.932 430.882 122.324C430.51 121.947 430.185 121.532 429.913 121.086C429.694 120.721 429.516 120.335 429.382 119.934C428.459 117.276 429.299 114.123 428.284 111.434L428.228 111.286C427.845 110.331 427.065 109.375 425.981 109.301C424.896 109.227 423.969 110.074 422.935 110.452C420.77 111.243 418.435 109.896 416.63 108.524C414.826 107.151 412.791 105.583 410.497 105.887C408.978 106.091 407.778 107.064 406.38 107.568C406.064 107.683 405.738 107.772 405.406 107.833C406.59 105.055 408.764 102.752 411.556 101.319C414.347 99.8863 417.582 99.4132 420.704 99.9811C423.826 100.549 426.641 102.123 428.664 104.431C430.687 106.74 431.793 109.64 431.791 112.633C431.793 113.536 431.692 114.438 431.491 115.321C431.515 115.382 431.538 115.439 431.565 115.5C432.101 116.803 432.705 118.141 433.236 119.296L435.844 121.52C435.844 121.52 436.951 122.389 438.613 123.692C442.226 126.559 448.471 131.606 451.692 134.694C454.526 137.422 455.412 147.995 455.68 155.957Z" fill="black"/>
<path d="M406.218 99.632C406.878 98.3679 407.205 96.9519 407.995 95.753C409.153 94.0155 411.175 92.9035 413.251 92.2303C418.674 90.4711 430.134 87.917 433.558 92.2303C434.232 93.099 434.791 94.0633 435.723 94.6628C436.434 95.1188 437.292 95.3143 438.072 95.6575C440.255 96.6218 441.649 98.7241 442.392 100.87C443.135 103.016 443.356 105.318 443.901 107.529C444.598 110.365 445.821 113.054 447.039 115.725C448.475 118.879 449.998 122.15 452.767 124.378C456.547 127.419 457.382 131.723 460.89 135.059C465.043 139.021 464.909 145.558 462.768 150.749C462.486 151.431 462.168 152.143 462.279 152.869C462.39 153.594 462.962 154.254 463.502 154.832L465.773 157.243C460.4 158.463 454.322 155.822 451.821 151.188C451.05 149.754 450.538 148.103 449.218 147.083C448.036 146.171 446.449 145.953 444.976 145.545C440.121 144.19 436.051 140.015 435.898 135.255C435.824 133.018 436.567 130.781 436.231 128.565C436.043 127.301 435.51 126.104 434.684 125.09C433.415 123.531 431.5 122.484 430.466 120.747C428.717 117.841 430.046 114.066 428.786 110.947C428.398 109.992 427.623 109.036 426.539 108.962C425.454 108.888 424.526 109.735 423.488 110.113C421.328 110.904 418.993 109.562 417.188 108.185C415.384 106.808 413.348 105.244 411.05 105.552C409.531 105.752 408.336 106.725 406.938 107.233C405.904 107.607 403.809 107.941 402.904 107.121C400.993 105.466 405.419 101.178 406.218 99.632Z" fill="#591D4B"/>
<path opacity="0.1" d="M453.104 149.754C452.328 148.321 451.821 146.67 450.501 145.654C449.319 144.741 447.732 144.52 446.255 144.112C441.404 142.761 437.333 138.586 437.177 133.826C437.103 131.589 437.846 129.347 437.513 127.132C437.32 125.875 436.788 124.686 435.967 123.679C434.694 122.119 432.778 121.072 431.749 119.335C430 116.433 431.329 112.659 430.064 109.536C429.681 108.584 428.901 107.629 427.821 107.55C426.742 107.472 425.805 108.328 424.771 108.706C422.611 109.496 420.271 108.15 418.471 106.777C416.671 105.405 414.627 103.837 412.333 104.141C410.814 104.345 409.614 105.318 408.221 105.822C407.187 106.195 405.087 106.534 404.182 105.713C402.281 103.976 406.707 99.697 407.501 98.1594C408.161 96.891 408.488 95.4793 409.282 94.2804C409.324 94.2153 409.37 94.1501 409.416 94.085C408.822 94.5479 408.31 95.0962 407.898 95.7095C407.108 96.9084 406.781 98.3157 406.121 99.5884C405.322 101.126 400.896 105.418 402.802 107.142C403.725 107.967 405.802 107.629 406.836 107.255C408.221 106.747 409.43 105.774 410.948 105.574C413.256 105.266 415.287 106.834 417.086 108.206C418.886 109.579 421.24 110.926 423.391 110.135C424.425 109.757 425.329 108.906 426.437 108.984C427.545 109.062 428.283 110.013 428.685 110.969C429.944 114.088 428.615 117.862 430.364 120.768C431.398 122.475 433.314 123.544 434.583 125.112C435.409 126.125 435.941 127.322 436.129 128.587C436.466 130.802 435.723 133.039 435.797 135.276C435.949 140.054 440.019 144.211 444.875 145.567C446.338 145.975 447.935 146.192 449.116 147.104C450.441 148.125 450.962 149.776 451.719 151.209C454.221 155.844 460.299 158.485 465.671 157.264L464.6 156.126C459.943 156.191 455.231 153.698 453.104 149.754Z" fill="black"/>
<path opacity="0.1" d="M421.286 129.929C420.681 130.798 418.95 135.246 417.506 139.129C416.153 138.634 414.926 135.476 414.926 135.476L422.135 125.824C422.873 126.78 422.389 128.365 421.286 129.929Z" fill="black"/>
<path d="M421.563 129.669C420.958 130.538 419.228 134.986 417.783 138.869C416.431 138.378 415.203 135.216 415.203 135.216L422.412 125.568C423.151 126.52 422.666 128.109 421.563 129.669Z" fill="#DCE7FF"/>
<path d="M379.649 174.044L375.652 162.181C375.605 162.042 375.587 161.896 375.6 161.751C375.613 161.605 375.656 161.464 375.727 161.334C375.798 161.205 375.896 161.09 376.015 160.996C376.133 160.902 376.27 160.831 376.418 160.787C376.715 160.699 377.038 160.726 377.314 160.861C377.591 160.996 377.799 161.229 377.895 161.508L381.892 173.358L381.495 175.838L379.649 174.044Z" fill="#BE8B87"/>
<path opacity="0.1" d="M376.03 161.139C376.328 161.05 376.651 161.076 376.929 161.211C377.206 161.347 377.416 161.58 377.511 161.86L381.508 173.71L381.208 175.569L381.499 175.855L381.896 173.375L377.876 161.525C377.78 161.246 377.572 161.014 377.295 160.879C377.019 160.744 376.696 160.717 376.399 160.804C376.149 160.881 375.933 161.034 375.785 161.239C375.864 161.199 375.945 161.166 376.03 161.139Z" fill="white"/>
<path d="M379.648 174.044L381.891 173.375L381.564 175.408L381.495 175.855L380.839 175.212L379.648 174.044Z" fill="#EFC8C4"/>
<path d="M380.838 175.213C380.877 175.166 380.926 175.128 380.981 175.1C381.013 175.081 381.051 175.07 381.089 175.07C381.128 175.07 381.165 175.081 381.198 175.1C381.229 175.136 381.256 175.175 381.276 175.217C381.307 175.265 381.348 175.306 381.398 175.337C381.447 175.367 381.504 175.387 381.563 175.395L381.493 175.829L380.838 175.213Z" fill="#727A9C"/>
<path d="M375.629 166.395C375.629 166.395 383.646 166.351 381.758 169.561C379.87 172.771 376.921 173.158 376.921 173.158L375.629 166.395Z" fill="#FFB0B1"/>
<path d="M325.769 22.3354H325.423C311.651 22.3354 299.471 29.1942 292.466 39.315C285.46 29.1942 273.28 22.3354 259.508 22.3354H259.162C248.827 22.4281 238.948 26.356 231.672 33.2654C224.397 40.1749 220.312 49.5075 220.307 59.2353C220.307 71.3152 225.928 88.4555 236.889 102.56C257.773 129.434 292.466 152.947 292.466 152.947C292.466 152.947 327.158 129.438 348.037 102.56C359.003 88.4555 364.62 71.3152 364.62 59.2353C364.614 49.5083 360.53 40.1763 353.256 33.2669C345.981 26.3576 336.104 22.4293 325.769 22.3354ZM320.817 104.627C319.248 104.622 317.718 104.17 316.428 103.331C315.137 102.492 314.146 101.306 313.585 99.9272H305.351C304.809 99.9241 304.281 99.7616 303.842 99.4626C303.403 99.1636 303.074 98.7429 302.901 98.2593L300.371 91.0878L292.369 117.406C292.213 117.913 291.887 118.358 291.439 118.676C290.991 118.993 290.446 119.165 289.886 119.166H289.724C289.139 119.139 288.582 118.924 288.145 118.557C287.708 118.191 287.419 117.694 287.324 117.15L279.077 70.4638L273.049 98.0899C272.911 98.6147 272.59 99.0808 272.138 99.4138C271.685 99.7468 271.127 99.9276 270.553 99.9272H258.954C258.607 99.9411 258.26 99.8886 257.934 99.7729C257.609 99.6573 257.311 99.4808 257.06 99.2542C256.809 99.0275 256.609 98.7554 256.472 98.4542C256.336 98.1529 256.265 97.8288 256.265 97.5013C256.265 97.1738 256.336 96.8496 256.472 96.5484C256.609 96.2472 256.809 95.975 257.06 95.7484C257.311 95.5218 257.609 95.3453 257.934 95.2296C258.26 95.114 258.607 95.0615 258.954 95.0753H268.522L277.06 57.9322C277.2 57.383 277.539 56.8968 278.018 56.5565C278.496 56.2162 279.086 56.0431 279.686 56.0667C280.285 56.0903 280.857 56.3091 281.304 56.6859C281.752 57.0626 282.046 57.5738 282.137 58.132L290.559 105.757L297.732 82.2092C297.881 81.7133 298.197 81.2761 298.632 80.963C299.067 80.6498 299.598 80.4775 300.145 80.4717H300.196C300.738 80.4719 301.267 80.6332 301.706 80.9328C302.145 81.2323 302.473 81.6547 302.642 82.1397L307.216 95.0883H313.483C313.929 93.8142 314.74 92.6806 315.827 91.8129C316.914 90.9451 318.234 90.3768 319.642 90.1708C321.051 89.9647 322.492 90.1289 323.808 90.6452C325.123 91.1615 326.262 92.0098 327.097 93.0966C327.933 94.1833 328.433 95.4662 328.543 96.8036C328.653 98.141 328.368 99.481 327.719 100.676C327.071 101.87 326.085 102.873 324.869 103.574C323.654 104.274 322.256 104.645 320.831 104.645L320.817 104.627Z" fill="#00C9A7"/>
</g>
<defs>
<linearGradient id="paint0_linear_8814_27139" x1="164.454" y1="336.582" x2="164.454" y2="69.2954" gradientUnits="userSpaceOnUse">
<stop stop-color="#808080" stop-opacity="0.25"/>
<stop offset="0.54" stop-color="#808080" stop-opacity="0.12"/>
<stop offset="1" stop-color="#808080" stop-opacity="0.1"/>
</linearGradient>
<linearGradient id="paint1_linear_8814_27139" x1="412.337" y1="333.202" x2="412.337" y2="89.0855" gradientUnits="userSpaceOnUse">
<stop stop-color="#808080" stop-opacity="0.25"/>
<stop offset="0.54" stop-color="#808080" stop-opacity="0.12"/>
<stop offset="1" stop-color="#808080" stop-opacity="0.1"/>
</linearGradient>
<clipPath id="clip0_8814_27139">
<rect width="510" height="340" fill="white"/>
</clipPath>
</defs>
</svg>
