<svg width="267" height="700" viewBox="0 0 267 700" fill="none" xmlns="http://www.w3.org/2000/svg">
<path d="M154.668 283.085H92.207V227.96C92.207 227.96 96.6686 81.9524 251.335 81.9524C406.001 81.9524 406.001 227.96 406.001 227.96V470.809C406.001 470.809 406.001 612.346 251.335 612.346C96.6685 612.346 92.207 470.809 92.207 470.809V411.214H154.668V470.809C154.668 470.809 160.617 549.772 251.335 549.772C342.052 549.772 342.052 470.809 342.052 470.809V227.96C342.052 227.96 342.052 144.527 251.335 144.527C160.617 144.527 154.668 227.96 154.668 227.96V283.085Z" fill="#C0F6ED" fill-opacity="0.5"/>
<path d="M110.051 38.3847C203.741 -15.2511 276.614 2.98915 276.614 2.98915V62.2226C276.614 62.2226 217.127 47.6853 145.742 87.9118C74.358 128.138 63.9478 180.284 62.4613 227.598V314.011H214.153V263.355C214.153 263.355 214.153 235.048 246.871 235.048C279.589 235.048 276.614 263.355 276.614 263.355V433.2C276.614 433.2 279.589 458.528 246.871 458.528C214.153 458.528 214.153 433.2 214.153 433.2V378.075H62.4613V471.937C62.4613 471.937 68.41 554.579 133.846 600.065C199.281 645.552 276.614 639.164 276.614 639.164V699.887C276.614 699.887 150.205 705.846 75.8459 631.353C1.48717 556.859 0 471.449 0 471.449V227.598C1.48668 186.243 16.3605 92.0205 110.051 38.3847Z" fill="#C0F6ED" fill-opacity="0.5"/>
</svg>
